<svg width="256" height="122" viewBox="0 0 256 122" fill="none" xmlns="http://www.w3.org/2000/svg">
<g clip-path="url(#clip0_530_643)">
<path d="M150.67 31.84H140.45C140.87 29.4 143 27.55 145.56 27.55C148.12 27.55 150.25 29.4 150.67 31.84Z" fill="#72726F"/>
<path d="M145.56 37.92C148.426 37.92 150.75 35.5964 150.75 32.73C150.75 29.8637 148.426 27.54 145.56 27.54C142.694 27.54 140.37 29.8637 140.37 32.73C140.37 35.5964 142.694 37.92 145.56 37.92Z" stroke="#72726F" stroke-width="1.5" stroke-miterlimit="10"/>
<path d="M155.4 29.84C155.4 29.84 148.98 29.6 146.43 23.64" stroke="#72726F" stroke-width="1.5" stroke-linecap="round" stroke-linejoin="round"/>
<path d="M122.22 43.27C122.22 43.27 127.9 40.26 133.09 44.15" stroke="#72726F" stroke-width="1.5" stroke-linecap="round" stroke-linejoin="round"/>
<path d="M145.39 34.6C146.726 34.6 147.81 33.5165 147.81 32.18C147.81 30.8435 146.726 29.76 145.39 29.76C144.053 29.76 142.97 30.8435 142.97 32.18C142.97 33.5165 144.053 34.6 145.39 34.6Z" fill="#72726F"/>
<path d="M104.63 31.84H114.85C114.43 29.4 112.3 27.55 109.74 27.55C107.18 27.55 105.05 29.4 104.63 31.84Z" fill="#72726F"/>
<path d="M109.74 37.92C112.606 37.92 114.93 35.5964 114.93 32.73C114.93 29.8637 112.606 27.54 109.74 27.54C106.873 27.54 104.55 29.8637 104.55 32.73C104.55 35.5964 106.873 37.92 109.74 37.92Z" stroke="#72726F" stroke-width="1.5" stroke-miterlimit="10"/>
<path d="M99.8899 29.84C99.8899 29.84 106.31 29.6 108.86 23.64" stroke="#72726F" stroke-width="1.5" stroke-linecap="round" stroke-linejoin="round"/>
<path d="M109.91 34.6C111.247 34.6 112.33 33.5165 112.33 32.18C112.33 30.8435 111.247 29.76 109.91 29.76C108.573 29.76 107.49 30.8435 107.49 32.18C107.49 33.5165 108.573 34.6 109.91 34.6Z" fill="#72726F"/>
<path d="M44.3999 64.05H210.9C218.34 64.05 224.37 70.09 224.37 77.52V88.78H30.9299V77.52C30.9299 70.08 36.9699 64.05 44.3999 64.05Z" stroke="#72726F" stroke-width="1.5" stroke-linecap="round" stroke-linejoin="round"/>
<path d="M15.75 38.5601H30.25C30.62 38.5601 30.93 38.8601 30.93 39.2401V120.14C30.93 120.51 30.63 120.82 30.25 120.82H1.43C1.06 120.82 0.75 120.52 0.75 120.14V53.5601C0.75 45.2801 7.47 38.5601 15.75 38.5601Z" stroke="#72726F" stroke-width="1.5" stroke-linecap="round" stroke-linejoin="round"/>
<path d="M254.55 120.83H224.37V38.57H239.55C247.83 38.57 254.55 45.29 254.55 53.57V120.83Z" stroke="#72726F" stroke-width="1.5" stroke-linecap="round" stroke-linejoin="round"/>
<path d="M224.37 88.78H30.9299V120.83H224.37V88.78Z" stroke="#72726F" stroke-width="1.5" stroke-linecap="round" stroke-linejoin="round"/>
<path d="M56.3199 0.75H198.98C213 0.75 224.38 12.13 224.38 26.15V88.78H30.9299V26.15C30.9299 12.13 42.3099 0.75 56.3199 0.75Z" stroke="#72726F" stroke-width="1.5" stroke-linecap="round" stroke-linejoin="round"/>
</g>
<defs>
<clipPath id="clip0_530_643">
<rect width="255.3" height="121.57" fill="white"/>
</clipPath>
</defs>
</svg>
