<svg width="80" height="107" viewBox="0 0 80 107" fill="none" xmlns="http://www.w3.org/2000/svg">
<path d="M16.17 51.04C16.17 50.61 16.17 50.29 16.17 49.97C16.17 45.49 16.17 41.02 16.17 36.54C16.17 33.15 18.28 31.03 21.66 31.01C22.24 31.01 22.83 31.01 23.57 31.01C23.57 30.51 23.57 30.1 23.57 29.69C23.6 26.3 23.38 22.89 24.23 19.55C25.04 16.39 26.33 13.47 28.3 10.84C33.21 4.3 39.75 0.949995 47.88 0.929995C60.93 0.899995 71.67 11.52 71.92 24.58C71.96 26.67 71.92 28.75 71.92 31.01C72.65 31.01 73.29 31.01 73.93 31.01C77.19 31.03 79.34 33.16 79.33 36.43C79.33 41.43 79.25 46.42 79.25 51.42C79.25 59.06 79.31 66.69 79.33 74.33C79.33 76.56 78.39 78.23 76.37 79.24C76.02 79.41 75.64 79.6 75.27 79.61C73.26 79.65 71.25 79.63 69.16 79.63C69.4 78.69 69.63 77.78 69.9 76.69C71.07 76.69 72.3 76.69 73.53 76.69C75.58 76.69 76.27 75.99 76.27 73.92C76.29 66.96 76.32 60 76.32 53.05C76.32 47.56 76.29 42.07 76.27 36.58C76.27 34.84 75.49 34.06 73.77 34.05C56.42 34.05 39.07 34.05 21.71 34.05C19.99 34.05 19.21 34.85 19.21 36.58C19.21 40.76 19.19 44.95 19.23 49.13C19.23 49.84 19.03 50.2 18.35 50.37C17.66 50.54 16.99 50.79 16.15 51.06L16.17 51.04ZM60.31 31C60.31 28.65 60.39 26.43 60.3 24.22C60.05 18.16 54.62 12.66 48.27 12.47C41.63 12.28 36.1 17.09 35.34 23.37C35.08 25.53 35.26 27.74 35.15 29.93C35.11 30.83 35.42 31.01 36.26 31.01C43.94 30.98 51.62 30.99 59.3 31C59.59 31 59.88 31 60.31 31ZM68.86 30.99C68.86 28.59 68.92 26.37 68.86 24.15C68.46 11.59 56.55 2.01001 44.18 4.27001C39.22 5.18001 35.09 7.54 31.76 11.33C29.85 13.5 28.51 15.98 27.63 18.69C26.35 22.62 26.66 26.69 26.73 30.74C26.73 30.79 26.8 30.84 26.85 30.92H32.15C32.15 29.02 32.15 27.19 32.15 25.37C32.15 20.21 34.14 16.02 38.21 12.81C43.36 8.75 49.86 8.35 55.37 11.45C60.59 14.38 63.26 18.99 63.4 25.01C63.44 26.74 63.39 28.47 63.43 30.2C63.43 30.46 63.72 30.94 63.89 30.94C65.51 31 67.14 30.97 68.87 30.97L68.86 30.99Z" fill="#17CA89"/>
<path d="M34.19 97.23C31.34 96.91 28.48 96.63 25.63 96.26C25 96.18 24.64 96.24 24.23 96.77C21.1 100.8 17.33 104.04 12.32 105.45C10.46 105.98 8.47003 106.1 6.53003 106.27C5.42003 106.37 4.85004 105.8 4.74004 104.87C4.63004 103.98 5.12004 103.39 6.13004 103.03C9.86004 101.74 12.19 99.14 13.01 95.29C13.43 93.33 12.77 91.72 11.02 90.56C6.91004 87.82 3.57004 84.36 1.82004 79.66C-0.66996 72.95 0.870039 66.95 5.35004 61.57C7.83004 58.59 10.93 56.4 14.37 54.65C22.91 50.31 31.94 49.21 41.33 50.57C47.8 51.51 53.8 53.71 59.04 57.72C62.38 60.28 65.14 63.36 66.63 67.37C69.15 74.13 67.6 80.16 63.08 85.54C60.24 88.92 56.66 91.33 52.63 93.14C46.76 95.77 40.62 97.06 34.18 97.23H34.19ZM13.2 101.65C13.24 101.7 13.29 101.75 13.33 101.8C13.85 101.55 14.38 101.33 14.88 101.06C18.15 99.31 20.7 96.76 22.81 93.76C23.22 93.17 23.65 92.66 24.47 92.82C25.4 92.99 26.32 93.18 27.25 93.33C31.07 93.98 34.91 94.04 38.76 93.68C42.47 93.33 46.09 92.51 49.58 91.16C53.84 89.51 57.7 87.25 60.78 83.83C65.68 78.37 66.39 71.66 62.68 65.78C60.44 62.23 57.3 59.62 53.59 57.78C41.85 51.99 29.85 51.72 17.71 56.43C13.45 58.08 9.71004 60.58 6.88004 64.24C3.08004 69.15 2.25004 74.46 5.13004 80.1C6.82004 83.41 9.46003 85.89 12.54 87.9C14.24 89.02 15.31 90.57 15.71 92.55C16.31 95.55 15.42 98.23 13.82 100.73C13.62 101.04 13.4 101.35 13.19 101.66L13.2 101.65Z" fill="#17CA89"/>
<path d="M34.19 59.06C38.98 59.13 42.78 62.96 42.76 67.71C42.76 69.67 41.85 71.2 40.55 72.57C39.34 73.84 38.08 75.08 36.98 76.44C36.17 77.45 35.87 78.7 35.91 80.03C35.95 81.31 35.31 82.06 34.31 82.04C33.32 82.02 32.78 81.28 32.74 79.98C32.64 76.92 34.03 74.51 36.07 72.4C36.61 71.84 37.23 71.35 37.8 70.81C40.53 68.24 39.84 64.31 36.4 62.75C32.93 61.18 29.03 63.43 28.65 67.23C28.64 67.36 28.65 67.49 28.63 67.62C28.54 68.66 27.87 69.33 26.96 69.28C26.03 69.23 25.47 68.54 25.46 67.45C25.45 62.86 29.47 58.99 34.17 59.05L34.19 59.06Z" fill="#17CA89"/>
<path d="M34.3 88.37C33.22 88.37 32.36 87.53 32.38 86.46C32.4 85.42 33.21 84.6 34.24 84.57C35.32 84.54 36.19 85.38 36.21 86.45C36.23 87.54 35.41 88.36 34.3 88.37Z" fill="#17CA89"/>
</svg>
