<svg width="25" height="22" viewBox="0 0 25 22" fill="none" xmlns="http://www.w3.org/2000/svg">
<path d="M5.50999 5.41002C4.07999 3.99002 2.67999 2.61002 1.24999 1.19002C1.54999 0.920018 1.77999 0.70002 1.97999 0.52002C8.85999 7.40002 15.78 14.31 22.74 21.26C22.54 21.42 22.31 21.62 22.02 21.86C21.91 21.75 21.74 21.61 21.59 21.45C20.37 20.23 19.14 19.01 17.93 17.78C17.68 17.52 17.49 17.47 17.14 17.63C13.04 19.55 9.09999 19.15 5.32999 16.74C3.28999 15.43 1.63999 13.71 0.229993 11.75C-0.100007 11.29 -0.0500073 10.97 0.259993 10.54C1.58999 8.68002 3.16999 7.06002 5.04999 5.76002C5.19999 5.66002 5.33999 5.54002 5.50999 5.42002V5.41002ZM1.19999 11.12C5.31999 17.13 11.63 19.29 16.63 16.6C16.26 16.2 15.88 15.81 15.51 15.42C13.1 17.09 10.43 17.04 8.43999 15.31C6.24999 13.41 6.01999 10.95 7.69999 7.69002C7.24999 7.21002 6.80999 6.74002 6.33999 6.24002C4.26999 7.49002 2.60999 9.15002 1.19999 11.12ZM14.6 14.67C12.56 12.63 10.53 10.61 8.51999 8.59002C7.23999 10.11 7.36999 12.6 8.85999 14.17C10.41 15.79 12.91 15.99 14.6 14.66V14.67Z" fill="#ACACAC"/>
<path d="M8.25999 5.27C8.11999 4.91 8.00999 4.62 7.87999 4.27C9.45999 3.65 11.05 3.38001 12.71 3.50001C16.48 3.76001 19.43 5.64 21.95 8.3C22.68 9.07 23.3 9.93001 23.93 10.78C24.04 10.93 24.08 11.26 24 11.43C23.27 12.82 20.88 15.3 19.42 16.22C19.23 15.96 19.04 15.7 18.82 15.39C19.32 14.96 19.84 14.58 20.27 14.13C21.07 13.29 21.84 12.42 22.6 11.53C22.72 11.39 22.77 11.03 22.68 10.91C20.45 7.91 17.74 5.58001 13.96 4.78001C12.12 4.39001 10.32 4.59 8.54999 5.2C8.47999 5.23 8.39999 5.24001 8.25999 5.28001V5.27Z" fill="#ACACAC"/>
<path d="M16.97 13.44C16.66 13.29 16.38 13.16 16.05 13.01C16.72 11.17 16.53 9.47002 15.12 8.06002C13.72 6.66002 12.04 6.48003 10.19 7.14003C10.04 6.83003 9.89999 6.54003 9.75999 6.25003C11.4 5.20003 14.1 5.61002 15.74 7.12002C17.5 8.74002 18.04 11.43 16.97 13.44Z" fill="#ACACAC"/>
</svg>
