<svg width="31" height="32" viewBox="0 0 31 32" fill="none" xmlns="http://www.w3.org/2000/svg">
<path d="M25.9497 4.33999C24.4797 5.78999 23.0397 7.20999 21.5297 8.69999C21.4697 8.65999 21.2997 8.53999 21.1297 8.42999C17.9897 6.24999 13.9497 6.25999 10.8197 8.43999C7.74972 10.58 6.29972 14.5 7.30972 18.15C9.36972 25.59 17.9397 26.33 21.9097 22.9C23.0997 21.87 23.8497 20.58 24.1897 18.93H16.0697V13.08C16.3097 13.07 16.5297 13.05 16.7597 13.05C21.0197 13.05 25.2797 13.05 29.5297 13.04C30.0597 13.04 30.2797 13.17 30.3597 13.71C31.5997 22.1 26.5197 30.26 17.1797 30.98C8.19972 31.67 0.629724 24.62 0.819724 15.62C0.949724 9.39999 3.90973 4.71999 9.54973 2.07999C15.2097 -0.570015 20.6397 0.229985 25.6097 4.03998C25.7397 4.13998 25.8497 4.25998 25.9497 4.35998V4.33999Z" fill="#222222"/>
</svg>
