<svg width="25" height="17" viewBox="0 0 25 17" fill="none" xmlns="http://www.w3.org/2000/svg">
<path d="M12.05 16.17C8.61 16.01 5.73 14.63 3.28 12.34C2.13 11.27 1.18 9.99003 0.17 8.78003C0.0500003 8.63003 0.0100003 8.24003 0.12 8.09003C2.53 4.59003 5.54 1.87003 9.83 0.950034C13.15 0.240034 16.18 1.08003 18.96 2.94003C20.96 4.28003 22.61 5.97003 23.94 7.97003C24.06 8.16003 24.11 8.56003 23.99 8.73003C21.77 11.97 18.98 14.52 15.11 15.63C14.12 15.91 13.07 16 12.05 16.18V16.17ZM22.93 8.41003C21.81 6.81003 20.52 5.43003 18.99 4.30003C16.19 2.23003 13.11 1.25003 9.65 2.11003C6.1 3.00003 3.53 5.28003 1.41 8.14003C1.32 8.26003 1.36 8.58003 1.47 8.72003C2.9 10.67 4.62 12.32 6.75 13.51C8.73 14.61 10.84 15.18 13.11 14.9C17.45 14.37 20.4 11.73 22.94 8.41003H22.93Z" fill="#ACACAC"/>
<path d="M12.08 13.8601C9.04 13.8701 6.6 11.4401 6.59 8.40005C6.59 5.36005 9.01 2.91006 12.05 2.90006C15.1 2.89006 17.52 5.32006 17.54 8.43006C17.56 11.4001 15.1 13.8501 12.09 13.8601H12.08ZM12.04 12.7601C14.45 12.8001 16.42 10.8401 16.45 8.37006C16.48 6.03006 14.52 4.04006 12.15 3.99006C9.73 3.94006 7.71 5.90005 7.68 8.32006C7.64 10.7401 9.59 12.7101 12.05 12.7501L12.04 12.7601Z" fill="#ACACAC"/>
<path d="M13.7 8.36005C13.72 9.26005 13.02 10.0001 12.11 10.0201C11.18 10.0501 10.42 9.33005 10.41 8.41005C10.39 7.51005 11.16 6.74005 12.07 6.74005C12.96 6.74005 13.69 7.46005 13.7 8.36005Z" fill="#ACACAC"/>
</svg>
