<svg width="20" height="15" viewBox="0 0 20 15" fill="none" xmlns="http://www.w3.org/2000/svg">
<path d="M10.32 14C7.71001 14 5.10001 14 2.48001 14C1.58001 14 0.950012 13.4 0.950012 12.49C0.950012 9.25001 0.950012 6.01001 0.950012 2.77001C0.950012 1.84001 1.59001 1.21 2.56001 1.2C3.37001 1.19 4.17001 1.2 4.98001 1.2C9.30001 1.2 13.62 1.2 17.94 1.2C19.19 1.2 19.75 1.75999 19.75 2.99999C19.75 6.16999 19.75 9.34 19.75 12.51C19.75 13.37 19.16 13.99 18.28 14C17.22 14.02 16.17 14 15.11 14C13.51 14 11.9 14 10.3 14H10.32ZM1.66001 1.83001C1.75001 1.95001 1.77001 1.99001 1.80001 2.02001C4.51001 4.70001 7.22001 7.37999 9.93001 10.06C10.32 10.44 10.59 10.42 10.99 10.02C13.6 7.39001 16.21 4.76 18.82 2.14C18.89 2.07 18.95 1.99001 19.09 1.83001C18.75 1.74001 18.49 1.59999 18.23 1.59999C12.98 1.58999 7.73001 1.58999 2.48001 1.59999C2.22001 1.59999 1.96001 1.75002 1.65001 1.84002L1.66001 1.83001ZM19.07 13.29C17.25 11.5 15.45 9.71999 13.67 7.96999C12.92 8.69999 12.11 9.48001 11.3 10.27C10.69 10.86 10.21 10.87 9.61001 10.28C8.85001 9.53999 8.11001 8.80001 7.35001 8.05001C7.28001 7.98001 7.20001 7.92001 7.10001 7.83001C5.29001 9.67001 3.49001 11.5 1.63001 13.4C1.94001 13.48 2.22001 13.6 2.51001 13.61C4.75001 13.63 7.00001 13.61 9.24001 13.61C12.16 13.61 15.08 13.61 18 13.61C18.38 13.61 18.76 13.58 19.06 13.28L19.07 13.29ZM1.38001 12.89C1.38001 12.89 1.44001 12.91 1.47001 12.92C3.23001 11.12 5.00001 9.31999 6.64001 7.62999C4.94001 5.87999 3.19001 4.07 1.38001 2.2V12.89ZM13.97 7.55999C15.75 9.39999 17.49 11.2 19.23 13L19.34 12.89C19.46 12.2 19.39 2.56 19.3 2.36C17.54 4.08 15.76 5.81999 13.98 7.55999H13.97Z" fill="#17CA89" stroke="#17CA89" stroke-width="0.4" stroke-miterlimit="10"/>
</svg>
