<svg width="33" height="41" viewBox="0 0 33 41" fill="none" xmlns="http://www.w3.org/2000/svg">
<path d="M31.3197 13.53C25.5397 17.54 25.4897 25.69 32.3897 29.38C31.1097 33.03 29.2797 36.34 26.2797 38.88C24.8697 40.08 23.0997 40.31 21.4697 39.5C18.3897 37.97 15.4497 37.99 12.3697 39.51C10.5397 40.41 8.64966 40.06 7.25967 38.59C1.67967 32.73 -1.18034 25.87 0.459665 17.68C1.35966 13.22 4.75967 10.24 9.16967 9.74999C10.3397 9.61999 11.6997 9.77999 12.7497 10.28C15.2497 11.48 17.5097 11.35 20.0597 10.29C24.1597 8.57999 28.2197 9.74999 30.9597 12.99C31.0797 13.13 31.1597 13.29 31.3197 13.53Z" fill="#222222"/>
<path d="M16.1797 9.11C15.6597 4.69 19.6397 0.13 24.0197 0C25.0097 4.2 20.5797 9.41 16.1797 9.11Z" fill="#222222"/>
</svg>
