<svg width="100" height="103" viewBox="0 0 100 103" fill="none" xmlns="http://www.w3.org/2000/svg">
<path d="M73.58 59.51C73.58 55.76 73.63 52.02 73.64 48.27C73.64 45.82 72.03 44.23 69.59 44.21C69.11 44.21 68.63 44.21 68.08 44.21C68.08 42.52 68.11 40.96 68.08 39.39C67.89 29.61 59.84 21.64 50.06 21.67C43.96 21.69 39.06 24.2 35.38 29.1C33.9 31.07 32.93 33.26 32.33 35.63C31.69 38.13 31.85 40.69 31.83 43.23C31.83 43.54 31.83 43.84 31.83 44.22C31.27 44.22 30.84 44.22 30.4 44.22C27.86 44.24 26.28 45.83 26.28 48.37C26.28 51.09 26.28 53.8 26.28 56.52V77.82C26.28 79.39 27.55 80.67 29.13 80.67H67.17C67.64 80.67 68.12 80.67 68.58 80.67H68.84C69.42 80.67 70.01 80.67 70.59 80.66C70.87 80.66 71.16 80.51 71.42 80.38C72.93 79.62 73.64 78.37 73.64 76.7C73.62 70.98 73.59 65.25 73.58 59.53V59.51ZM34.85 34.99C35.51 32.96 36.52 31.1 37.95 29.47C40.45 26.63 43.54 24.86 47.26 24.18C56.53 22.48 65.46 29.67 65.76 39.08C65.81 40.74 65.76 42.4 65.76 44.2C64.46 44.2 63.24 44.22 62.03 44.17C61.9 44.17 61.69 43.81 61.68 43.61C61.65 42.31 61.68 41.01 61.66 39.72C61.56 35.21 59.56 31.75 55.64 29.55C51.5 27.23 46.63 27.53 42.78 30.57C39.73 32.97 38.25 36.12 38.24 39.98C38.24 41.35 38.24 42.71 38.24 44.14H34.26C34.22 44.08 34.17 44.05 34.17 44.01C34.12 40.98 33.88 37.93 34.84 34.98L34.85 34.99ZM40.64 38.5C41.21 33.79 45.36 30.19 50.33 30.33C55.09 30.47 59.15 34.59 59.34 39.13C59.41 40.79 59.35 42.45 59.35 44.21C59.03 44.21 58.81 44.21 58.6 44.21C52.84 44.21 47.09 44.2 41.33 44.22C40.7 44.22 40.46 44.08 40.5 43.41C40.58 41.77 40.44 40.11 40.64 38.5ZM71.34 76.37C71.34 77.93 70.82 78.45 69.28 78.45C69.13 78.45 68.98 78.45 68.83 78.45V78.42H30.61C29.48 78.42 28.57 77.51 28.57 76.38L28.52 58.21C28.56 58.09 28.58 57.95 28.58 57.78C28.55 54.65 28.56 51.51 28.57 48.38C28.57 47.08 29.16 46.49 30.45 46.49C43.46 46.49 56.46 46.49 69.47 46.49C70.76 46.49 71.34 47.08 71.35 48.38C71.36 52.49 71.39 56.61 71.39 60.72C71.39 65.94 71.37 71.15 71.35 76.37H71.34Z" fill="#17CA89"/>
<path d="M3.68006 46.28C3.06006 46.28 2.56006 45.78 2.56006 45.16C2.56006 32.62 7.50005 21.1 16.4701 12.73C25.2701 4.52 37.1701 0 49.9601 0C75.6101 0 95.9601 18.28 97.3001 42.53C97.3301 43.15 96.8601 43.68 96.2401 43.72C95.5901 43.75 95.0901 43.28 95.0501 42.66C93.7801 19.63 74.3901 2.26 49.9601 2.26C37.7301 2.26 26.3801 6.57 18.0001 14.39C9.49005 22.33 4.80006 33.26 4.80006 45.17C4.80006 45.79 4.30006 46.29 3.68006 46.29V46.28Z" fill="#17CA89"/>
<path d="M94.2301 40.13L95.3101 41.15C95.7701 41.58 96.4901 41.56 96.9301 41.1L97.9501 40.02C98.6501 39.28 99.9001 39.75 99.9301 40.77C99.9301 41.07 99.8301 41.37 99.6201 41.59L97.0401 44.34C96.6101 44.8 95.8801 44.82 95.4201 44.39L92.6701 41.81C92.4501 41.6 92.3201 41.32 92.3101 41.01C92.2801 39.99 93.4901 39.44 94.2401 40.14L94.2301 40.13Z" fill="#17CA89"/>
<path d="M49.96 102.31C24.31 102.31 3.96001 84.03 2.62001 59.78C2.59001 59.16 3.06002 58.63 3.68002 58.59C4.30002 58.56 4.83001 59.03 4.87001 59.65C6.14001 82.68 25.53 100.05 49.96 100.05C62.19 100.05 73.54 95.74 81.92 87.92C90.43 79.98 95.12 69.05 95.12 57.14C95.12 56.52 95.62 56.02 96.24 56.02C96.86 56.02 97.36 56.52 97.36 57.14C97.36 69.68 92.42 81.2 83.45 89.57C74.65 97.78 62.75 102.3 49.96 102.3V102.31Z" fill="#17CA89"/>
<path d="M5.7 62.18L4.62 61.16C4.16 60.73 3.43 60.75 3 61.21L1.98 62.29C1.28 63.03 0.03 62.56 0 61.54C0 61.24 0.0999976 60.94 0.309998 60.72L2.89 57.97C3.32 57.51 4.04999 57.49 4.50999 57.92L7.26 60.5C7.48 60.71 7.61 60.99 7.62 61.3C7.65 62.32 6.43999 62.87 5.68999 62.17L5.7 62.18Z" fill="#17CA89"/>
</svg>
