<svg width="105" height="109" viewBox="0 0 105 109" fill="none" xmlns="http://www.w3.org/2000/svg">
<g clip-path="url(#clip0_470_215)">
<path d="M15.55 43.18C16.27 42.37 16.87 41.38 17.73 40.77C25.43 35.27 33.19 29.83 40.92 24.37C43.38 22.64 45.84 20.9 48.28 19.15C50.63 17.47 52.7201 16.97 55.5401 18.97C65.9901 26.42 76.51 33.76 87.01 41.15C88.1301 41.94 88.62 43 88.62 44.39C88.59 56.24 88.61 68.09 88.6 79.94C88.6 82.83 86.91 84.55 84.04 84.55C62.75 84.55 41.46 84.55 20.17 84.56C17.78 84.56 16.32 83.42 15.55 81.24C15.55 68.55 15.55 55.86 15.55 43.17V43.18ZM84.28 43.07C83.72 42.67 83.28 42.35 82.84 42.03C73.13 35.18 63.41 28.33 53.7001 21.47C52.3 20.48 51.85 20.47 50.41 21.48C43.71 26.2 37.01 30.92 30.31 35.65C26.85 38.09 23.4 40.54 19.85 43.06C28.18 48.94 36.43 54.76 44.71 60.61C46.11 59.63 47.46 58.67 48.82 57.71C51.1301 56.08 53.07 56.09 55.3801 57.74C56.73 58.7 58.08 59.65 59.44 60.61C67.73 54.76 75.95 48.96 84.29 43.06L84.28 43.07ZM83.32 81.41C82.98 81.12 82.8 80.93 82.6 80.78C72.96 73.97 63.32 67.17 53.68 60.37C52.19 59.32 51.95 59.33 50.42 60.41C40.78 67.21 31.14 74.02 21.5 80.82C21.3 80.96 21.14 81.14 20.84 81.41H83.32ZM85.48 46.05C77.59 51.62 69.91 57.04 62.1301 62.53C69.9401 68.04 77.62 73.46 85.48 79V46.04V46.05ZM42.01 62.53C34.22 57.03 26.52 51.6 18.71 46.08V78.97C26.55 73.44 34.22 68.02 42.01 62.52V62.53Z" fill="#17CA89"/>
<path d="M53.03 0H51.13V6.84H53.03V0Z" fill="#17CA89"/>
<path d="M83.3071 9.83354L79.2876 15.3679L80.8249 16.4844L84.8444 10.9501L83.3071 9.83354Z" fill="#17CA89"/>
<path d="M103.568 36.717L97.073 38.8287L97.6604 40.6356L104.156 38.5239L103.568 36.717Z" fill="#17CA89"/>
<path d="M97.6675 68.2696L97.0801 70.0765L103.575 72.1883L104.163 70.3814L97.6675 68.2696Z" fill="#17CA89"/>
<path d="M80.833 92.4024L79.2959 93.5192L83.3164 99.0529L84.8535 97.9361L80.833 92.4024Z" fill="#17CA89"/>
<path d="M53.03 102.05H51.13V108.89H53.03V102.05Z" fill="#17CA89"/>
<path d="M23.3268 92.3982L19.3054 97.9312L20.8424 99.0483L24.8638 93.5153L23.3268 92.3982Z" fill="#17CA89"/>
<path d="M6.5039 68.2638L0.0078125 70.3733L0.59463 72.1804L7.09071 70.0709L6.5039 68.2638Z" fill="#17CA89"/>
<path d="M0.580612 36.7218L-0.00683594 38.5287L6.48851 40.6404L7.07596 38.8335L0.580612 36.7218Z" fill="#17CA89"/>
<path d="M20.8426 9.84121L19.3054 10.958L23.3259 16.4917L24.863 15.3749L20.8426 9.84121Z" fill="#17CA89"/>
</g>
<defs>
<clipPath id="clip0_470_215">
<rect width="104.15" height="108.89" fill="white"/>
</clipPath>
</defs>
</svg>
