<svg width="15" height="16" viewBox="0 0 15 16" fill="none" xmlns="http://www.w3.org/2000/svg">
<path d="M1.71999 15.29C1.16999 15.09 0.709994 14.63 0.399994 13.91V13.22L0.459991 13.08C0.529991 12.92 0.599994 12.76 0.649994 12.59C1.62999 9.74 4.30999 7.80999 7.32999 7.79999C10.36 7.79999 13.06 9.69998 14.06 12.51C14.54 13.86 14.34 14.45 13.07 15.28H1.70999L1.71999 15.29ZM7.35999 8.54999C4.57999 8.54999 2.07999 10.39 1.29999 13.01C1.14999 13.51 1.16999 13.88 1.36999 14.15C1.56999 14.41 1.90999 14.54 2.43999 14.54H12.26C12.61 14.54 13.11 14.5 13.38 14.14C13.64 13.79 13.54 13.31 13.44 12.99C12.64 10.38 10.15 8.55997 7.37 8.55997L7.35999 8.54999Z" fill="#17CA89"/>
<path d="M6.74019 7.47C5.74019 7.47 4.80019 7.08 4.09019 6.37C3.38019 5.66 2.99019 4.72 3.00019 3.72C3.00019 1.67 4.68019 0 6.74019 0C8.80019 0 10.4702 1.67 10.4802 3.72C10.4802 5.78 8.82019 7.45998 6.77019 7.47998H6.74019V7.47ZM6.71019 0.73999C5.06019 0.74999 3.73019 2.1 3.74019 3.75C3.74019 5.39 5.09019 6.72 6.73019 6.72C8.40019 6.71 9.73019 5.35998 9.72019 3.69998C9.71019 2.05998 8.37019 0.72998 6.73019 0.72998H6.71019V0.73999Z" fill="#17CA89"/>
</svg>
