<svg width="15" height="21" viewBox="0 0 15 21" fill="none" xmlns="http://www.w3.org/2000/svg">
<path d="M3.29998 20.47C1.47998 20.47 0.109985 19.09 0.109985 17.28C0.109985 15.05 0.109985 12.82 0.109985 10.59C0.109985 9.53003 0.609986 8.91001 1.64999 8.70001C2.00999 8.62001 2.15998 8.43 2.15998 8.06C2.14998 7.25 2.15998 6.44 2.15998 5.63C2.17998 2.96 4.26998 0.75 7.01998 0.5C7.15998 0.49 7.28999 0.480042 7.42999 0.480042C9.85999 0.480042 12.07 2.31998 12.46 4.66998C12.6 5.48998 12.58 6.36 12.57 7.19V7.90002C12.57 8.34002 12.67 8.63004 13.23 8.73004C14.06 8.88004 14.61 9.58003 14.61 10.47C14.61 12.77 14.61 15.08 14.61 17.38C14.61 19.06 13.22 20.45 11.53 20.47C10.99 20.47 10.45 20.47 9.90999 20.47H3.28999H3.29998ZM2.16998 9.59003C1.32998 9.59003 0.999985 9.90999 0.999985 10.74V10.99C0.999985 13.02 0.989985 15.05 0.999985 17.08C1.00998 18.62 1.94998 19.54 3.50998 19.55H11.22C12.78 19.55 13.71 18.62 13.71 17.07C13.71 14.97 13.71 12.88 13.71 10.78C13.71 9.92003 13.39 9.60003 12.53 9.59003H4.28999H2.15998H2.16998ZM7.34998 1.41003C5.52998 1.41003 3.90999 2.56999 3.30999 4.29999C2.98999 5.22999 3.01999 6.18003 3.03999 7.09003C3.04999 7.52003 3.05999 7.93999 3.03999 8.35999V8.51001L3.20998 8.57001L3.42999 8.63H7.29999C8.58999 8.63 9.87998 8.63 11.18 8.63C11.4 8.63 11.65 8.31999 11.66 8.12V7.89001C11.68 7.09001 11.7 6.26001 11.65 5.45001C11.52 3.38001 9.97999 1.73001 7.89999 1.45001C7.70999 1.42001 7.52998 1.41003 7.33998 1.41003H7.34998Z" fill="#17CA89"/>
</svg>
