<svg width="17" height="35" viewBox="0 0 17 35" fill="none" xmlns="http://www.w3.org/2000/svg">
<path d="M4.36968 34.02V17.42H0.979675V11.75H4.37967C4.37967 10.32 4.35967 8.97998 4.37967 7.64998C4.39967 6.84998 4.42967 6.03998 4.59967 5.26998C5.12967 2.90998 6.82968 1.48998 9.47968 1.09998C10.0797 1.00998 10.6797 0.94998 11.2797 0.93998C12.8897 0.91998 14.4897 0.93998 16.1597 0.93998V6.74998C15.1097 6.74998 14.0297 6.74998 12.9597 6.74998C11.3397 6.74998 11.0697 7.01998 11.0597 8.64998C11.0597 9.64998 11.0597 10.64 11.0597 11.73H16.2097C16.0497 13.63 15.8897 15.44 15.7297 17.33H11.0897V34.03H4.36968V34.02Z" fill="#222222"/>
</svg>
