<svg width="20" height="20" viewBox="0 0 20 20" fill="none" xmlns="http://www.w3.org/2000/svg">
<path fill-rule="evenodd" clip-rule="evenodd" d="M13.3332 1.45833V2.5H17.7082C17.8739 2.5 18.0329 2.56585 18.1501 2.68306C18.2673 2.80027 18.3332 2.95924 18.3332 3.125C18.3332 3.29076 18.2673 3.44973 18.1501 3.56694C18.0329 3.68415 17.8739 3.75 17.7082 3.75H2.2915C2.12574 3.75 1.96677 3.68415 1.84956 3.56694C1.73235 3.44973 1.6665 3.29076 1.6665 3.125C1.6665 2.95924 1.73235 2.80027 1.84956 2.68306C1.96677 2.56585 2.12574 2.5 2.2915 2.5H6.6665V1.45833C6.6665 0.653333 7.31984 0 8.12484 0H11.8748C12.6798 0 13.3332 0.653333 13.3332 1.45833ZM7.9165 1.45833C7.9165 1.40308 7.93845 1.35009 7.97752 1.31102C8.01659 1.27195 8.06958 1.25 8.12484 1.25H11.8748C11.9301 1.25 11.9831 1.27195 12.0222 1.31102C12.0612 1.35009 12.0832 1.40308 12.0832 1.45833V2.5H7.9165V1.45833Z" fill="#DA1212"/>
<path d="M4.16417 5.14835C4.15705 5.06607 4.13369 4.98602 4.09544 4.91282C4.05719 4.83962 4.00481 4.77472 3.94133 4.72189C3.87785 4.66906 3.80453 4.62933 3.7256 4.605C3.64667 4.58067 3.56371 4.57223 3.4815 4.58016C3.39929 4.58809 3.31947 4.61223 3.24665 4.65119C3.17383 4.69016 3.10945 4.74317 3.05724 4.80716C3.00503 4.87115 2.96602 4.94486 2.94246 5.02402C2.91891 5.10318 2.91127 5.18622 2.92001 5.26835L4.09667 17.4334C4.13187 17.7939 4.30001 18.1285 4.56836 18.3719C4.83671 18.6153 5.18605 18.7501 5.54834 18.75H14.4517C14.8141 18.7501 15.1635 18.6151 15.4319 18.3716C15.7003 18.128 15.8683 17.7932 15.9033 17.4325L17.0808 5.26835C17.0968 5.10325 17.0464 4.9386 16.9409 4.8106C16.8354 4.68261 16.6834 4.60177 16.5183 4.58585C16.3532 4.56994 16.1886 4.62026 16.0606 4.72575C15.9326 4.83124 15.8518 4.98325 15.8358 5.14835L14.6592 17.3117C14.6542 17.3633 14.6302 17.4111 14.5918 17.446C14.5535 17.4808 14.5035 17.5001 14.4517 17.5H5.54834C5.49653 17.5001 5.44656 17.4808 5.40819 17.446C5.36983 17.4111 5.34581 17.3633 5.34084 17.3117L4.16417 5.14835Z" fill="#DA1212"/>
<path d="M7.67145 6.25088C7.75343 6.24603 7.83555 6.25739 7.91314 6.2843C7.99072 6.3112 8.06224 6.35313 8.12361 6.40769C8.18498 6.46225 8.235 6.52837 8.27081 6.60227C8.30661 6.67617 8.3275 6.75641 8.33229 6.83838L8.74895 13.9217C8.75868 14.0874 8.7022 14.2501 8.59195 14.3741C8.48169 14.4981 8.32669 14.5732 8.16104 14.583C7.99539 14.5927 7.83266 14.5362 7.70865 14.426C7.58464 14.3157 7.50951 14.1607 7.49979 13.995L7.08312 6.91172C7.07827 6.82974 7.08963 6.74762 7.11653 6.67003C7.14344 6.59245 7.18537 6.52093 7.23993 6.45956C7.29449 6.39819 7.36061 6.34817 7.43451 6.31236C7.50841 6.27656 7.58864 6.25567 7.67062 6.25088H7.67145ZM12.9156 6.91172C12.9253 6.74607 12.8689 6.58334 12.7586 6.45933C12.6484 6.33532 12.4934 6.26019 12.3277 6.25047C12.1621 6.24074 11.9993 6.29722 11.8753 6.40747C11.7513 6.51773 11.6762 6.67273 11.6665 6.83838L11.2498 13.9217C11.2401 14.0873 11.2965 14.2499 11.4067 14.3738C11.5169 14.4977 11.6717 14.5728 11.8373 14.5826C12.0028 14.5923 12.1654 14.5358 12.2894 14.4257C12.4133 14.3155 12.4884 14.1606 12.4981 13.995L12.9148 6.91172H12.9156Z" fill="#DA1212"/>
</svg>
