<svg width="25" height="18" viewBox="0 0 25 18" fill="none" xmlns="http://www.w3.org/2000/svg">
<path d="M4.02649 1.27492C4.33282 1.27492 4.62697 1.27492 4.92131 1.27492C6.3887 1.27492 7.85609 1.27492 9.32348 1.27473C9.54626 1.27473 9.76922 1.27669 9.9918 1.27237C10.029 1.27159 10.076 1.25373 10.1011 1.22743C10.7653 0.530375 11.622 0.24955 12.5396 0.0998169C13.1468 0.000714013 13.7581 -0.0222464 14.371 0.0205346C15.2516 0.082155 16.1069 0.256223 16.9158 0.622216C17.3738 0.829449 17.852 0.973492 18.3429 1.07534C19.1506 1.24274 19.9684 1.30691 20.7924 1.29749C20.8447 1.2969 20.8972 1.29572 20.9495 1.29415C20.9554 1.29415 20.9609 1.28964 20.9765 1.28336C20.9765 1.0461 20.9765 0.805115 20.9765 0.564128C20.9765 0.212853 21.1772 0.00758253 21.5276 0.00738629C22.4319 0.00719004 23.3363 0.00915248 24.2406 0.00993745C24.3159 0.00993745 24.3912 0.00660131 24.4665 0.00660131C24.7813 0.00660131 24.9919 0.210498 24.9988 0.523114C25.0011 0.634187 24.9994 0.745457 24.9994 0.856531C24.9994 2.61938 24.9994 4.38204 24.9994 6.14489C24.9994 7.23699 24.9994 8.32928 24.9994 9.42137C24.9994 9.93474 24.9994 10.4481 24.9974 10.9615C24.9964 11.2517 24.7852 11.4621 24.494 11.4623C23.5011 11.4633 22.5084 11.4627 21.5154 11.4627C21.2252 11.4627 21.0508 11.3257 20.9822 11.0439C20.9792 11.0317 20.9759 11.0196 20.9729 11.0088C20.7547 11.2529 20.5374 11.4957 20.3115 11.7484C20.6735 12.3058 20.7724 12.9171 20.5089 13.5584C20.249 14.1911 19.8148 14.6214 19.0865 14.6768C19.0132 15.3232 18.7069 15.8146 18.1154 16.0987C17.5222 16.3837 16.9481 16.3113 16.3975 15.9633C16.3449 16.0652 16.2996 16.1735 16.2369 16.2707C15.9768 16.6733 15.592 16.8831 15.1272 16.9528C14.5825 17.0344 14.0898 16.8939 13.6417 16.5825C13.6203 16.5676 13.5984 16.5534 13.5752 16.5377C13.4899 16.6107 13.4099 16.6875 13.3216 16.7534C13.0111 16.9856 12.6537 17.0961 12.273 17.1292C11.3241 17.212 10.4938 16.9157 9.78495 16.2966C8.65851 15.3126 7.54543 14.3137 6.42665 13.3209C5.63859 12.6217 4.85073 11.9223 4.06286 11.2229C4.04104 11.2037 4.01843 11.1854 4.00191 11.1715C3.93584 11.2419 3.88256 11.3273 3.80568 11.3728C3.72251 11.4221 3.61732 11.458 3.52156 11.4586C2.51564 11.4645 1.50953 11.4629 0.503612 11.4617C0.222836 11.4613 0.00143927 11.2482 0.00124265 10.9662C0.000259541 9.84447 0.00537171 8.72274 0.00596158 7.60102C0.00635482 6.87884 0.00163589 6.15647 0.000849407 5.4343C-0.000330325 4.52235 6.2919e-05 3.60982 6.2919e-05 2.69749C6.2919e-05 1.98199 6.2919e-05 1.26648 0.000259541 0.55098C0.000456163 0.214815 0.210645 0.00640507 0.545885 0.00660131C1.51248 0.00719004 2.47888 0.0069938 3.44547 0.00719004C3.83124 0.00719004 4.02688 0.20206 4.02649 0.584538C4.02629 0.809825 4.02649 1.03531 4.02649 1.27512V1.27492ZM12.8037 15.8813C12.7738 15.8546 12.7526 15.835 12.7304 15.8162C11.9525 15.1501 11.1745 14.4843 10.3966 13.8184C10.1479 13.6055 10.1125 13.3025 10.309 13.0746C10.4788 12.8774 10.8115 12.8431 11.0467 13.0527C11.4515 13.4132 11.8689 13.7595 12.2807 14.1124C12.8945 14.6381 13.5074 15.165 14.122 15.69C14.3466 15.8817 14.6049 15.9922 14.905 15.9718C15.1252 15.9569 15.338 15.9 15.4217 15.6678C15.4691 15.5363 15.4709 15.3876 15.4862 15.2459C15.4888 15.2217 15.4622 15.187 15.4398 15.1684C14.681 14.5351 13.9213 13.9032 13.1615 13.2711C12.8898 13.045 12.6181 12.8189 12.3467 12.5925C12.1881 12.4602 12.113 12.2914 12.1584 12.0879C12.2421 11.7131 12.6682 11.5642 12.9669 11.8079C13.4486 12.201 13.9242 12.6015 14.4022 12.9993C15.242 13.6983 16.0808 14.3987 16.9217 15.0965C17.233 15.355 17.6579 15.3201 17.9151 15.0214C18.1667 14.729 18.1359 14.3059 17.8419 14.0352C17.7312 13.9334 17.6182 13.8343 17.5065 13.7336C16.9086 13.1945 16.3108 12.6555 15.7131 12.1162C15.1398 11.5987 14.5674 11.0802 13.9929 10.5641C13.877 10.4601 13.8045 10.3365 13.8029 10.1812C13.8008 9.96889 13.8979 9.80522 14.0906 9.7175C14.2978 9.62331 14.4923 9.66373 14.6626 9.81759C15.396 10.4801 16.1295 11.142 16.8635 11.804C17.3323 12.2269 17.8052 12.6455 18.269 13.0737C18.4556 13.246 18.6231 13.4389 18.8007 13.6212C18.8174 13.6384 18.8412 13.6534 18.8644 13.6592C19.0215 13.6983 19.1803 13.6875 19.3022 13.5817C19.5443 13.3721 19.6746 13.1029 19.6497 12.7762C19.6306 12.5279 19.5075 12.3246 19.3465 12.1421C18.8425 11.5706 18.3455 10.9929 17.8325 10.4295C16.2994 8.74551 14.7601 7.06724 13.2229 5.387C13.0577 5.20646 12.8904 5.02788 12.7221 4.84616C12.706 4.85734 12.695 4.86382 12.6855 4.87186C12.0296 5.4239 11.3742 5.97691 10.7175 6.52816C10.1986 6.96382 9.60367 7.1163 8.93948 6.98756C7.43001 6.69516 6.76484 4.85185 7.74638 3.67007C7.98429 3.38355 8.25052 3.12059 8.50573 2.8486C8.68131 2.66138 8.86044 2.4777 9.05057 2.2791H4.02629V2.39272C4.02629 2.87332 4.02629 3.35412 4.02629 3.83472C4.02629 5.80677 4.02668 7.77862 4.02472 9.75067C4.02472 9.8223 4.04438 9.87057 4.09904 9.91865C4.57821 10.34 5.05443 10.7647 5.53163 11.1881C7.13705 12.6133 8.74345 14.0372 10.3473 15.4641C10.8738 15.9325 11.47 16.201 12.1892 16.1325C12.4136 16.1111 12.6265 16.0532 12.8037 15.8819V15.8813ZM19.6684 10.9811C19.8522 10.7637 20.0244 10.5629 20.1929 10.3594C20.408 10.0996 20.6169 9.83368 20.9053 9.64842C20.9592 9.61388 20.9779 9.58013 20.9779 9.51675C20.9759 7.14887 20.9763 4.781 20.9761 2.41313C20.9761 2.378 20.9761 2.34288 20.9761 2.30147C20.9454 2.2999 20.9234 2.29754 20.9014 2.29794C20.1731 2.30991 19.4483 2.26948 18.7277 2.15978C17.9912 2.04753 17.2702 1.87562 16.5891 1.56968C16.0017 1.30593 15.3897 1.13971 14.7532 1.06298C13.9744 0.968978 13.1973 0.985266 12.4268 1.14089C12.0119 1.22468 11.6025 1.33733 11.2451 1.57066C11.0787 1.67938 10.9291 1.8244 10.8013 1.97747C10.7191 2.07618 10.6524 2.18078 10.5317 2.23691C10.4999 2.25182 10.468 2.27164 10.4438 2.29656C9.81445 2.94888 9.18152 3.59785 8.5598 4.25743C8.29259 4.5408 8.22437 4.89267 8.32956 5.26258C8.5423 6.01047 9.46013 6.27873 10.0567 5.77655C10.8477 5.1105 11.6389 4.44484 12.4315 3.78056C12.6588 3.59 12.9417 3.60845 13.1438 3.82589C13.5693 4.28353 13.9934 4.74234 14.416 5.20273C15.4732 6.35448 16.5312 7.50564 17.5849 8.66054C18.1561 9.28655 18.7195 9.91963 19.2859 10.55C19.4078 10.6856 19.528 10.8229 19.6682 10.9813L19.6684 10.9811ZM23.9968 10.4617V1.01176H21.9861V10.4615H23.9968V10.4617ZM1.00755 1.01156V10.4585H3.01998V1.01156H1.00755Z" fill="white"/>
</svg>
