<svg width="22" height="34" viewBox="0 0 22 34" fill="none" xmlns="http://www.w3.org/2000/svg">
<path d="M19.46 22.47L19.37 22.85L20.99 23.24L7.49004 30.88L8.00003 29.29L7.62003 29.17L6.90002 31.44L9.22003 31.99L9.31003 31.61L7.69003 31.22L21.18 23.59L20.68 25.17L21.06 25.29L21.78 23.02L19.46 22.47Z" fill="#17CA89"/>
<path d="M13.9 29.3099H14.46L15.32 32.8099H15.33L16.3 29.3099H16.84L17.81 32.8099H17.82L18.68 29.3099H19.24L18.08 33.5699H17.58L16.59 30.15H16.58L15.59 33.5699H15.09L13.93 29.3099H13.9Z" fill="#222222"/>
<path d="M1.00002 15.6799C1.00002 18.5299 1.00002 21.3799 1.00002 24.2299C1.00002 24.6199 1.12002 24.8499 1.48002 25.0399C2.91002 25.7999 4.33003 26.5999 5.74003 27.3899C5.93003 27.4999 6.08003 27.4899 6.27003 27.3899C9.79003 25.3899 13.3 23.3999 16.82 21.4099C17.01 21.2999 17.09 21.1699 17.09 20.9499C17.09 15.1699 17.09 9.37989 17.09 3.59989C17.09 3.32989 16.99 3.14992 16.75 3.00992C15.26 2.18992 13.77 1.34992 12.29 0.509922C12.07 0.389922 11.9 0.389922 11.69 0.509922C8.24002 2.47992 4.80002 4.45989 1.34002 6.40989C1.00002 6.59989 0.990022 6.81992 1.00002 7.19992C1.02002 10.0199 1.00002 12.8499 1.00002 15.6699C0.970022 15.6699 1.04002 15.6699 1.00002 15.6699V15.6799ZM5.69002 26.6499C5.57002 26.5899 5.51002 26.5599 5.44002 26.5299C4.23002 25.8599 3.03003 25.1899 1.82003 24.5399C1.65003 24.4499 1.60003 24.3399 1.60003 24.1599C1.57003 18.6699 1.53003 13.1799 1.49003 7.68991C1.49003 7.59991 1.49003 7.51989 1.49003 7.40989C1.56003 7.43989 1.60003 7.43993 1.63003 7.45993C2.89003 8.18993 4.15002 8.92989 5.42002 9.65989C5.59002 9.75989 5.60003 9.87989 5.60003 10.0399C5.63003 15.4799 5.66002 20.9099 5.69002 26.3499C5.69002 26.4399 5.69002 26.5299 5.69002 26.6599V26.6499ZM16.12 3.34989C16.06 3.38989 16.03 3.4099 16 3.4299C12.68 5.3199 9.35002 7.21991 6.03002 9.11991C5.88002 9.19991 5.79003 9.16989 5.66003 9.09989C4.74003 8.56989 3.82003 8.03992 2.91003 7.50992C2.55003 7.29992 2.19002 7.08991 1.81002 6.86991C1.87002 6.82991 1.90002 6.79994 1.94002 6.77994C5.24002 4.89994 8.54002 3.00993 11.84 1.13993C11.92 1.09993 12.07 1.10993 12.15 1.13993C12.51 1.31993 12.85 1.51988 13.2 1.71988C14.16 2.25988 15.13 2.7999 16.12 3.3599V3.34989ZM6.32003 26.6399C6.31003 26.5799 6.30002 26.5499 6.30002 26.5199C6.29002 24.7499 6.27003 22.9799 6.27003 21.2099C6.27003 21.1199 6.37003 20.9799 6.46003 20.9299C7.94003 20.0799 9.44002 19.2299 10.92 18.3799C11.07 18.2999 11.17 18.3099 11.32 18.3799C11.88 18.6999 12.45 18.9999 13.01 19.3099C14.05 19.8799 15.09 20.4499 16.17 21.0399C12.88 22.9099 9.62002 24.7499 6.33002 26.6199L6.32003 26.6399ZM6.24003 20.3599C6.24003 18.6699 6.24003 17.0499 6.24003 15.4399C6.24003 15.3599 6.33003 15.2499 6.41003 15.1999C8.06003 14.2499 9.71002 13.3099 11.37 12.3799C11.46 12.3299 11.62 12.3399 11.71 12.3799C12.18 12.6199 12.64 12.8699 13.1 13.1199C14.09 13.6499 15.08 14.1899 16.1 14.7399C12.81 16.6099 9.56003 18.4599 6.24003 20.3499V20.3599ZM16.09 8.9899C12.8 10.8599 9.54002 12.7199 6.25002 14.5799C6.25002 14.4599 6.23002 14.3799 6.23002 14.2999C6.22002 12.8699 6.21002 11.4299 6.19002 9.99991C6.19002 9.77991 6.26002 9.65991 6.45002 9.55991C8.09002 8.62991 9.73002 7.69992 11.37 6.75992C11.52 6.66992 11.63 6.65991 11.79 6.74991C13.1 7.43991 14.41 8.1199 15.72 8.7999C15.83 8.8599 15.94 8.91991 16.09 8.99991V8.9899ZM16.48 20.5399C14.9 19.6699 13.34 18.8099 11.73 17.9299C13.33 17.0199 14.89 16.1299 16.48 15.2299V20.5399ZM16.48 9.46988V14.2499C15.04 13.4699 13.62 12.7099 12.17 11.9199C13.63 11.0899 15.04 10.2899 16.48 9.46988ZM12.23 6.27994C13.67 5.45994 15.07 4.6599 16.48 3.8599V8.4899C15.06 7.7499 13.67 7.02994 12.23 6.27994Z" fill="black"/>
</svg>
