<svg width="14" height="18" viewBox="0 0 14 18" fill="none" xmlns="http://www.w3.org/2000/svg">
<path d="M7.25944 0.356068L7.25943 0.356143C9.15076 0.461952 10.9216 1.42824 12.135 3.34077L12.1351 3.34084C12.7959 4.38499 13.0998 5.53518 13.0734 6.76317C13.0734 6.76319 13.0734 6.7632 13.0734 6.76321L12.9984 6.76159C12.9723 8.0016 12.6199 9.15022 11.902 10.1683L7.25944 0.356068ZM7.25944 0.356068L7.25607 0.356031C6.06196 0.342909 5.32064 0.461056 4.55181 0.765937L4.55137 0.766114C2.49337 1.59723 1.15772 3.10421 0.642861 5.26928L0.642859 5.26929C0.259687 6.88126 0.511202 8.41522 1.35616 9.84109L1.3565 9.84166C1.60418 10.2513 1.88721 10.6413 2.16755 11.0277C2.27344 11.1736 2.37894 11.319 2.482 11.4647L2.48253 11.4654L5.38022 15.4595C5.56942 15.7205 5.75537 15.9782 5.94137 16.236C6.12736 16.4938 6.31341 16.7517 6.50273 17.0128L6.50259 17.0129L6.50584 17.0168C6.57678 17.1019 6.66111 17.1743 6.79839 17.1743V17.1749L6.80769 17.1737C6.94669 17.1564 7.01529 17.0657 7.06879 16.9856C7.31619 16.6454 7.56366 16.3063 7.81083 15.9676C8.39761 15.1635 8.98271 14.3616 9.56124 13.5535L7.25944 0.356068ZM6.05442 15.5199C5.50618 14.7563 4.95794 13.996 4.4097 13.2356C3.8615 12.4753 3.3133 11.7151 2.76511 10.9515C2.47795 10.573 2.19081 10.1944 1.92976 9.78979C1.1466 8.57589 0.833326 7.24453 1.06827 5.80873C1.36849 3.91609 2.38661 2.49333 4.05735 1.55354L6.05442 15.5199ZM6.05442 15.5199C6.11166 15.6001 6.16891 15.6813 6.22648 15.7631M6.05442 15.5199L6.22648 15.7631M11.2102 10.4033C10.7142 11.0951 10.2149 11.7869 9.71563 12.4787C9.21638 13.1705 8.71712 13.8623 8.22113 14.5541C8.01228 14.8478 7.80343 15.1382 7.59458 15.4286C7.38575 15.719 7.17692 16.0094 6.96808 16.3031L11.2102 10.4033ZM11.2102 10.4033C11.2372 10.366 11.2643 10.3288 11.2914 10.2915M11.2102 10.4033L11.2914 10.2915M6.22648 15.7631C6.36581 15.9608 6.50705 16.1613 6.65483 16.3553L6.22648 15.7631ZM11.2914 10.2915C11.5399 9.94989 11.7908 9.60513 11.9673 9.22853L11.2914 10.2915ZM4.09446 1.61872C4.90824 1.15549 5.78354 0.947753 6.71036 0.937175V0.949813H6.78536C9.14349 0.949813 11.2561 2.38004 12.1062 4.56976L12.1062 4.56977C12.7119 6.12914 12.635 7.67382 11.8998 9.19591L11.8994 9.1967C11.7261 9.5664 11.4796 9.90523 11.2304 10.2478C11.2034 10.2849 11.1764 10.3221 11.1495 10.3593L11.1493 10.3596C10.6535 11.051 10.1546 11.7424 9.65548 12.4339L9.65485 12.4348C9.1556 13.1266 8.65626 13.8185 8.16018 14.5104L8.16001 14.5106C7.9513 14.8041 7.74257 15.0944 7.53371 15.3848L7.53364 15.3849C7.32582 15.6739 7.11786 15.9631 6.90988 16.2556C6.90495 16.261 6.90083 16.2664 6.89765 16.2708C6.89332 16.2768 6.8892 16.283 6.88611 16.2876C6.88392 16.2909 6.88215 16.2935 6.88058 16.2958C6.87969 16.2971 6.87887 16.2982 6.87807 16.2993C6.87701 16.3008 6.8763 16.3017 6.87593 16.3022C6.87591 16.3022 6.87589 16.3022 6.87587 16.3022L6.87548 16.3019L6.86972 16.3093C6.83099 16.3591 6.80146 16.3684 6.78698 16.3684C6.77431 16.3684 6.74879 16.361 6.71723 16.3137L6.71736 16.3136L6.71449 16.3098C6.5676 16.1171 6.42766 15.9184 6.28867 15.7211C6.23091 15.6391 6.17331 15.5574 6.11545 15.4764L6.11534 15.4762C5.56711 14.7126 5.01889 13.9523 4.47071 13.192L4.4706 13.1919C3.92237 12.4315 3.3742 11.6713 2.82603 10.9078L2.82606 10.9077L2.82486 10.9062C2.53743 10.5273 2.25204 10.151 1.99278 9.74913C1.21897 8.54973 0.910552 7.23702 1.14229 5.82085L1.14235 5.82048C1.43885 3.95121 2.4427 2.54784 4.09412 1.61891L4.09446 1.61872Z" fill="#17CA89" stroke="#17CA89" stroke-width="0.15"/>
<path d="M6.74582 10.5434C4.60295 10.5433 2.84633 8.77357 2.85965 6.64351C2.87294 4.46239 4.61565 2.71828 6.77237 2.73147H6.78521C8.96777 2.73147 10.6978 4.48855 10.6846 6.67028C10.6845 8.82714 8.91393 10.5566 6.74582 10.5434ZM6.74582 10.5434C6.74575 10.5434 6.74567 10.5434 6.74559 10.5434L6.74605 10.4684V10.5434C6.74598 10.5434 6.7459 10.5434 6.74582 10.5434ZM3.44037 6.68313L3.44036 6.68261C3.4276 4.81855 4.90808 3.31217 6.7852 3.29913C8.62401 3.31217 10.13 4.80644 10.13 6.64397C10.13 8.45667 8.63567 9.97601 6.82384 9.98877C4.97163 10.0015 3.44037 8.50685 3.44037 6.68313Z" fill="#17CA89" stroke="#17CA89" stroke-width="0.15"/>
</svg>
