<svg width="16" height="11" viewBox="0 0 16 11" fill="none" xmlns="http://www.w3.org/2000/svg">
<path d="M2.57695 0.818075C2.77301 0.818075 2.96126 0.818075 3.14964 0.818075C4.08877 0.818075 5.0279 0.818075 5.96703 0.817949C6.1096 0.817949 6.2523 0.819208 6.39475 0.816438C6.41854 0.815934 6.44861 0.804475 6.46472 0.787601C6.8898 0.340324 7.43808 0.160128 8.02536 0.0640491C8.41395 0.000458159 8.80518 -0.0142748 9.19742 0.0131764C9.76105 0.0527161 10.3084 0.16441 10.8261 0.399256C11.1192 0.53223 11.4253 0.624657 11.7395 0.690011C12.2564 0.797423 12.7798 0.8386 13.3072 0.832556C13.3406 0.832178 13.3742 0.831422 13.4077 0.830415C13.4115 0.830415 13.415 0.827519 13.4249 0.823489C13.4249 0.671249 13.4249 0.516616 13.4249 0.361982C13.4249 0.136581 13.5534 0.00486546 13.7777 0.00473953C14.3564 0.00461361 14.9353 0.00587284 15.514 0.00637653C15.5622 0.00637653 15.6104 0.00423584 15.6586 0.00423584C15.86 0.00423584 15.9948 0.13507 15.9992 0.335665C16.0007 0.406937 15.9996 0.478335 15.9996 0.549607C15.9996 1.68077 15.9996 2.81181 15.9996 3.94297C15.9996 4.64373 15.9996 5.34462 15.9996 6.04538C15.9996 6.37479 15.9996 6.70421 15.9983 7.03362C15.9977 7.21986 15.8626 7.35485 15.6762 7.35498C15.0407 7.35561 14.4053 7.35523 13.7699 7.35523C13.5841 7.35523 13.4725 7.26733 13.4286 7.08651C13.4267 7.0787 13.4246 7.07089 13.4227 7.06397C13.283 7.22062 13.1439 7.37638 12.9994 7.53857C13.231 7.89619 13.2943 8.28844 13.1257 8.69996C12.9593 9.10593 12.6815 9.38208 12.2154 9.41759C12.1685 9.83238 11.9724 10.1477 11.5939 10.33C11.2142 10.5129 10.8468 10.4664 10.4944 10.2431C10.4607 10.3085 10.4318 10.378 10.3916 10.4403C10.2251 10.6987 9.97887 10.8333 9.68139 10.878C9.33282 10.9304 9.01747 10.8403 8.73068 10.6404C8.71697 10.6309 8.703 10.6218 8.68815 10.6117C8.63354 10.6586 8.58232 10.7078 8.52582 10.7501C8.32712 10.8991 8.09835 10.97 7.85472 10.9912C7.24743 11.0444 6.71602 10.8542 6.26237 10.457C5.54144 9.82558 4.82908 9.18463 4.11306 8.54759C3.6087 8.09893 3.10447 7.65014 2.60023 7.20135C2.58626 7.18901 2.57179 7.1773 2.56122 7.16836C2.51894 7.21357 2.48484 7.26834 2.43564 7.29756C2.38241 7.32916 2.31508 7.35221 2.2538 7.35258C1.61001 7.35636 0.966099 7.35535 0.322312 7.3546C0.142615 7.35435 0.000921134 7.21759 0.000795296 7.03664C0.000166106 6.31687 0.0034379 5.59709 0.00381541 4.87732C0.00406709 4.41392 0.00104697 3.9504 0.00054362 3.48701C-0.000211408 2.90184 4.02682e-05 2.3163 4.02682e-05 1.73089C4.02682e-05 1.27177 4.02682e-05 0.81266 0.000166106 0.353546C0.000291944 0.13784 0.134813 0.00410992 0.349367 0.00423584C0.967987 0.00461361 1.58648 0.00448769 2.2051 0.00461361C2.45199 0.00461361 2.5772 0.129655 2.57695 0.375078C2.57683 0.519638 2.57695 0.664323 2.57695 0.818201V0.818075ZM8.19436 10.1905C8.17523 10.1734 8.16164 10.1608 8.14742 10.1487C7.64961 9.72132 7.15167 9.29406 6.65385 8.86681C6.49467 8.73018 6.47202 8.53575 6.59773 8.38956C6.70645 8.26301 6.91937 8.24097 7.06987 8.37545C7.32897 8.60677 7.59613 8.82903 7.85963 9.05544C8.2525 9.39278 8.64474 9.73089 9.03811 10.0677C9.18181 10.1908 9.34716 10.2617 9.53919 10.2486C9.68013 10.239 9.81629 10.2025 9.86989 10.0535C9.90022 9.96913 9.90135 9.87368 9.91117 9.78277C9.91281 9.76728 9.89582 9.74499 9.88147 9.73303C9.39586 9.32667 8.90963 8.9212 8.42339 8.51561C8.24948 8.37054 8.07557 8.22548 7.90191 8.08017C7.80036 7.99529 7.75229 7.887 7.78136 7.75642C7.83497 7.51591 8.10766 7.42033 8.29881 7.57673C8.60711 7.82895 8.91151 8.08596 9.21742 8.3412C9.75488 8.78974 10.2917 9.23916 10.8299 9.68694C11.0291 9.85278 11.3011 9.83037 11.4656 9.63871C11.6267 9.45109 11.607 9.1796 11.4188 9.00595C11.348 8.9406 11.2756 8.877 11.2042 8.81241C10.8215 8.4665 10.4389 8.12059 10.0564 7.77455C9.68944 7.44249 9.32313 7.10981 8.95543 6.77863C8.88131 6.71189 8.83488 6.63256 8.83387 6.53295C8.83249 6.3967 8.89465 6.29168 9.01797 6.2354C9.15061 6.17495 9.27506 6.20089 9.38403 6.29962C9.85341 6.72473 10.3229 7.14947 10.7927 7.57421C11.0927 7.84557 11.3953 8.11416 11.6922 8.38893C11.8116 8.49949 11.9188 8.62327 12.0324 8.74025C12.0431 8.75133 12.0583 8.7609 12.0732 8.76468C12.1737 8.78974 12.2754 8.78281 12.3534 8.71494C12.5083 8.58046 12.5918 8.40769 12.5758 8.19803C12.5636 8.03874 12.4848 7.90828 12.3817 7.79117C12.0592 7.42449 11.7411 7.05377 11.4128 6.69225C10.4316 5.6117 9.44645 4.53481 8.46265 3.45666C8.35694 3.34081 8.24986 3.22622 8.14214 3.10962C8.13182 3.11679 8.12477 3.12095 8.11873 3.12611C7.69894 3.48033 7.27952 3.83518 6.85922 4.1889C6.52713 4.46845 6.14635 4.56629 5.72127 4.48369C4.75521 4.29606 4.3295 3.11327 4.95768 2.35496C5.10995 2.17111 5.28033 2.00238 5.44367 1.82785C5.55604 1.70772 5.67068 1.58986 5.79237 1.46242H2.57683V1.53533C2.57683 1.84372 2.57683 2.15223 2.57683 2.46061C2.57683 3.72601 2.57708 4.99128 2.57582 6.25668C2.57582 6.30264 2.5884 6.33362 2.62339 6.36447C2.93005 6.63482 3.23483 6.90732 3.54024 7.17906C4.56771 8.09351 5.59581 9.00721 6.62227 9.92279C6.95926 10.2234 7.3408 10.3956 7.80112 10.3517C7.9447 10.338 8.08098 10.3008 8.19436 10.1909V10.1905ZM12.5877 7.04621C12.7054 6.90669 12.8156 6.77787 12.9235 6.64729C13.0611 6.48057 13.1948 6.30994 13.3794 6.19107C13.4139 6.16891 13.4258 6.14725 13.4258 6.10658C13.4246 4.58719 13.4248 3.06781 13.4247 1.54843C13.4247 1.52589 13.4247 1.50335 13.4247 1.47678C13.4051 1.47577 13.391 1.47426 13.3769 1.47451C12.9108 1.48219 12.4469 1.45625 11.9857 1.38586C11.5143 1.31383 11.0529 1.20352 10.617 1.00721C10.2411 0.83797 9.84938 0.731314 9.44205 0.682078C8.9436 0.621761 8.44629 0.632213 7.95313 0.732069C7.68761 0.785838 7.42562 0.858118 7.19684 1.00784C7.09038 1.0776 6.99462 1.17066 6.91283 1.26888C6.86023 1.33222 6.81757 1.39933 6.7403 1.43535C6.71992 1.44492 6.69953 1.45764 6.68405 1.47363C6.28125 1.8922 5.87617 2.30862 5.47827 2.73185C5.30726 2.91368 5.26359 3.13946 5.33092 3.37682C5.46707 3.85672 6.05449 4.02885 6.43628 3.70662C6.94253 3.27923 7.4489 2.8521 7.95615 2.42586C8.10162 2.30359 8.2827 2.31542 8.41206 2.45494C8.68437 2.7486 8.95581 3.043 9.22623 3.33842C9.90286 4.07746 10.58 4.81612 11.2544 5.55718C11.6199 5.95887 11.9805 6.3651 12.343 6.76956C12.421 6.85657 12.4979 6.94472 12.5876 7.04634L12.5877 7.04621ZM15.3579 6.7129V0.649212H14.0711V6.71277H15.3579V6.7129ZM0.644834 0.649086V6.71088H1.93279V0.649086H0.644834Z" fill="#17CA89"/>
</svg>
