<svg width="10" height="12" viewBox="0 0 10 12" fill="none" xmlns="http://www.w3.org/2000/svg">
<path d="M0.34633 12C0.252747 12 0.00740545 12 0.00740545 11.1407V6.43582C0.00740545 6.01238 0.00740545 5.58646 0.00234687 5.16302C-0.000182418 3.99917 -0.00777029 2.79571 0.0301691 1.617C0.0377569 1.34709 0.214807 0.985555 0.41968 0.812216C1.03683 0.287247 1.83355 0 2.66316 0C3.49277 0 4.39067 0.309534 5.07863 0.874123C5.92595 1.56748 6.56839 1.86463 7.226 1.86463C7.82291 1.86463 8.435 1.62691 9.27726 1.06975C9.40119 0.988031 9.5226 0.945935 9.63389 0.945935C9.84888 0.945935 9.9804 1.11432 9.98293 1.39414C10.0006 2.92695 10.0158 4.95254 9.96775 7.01775C9.96522 7.18118 9.78817 7.45109 9.56559 7.63186C8.92821 8.15435 8.15425 8.42922 7.32464 8.42922C6.39892 8.42922 5.48838 8.07759 4.75488 7.43871C4.11244 6.8766 3.38654 6.57945 2.66063 6.57945C2.25089 6.57945 1.84367 6.67355 1.45163 6.85679C0.976124 7.07965 0.771251 7.39909 0.786427 7.89682C0.806661 8.60999 0.804132 9.33801 0.801603 10.0413C0.801603 10.4177 0.799073 10.7941 0.801603 11.1705V11.2596C0.806661 11.7846 0.77631 11.9579 0.394387 11.995C0.376682 11.995 0.358977 11.9975 0.343801 11.9975L0.34633 12ZM2.7011 5.8118C3.70017 5.8118 4.62083 6.1981 5.51114 6.99051C5.98412 7.41395 6.60885 7.64424 7.269 7.64424C7.77486 7.64424 8.26807 7.51052 8.69805 7.25547C8.87257 7.15146 9.15079 6.88155 9.15838 6.59678C9.17861 5.58646 9.17608 4.58853 9.17608 3.53364V2.56789L8.83463 2.33512C8.30854 2.52579 7.79509 2.61989 7.30947 2.61989C6.3104 2.61989 5.35433 2.21378 4.39067 1.37928C3.92781 0.980603 3.38907 0.777549 2.78963 0.777549C2.31412 0.777549 1.82091 0.906315 1.32517 1.16137C1.27458 1.18613 0.834484 1.42385 0.826896 1.75072C0.806661 2.80314 0.806661 3.84069 0.809191 4.93768V5.85638L1.14559 6.08915C1.68938 5.90343 2.21295 5.80685 2.70363 5.80685L2.7011 5.8118Z" fill="#72726F"/>
</svg>
