<svg width="15" height="14" viewBox="0 0 15 14" fill="none" xmlns="http://www.w3.org/2000/svg">
<path d="M7.65 1.04997L9.07999 5.45997C9.10999 5.53997 9.17999 5.59999 9.26999 5.59999H13.91C14.11 5.59999 14.19 5.84998 14.03 5.96998L10.27 8.7C10.2 8.75 10.17 8.83998 10.2 8.92998L11.63 13.34C11.69 13.53 11.48 13.68 11.32 13.57L7.56 10.84C7.49 10.79 7.39001 10.79 7.32001 10.84L3.56 13.57C3.4 13.69 3.19 13.53 3.25 13.34L4.68 8.92998C4.71 8.84998 4.67999 8.75 4.60999 8.7L0.85001 5.96998C0.69001 5.84998 0.770005 5.59999 0.970005 5.59999H5.60999C5.69999 5.59999 5.77999 5.53997 5.79999 5.45997L7.23001 1.04997C7.29001 0.859971 7.55 0.859971 7.62 1.04997H7.65Z" fill="#17CA89"/>
</svg>
