<svg width="12" height="12" viewBox="0 0 12 12" fill="none" xmlns="http://www.w3.org/2000/svg">
<path d="M8.97006 11.22C8.14006 11.22 7.37006 11 6.62006 10.65C5.57006 10.15 4.67006 9.45 3.84006 8.64999C3.06006 7.89999 2.36007 7.07999 1.82007 6.14999C1.34007 5.31999 0.990054 4.44999 0.930054 3.48999C0.880054 2.71999 1.00005 2.00001 1.43005 1.35001C1.67005 0.990007 1.95008 0.669999 2.39008 0.529999C2.97008 0.339999 3.50007 0.449996 3.95007 0.869996C4.31007 1.2 4.65005 1.54999 4.99005 1.89999C5.56005 2.48999 5.55006 3.44 4.97006 4.03C4.76006 4.24 4.55006 4.45 4.34006 4.66C4.20006 4.8 4.20006 4.91001 4.34006 5.04001C5.27006 5.97001 6.19006 6.89999 7.12006 7.82999C7.27006 7.97999 7.38005 7.96999 7.52005 7.82999C7.72005 7.62999 7.92006 7.43001 8.12006 7.23001C8.74006 6.62001 9.69006 6.62001 10.3101 7.23001C10.6101 7.53001 10.9101 7.83001 11.2101 8.13001C11.9301 8.85001 11.9001 9.83 11.1401 10.5C10.5701 11 9.90005 11.22 9.15005 11.25C9.09005 11.25 9.04007 11.25 8.98007 11.25L8.97006 11.22ZM8.93005 10.88C9.13005 10.86 9.34007 10.85 9.54007 10.82C10.1101 10.73 10.6101 10.5 11.0101 10.08C11.4701 9.60999 11.4701 8.89001 11.0101 8.42001C10.6901 8.10001 10.3701 7.77001 10.0401 7.45001C9.58007 6.99001 8.87005 6.97999 8.40005 7.42999C8.19005 7.62999 7.99006 7.83999 7.78006 8.04999C7.47006 8.34999 7.15007 8.35999 6.85007 8.04999C5.93007 7.12999 5.02007 6.21999 4.10007 5.29999C3.80007 4.99999 3.80007 4.68001 4.10007 4.38001C4.31007 4.17001 4.52006 3.97001 4.72006 3.76001C5.17006 3.29001 5.17006 2.59 4.72006 2.12C4.39006 1.78 4.05005 1.43999 3.71005 1.10999C3.27005 0.679986 2.56005 0.679986 2.11005 1.10999C1.63005 1.54999 1.39007 2.11 1.32007 2.75C1.21007 3.68 1.45006 4.54 1.84006 5.37C2.28006 6.29 2.88005 7.1 3.58005 7.84C4.42005 8.74 5.34006 9.55002 6.44006 10.14C7.22006 10.56 8.05007 10.86 8.95007 10.88H8.93005Z" fill="#72726F"/>
</svg>
