<svg width="22" height="33" viewBox="0 0 22 33" fill="none" xmlns="http://www.w3.org/2000/svg">
<path d="M12.1 28.58L11.77 28.69L12.22 30.08L1.57999 24.19L3 23.84L2.91 23.5L0.880005 24.01L1.53 26L1.87 25.89L1.41 24.5L12.05 30.39L10.63 30.74L10.72 31.08L12.75 30.57L12.1 28.58Z" fill="#17CA89"/>
<path d="M0.880005 27.2899H2.75C3.3 27.2899 3.77 27.3999 4.16 27.6199C4.55 27.8399 4.85 28.1599 5.06 28.5699C5.27 28.9799 5.37 29.4799 5.37 30.0699C5.37 30.6599 5.27 31.16 5.06 31.58C4.85 32 4.55 32.3199 4.16 32.5399C3.77 32.7599 3.29999 32.8699 2.73999 32.8699H0.869995V27.2999L0.880005 27.2899ZM2.70999 32.2399C3.12999 32.2399 3.49 32.1599 3.78 31.9899C4.07 31.8199 4.29001 31.5799 4.45001 31.2599C4.61001 30.9399 4.67999 30.55 4.67999 30.09C4.67999 29.62 4.60001 29.23 4.45001 28.9C4.30001 28.57 4.08 28.3299 3.78 28.1699C3.48 28.0099 3.12999 27.9199 2.70999 27.9199H1.57999V32.2399H2.70999Z" fill="#222222"/>
<path d="M5.67007 15.6799C5.67007 18.5299 5.67007 21.3799 5.67007 24.2299C5.67007 24.6199 5.79005 24.8499 6.15005 25.0399C7.58005 25.7999 9.00006 26.5999 10.4101 27.3899C10.6001 27.4999 10.7501 27.4899 10.9401 27.3899C14.4601 25.3899 17.97 23.3999 21.49 21.4099C21.68 21.2999 21.7601 21.1699 21.7601 20.9499C21.7601 15.1699 21.7601 9.37989 21.7601 3.59989C21.7601 3.32989 21.6601 3.14992 21.4201 3.00992C19.9301 2.18992 18.44 1.34992 16.96 0.509922C16.74 0.389922 16.57 0.389922 16.36 0.509922C12.91 2.47992 9.47006 4.45989 6.01006 6.40989C5.67006 6.59989 5.66007 6.81992 5.67007 7.19992C5.69007 10.0199 5.67007 12.8499 5.67007 15.6699C5.64007 15.6699 5.71007 15.6699 5.67007 15.6699V15.6799ZM10.36 26.6499C10.24 26.5899 10.18 26.5599 10.11 26.5299C8.90004 25.8599 7.70004 25.1899 6.49004 24.5399C6.32004 24.4499 6.27004 24.3399 6.27004 24.1599C6.24004 18.6699 6.20006 13.1799 6.16006 7.68991C6.16006 7.59991 6.16006 7.51989 6.16006 7.40989C6.23006 7.43989 6.27004 7.43993 6.30004 7.45993C7.56004 8.18993 8.82005 8.92989 10.09 9.65989C10.26 9.75989 10.27 9.87989 10.27 10.0399C10.3 15.4799 10.33 20.9099 10.36 26.3499C10.36 26.4399 10.36 26.5299 10.36 26.6599V26.6499ZM20.7901 3.34989C20.7301 3.38989 20.7001 3.4099 20.6701 3.4299C17.3501 5.3199 14.0201 7.21991 10.7001 9.11991C10.5501 9.19991 10.46 9.16989 10.33 9.09989C9.41004 8.56989 8.49004 8.03992 7.58004 7.50992C7.22004 7.29992 6.86006 7.08991 6.48006 6.86991C6.54006 6.82991 6.57004 6.79994 6.61004 6.77994C9.91004 4.89994 13.2101 3.00993 16.5101 1.13993C16.5901 1.09993 16.7401 1.10993 16.8201 1.13993C17.1801 1.31993 17.52 1.51988 17.87 1.71988C18.83 2.25988 19.8001 2.7999 20.7901 3.3599V3.34989ZM10.99 26.6399C10.98 26.5799 10.9701 26.5499 10.9701 26.5199C10.9601 24.7499 10.9401 22.9799 10.9401 21.2099C10.9401 21.1199 11.0401 20.9799 11.1301 20.9299C12.6101 20.0799 14.11 19.2299 15.59 18.3799C15.74 18.2999 15.84 18.3099 15.99 18.3799C16.55 18.6999 17.12 18.9999 17.68 19.3099C18.72 19.8799 19.76 20.4499 20.84 21.0399C17.55 22.9099 14.2901 24.7499 11.0001 26.6199L10.99 26.6399ZM10.9101 20.3599C10.9101 18.6699 10.9101 17.0499 10.9101 15.4399C10.9101 15.3599 11 15.2499 11.08 15.1999C12.73 14.2499 14.3801 13.3099 16.0401 12.3799C16.1301 12.3299 16.2901 12.3399 16.3801 12.3799C16.8501 12.6199 17.31 12.8699 17.77 13.1199C18.76 13.6499 19.75 14.1899 20.77 14.7399C17.48 16.6099 14.2301 18.4599 10.9101 20.3499V20.3599ZM20.7601 8.9899C17.4701 10.8599 14.2101 12.7199 10.9201 14.5799C10.9201 14.4599 10.9 14.3799 10.9 14.2999C10.89 12.8699 10.88 11.4299 10.86 9.99991C10.86 9.77991 10.93 9.65991 11.12 9.55991C12.76 8.62991 14.4001 7.69992 16.0401 6.75992C16.1901 6.66992 16.3 6.65991 16.46 6.74991C17.77 7.43991 19.0801 8.1199 20.3901 8.7999C20.5001 8.8599 20.6101 8.91991 20.7601 8.99991V8.9899ZM21.15 20.5399C19.57 19.6699 18.01 18.8099 16.4 17.9299C18 17.0199 19.56 16.1299 21.15 15.2299V20.5399ZM21.15 9.46988V14.2499C19.71 13.4699 18.29 12.7099 16.84 11.9199C18.3 11.0899 19.71 10.2899 21.15 9.46988ZM16.9 6.27994C18.34 5.45994 19.74 4.6599 21.15 3.8599V8.4899C19.73 7.7499 18.34 7.02994 16.9 6.27994Z" fill="black"/>
</svg>
