<svg width="53" height="53" viewBox="0 0 53 53" fill="none" xmlns="http://www.w3.org/2000/svg">
<g filter="url(#filter0_d_1154_2831)">
<path d="M23.39 41.8C33.4913 41.8 41.68 33.6113 41.68 23.51C41.68 13.4087 33.4913 5.21997 23.39 5.21997C13.2887 5.21997 5.09998 13.4087 5.09998 23.51C5.09998 33.6113 13.2887 41.8 23.39 41.8Z" fill="#F6F6F6"/>
</g>
<path d="M31.3 16.91C29.45 15.06 26.45 15.06 24.6 16.91L23.39 18.12L22.18 16.91C20.33 15.06 17.33 15.06 15.48 16.91C13.63 18.76 13.63 21.7599 15.48 23.6099L23.35 31.48L23.38 31.45L23.41 31.48L31.28 23.6099C33.13 21.7599 33.13 18.76 31.28 16.91H31.3Z" stroke="#222222" stroke-miterlimit="10"/>
<defs>
<filter id="filter0_d_1154_2831" x="0.0999756" y="0.219971" width="52.58" height="52.58" filterUnits="userSpaceOnUse" color-interpolation-filters="sRGB">
<feFlood flood-opacity="0" result="BackgroundImageFix"/>
<feColorMatrix in="SourceAlpha" type="matrix" values="0 0 0 0 0 0 0 0 0 0 0 0 0 0 0 0 0 0 127 0" result="hardAlpha"/>
<feOffset dx="3" dy="3"/>
<feGaussianBlur stdDeviation="4"/>
<feColorMatrix type="matrix" values="0 0 0 0 0 0 0 0 0 0 0 0 0 0 0 0 0 0 0.15 0"/>
<feBlend mode="normal" in2="BackgroundImageFix" result="effect1_dropShadow_1154_2831"/>
<feBlend mode="normal" in="SourceGraphic" in2="effect1_dropShadow_1154_2831" result="shape"/>
</filter>
</defs>
</svg>
