<svg width="17" height="18" viewBox="0 0 17 18" fill="none" xmlns="http://www.w3.org/2000/svg">
<path fill-rule="evenodd" clip-rule="evenodd" d="M13.2211 10.5047C12.4683 10.2175 11.6105 10.3992 10.9905 11.0499L10.1581 11.938C10.0124 12.0934 9.89012 12.1405 9.75029 12.0608C9.89013 12.1406 10.0124 12.0934 10.1581 11.938L10.9906 11.0499C11.6105 10.3992 12.4683 10.2175 13.2211 10.5047ZM4.76003 1.28188C4.24089 0.963462 3.66135 0.916136 3.04052 1.1331C2.43005 1.34031 2.04153 1.81396 1.70855 2.34681C1.11195 3.30888 0.945454 4.37455 1.01483 5.51424C1.09807 6.93515 1.5837 8.22286 2.24967 9.45136C2.99889 10.8279 3.97008 12.0416 5.05229 13.1517C5.34018 13.4477 5.63415 13.7345 5.93591 14.0097C5.63415 13.7345 5.3402 13.4477 5.05232 13.1517C3.97011 12.0416 2.99892 10.8279 2.2497 9.45138C1.58373 8.22288 1.0981 6.93517 1.01486 5.51426C0.945485 4.37456 1.11198 3.3089 1.70858 2.34682C2.04156 1.81398 2.43008 1.34033 3.04055 1.13312C3.66137 0.916159 4.2409 0.963479 4.76003 1.28188ZM6.75651 3.05741C6.28616 2.54089 5.81242 2.02063 5.31029 1.52956C4.98164 1.20248 4.61775 0.990398 4.22394 0.899944C3.83007 0.809476 3.41632 0.842983 2.99167 0.991274C2.33071 1.21587 1.91861 1.72762 1.58107 2.26775C0.963358 3.26387 0.794499 4.36307 0.865094 5.52319C0.950098 6.97352 1.4458 8.28323 2.11792 9.52307C2.87544 10.9148 3.85601 12.1394 4.94488 13.2564C6.1034 14.4476 7.36512 15.4957 8.84144 16.2456L8.84252 16.2462C9.86441 16.7549 10.9206 17.0845 12.0593 17.1046L12.0735 17.15L12.4196 17.1501L12.426 17.1498C13.4966 17.1042 14.4624 16.7674 15.2834 15.9992C15.8372 15.4783 16.1306 14.8309 16.1492 14.1679C16.1677 13.505 15.9112 12.8384 15.3872 12.2794L14.1385 10.9473L14.1376 10.9464C13.2183 9.98153 11.8013 9.98153 10.8819 10.9464L10.0486 11.8354C9.95819 11.9318 9.90796 11.9484 9.88265 11.9489C9.85944 11.9494 9.80786 11.9371 9.71253 11.8354C9.06753 11.1473 8.42581 10.459 7.78409 9.77073L7.71184 9.69323C7.0943 9.03088 6.47656 8.36832 5.85552 7.7058L5.85157 7.70188C5.7667 7.61781 5.75033 7.56526 5.75033 7.53277C5.75033 7.49845 5.76844 7.4414 5.85545 7.34858L6.72954 6.4161L6.73041 6.41516C7.58683 5.48578 7.60255 3.99161 6.75874 3.05986L6.75652 3.05742L6.75651 3.05741ZM12.1422 16.4494L12.144 16.4492C12.2293 16.4405 12.3158 16.433 12.4027 16.4254L12.4028 16.4254H12.4028C12.5895 16.4092 12.7781 16.3928 12.9607 16.3635C13.7516 16.2303 14.4453 15.8899 15.0003 15.2682C15.6385 14.5726 15.6385 13.5069 15.0003 12.8113C14.8528 12.6539 14.7053 12.495 14.5573 12.3355C14.2598 12.0148 13.9602 11.6919 13.6544 11.3755C13.5747 11.2904 13.4895 11.2157 13.4002 11.1515C13.4895 11.2157 13.5747 11.2904 13.6545 11.3756C13.9602 11.6919 14.2598 12.0148 14.5573 12.3354C14.7053 12.495 14.8528 12.6539 15.0003 12.8113C15.6385 13.5069 15.6385 14.5726 15.0003 15.2682C14.4453 15.8899 13.7516 16.2303 12.9608 16.3636C12.7782 16.3928 12.5895 16.4092 12.4028 16.4254C12.3076 16.4337 12.2129 16.4419 12.1198 16.4518C11.4276 16.4326 10.7653 16.2863 10.128 16.0533C10.7611 16.2848 11.419 16.4307 12.1063 16.4514L12.1144 16.4516L12.1198 16.4518L12.1422 16.4494ZM9.06483 15.5793C8.92867 15.5083 8.79363 15.434 8.65964 15.3571C8.65966 15.3571 8.65967 15.3571 8.65968 15.3571C8.79365 15.434 8.92868 15.5083 9.06483 15.5793ZM4.55698 1.73728C4.66939 1.80611 4.77534 1.89086 4.87191 1.99155C5.34364 2.47999 5.81539 2.98324 6.27324 3.48648C6.89759 4.18214 6.89759 5.21824 6.27324 5.9139C6.08875 6.12056 5.89812 6.32068 5.70543 6.52295C5.60831 6.6249 5.51068 6.7274 5.41304 6.83157C4.9968 7.2756 4.9968 7.74922 5.41304 8.19325L5.41307 8.19327C4.99683 7.74923 4.99683 7.27562 5.41307 6.83158C5.51071 6.72742 5.60835 6.62492 5.70546 6.52297C5.89815 6.3207 6.08878 6.12058 6.27327 5.91392C6.89762 5.21826 6.89762 4.18216 6.27327 3.4865C5.81542 2.98326 5.34367 2.48 4.87194 1.99157C4.77536 1.89087 4.6694 1.80611 4.55698 1.73728ZM9.2285 12.2636C9.25588 12.2938 9.28339 12.3219 9.311 12.348C9.2834 12.3219 9.25591 12.2938 9.22853 12.2636L9.2285 12.2636ZM12.3977 16.2752C12.5804 16.2594 12.7589 16.2439 12.9364 16.2155C13.6979 16.0872 14.3591 15.7612 14.8884 15.1683L14.8897 15.1668C15.4752 14.5287 15.4753 13.5516 14.8903 12.9133C14.7418 12.7549 14.594 12.5955 14.4459 12.4359C14.149 12.1159 13.8513 11.795 13.5466 11.4798L13.545 11.4781C12.9646 10.859 12.0777 10.8467 11.4859 11.4511C11.2938 11.6463 11.1092 11.8465 10.9206 12.0509L10.9204 12.0511C10.8245 12.1551 10.7276 12.2601 10.6282 12.3662L10.6266 12.3679C10.396 12.6059 10.1416 12.7498 9.86973 12.7522C9.59615 12.7545 9.34355 12.6133 9.11824 12.3653L5.3036 8.29584C5.07763 8.05477 4.95086 7.79043 4.95086 7.51241C4.95086 7.23438 5.07763 6.97005 5.3036 6.72898C5.40304 6.62289 5.50157 6.51947 5.59907 6.41712L5.59912 6.41707C5.79072 6.21594 5.97865 6.01865 6.16161 5.81371C6.73469 5.17517 6.7348 4.2257 6.16194 3.58704C5.7052 3.08503 5.23423 2.58262 4.76366 2.09538C4.21288 1.52117 3.32529 1.5194 2.75908 2.09659L2.75687 2.09879C2.12115 2.72046 1.79953 3.51392 1.70517 4.43426L1.70504 4.43549C1.55637 5.77631 1.87962 7.0215 2.41448 8.23596C3.01746 9.58079 3.84118 10.7677 4.80443 11.854C5.964 13.1794 7.22807 14.3651 8.73436 15.227C9.795 15.8363 10.9114 16.2661 12.114 16.3015C12.21 16.2915 12.3043 16.2833 12.3976 16.2752L12.3977 16.2752Z" fill="#17CA89"/>
</svg>
