<svg width="30" height="28" viewBox="0 0 30 28" fill="none" xmlns="http://www.w3.org/2000/svg">
<path d="M22.11 23.08V3.35999L23.55 4.90997L23.92 4.57001L21.86 2.34998L19.8 4.57001L20.17 4.90997L21.61 3.35999V23.08L20.17 21.53L19.8 21.88L21.86 24.1L23.92 21.88L23.55 21.53L22.11 23.08Z" fill="#17CA89"/>
<path d="M26.1699 11.11H26.6999V12.95H29.0399V11.11H29.5699V15.37H29.0399V13.43H26.6999V15.37H26.1699V11.11Z" fill="#222222"/>
<path d="M0.0599587 15.6799C0.0599587 18.5299 0.0599587 21.3799 0.0599587 24.2299C0.0599587 24.6199 0.179962 24.8499 0.539962 25.0399C1.96996 25.7999 3.38996 26.5999 4.79996 27.3899C4.98996 27.4999 5.13996 27.4899 5.32996 27.3899C8.84996 25.3899 12.36 23.3999 15.88 21.4099C16.07 21.2999 16.15 21.1699 16.15 20.9499C16.15 15.1699 16.15 9.37989 16.15 3.59989C16.15 3.32989 16.05 3.14992 15.81 3.00992C14.32 2.18992 12.83 1.34992 11.35 0.509922C11.13 0.389922 10.96 0.389922 10.75 0.509922C7.29996 2.47992 3.85996 4.45989 0.399963 6.40989C0.0599626 6.59989 0.0499587 6.81992 0.0599587 7.19992C0.0799587 10.0199 0.0599587 12.8499 0.0599587 15.6699C0.0299587 15.6699 0.0999587 15.6699 0.0599587 15.6699V15.6799ZM4.74996 26.6499C4.62996 26.5899 4.56996 26.5599 4.49996 26.5299C3.28996 25.8599 2.08996 25.1899 0.879958 24.5399C0.709958 24.4499 0.659965 24.3399 0.659965 24.1599C0.629965 18.6699 0.589964 13.1799 0.549964 7.68991C0.549964 7.59991 0.549964 7.51989 0.549964 7.40989C0.619964 7.43989 0.659964 7.43993 0.689964 7.45993C1.94996 8.18993 3.20996 8.92989 4.47996 9.65989C4.64996 9.75989 4.65996 9.87989 4.65996 10.0399C4.68996 15.4799 4.71996 20.9099 4.74996 26.3499C4.74996 26.4399 4.74996 26.5299 4.74996 26.6599V26.6499ZM15.18 3.34989C15.12 3.38989 15.09 3.4099 15.06 3.4299C11.74 5.3199 8.40996 7.21991 5.08996 9.11991C4.93996 9.19991 4.84996 9.16989 4.71996 9.09989C3.79996 8.56989 2.87996 8.03992 1.96996 7.50992C1.60996 7.29992 1.24996 7.08991 0.869964 6.86991C0.929964 6.82991 0.959961 6.79994 0.999961 6.77994C4.29996 4.89994 7.59996 3.00993 10.9 1.13993C10.98 1.09993 11.13 1.10993 11.21 1.13993C11.57 1.31993 11.91 1.51988 12.26 1.71988C13.22 2.25988 14.19 2.7999 15.18 3.3599V3.34989ZM5.37996 26.6399C5.36996 26.5799 5.35996 26.5499 5.35996 26.5199C5.34996 24.7499 5.32996 22.9799 5.32996 21.2099C5.32996 21.1199 5.42996 20.9799 5.51996 20.9299C6.99996 20.0799 8.49996 19.2299 9.97996 18.3799C10.13 18.2999 10.23 18.3099 10.38 18.3799C10.94 18.6999 11.51 18.9999 12.07 19.3099C13.11 19.8799 14.15 20.4499 15.23 21.0399C11.94 22.9099 8.67996 24.7499 5.38996 26.6199L5.37996 26.6399ZM5.29996 20.3599C5.29996 18.6699 5.29996 17.0499 5.29996 15.4399C5.29996 15.3599 5.38996 15.2499 5.46996 15.1999C7.11996 14.2499 8.76996 13.3099 10.43 12.3799C10.52 12.3299 10.68 12.3399 10.77 12.3799C11.24 12.6199 11.7 12.8699 12.16 13.1199C13.15 13.6499 14.14 14.1899 15.16 14.7399C11.87 16.6099 8.61996 18.4599 5.29996 20.3499V20.3599ZM15.15 8.9899C11.86 10.8599 8.59996 12.7199 5.30996 14.5799C5.30996 14.4599 5.28996 14.3799 5.28996 14.2999C5.27996 12.8699 5.26996 11.4299 5.24996 9.99991C5.24996 9.77991 5.31996 9.65991 5.50996 9.55991C7.14996 8.62991 8.78996 7.69992 10.43 6.75992C10.58 6.66992 10.69 6.65991 10.85 6.74991C12.16 7.43991 13.47 8.1199 14.78 8.7999C14.89 8.8599 15 8.91991 15.15 8.99991V8.9899ZM15.54 20.5399C13.96 19.6699 12.4 18.8099 10.79 17.9299C12.39 17.0199 13.95 16.1299 15.54 15.2299V20.5399ZM15.54 9.46988V14.2499C14.1 13.4699 12.68 12.7099 11.23 11.9199C12.69 11.0899 14.1 10.2899 15.54 9.46988ZM11.29 6.27994C12.73 5.45994 14.13 4.6599 15.54 3.8599V8.4899C14.12 7.7499 12.73 7.02994 11.29 6.27994Z" fill="black"/>
</svg>
