<svg width="17" height="11" viewBox="0 0 17 11" fill="none" xmlns="http://www.w3.org/2000/svg">
<path d="M8.37579 10.5793C6.26558 10.5793 4.15537 10.5793 2.03707 10.5793C1.30941 10.5793 0.800049 10.0942 0.800049 9.35849C0.800049 6.73892 0.800049 4.11934 0.800049 1.49977C0.800049 0.747853 1.3175 0.238485 2.10175 0.2304C2.75665 0.222315 3.40345 0.2304 4.05835 0.2304C7.55111 0.2304 11.0439 0.2304 14.5366 0.2304C15.5473 0.2304 16 0.683156 16 1.68571C16 4.24869 16 6.81168 16 9.37465C16 10.07 15.523 10.5712 14.8115 10.5793C13.9545 10.5955 13.1056 10.5793 12.2486 10.5793C10.9549 10.5793 9.65324 10.5793 8.35963 10.5793H8.37579ZM1.37409 0.739766C1.44686 0.836787 1.46303 0.869129 1.48728 0.893385C3.67835 3.06019 5.86941 5.22698 8.06047 7.39379C8.37579 7.70103 8.59409 7.68487 8.91749 7.36147C11.0277 5.23509 13.1379 3.1087 15.2481 0.990402C15.3047 0.933806 15.3532 0.869127 15.4664 0.739766C15.1915 0.667 14.9813 0.553799 14.7711 0.553799C10.5264 0.545714 6.28175 0.545714 2.03707 0.553799C1.82686 0.553799 1.61665 0.675093 1.36601 0.747859L1.37409 0.739766ZM15.4503 10.0053C13.9788 8.55806 12.5235 7.1189 11.0843 5.70401C10.4779 6.29422 9.82303 6.92487 9.16814 7.5636C8.67494 8.04062 8.28686 8.04869 7.80175 7.57167C7.18728 6.97337 6.58898 6.37509 5.97452 5.7687C5.91792 5.71211 5.85324 5.6636 5.77239 5.59083C4.30898 7.07849 2.85367 8.55807 1.34984 10.0942C1.60047 10.1589 1.82686 10.2559 2.06132 10.264C3.87239 10.2802 5.69154 10.264 7.5026 10.264C9.86345 10.264 12.2243 10.264 14.5852 10.264C14.8924 10.264 15.1996 10.2398 15.4422 9.9972L15.4503 10.0053ZM1.14771 9.68189C1.14771 9.68189 1.19622 9.69806 1.22047 9.70615C2.64345 8.25083 4.07452 6.7955 5.40047 5.42912C4.02601 4.01422 2.61111 2.55083 1.14771 1.03891V9.68189ZM11.3269 5.37252C12.766 6.86018 14.1728 8.3155 15.5796 9.77082L15.6686 9.68189C15.7656 9.12402 15.709 1.32998 15.6362 1.16828C14.2132 2.55891 12.7741 3.96571 11.3349 5.37252H11.3269Z" fill="#17CA89" stroke="#17CA89" stroke-width="0.4" stroke-miterlimit="10"/>
</svg>
