<svg width="15" height="15" viewBox="0 0 15 15" fill="none" xmlns="http://www.w3.org/2000/svg">
<path d="M7.91003 1.04997L9.34002 5.45997C9.37002 5.53997 9.44002 5.59999 9.53002 5.59999H14.17C14.37 5.59999 14.45 5.84998 14.29 5.96998L10.53 8.7C10.46 8.75 10.43 8.83998 10.46 8.92998L11.89 13.34C11.95 13.53 11.74 13.68 11.58 13.57L7.82003 10.84C7.75003 10.79 7.65001 10.79 7.58001 10.84L3.82003 13.57C3.66003 13.69 3.45003 13.53 3.51003 13.34L4.94003 8.92998C4.97003 8.84998 4.94002 8.75 4.87002 8.7L1.11001 5.96998C0.95001 5.84998 1.03004 5.59999 1.23004 5.59999H5.87002C5.96002 5.59999 6.04002 5.53997 6.06002 5.45997L7.49002 1.04997C7.55002 0.859971 7.81003 0.859971 7.88003 1.04997H7.91003Z" stroke="#17CA89" stroke-miterlimit="10"/>
</svg>
