<svg width="10" height="14" viewBox="0 0 10 14" fill="none" xmlns="http://www.w3.org/2000/svg">
<path d="M5.14225 0.380018C6.57225 0.460018 7.91226 1.19003 8.83226 2.64003C9.33226 3.43003 9.56225 4.30002 9.54225 5.23002C9.52225 6.18002 9.25225 7.06001 8.70225 7.84001C8.09225 8.70001 7.47225 9.55001 6.86225 10.4C6.23225 11.28 5.59225 12.15 4.95225 13.03C4.91225 13.09 4.87225 13.14 4.79225 13.15C4.71225 13.15 4.66225 13.11 4.61225 13.05C4.32225 12.65 4.04227 12.26 3.75227 11.86C3.01227 10.84 2.27227 9.82 1.53227 8.8C1.24227 8.39 0.932252 7.99001 0.672252 7.56001C0.0322518 6.48001 -0.157757 5.32002 0.132243 4.10002C0.522243 2.46002 1.53227 1.32002 3.09227 0.690015C3.67227 0.460015 4.23225 0.370018 5.14225 0.380018ZM4.78227 0.710004C4.04227 0.710004 3.34227 0.870003 2.69227 1.24C1.41227 1.96 0.632263 3.05001 0.402263 4.50001C0.222263 5.60001 0.462266 6.62 1.06227 7.55C1.26227 7.86 1.48225 8.15001 1.70225 8.44001C2.54225 9.61001 3.38227 10.77 4.22227 11.94C4.37227 12.15 4.52226 12.37 4.68226 12.58C4.74226 12.67 4.82225 12.67 4.89225 12.58C4.90225 12.57 4.91225 12.55 4.92225 12.54C5.24225 12.09 5.56224 11.65 5.88224 11.2C6.64224 10.14 7.41225 9.08 8.17225 8.02C8.38225 7.73 8.60227 7.44001 8.75227 7.12001C9.32227 5.94001 9.38224 4.74001 8.91224 3.53001C8.25224 1.83001 6.61227 0.720014 4.78227 0.720014V0.710004Z" fill="#72726F"/>
<path d="M4.78222 2.20001C6.42222 2.20001 7.72221 3.52 7.71221 5.16C7.71221 6.78 6.38222 8.08 4.75222 8.07C3.14222 8.07 1.82221 6.74001 1.83221 5.14001C1.84221 3.50001 3.15221 2.19001 4.77221 2.20001H4.78222ZM4.78222 2.51998C3.31222 2.52998 2.1522 3.71001 2.1622 5.17001C2.1622 6.60001 3.36222 7.77001 4.81222 7.76001C6.23222 7.75001 7.40222 6.56001 7.40222 5.14001C7.40222 3.70001 6.22222 2.52998 4.78222 2.51998Z" fill="#72726F"/>
</svg>
