<svg width="69" height="103" viewBox="0 0 69 103" fill="none" xmlns="http://www.w3.org/2000/svg">
<path d="M34.2499 68.36C53.0938 68.36 68.3699 53.0839 68.3699 34.24C68.3699 15.396 53.0938 0.119995 34.2499 0.119995C15.4059 0.119995 0.129883 15.396 0.129883 34.24C0.129883 53.0839 15.4059 68.36 34.2499 68.36Z" fill="#72726F"/>
<path d="M54.9601 30.35H53.5901V26.06C53.5901 24.49 52.3101 23.21 50.7401 23.21H35.9801C35.0401 23.21 34.2101 23.67 33.6901 24.38C33.1701 23.68 32.3401 23.21 31.4001 23.21H22.3301C22.0201 23.21 21.7701 23.46 21.7701 23.77C21.7701 24.08 22.0201 24.33 22.3301 24.33H31.4001C32.3501 24.33 33.1301 25.1 33.1301 26.06V33.68C32.3701 32.87 31.3001 32.35 30.1101 32.35H18.7101V31.98C18.7101 31.09 17.9801 30.36 17.0901 30.36H14.9201V26.06C14.9201 25.11 15.6901 24.34 16.6501 24.34H19.6601C19.9701 24.34 20.2201 24.09 20.2201 23.78C20.2201 23.47 19.9701 23.22 19.6601 23.22H16.6501C15.0801 23.22 13.8001 24.5 13.8001 26.07V30.37H12.4301C11.5401 30.37 10.8101 31.1 10.8101 31.99V39.7C10.8101 41.98 12.6601 43.83 14.9401 43.83H16.1501L15.2501 45.89C15.0001 46.46 15.0501 47.11 15.4001 47.63C15.7401 48.15 16.3201 48.46 16.9401 48.46H18.1401C18.7601 48.46 19.3301 48.15 19.6701 47.64L22.2101 43.82H45.2301L47.7701 47.64C48.1101 48.15 48.6801 48.46 49.3001 48.46H50.5001C51.1201 48.46 51.7001 48.15 52.0401 47.63C52.3801 47.11 52.4401 46.46 52.1901 45.89L51.2901 43.83H52.4801C54.7601 43.83 56.6101 41.98 56.6101 39.7V31.99C56.6101 31.1 55.8801 30.37 54.9901 30.37L54.9601 30.35ZM35.9701 24.33H50.7301C51.6801 24.33 52.4601 25.1 52.4601 26.06V30.35H50.3001C49.4101 30.35 48.6801 31.08 48.6801 31.97V32.34H37.2601C36.0701 32.34 35.0001 32.86 34.2401 33.67V26.05C34.2401 25.1 35.0101 24.32 35.9701 24.32V24.33ZM33.1301 36.49V37.43H18.7001V33.46H30.1101C31.7801 33.46 33.1401 34.82 33.1401 36.48L33.1301 36.49ZM18.7201 47.01C18.5901 47.21 18.3601 47.33 18.1201 47.33H16.9201C16.6701 47.33 16.4501 47.21 16.3201 47C16.1801 46.79 16.1601 46.54 16.2601 46.32L17.3601 43.81H20.8401L18.7101 47.01H18.7201ZM51.1401 46.32C51.2401 46.55 51.2201 46.8 51.0801 47C50.9501 47.21 50.7301 47.33 50.4801 47.33H49.2801C49.0401 47.33 48.8201 47.21 48.6801 47.01L46.5501 43.81H50.0301L51.1301 46.32H51.1401ZM55.4601 39.68C55.4601 41.34 54.1101 42.69 52.4501 42.69H14.9301C13.2701 42.69 11.9201 41.34 11.9201 39.68V31.97C11.9201 31.69 12.1401 31.47 12.4201 31.47H17.0701C17.3501 31.47 17.5701 31.69 17.5701 31.97V38.56H42.8601V37.44H34.2501V36.5C34.2501 34.83 35.6001 33.48 37.2701 33.48L48.6901 33.54L48.6301 37.45H45.5301V38.57H49.8101V31.98C49.8101 31.7 50.0301 31.48 50.3101 31.48H54.9601C55.2401 31.48 55.4601 31.7 55.4601 31.98V39.69V39.68Z" fill="#FAFAFA"/>
<path d="M11.6669 84.9867C12.291 84.9867 12.8503 84.8773 13.3447 84.6584C13.8432 84.4396 14.2546 84.1336 14.5788 83.7405C14.903 83.3433 15.1137 82.8773 15.211 82.3423V82.3302H14.1046L14.0925 82.3423C14.0033 82.6787 13.8452 82.9705 13.6183 83.2177C13.3913 83.4609 13.1117 83.6493 12.7794 83.7831C12.447 83.9127 12.0762 83.9776 11.6669 83.9776C11.1036 83.9776 10.6152 83.8317 10.2018 83.5399C9.79251 83.2481 9.47639 82.8347 9.25349 82.2998C9.03059 81.7648 8.91914 81.1326 8.91914 80.4031V80.3909C8.91914 79.6574 9.03059 79.0231 9.25349 78.4882C9.47639 77.9532 9.79251 77.5398 10.2018 77.248C10.6152 76.9562 11.1015 76.8103 11.6608 76.8103C12.0661 76.8103 12.4329 76.8853 12.7611 77.0353C13.0935 77.1852 13.3751 77.398 13.6061 77.6736C13.8371 77.9451 14.0013 78.2693 14.0985 78.6462L14.1046 78.6584H15.2049L15.211 78.6462C15.1259 78.0869 14.9192 77.5945 14.5909 77.169C14.2627 76.7394 13.8452 76.4051 13.3386 76.1659C12.8361 75.9228 12.2768 75.8012 11.6608 75.8012C10.8665 75.8012 10.1795 75.9876 9.6 76.3605C9.02451 76.7333 8.57871 77.2622 8.2626 77.9471C7.95054 78.632 7.79451 79.4466 7.79451 80.3909V80.4031C7.79451 81.3433 7.95054 82.1559 8.2626 82.8408C8.57871 83.5257 9.02654 84.0546 9.60608 84.4274C10.1856 84.8003 10.8726 84.9867 11.6669 84.9867ZM19.6062 84.8955C20.2303 84.8955 20.7673 84.7598 21.2172 84.4882C21.667 84.2126 22.0135 83.8216 22.2567 83.315C22.5039 82.8084 22.6275 82.2065 22.6275 81.5095V81.4973C22.6275 80.7962 22.5039 80.1923 22.2567 79.6857C22.0135 79.1792 21.667 78.7901 21.2172 78.5186C20.7673 78.247 20.2303 78.1113 19.6062 78.1113C18.9861 78.1113 18.4491 78.247 17.9952 78.5186C17.5454 78.7901 17.1969 79.1792 16.9496 79.6857C16.7065 80.1923 16.5849 80.7962 16.5849 81.4973V81.5095C16.5849 82.2065 16.7065 82.8084 16.9496 83.315C17.1969 83.8216 17.5454 84.2126 17.9952 84.4882C18.4491 84.7598 18.9861 84.8955 19.6062 84.8955ZM19.6062 83.9594C19.1928 83.9594 18.8423 83.8621 18.5545 83.6676C18.2668 83.473 18.0459 83.1934 17.8919 82.8286C17.7419 82.4639 17.667 82.0242 17.667 81.5095V81.4973C17.667 80.9786 17.7419 80.5368 17.8919 80.1721C18.0459 79.8073 18.2668 79.5297 18.5545 79.3392C18.8423 79.1447 19.1928 79.0474 19.6062 79.0474C20.0196 79.0474 20.3701 79.1447 20.6579 79.3392C20.9456 79.5297 21.1645 79.8073 21.3144 80.1721C21.4684 80.5368 21.5454 80.9786 21.5454 81.4973V81.5095C21.5454 82.0242 21.4684 82.4639 21.3144 82.8286C21.1645 83.1934 20.9456 83.473 20.6579 83.6676C20.3701 83.8621 20.0196 83.9594 19.6062 83.9594ZM26.4634 84.8955C26.7836 84.8955 27.0693 84.853 27.3206 84.7679C27.5759 84.6828 27.7948 84.5592 27.9771 84.397C28.1595 84.2309 28.3034 84.0323 28.4087 83.8013H28.506V84.78H29.5638V78.2268H28.506V82.1052C28.506 82.393 28.4675 82.6523 28.3905 82.8833C28.3176 83.1103 28.2061 83.3048 28.0562 83.4669C27.9062 83.625 27.7198 83.7466 27.4969 83.8317C27.278 83.9168 27.0247 83.9594 26.737 83.9594C26.2142 83.9594 25.8373 83.8155 25.6063 83.5277C25.3793 83.24 25.2658 82.8023 25.2658 82.2146V78.2268H24.2081V82.47C24.2081 82.9847 24.2912 83.4244 24.4573 83.7891C24.6275 84.1498 24.8808 84.4254 25.2172 84.6159C25.5536 84.8023 25.969 84.8955 26.4634 84.8955ZM34.2204 84.8955C34.7472 84.8955 35.1971 84.8084 35.5699 84.6341C35.9428 84.4599 36.2427 84.2208 36.4696 83.9168C36.6966 83.6088 36.8546 83.2582 36.9438 82.8651L36.956 82.7982L35.9104 82.8043L35.8982 82.8408C35.7766 83.2055 35.576 83.4832 35.2964 83.6736C35.0167 83.8641 34.656 83.9594 34.2143 83.9594C33.8252 83.9594 33.4868 83.858 33.1991 83.6554C32.9113 83.4528 32.6884 83.167 32.5304 82.7982C32.3723 82.4254 32.2933 81.9877 32.2933 81.4852V81.473C32.2933 80.9786 32.3703 80.551 32.5243 80.1903C32.6823 79.8256 32.9052 79.5439 33.193 79.3453C33.4807 79.1467 33.8212 79.0474 34.2143 79.0474C34.6844 79.0474 35.0633 79.1609 35.3511 79.3879C35.6388 79.6148 35.8232 79.8904 35.9043 80.2146L35.9104 80.2329H36.962L36.956 80.1964C36.8911 79.8073 36.7432 79.4568 36.5122 79.1447C36.2812 78.8286 35.9732 78.5773 35.5882 78.3909C35.2031 78.2045 34.7452 78.1113 34.2143 78.1113C33.6023 78.1113 33.0714 78.2511 32.6216 78.5307C32.1717 78.8063 31.8232 79.1954 31.576 79.6979C31.3328 80.2004 31.2112 80.7921 31.2112 81.473V81.4852C31.2112 82.1782 31.3348 82.78 31.582 83.2906C31.8292 83.8013 32.1778 84.1964 32.6276 84.4761C33.0775 84.7557 33.6084 84.8955 34.2204 84.8955ZM38.5669 84.78H39.6247V80.9016C39.6247 80.5166 39.6936 80.1863 39.8314 79.9107C39.9732 79.6351 40.1718 79.4223 40.4271 79.2724C40.6824 79.1224 40.9844 79.0474 41.3329 79.0474C41.8557 79.0474 42.2407 79.1913 42.4879 79.4791C42.7392 79.7627 42.8648 80.2004 42.8648 80.7921V84.78H43.9226V80.5368C43.9226 80.0181 43.8334 79.5783 43.6551 79.2177C43.4768 78.857 43.2174 78.5834 42.877 78.397C42.5366 78.2065 42.1212 78.1113 41.6308 78.1113C41.1485 78.1113 40.7513 78.2085 40.4393 78.4031C40.1272 78.5935 39.8881 78.863 39.7219 79.2116H39.6247V75.6249H38.5669V84.78ZM48.5123 84.8955C48.8973 84.8955 49.2438 84.8469 49.5519 84.7496C49.8639 84.6483 50.1334 84.5146 50.3604 84.3484C50.5873 84.1782 50.7717 83.9897 50.9136 83.7831C51.0595 83.5723 51.1608 83.3555 51.2175 83.1326L51.2297 83.084H50.1719L50.1476 83.1387C50.0909 83.2684 49.9916 83.396 49.8497 83.5217C49.7079 83.6473 49.5275 83.7506 49.3087 83.8317C49.0898 83.9127 48.8325 83.9533 48.5366 83.9533C48.1395 83.9533 47.795 83.8661 47.5032 83.6919C47.2114 83.5135 46.9865 83.2603 46.8284 82.932C46.6704 82.5997 46.5913 82.2005 46.5913 81.7344V81.3149C46.5913 80.8246 46.6724 80.4112 46.8345 80.0748C46.9966 79.7384 47.2155 79.4851 47.491 79.3149C47.7707 79.1406 48.0868 79.0535 48.4394 79.0535C48.792 79.0535 49.104 79.1366 49.3756 79.3028C49.6471 79.4649 49.8599 79.7121 50.0139 80.0444C50.1679 80.3767 50.2449 80.8002 50.2449 81.3149V81.7344L50.7677 80.9624H46.0564V81.8073H51.3087V81.394C51.3087 80.7415 51.1932 80.17 50.9622 79.6797C50.7353 79.1852 50.407 78.8002 49.9774 78.5246C49.5519 78.249 49.0412 78.1113 48.4455 78.1113C47.8538 78.1113 47.337 78.2551 46.8953 78.5429C46.4535 78.8306 46.1111 79.2298 45.8679 79.7405C45.6288 80.2511 45.5092 80.8448 45.5092 81.5216V81.5277C45.5092 82.2126 45.6288 82.8084 45.8679 83.315C46.1111 83.8175 46.4556 84.2066 46.9014 84.4822C47.3512 84.7577 47.8882 84.8955 48.5123 84.8955ZM55.1993 84.8955C55.6978 84.8955 56.1436 84.8125 56.5367 84.6463C56.9339 84.4801 57.248 84.2491 57.479 83.9533C57.71 83.6534 57.8255 83.3089 57.8255 82.9198V82.9077C57.8255 82.4375 57.6735 82.0627 57.3696 81.783C57.0697 81.5034 56.6117 81.2886 55.9957 81.1386L54.9866 80.8955C54.7312 80.8306 54.5225 80.7557 54.3604 80.6706C54.1983 80.5854 54.0788 80.4862 54.0018 80.3727C53.9248 80.2592 53.8863 80.1295 53.8863 79.9836V79.9715C53.8863 79.7769 53.945 79.6067 54.0625 79.4608C54.1801 79.3149 54.3402 79.2014 54.5428 79.1204C54.7454 79.0353 54.9764 78.9927 55.2358 78.9927C55.633 78.9927 55.9552 79.0738 56.2024 79.2359C56.4496 79.398 56.6077 79.6087 56.6766 79.8681H57.7161C57.6675 79.5115 57.5337 79.2014 57.3149 78.938C57.1001 78.6746 56.8144 78.4719 56.4577 78.3301C56.1051 78.1842 55.6999 78.1113 55.2419 78.1113C54.7799 78.1113 54.3645 78.1943 53.9957 78.3605C53.6269 78.5267 53.3351 78.7536 53.1203 79.0414C52.9095 79.3291 52.8042 79.6553 52.8042 80.0201V80.0262C52.8042 80.3382 52.867 80.6098 52.9926 80.8408C53.1183 81.0677 53.3128 81.2602 53.5762 81.4183C53.8396 81.5723 54.176 81.6979 54.5853 81.7952L55.6006 82.0384C56.0058 82.1356 56.2976 82.2633 56.4759 82.4213C56.6543 82.5753 56.7434 82.7638 56.7434 82.9867V82.9989C56.7434 83.1974 56.6786 83.3737 56.5489 83.5277C56.4192 83.6777 56.2409 83.7972 56.0139 83.8864C55.791 83.9715 55.5317 84.0141 55.2358 84.0141C54.8184 84.0141 54.48 83.931 54.2206 83.7648C53.9612 83.5987 53.787 83.3798 53.6978 83.1083H52.6157C52.6562 83.469 52.788 83.7831 53.0109 84.0505C53.2378 84.318 53.5377 84.5267 53.9106 84.6767C54.2834 84.8226 54.713 84.8955 55.1993 84.8955ZM19.126 99.78H20.4998V99.774L15.6062 94.552C15.3427 94.2683 15.132 94.0292 14.9739 93.8347C14.8199 93.6361 14.7085 93.4598 14.6396 93.3058C14.5707 93.1477 14.5362 92.9897 14.5362 92.8316V92.8195C14.5362 92.5925 14.5869 92.3939 14.6882 92.2237C14.7936 92.0494 14.9354 91.9137 15.1137 91.8164C15.2961 91.7191 15.5028 91.6705 15.7338 91.6705C15.9729 91.6705 16.1816 91.7191 16.36 91.8164C16.5423 91.9096 16.6842 92.0413 16.7855 92.2115C16.8868 92.3818 16.9375 92.5803 16.9375 92.8073V92.8195C16.9375 93.0261 16.8868 93.2187 16.7855 93.397C16.6882 93.5753 16.5221 93.7536 16.287 93.9319C16.052 94.1103 15.7277 94.3028 15.3144 94.5094L15.904 95.1295C16.4106 94.8701 16.8139 94.6189 17.1138 94.3757C17.4177 94.1285 17.6345 93.8752 17.7642 93.6158C17.898 93.3564 17.9648 93.0788 17.9648 92.783V92.7708C17.9648 92.3899 17.8676 92.0515 17.673 91.7556C17.4826 91.4598 17.2191 91.2267 16.8828 91.0565C16.5464 90.8863 16.1614 90.8012 15.7277 90.8012C15.3022 90.8012 14.9192 90.8863 14.5788 91.0565C14.2424 91.2267 13.977 91.4598 13.7824 91.7556C13.5879 92.0515 13.4906 92.3858 13.4906 92.7587V92.7708C13.4906 92.9816 13.5291 93.1903 13.6061 93.397C13.6831 93.6037 13.8108 93.8326 13.9891 94.0839C14.1715 94.3311 14.4146 94.6209 14.7186 94.9532L19.126 99.78ZM15.4785 99.9442C16.208 99.9442 16.8362 99.8226 17.363 99.5794C17.8939 99.3363 18.3316 98.9979 18.6761 98.5642C19.0246 98.1265 19.282 97.6078 19.4481 97.008C19.6143 96.4082 19.6974 95.7557 19.6974 95.0505V94.8924H18.6761V95.0444C18.6761 95.5834 18.6153 96.092 18.4937 96.5703C18.3762 97.0444 18.1959 97.4598 17.9527 97.8165C17.7825 98.0637 17.5819 98.2785 17.3509 98.4609C17.1198 98.6392 16.8564 98.777 16.5606 98.8742C16.2647 98.9715 15.9365 99.0201 15.5758 99.0201C15.1867 99.0201 14.8442 98.9512 14.5484 98.8135C14.2525 98.6757 14.0215 98.4832 13.8554 98.2359C13.6892 97.9847 13.6061 97.6969 13.6061 97.3727V97.3605C13.6061 96.9999 13.7176 96.6696 13.9405 96.3697C14.1674 96.0698 14.4896 95.8205 14.9071 95.6219L15.363 95.4031L14.7551 94.7405L14.2748 94.9775C13.6831 95.2693 13.2414 95.6199 12.9496 96.0292C12.6578 96.4345 12.5119 96.9026 12.5119 97.4335V97.4457C12.5119 97.932 12.6375 98.3636 12.8888 98.7405C13.1401 99.1174 13.4886 99.4133 13.9344 99.6281C14.3843 99.8388 14.899 99.9442 15.4785 99.9442ZM28.1717 99.9867C28.8241 99.9867 29.3936 99.8793 29.8799 99.6645C30.3662 99.4457 30.7431 99.1377 31.0106 98.7405C31.2781 98.3433 31.4118 97.8712 31.4118 97.3241V97.318C31.4118 96.8965 31.3247 96.5318 31.1504 96.2238C30.9802 95.9117 30.7087 95.6483 30.3358 95.4335C29.963 95.2187 29.4706 95.0444 28.8586 94.9107L27.8859 94.6918C27.2902 94.5621 26.8626 94.3777 26.6032 94.1386C26.3439 93.8995 26.2142 93.6057 26.2142 93.2572V93.2511C26.2142 92.9431 26.2993 92.6837 26.4695 92.4729C26.6438 92.2582 26.8768 92.094 27.1686 91.9805C27.4604 91.8671 27.7887 91.8103 28.1534 91.8103C28.5344 91.8063 28.8667 91.863 29.1504 91.9805C29.4341 92.0981 29.661 92.2582 29.8312 92.4608C30.0015 92.6594 30.1068 92.8884 30.1474 93.1477L30.1595 93.2268H31.2538L31.2477 93.1417C31.2193 92.704 31.0714 92.3088 30.8039 91.9562C30.5405 91.6036 30.1838 91.324 29.734 91.1173C29.2841 90.9066 28.7674 90.8012 28.1838 90.8012C27.58 90.8012 27.045 90.9066 26.5789 91.1173C26.1169 91.3281 25.7542 91.6198 25.4908 91.9927C25.2314 92.3656 25.0997 92.7951 25.0956 93.2815V93.2875C25.0956 93.9238 25.2942 94.4466 25.6914 94.856C26.0926 95.2612 26.7329 95.5611 27.6124 95.7557L28.585 95.9684C29.1889 96.1022 29.6246 96.2947 29.892 96.5459C30.1595 96.7932 30.2933 97.0991 30.2933 97.4639V97.47C30.2933 97.7658 30.2041 98.0272 30.0258 98.2542C29.8475 98.4811 29.6023 98.6594 29.2902 98.7891C28.9822 98.9148 28.6296 98.9776 28.2324 98.9776C27.811 98.9776 27.4341 98.9188 27.1017 98.8013C26.7735 98.6838 26.51 98.5196 26.3114 98.3089C26.1169 98.0941 26.0055 97.8408 25.9771 97.549L25.971 97.4821H24.8768L24.8829 97.549C24.9274 98.0232 25.0875 98.4447 25.3631 98.8135C25.6427 99.1782 26.0197 99.4659 26.4938 99.6767C26.972 99.8834 27.5313 99.9867 28.1717 99.9867ZM35.7948 99.8955C36.419 99.8955 36.956 99.7598 37.4058 99.4882C37.8557 99.2126 38.2022 98.8216 38.4453 98.315C38.6926 97.8084 38.8162 97.2065 38.8162 96.5095V96.4973C38.8162 95.7962 38.6926 95.1923 38.4453 94.6857C38.2022 94.1792 37.8557 93.7901 37.4058 93.5186C36.956 93.247 36.419 93.1113 35.7948 93.1113C35.1748 93.1113 34.6378 93.247 34.1839 93.5186C33.734 93.7901 33.3855 94.1792 33.1383 94.6857C32.8951 95.1923 32.7735 95.7962 32.7735 96.4973V96.5095C32.7735 97.2065 32.8951 97.8084 33.1383 98.315C33.3855 98.8216 33.734 99.2126 34.1839 99.4882C34.6378 99.7598 35.1748 99.8955 35.7948 99.8955ZM35.7948 98.9594C35.3815 98.9594 35.0309 98.8621 34.7432 98.6676C34.4554 98.473 34.2345 98.1934 34.0805 97.8286C33.9306 97.4639 33.8556 97.0242 33.8556 96.5095V96.4973C33.8556 95.9786 33.9306 95.5368 34.0805 95.1721C34.2345 94.8073 34.4554 94.5297 34.7432 94.3392C35.0309 94.1447 35.3815 94.0474 35.7948 94.0474C36.2082 94.0474 36.5588 94.1447 36.8465 94.3392C37.1343 94.5297 37.3531 94.8073 37.5031 95.1721C37.6571 95.5368 37.7341 95.9786 37.7341 96.4973V96.5095C37.7341 97.0242 37.6571 97.4639 37.5031 97.8286C37.3531 98.1934 37.1343 98.473 36.8465 98.6676C36.5588 98.8621 36.2082 98.9594 35.7948 98.9594ZM40.8952 99.78H41.953V94.1021H43.4424V93.2268H41.953V92.5277C41.953 92.167 42.034 91.8954 42.1961 91.7131C42.3623 91.5307 42.6338 91.4395 43.0107 91.4395C43.104 91.4395 43.1931 91.4415 43.2782 91.4456C43.3633 91.4496 43.4383 91.4577 43.5032 91.4699V90.6249C43.3937 90.6046 43.2802 90.5905 43.1627 90.5823C43.0492 90.5702 42.9277 90.5641 42.798 90.5641C42.3846 90.5641 42.0361 90.635 41.7524 90.7769C41.4687 90.9147 41.2539 91.1274 41.108 91.4152C40.9661 91.6989 40.8952 92.0596 40.8952 92.4973V93.2268H39.8071V94.1021H40.8952V99.78ZM46.5853 99.8955C46.8811 99.8955 47.1526 99.855 47.3999 99.774C47.6471 99.6888 47.8679 99.5652 48.0625 99.4031C48.2611 99.241 48.4292 99.0445 48.567 98.8135H48.6643V99.78H49.7221V95.2937C49.7221 94.8397 49.6248 94.4507 49.4303 94.1265C49.2398 93.7982 48.9581 93.5469 48.5853 93.3727C48.2165 93.1984 47.7646 93.1113 47.2296 93.1113C46.7636 93.1113 46.3482 93.1842 45.9834 93.3301C45.6187 93.4719 45.3208 93.6726 45.0898 93.9319C44.8628 94.1873 44.721 94.4872 44.6643 94.8316L44.6582 94.8681H45.7159L45.722 94.8499C45.8071 94.5946 45.9753 94.398 46.2266 94.2602C46.4779 94.1184 46.8 94.0474 47.1932 94.0474C47.6835 94.0474 48.0503 94.1548 48.2935 94.3696C48.5407 94.5804 48.6643 94.8884 48.6643 95.2937V97.3362C48.6643 97.6483 48.5833 97.9279 48.4211 98.1751C48.2631 98.4224 48.0442 98.6189 47.7646 98.7648C47.485 98.9067 47.1648 98.9776 46.8041 98.9776C46.4231 98.9776 46.107 98.8864 45.8558 98.704C45.6045 98.5176 45.4789 98.2582 45.4789 97.9259V97.9137C45.4789 97.5895 45.5923 97.3383 45.8193 97.1599C46.0503 96.9816 46.415 96.8783 46.9135 96.8499L49.1932 96.704V95.859L46.7859 96.0049C46.2793 96.0333 45.8477 96.1265 45.491 96.2845C45.1344 96.4426 44.8628 96.6615 44.6764 96.9411C44.49 97.2167 44.3968 97.549 44.3968 97.9381V97.9502C44.3968 98.3474 44.492 98.6919 44.6825 98.9837C44.877 99.2755 45.1384 99.5004 45.4667 99.6584C45.799 99.8165 46.1719 99.8955 46.5853 99.8955ZM53.9045 99.8955C54.403 99.8955 54.8488 99.8125 55.2419 99.6463C55.6391 99.4801 55.9531 99.2491 56.1842 98.9533C56.4152 98.6534 56.5307 98.3089 56.5307 97.9198V97.9077C56.5307 97.4375 56.3787 97.0627 56.0747 96.783C55.7748 96.5034 55.3169 96.2886 54.7009 96.1386L53.6917 95.8955C53.4364 95.8306 53.2277 95.7557 53.0656 95.6706C52.9035 95.5854 52.7839 95.4862 52.7069 95.3727C52.6299 95.2592 52.5914 95.1295 52.5914 94.9836V94.9715C52.5914 94.7769 52.6502 94.6067 52.7677 94.4608C52.8852 94.3149 53.0453 94.2014 53.2479 94.1204C53.4506 94.0353 53.6816 93.9927 53.941 93.9927C54.3381 93.9927 54.6603 94.0738 54.9075 94.2359C55.1548 94.398 55.3128 94.6087 55.3817 94.8681H56.4212C56.3726 94.5115 56.2389 94.2014 56.02 93.938C55.8052 93.6746 55.5195 93.4719 55.1629 93.3301C54.8103 93.1842 54.405 93.1113 53.947 93.1113C53.485 93.1113 53.0696 93.1943 52.7008 93.3605C52.332 93.5267 52.0402 93.7536 51.8254 94.0414C51.6147 94.3291 51.5093 94.6553 51.5093 95.0201V95.0262C51.5093 95.3382 51.5721 95.6098 51.6978 95.8408C51.8234 96.0677 52.0179 96.2602 52.2814 96.4183C52.5448 96.5723 52.8812 96.6979 53.2905 96.7952L54.3057 97.0384C54.711 97.1356 55.0028 97.2633 55.1811 97.4213C55.3594 97.5753 55.4486 97.7638 55.4486 97.9867V97.9989C55.4486 98.1974 55.3837 98.3737 55.2541 98.5277C55.1244 98.6777 54.946 98.7972 54.7191 98.8864C54.4962 98.9715 54.2368 99.0141 53.941 99.0141C53.5235 99.0141 53.1851 98.931 52.9258 98.7648C52.6664 98.5987 52.4921 98.3798 52.403 98.1083H51.3209C51.3614 98.469 51.4931 98.7831 51.716 99.0505C51.943 99.318 52.2429 99.5267 52.6157 99.6767C52.9886 99.8226 53.4182 99.8955 53.9045 99.8955Z" fill="#72726F"/>
</svg>
