<svg width="70" height="104" viewBox="0 0 70 104" fill="none" xmlns="http://www.w3.org/2000/svg">
<path d="M17.6928 85.78H18.787V77.9927H21.6138V77.0079H14.866V77.9927H17.6928V85.78ZM23.6929 85.8955C23.9887 85.8955 24.2603 85.855 24.5075 85.774C24.7547 85.6888 24.9756 85.5652 25.1701 85.4031C25.3687 85.241 25.5369 85.0445 25.6747 84.8135H25.7719V85.78H26.8297V81.2937C26.8297 80.8397 26.7324 80.4507 26.5379 80.1265C26.3474 79.7982 26.0657 79.5469 25.6929 79.3727C25.3241 79.1984 24.8722 79.1113 24.3373 79.1113C23.8712 79.1113 23.4558 79.1842 23.091 79.3301C22.7263 79.4719 22.4284 79.6726 22.1974 79.9319C21.9705 80.1873 21.8286 80.4872 21.7719 80.8316L21.7658 80.8681H22.8236L22.8296 80.8499C22.9147 80.5946 23.0829 80.398 23.3342 80.2602C23.5855 80.1184 23.9077 80.0474 24.3008 80.0474C24.7912 80.0474 25.1579 80.1548 25.4011 80.3696C25.6483 80.5804 25.7719 80.8884 25.7719 81.2937V83.3362C25.7719 83.6483 25.6909 83.9279 25.5288 84.1751C25.3707 84.4224 25.1519 84.6189 24.8722 84.7648C24.5926 84.9067 24.2724 84.9776 23.9117 84.9776C23.5308 84.9776 23.2146 84.8864 22.9634 84.704C22.7121 84.5176 22.5865 84.2582 22.5865 83.9259V83.9137C22.5865 83.5895 22.7 83.3383 22.9269 83.1599C23.1579 82.9816 23.5227 82.8783 24.0211 82.8499L26.3008 82.704V81.859L23.8935 82.0049C23.3869 82.0333 22.9553 82.1265 22.5986 82.2845C22.242 82.4426 21.9705 82.6615 21.784 82.9411C21.5976 83.2167 21.5044 83.549 21.5044 83.9381V83.9502C21.5044 84.3474 21.5996 84.6919 21.7901 84.9837C21.9846 85.2755 22.246 85.5004 22.5743 85.6584C22.9066 85.8165 23.2795 85.8955 23.6929 85.8955ZM32.0212 85.8955C32.5765 85.8955 33.0587 85.7557 33.4681 85.4761C33.8814 85.1964 34.2016 84.8033 34.4286 84.2967C34.6555 83.7861 34.769 83.1903 34.769 82.5095V82.4973C34.769 81.8124 34.6555 81.2167 34.4286 80.7101C34.2016 80.2035 33.8814 79.8104 33.4681 79.5307C33.0587 79.2511 32.5765 79.1113 32.0212 79.1113C31.7213 79.1113 31.4376 79.1599 31.1702 79.2572C30.9067 79.3504 30.6717 79.4821 30.465 79.6523C30.2624 79.8225 30.1002 80.0251 29.9787 80.2602H29.8814V76.6249H28.8236V85.78H29.8814V84.7344H29.9787C30.1124 84.9776 30.2806 85.1863 30.4832 85.3606C30.6859 85.5308 30.9169 85.6625 31.1762 85.7557C31.4356 85.8489 31.7173 85.8955 32.0212 85.8955ZM31.7781 84.9594C31.3809 84.9594 31.0385 84.8601 30.7507 84.6615C30.463 84.4629 30.2421 84.1812 30.0881 83.8165C29.9341 83.4477 29.8571 83.012 29.8571 82.5095V82.4973C29.8571 81.9907 29.9341 81.5551 30.0881 81.1903C30.2421 80.8256 30.463 80.5439 30.7507 80.3453C31.0385 80.1467 31.3809 80.0474 31.7781 80.0474C32.1793 80.0474 32.5218 80.1467 32.8054 80.3453C33.0891 80.5398 33.306 80.8195 33.4559 81.1842C33.6099 81.549 33.6869 81.9867 33.6869 82.4973V82.5095C33.6869 83.0161 33.6099 83.4538 33.4559 83.8226C33.306 84.1873 33.0891 84.469 32.8054 84.6676C32.5218 84.8621 32.1793 84.9594 31.7781 84.9594ZM36.4711 85.78H37.5289V76.6249H36.4711V85.78ZM42.2341 85.8955C42.6191 85.8955 42.9657 85.8469 43.2737 85.7496C43.5857 85.6483 43.8552 85.5146 44.0822 85.3484C44.3091 85.1782 44.4935 84.9897 44.6354 84.7831C44.7813 84.5723 44.8826 84.3555 44.9393 84.1326L44.9515 84.084H43.8937L43.8694 84.1387C43.8127 84.2684 43.7134 84.396 43.5715 84.5217C43.4297 84.6473 43.2493 84.7506 43.0305 84.8317C42.8116 84.9127 42.5543 84.9533 42.2584 84.9533C41.8613 84.9533 41.5168 84.8661 41.225 84.6919C40.9332 84.5135 40.7083 84.2603 40.5502 83.932C40.3922 83.5997 40.3131 83.2005 40.3131 82.7344V82.3149C40.3131 81.8246 40.3942 81.4112 40.5563 81.0748C40.7184 80.7384 40.9373 80.4851 41.2128 80.3149C41.4925 80.1406 41.8086 80.0535 42.1612 80.0535C42.5138 80.0535 42.8258 80.1366 43.0974 80.3028C43.3689 80.4649 43.5817 80.7121 43.7357 81.0444C43.8897 81.3767 43.9667 81.8002 43.9667 82.3149V82.7344L44.4895 81.9624H39.7782V82.8073H45.0305V82.394C45.0305 81.7415 44.915 81.17 44.684 80.6797C44.4571 80.1852 44.1288 79.8002 43.6992 79.5246C43.2737 79.249 42.763 79.1113 42.1673 79.1113C41.5756 79.1113 41.0588 79.2551 40.6171 79.5429C40.1753 79.8306 39.8329 80.2298 39.5897 80.7405C39.3506 81.2511 39.2311 81.8448 39.2311 82.5216V82.5277C39.2311 83.2126 39.3506 83.8084 39.5897 84.315C39.8329 84.8175 40.1774 85.2066 40.6232 85.4822C41.073 85.7577 41.61 85.8955 42.2341 85.8955ZM48.9211 85.8955C49.4196 85.8955 49.8654 85.8125 50.2585 85.6463C50.6557 85.4801 50.9698 85.2491 51.2008 84.9533C51.4318 84.6534 51.5473 84.3089 51.5473 83.9198V83.9077C51.5473 83.4375 51.3953 83.0627 51.0914 82.783C50.7915 82.5034 50.3335 82.2886 49.7175 82.1386L48.7084 81.8955C48.4531 81.8306 48.2443 81.7557 48.0822 81.6706C47.9201 81.5854 47.8006 81.4862 47.7236 81.3727C47.6466 81.2592 47.6081 81.1295 47.6081 80.9836V80.9715C47.6081 80.7769 47.6668 80.6067 47.7844 80.4608C47.9019 80.3149 48.062 80.2014 48.2646 80.1204C48.4672 80.0353 48.6982 79.9927 48.9576 79.9927C49.3548 79.9927 49.677 80.0738 49.9242 80.2359C50.1714 80.398 50.3295 80.6087 50.3984 80.8681H51.4379C51.3893 80.5115 51.2555 80.2014 51.0367 79.938C50.8219 79.6746 50.5362 79.4719 50.1795 79.3301C49.8269 79.1842 49.4217 79.1113 48.9637 79.1113C48.5017 79.1113 48.0863 79.1943 47.7175 79.3605C47.3487 79.5267 47.0569 79.7536 46.8421 80.0414C46.6313 80.3291 46.526 80.6553 46.526 81.0201V81.0262C46.526 81.3382 46.5888 81.6098 46.7144 81.8408C46.8401 82.0677 47.0346 82.2602 47.298 82.4183C47.5615 82.5723 47.8978 82.6979 48.3072 82.7952L49.3224 83.0384C49.7276 83.1356 50.0194 83.2633 50.1978 83.4213C50.3761 83.5753 50.4652 83.7638 50.4652 83.9867V83.9989C50.4652 84.1974 50.4004 84.3737 50.2707 84.5277C50.141 84.6777 49.9627 84.7972 49.7357 84.8864C49.5128 84.9715 49.2535 85.0141 48.9576 85.0141C48.5402 85.0141 48.2018 84.931 47.9424 84.7648C47.683 84.5987 47.5088 84.3798 47.4196 84.1083H46.3375C46.3781 84.469 46.5098 84.7831 46.7327 85.0505C46.9596 85.318 47.2595 85.5267 47.6324 85.6767C48.0052 85.8226 48.4348 85.8955 48.9211 85.8955ZM17.4679 100.78H18.8417V100.774L13.9481 95.552C13.6846 95.2683 13.4739 95.0292 13.3158 94.8347C13.1618 94.6361 13.0504 94.4598 12.9815 94.3058C12.9126 94.1477 12.8782 93.9897 12.8782 93.8316V93.8195C12.8782 93.5925 12.9288 93.3939 13.0301 93.2237C13.1355 93.0494 13.2773 92.9137 13.4557 92.8164C13.638 92.7191 13.8447 92.6705 14.0757 92.6705C14.3148 92.6705 14.5236 92.7191 14.7019 92.8164C14.8843 92.9096 15.0261 93.0413 15.1274 93.2115C15.2287 93.3818 15.2794 93.5803 15.2794 93.8073V93.8195C15.2794 94.0261 15.2287 94.2187 15.1274 94.397C15.0302 94.5753 14.864 94.7536 14.6289 94.9319C14.3939 95.1103 14.0697 95.3028 13.6563 95.5094L14.2459 96.1295C14.7525 95.8701 15.1558 95.6189 15.4557 95.3757C15.7596 95.1285 15.9765 94.8752 16.1062 94.6158C16.2399 94.3564 16.3068 94.0788 16.3068 93.783V93.7708C16.3068 93.3899 16.2095 93.0515 16.015 92.7556C15.8245 92.4598 15.5611 92.2267 15.2247 92.0565C14.8883 91.8863 14.5033 91.8012 14.0697 91.8012C13.6441 91.8012 13.2611 91.8863 12.9207 92.0565C12.5843 92.2267 12.3189 92.4598 12.1243 92.7556C11.9298 93.0515 11.8325 93.3858 11.8325 93.7587V93.7708C11.8325 93.9816 11.871 94.1903 11.948 94.397C12.025 94.6037 12.1527 94.8326 12.331 95.0839C12.5134 95.3311 12.7566 95.6209 13.0605 95.9532L17.4679 100.78ZM13.8204 100.944C14.5499 100.944 15.1781 100.823 15.7049 100.579C16.2358 100.336 16.6735 99.9979 17.018 99.5642C17.3666 99.1265 17.6239 98.6078 17.7901 98.008C17.9562 97.4082 18.0393 96.7557 18.0393 96.0505V95.8924H17.018V96.0444C17.018 96.5834 16.9572 97.092 16.8356 97.5703C16.7181 98.0444 16.5378 98.4598 16.2946 98.8165C16.1244 99.0637 15.9238 99.2785 15.6928 99.4609C15.4618 99.6392 15.1983 99.777 14.9025 99.8742C14.6066 99.9715 14.2784 100.02 13.9177 100.02C13.5286 100.02 13.1862 99.9512 12.8903 99.8135C12.5945 99.6757 12.3635 99.4832 12.1973 99.2359C12.0311 98.9847 11.948 98.6969 11.948 98.3727V98.3605C11.948 97.9999 12.0595 97.6696 12.2824 97.3697C12.5094 97.0698 12.8315 96.8205 13.249 96.6219L13.7049 96.4031L13.097 95.7405L12.6167 95.9775C12.025 96.2693 11.5833 96.6199 11.2915 97.0292C10.9997 97.4345 10.8538 97.9026 10.8538 98.4335V98.4457C10.8538 98.932 10.9794 99.3636 11.2307 99.7405C11.482 100.117 11.8305 100.413 12.2763 100.628C12.7262 100.839 13.2409 100.944 13.8204 100.944ZM27.1701 100.987C27.7942 100.987 28.3535 100.877 28.8479 100.658C29.3464 100.44 29.7578 100.134 30.082 99.7405C30.4062 99.3433 30.617 98.8773 30.7142 98.3423V98.3302H29.6078L29.5957 98.3423C29.5065 98.6787 29.3485 98.9705 29.1215 99.2177C28.8946 99.4609 28.6149 99.6493 28.2826 99.7831C27.9503 99.9127 27.5794 99.9776 27.1701 99.9776C26.6068 99.9776 26.1184 99.8317 25.7051 99.5399C25.2957 99.2481 24.9796 98.8347 24.7567 98.2998C24.5338 97.7648 24.4224 97.1326 24.4224 96.4031V96.3909C24.4224 95.6574 24.5338 95.0231 24.7567 94.4882C24.9796 93.9532 25.2957 93.5398 25.7051 93.248C26.1184 92.9562 26.6048 92.8103 27.164 92.8103C27.5693 92.8103 27.9361 92.8853 28.2644 93.0353C28.5967 93.1852 28.8783 93.398 29.1094 93.6736C29.3404 93.9451 29.5045 94.2693 29.6018 94.6462L29.6078 94.6584H30.7082L30.7142 94.6462C30.6291 94.0869 30.4224 93.5945 30.0942 93.169C29.7659 92.7394 29.3485 92.4051 28.8419 92.1659C28.3393 91.9228 27.7801 91.8012 27.164 91.8012C26.3697 91.8012 25.6828 91.9876 25.1032 92.3605C24.5277 92.7333 24.0819 93.2622 23.7658 93.9471C23.4538 94.632 23.2977 95.4466 23.2977 96.3909V96.4031C23.2977 97.3433 23.4538 98.1559 23.7658 98.8408C24.0819 99.5257 24.5298 100.055 25.1093 100.427C25.6888 100.8 26.3758 100.987 27.1701 100.987ZM32.4772 100.78H33.5349V96.9016C33.5349 96.5166 33.6038 96.1863 33.7416 95.9107C33.8835 95.6351 34.0821 95.4223 34.3374 95.2724C34.5927 95.1224 34.8946 95.0474 35.2432 95.0474C35.766 95.0474 36.151 95.1913 36.3982 95.4791C36.6495 95.7627 36.7751 96.2004 36.7751 96.7921V100.78H37.8329V96.5368C37.8329 96.0181 37.7437 95.5783 37.5654 95.2177C37.3871 94.857 37.1277 94.5834 36.7873 94.397C36.4468 94.2065 36.0314 94.1113 35.541 94.1113C35.0588 94.1113 34.6616 94.2085 34.3495 94.4031C34.0375 94.5935 33.7984 94.863 33.6322 95.2116H33.5349V91.6249H32.4772V100.78ZM41.5472 100.896C41.843 100.896 42.1146 100.855 42.3618 100.774C42.609 100.689 42.8299 100.565 43.0244 100.403C43.223 100.241 43.3912 100.044 43.529 99.8135H43.6262V100.78H44.684V96.2937C44.684 95.8397 44.5867 95.4507 44.3922 95.1265C44.2017 94.7982 43.9201 94.5469 43.5472 94.3727C43.1784 94.1984 42.7265 94.1113 42.1916 94.1113C41.7255 94.1113 41.3101 94.1842 40.9454 94.3301C40.5806 94.4719 40.2827 94.6726 40.0517 94.9319C39.8248 95.1873 39.6829 95.4872 39.6262 95.8316L39.6201 95.8681H40.6779L40.684 95.8499C40.7691 95.5946 40.9373 95.398 41.1885 95.2602C41.4398 95.1184 41.762 95.0474 42.1551 95.0474C42.6455 95.0474 43.0123 95.1548 43.2554 95.3696C43.5026 95.5804 43.6262 95.8884 43.6262 96.2937V98.3362C43.6262 98.6483 43.5452 98.9279 43.3831 99.1751C43.225 99.4224 43.0062 99.6189 42.7265 99.7648C42.4469 99.9067 42.1267 99.9776 41.766 99.9776C41.3851 99.9776 41.069 99.8864 40.8177 99.704C40.5664 99.5176 40.4408 99.2582 40.4408 98.9259V98.9137C40.4408 98.5895 40.5543 98.3383 40.7812 98.1599C41.0122 97.9816 41.377 97.8783 41.8755 97.8499L44.1551 97.704V96.859L41.7478 97.0049C41.2412 97.0333 40.8096 97.1265 40.453 97.2845C40.0963 97.4426 39.8248 97.6615 39.6384 97.9411C39.4519 98.2167 39.3587 98.549 39.3587 98.9381V98.9502C39.3587 99.3474 39.454 99.6919 39.6444 99.9837C39.839 100.275 40.1004 100.5 40.4286 100.658C40.761 100.817 41.1338 100.896 41.5472 100.896ZM46.6415 100.78H47.6992V94.2268H46.6415V100.78ZM47.1764 92.9623C47.3791 92.9623 47.5513 92.8914 47.6932 92.7495C47.835 92.6036 47.9059 92.4314 47.9059 92.2328C47.9059 92.0302 47.835 91.8579 47.6932 91.7161C47.5513 91.5742 47.3791 91.5033 47.1764 91.5033C46.9779 91.5033 46.8056 91.5742 46.6597 91.7161C46.5179 91.8579 46.4469 92.0302 46.4469 92.2328C46.4469 92.4314 46.5179 92.6036 46.6597 92.7495C46.8056 92.8914 46.9779 92.9623 47.1764 92.9623ZM49.6932 100.78H50.751V96.7192C50.751 96.399 50.8239 96.1194 50.9698 95.8803C51.1198 95.6412 51.3244 95.4547 51.5838 95.321C51.8432 95.1873 52.141 95.1204 52.4774 95.1204C52.5949 95.1204 52.7044 95.1265 52.8057 95.1386C52.9111 95.1467 53.0185 95.1609 53.1279 95.1812V94.1538C53.0752 94.1457 52.9982 94.1376 52.8969 94.1295C52.7996 94.1173 52.7003 94.1113 52.599 94.1113C52.1573 94.1113 51.7864 94.2065 51.4865 94.397C51.1866 94.5875 50.9739 94.8549 50.8482 95.1994H50.751V94.2268H49.6932V100.78ZM56.5626 100.896C57.0611 100.896 57.5069 100.812 57.9 100.646C58.2971 100.48 58.6112 100.249 58.8422 99.9533C59.0732 99.6534 59.1887 99.3089 59.1887 98.9198V98.9077C59.1887 98.4375 59.0368 98.0627 58.7328 97.783C58.4329 97.5034 57.975 97.2886 57.3589 97.1386L56.3498 96.8955C56.0945 96.8306 55.8858 96.7557 55.7237 96.6706C55.5615 96.5854 55.442 96.4862 55.365 96.3727C55.288 96.2592 55.2495 96.1295 55.2495 95.9836V95.9715C55.2495 95.7769 55.3083 95.6067 55.4258 95.4608C55.5433 95.3149 55.7034 95.2014 55.906 95.1204C56.1087 95.0353 56.3397 94.9927 56.599 94.9927C56.9962 94.9927 57.3184 95.0738 57.5656 95.2359C57.8128 95.398 57.9709 95.6087 58.0398 95.8681H59.0793C59.0307 95.5115 58.8969 95.2014 58.6781 94.938C58.4633 94.6746 58.1776 94.4719 57.8209 94.3301C57.4684 94.1842 57.0631 94.1113 56.6051 94.1113C56.1431 94.1113 55.7277 94.1943 55.3589 94.3605C54.9901 94.5267 54.6983 94.7536 54.4835 95.0414C54.2728 95.3291 54.1674 95.6553 54.1674 96.0201V96.0262C54.1674 96.3382 54.2302 96.6098 54.3559 96.8408C54.4815 97.0677 54.676 97.2602 54.9395 97.4183C55.2029 97.5723 55.5393 97.6979 55.9486 97.7952L56.9638 98.0384C57.3691 98.1356 57.6609 98.2633 57.8392 98.4213C58.0175 98.5753 58.1067 98.7638 58.1067 98.9867V98.9989C58.1067 99.1974 58.0418 99.3737 57.9121 99.5277C57.7824 99.6777 57.6041 99.7972 57.3772 99.8864C57.1543 99.9715 56.8949 100.014 56.599 100.014C56.1816 100.014 55.8432 99.931 55.5838 99.7648C55.3245 99.5987 55.1502 99.3798 55.061 99.1083H53.979C54.0195 99.469 54.1512 99.7831 54.3741 100.051C54.601 100.318 54.901 100.527 55.2738 100.677C55.6467 100.823 56.0762 100.896 56.5626 100.896Z" fill="#72726F"/>
<path d="M50.23 37.03V34.97C50.23 33.67 49.6 32.52 48.63 31.79L48.05 24.69C48.02 24.3 47.68 24.02 47.29 24.05C46.9 24.08 46.62 24.42 46.65 24.81L47.16 30.98H23.15L23.78 23.32C24.15 18.85 28.12 15.35 32.83 15.35H37.48C41.55 15.35 45.15 17.96 46.23 21.69C46.34 22.06 46.73 22.28 47.1 22.17C47.47 22.06 47.69 21.67 47.58 21.3C46.33 16.97 42.18 13.95 37.48 13.95H32.83C27.4 13.95 22.81 18.01 22.39 23.2L21.65 32.2C20.95 32.92 20.52 33.9 20.52 34.97V37.03C20.52 39.02 22.01 40.66 23.93 40.93L21.15 57.74C21.09 58.11 21.33 58.4599 21.69 58.5399L23.53 58.96C23.58 58.97 23.63 58.9799 23.68 58.9799C23.98 58.9799 24.25 58.79 24.35 58.49L29.14 43.54H41.2L42.2 46.65C42.3 46.95 42.57 47.14 42.87 47.14C42.94 47.14 43.01 47.13 43.08 47.11C43.45 46.99 43.65 46.6 43.53 46.23L41.85 40.99H44.99L47.69 57.33L47.12 57.46L44.44 49.08C44.32 48.71 43.93 48.51 43.56 48.63C43.19 48.75 42.99 49.1399 43.11 49.5099L45.99 58.5099C46.08 58.8099 46.36 59 46.66 59C46.71 59 46.76 59 46.81 58.9799L48.65 58.56C49.01 58.4799 49.25 58.1299 49.19 57.7599L46.41 40.99C48.53 40.92 50.24 39.19 50.24 37.05L50.23 37.03ZM23.19 57.45L22.62 57.32L25.33 40.98H28.47L23.2 57.45H23.19ZM40.73 42.13H29.57L29.94 40.98H40.37L40.74 42.13H40.73ZM48.82 37.03C48.82 38.44 47.67 39.58 46.27 39.58H24.46C23.05 39.58 21.91 38.44 21.91 37.03V34.97C21.91 33.54 23.08 32.37 24.51 32.37H46.23C47.66 32.37 48.83 33.54 48.83 34.97V37.03H48.82Z" fill="#72726F"/>
<path d="M35.37 69.36C54.214 69.36 69.49 54.0839 69.49 35.24C69.49 16.396 54.214 1.12 35.37 1.12C16.526 1.12 1.25 16.396 1.25 35.24C1.25 54.0839 16.526 69.36 35.37 69.36Z" stroke="#72726F" stroke-miterlimit="10"/>
</svg>
