<svg width="70" height="96" viewBox="0 0 70 96" fill="none" xmlns="http://www.w3.org/2000/svg">
<path d="M15.994 93.2067C16.6465 93.2067 17.2159 93.0993 17.7022 92.8845C18.1885 92.6656 18.5654 92.3576 18.8329 91.9605C19.1004 91.5633 19.2341 91.0912 19.2341 90.544V90.538C19.2341 90.1165 19.147 89.7517 18.9727 89.4437C18.8025 89.1317 18.531 88.8682 18.1581 88.6534C17.7853 88.4386 17.2929 88.2644 16.6809 88.1306L15.7083 87.9118C15.1125 87.7821 14.6849 87.5977 14.4256 87.3586C14.1662 87.1195 14.0365 86.8257 14.0365 86.4771V86.471C14.0365 86.163 14.1216 85.9037 14.2918 85.6929C14.4661 85.4781 14.6991 85.314 14.9909 85.2005C15.2827 85.087 15.611 85.0303 15.9757 85.0303C16.3567 85.0262 16.689 85.083 16.9727 85.2005C17.2564 85.318 17.4833 85.4781 17.6536 85.6808C17.8238 85.8793 17.9292 86.1083 17.9697 86.3677L17.9818 86.4467H19.0761L19.07 86.3616C19.0416 85.9239 18.8937 85.5288 18.6262 85.1762C18.3628 84.8236 18.0062 84.544 17.5563 84.3373C17.1064 84.1265 16.5897 84.0212 16.0061 84.0212C15.4023 84.0212 14.8673 84.1265 14.4012 84.3373C13.9392 84.548 13.5765 84.8398 13.3131 85.2127C13.0537 85.5855 12.922 86.0151 12.9179 86.5014V86.5075C12.9179 87.1438 13.1165 87.6666 13.5137 88.0759C13.9149 88.4812 14.5552 88.7811 15.4347 88.9756L16.4073 89.1884C17.0112 89.3221 17.4469 89.5146 17.7144 89.7659C17.9818 90.0131 18.1156 90.3191 18.1156 90.6839V90.6899C18.1156 90.9858 18.0264 91.2472 17.8481 91.4741C17.6698 91.7011 17.4246 91.8794 17.1125 92.0091C16.8045 92.1347 16.4519 92.1976 16.0548 92.1976C15.6333 92.1976 15.2564 92.1388 14.924 92.0213C14.5958 91.9037 14.3323 91.7396 14.1338 91.5289C13.9392 91.3141 13.8278 91.0608 13.7994 90.769L13.7933 90.7021H12.6991L12.7052 90.769C12.7498 91.2431 12.9098 91.6646 13.1854 92.0334C13.4651 92.3982 13.842 92.6859 14.3161 92.8967C14.7944 93.1033 15.3536 93.2067 15.994 93.2067ZM23.2524 93.0486C23.3578 93.0486 23.4611 93.0426 23.5625 93.0304C23.6638 93.0182 23.7651 93.0041 23.8664 92.9878V92.0881C23.7691 92.0962 23.6861 92.1023 23.6172 92.1064C23.5523 92.1104 23.4733 92.1125 23.3801 92.1125C23.0396 92.1125 22.7965 92.0294 22.6506 91.8632C22.5047 91.693 22.4317 91.4154 22.4317 91.0304V87.3221H23.8664V86.4467H22.4317V84.7507H21.3375V86.4467H20.3041V87.3221H21.3375V91.2979C21.3375 91.922 21.4875 92.3698 21.7874 92.6413C22.0913 92.9129 22.5797 93.0486 23.2524 93.0486ZM28.0549 93.1155C28.679 93.1155 29.216 92.9797 29.6659 92.7082C30.1157 92.4326 30.4622 92.0415 30.7054 91.5349C30.9526 91.0283 31.0762 90.4265 31.0762 89.7294V89.7173C31.0762 89.0162 30.9526 88.4123 30.7054 87.9057C30.4622 87.3991 30.1157 87.0101 29.6659 86.7385C29.216 86.467 28.679 86.3312 28.0549 86.3312C27.4348 86.3312 26.8979 86.467 26.4439 86.7385C25.9941 87.0101 25.6456 87.3991 25.3983 87.9057C25.1552 88.4123 25.0336 89.0162 25.0336 89.7173V89.7294C25.0336 90.4265 25.1552 91.0283 25.3983 91.5349C25.6456 92.0415 25.9941 92.4326 26.4439 92.7082C26.8979 92.9797 27.4348 93.1155 28.0549 93.1155ZM28.0549 92.1793C27.6415 92.1793 27.291 92.0821 27.0032 91.8875C26.7155 91.693 26.4946 91.4134 26.3406 91.0486C26.1906 90.6839 26.1157 90.2441 26.1157 89.7294V89.7173C26.1157 89.1985 26.1906 88.7568 26.3406 88.392C26.4946 88.0273 26.7155 87.7497 27.0032 87.5592C27.291 87.3647 27.6415 87.2674 28.0549 87.2674C28.4683 87.2674 28.8188 87.3647 29.1066 87.5592C29.3943 87.7497 29.6132 88.0273 29.7631 88.392C29.9171 88.7568 29.9941 89.1985 29.9941 89.7173V89.7294C29.9941 90.2441 29.9171 90.6839 29.7631 91.0486C29.6132 91.4134 29.3943 91.693 29.1066 91.8875C28.8188 92.0821 28.4683 92.1793 28.0549 92.1793ZM32.7176 93H33.7753V88.9392C33.7753 88.619 33.8483 88.3394 33.9942 88.1002C34.1441 87.8611 34.3488 87.6747 34.6082 87.541C34.8676 87.4072 35.1654 87.3404 35.5018 87.3404C35.6193 87.3404 35.7288 87.3464 35.8301 87.3586C35.9354 87.3667 36.0428 87.3809 36.1523 87.4011V86.3738C36.0996 86.3657 36.0226 86.3576 35.9213 86.3495C35.824 86.3373 35.7247 86.3312 35.6234 86.3312C35.1816 86.3312 34.8108 86.4265 34.5109 86.6169C34.211 86.8074 33.9982 87.0749 33.8726 87.4194H33.7753V86.4467H32.7176V93ZM39.2587 93.1155C39.5545 93.1155 39.8261 93.075 40.0733 92.9939C40.3205 92.9088 40.5414 92.7852 40.7359 92.6231C40.9345 92.461 41.1027 92.2644 41.2405 92.0334H41.3377V93H42.3955V88.5136C42.3955 88.0597 42.2982 87.6707 42.1037 87.3464C41.9132 87.0182 41.6316 86.7669 41.2587 86.5926C40.8899 86.4184 40.438 86.3312 39.9031 86.3312C39.437 86.3312 39.0216 86.4042 38.6569 86.5501C38.2921 86.6919 37.9942 86.8925 37.7632 87.1519C37.5363 87.4072 37.3944 87.7071 37.3377 88.0516L37.3316 88.0881H38.3894L38.3955 88.0698C38.4806 87.8145 38.6488 87.618 38.9 87.4802C39.1513 87.3383 39.4735 87.2674 39.8666 87.2674C40.357 87.2674 40.7238 87.3748 40.9669 87.5896C41.2141 87.8003 41.3377 88.1083 41.3377 88.5136V90.5562C41.3377 90.8683 41.2567 91.1479 41.0946 91.3951C40.9365 91.6423 40.7177 91.8389 40.438 91.9848C40.1584 92.1266 39.8382 92.1976 39.4775 92.1976C39.0966 92.1976 38.7805 92.1064 38.5292 91.924C38.2779 91.7376 38.1523 91.4782 38.1523 91.1459V91.1337C38.1523 90.8095 38.2658 90.5582 38.4927 90.3799C38.7237 90.2016 39.0885 90.0982 39.587 90.0699L41.8666 89.924V89.079L39.4593 89.2249C38.9527 89.2532 38.5211 89.3465 38.1645 89.5045C37.8078 89.6626 37.5363 89.8814 37.3499 90.1611C37.1634 90.4366 37.0702 90.769 37.0702 91.158V91.1702C37.0702 91.5674 37.1655 91.9118 37.3559 92.2036C37.5505 92.4954 37.8119 92.7204 38.1401 92.8784C38.4725 93.0365 38.8453 93.1155 39.2587 93.1155ZM47.0278 95.3101C47.6235 95.3101 48.1403 95.2108 48.578 95.0122C49.0156 94.8177 49.352 94.54 49.5871 94.1793C49.8262 93.8187 49.9458 93.3951 49.9458 92.9088V86.4467H48.888V87.5288H48.815C48.6813 87.2816 48.5131 87.0688 48.3105 86.8905C48.1119 86.7122 47.8829 86.5744 47.6235 86.4771C47.3642 86.3799 47.0805 86.3312 46.7725 86.3312C46.201 86.3312 45.7086 86.469 45.2952 86.7446C44.8819 87.0161 44.5617 87.391 44.3347 87.8692C44.1118 88.3434 44.0004 88.8865 44.0004 89.4984V89.5106C44.0004 90.1226 44.1118 90.6656 44.3347 91.1398C44.5576 91.614 44.8738 91.9868 45.2831 92.2583C45.6965 92.5258 46.1848 92.6596 46.7481 92.6596C47.048 92.6596 47.3277 92.617 47.5871 92.5319C47.8464 92.4427 48.0795 92.3131 48.2862 92.1428C48.4928 91.9726 48.6651 91.768 48.8029 91.5289H48.9001V92.8541C48.9001 93.3364 48.734 93.7092 48.4017 93.9727C48.0734 94.2401 47.6154 94.3739 47.0278 94.3739C46.5577 94.3739 46.1808 94.2928 45.8971 94.1307C45.6134 93.9727 45.4432 93.77 45.3864 93.5228L45.3803 93.5167H44.2861L44.2739 93.5228C44.3307 93.8794 44.4746 94.1915 44.7056 94.459C44.9406 94.7305 45.2547 94.9392 45.6478 95.0851C46.0409 95.2351 46.5009 95.3101 47.0278 95.3101ZM46.9791 91.7234C46.5739 91.7234 46.2294 91.6302 45.9457 91.4438C45.6661 91.2533 45.4513 90.9919 45.3013 90.6595C45.1554 90.3272 45.0825 89.9442 45.0825 89.5106V89.4984C45.0825 89.0648 45.1554 88.6798 45.3013 88.3434C45.4513 88.007 45.6661 87.7436 45.9457 87.5531C46.2294 87.3626 46.5739 87.2674 46.9791 87.2674C47.3844 87.2674 47.7309 87.3626 48.0187 87.5531C48.3105 87.7436 48.5334 88.007 48.6874 88.3434C48.8454 88.6798 48.9245 89.0648 48.9245 89.4984V89.5106C48.9245 89.9442 48.8454 90.3272 48.6874 90.6595C48.5334 90.9919 48.3105 91.2533 48.0187 91.4438C47.7309 91.6302 47.3844 91.7234 46.9791 91.7234ZM54.5902 93.1155C54.9752 93.1155 55.3217 93.0669 55.6297 92.9696C55.9418 92.8683 56.2113 92.7345 56.4382 92.5684C56.6652 92.3982 56.8496 92.2097 56.9914 92.003C57.1373 91.7923 57.2386 91.5755 57.2954 91.3526L57.3075 91.3039H56.2498L56.2255 91.3586C56.1687 91.4883 56.0694 91.616 55.9276 91.7416C55.7857 91.8673 55.6054 91.9706 55.3865 92.0517C55.1677 92.1327 54.9103 92.1732 54.6145 92.1732C54.2173 92.1732 53.8728 92.0861 53.5811 91.9118C53.2893 91.7335 53.0643 91.4802 52.9063 91.152C52.7482 90.8196 52.6692 90.4204 52.6692 89.9544V89.5349C52.6692 89.0445 52.7502 88.6312 52.9124 88.2948C53.0745 87.9584 53.2933 87.7051 53.5689 87.5349C53.8485 87.3606 54.1646 87.2735 54.5172 87.2735C54.8698 87.2735 55.1819 87.3566 55.4534 87.5227C55.7249 87.6848 55.9377 87.9321 56.0917 88.2644C56.2457 88.5967 56.3227 89.0202 56.3227 89.5349V89.9544L56.8455 89.1823H52.1342V90.0273H57.3866V89.6139C57.3866 88.9615 57.2711 88.39 57.0401 87.8996C56.8131 87.4052 56.4848 87.0202 56.0552 86.7446C55.6297 86.469 55.1191 86.3312 54.5233 86.3312C53.9316 86.3312 53.4149 86.4751 52.9731 86.7628C52.5314 87.0506 52.1889 87.4498 51.9458 87.9604C51.7067 88.4711 51.5871 89.0648 51.5871 89.7416V89.7477C51.5871 90.4326 51.7067 91.0283 51.9458 91.5349C52.1889 92.0375 52.5334 92.4265 52.9792 92.7021C53.4291 92.9777 53.9661 93.1155 54.5902 93.1155Z" fill="#72726F"/>
<path d="M35.12 69.36C53.964 69.36 69.24 54.0839 69.24 35.24C69.24 16.396 53.964 1.12 35.12 1.12C16.276 1.12 1 16.396 1 35.24C1 54.0839 16.276 69.36 35.12 69.36Z" stroke="#72726F" stroke-miterlimit="10"/>
<path d="M51.17 16.46C50.52 15.96 49.79 15.79 48.99 15.79H46.15C45.8 15.79 45.5 16.08 45.5 16.44C45.5 16.8 45.8 17.09 46.15 17.09H48.99C50.41 17.11 51.17 17.89 51.17 19.33V39.1H36.28V17.08H43.03C43.38 17.08 43.68 16.79 43.68 16.43C43.68 16.07 43.38 15.78 43.03 15.78H22.14C20.76 15.78 19.7 16.37 19.08 17.64C18.91 17.98 18.84 18.37 18.73 18.75V50.44C18.88 51.21 19.12 51.95 19.74 52.47C20.09 52.76 20.5 53.02 20.92 53.19C21.22 53.31 21.38 53.41 21.33 53.76C21.28 54.16 21.42 54.48 21.77 54.69H22.16C22.52 54.52 22.66 54.23 22.63 53.83C22.62 53.48 22.64 53.15 22.63 52.8C22.61 52.36 22.41 52.16 21.98 52.1C20.65 51.91 20.04 51.22 20.04 49.86V47.05C20.04 47.05 20.05 47 20.08 46.95H34.94C34.95 47.09 34.96 47.21 34.96 47.35V51.11C34.96 51.48 34.96 51.84 35.43 52.11H24.92C24.8 52.11 24.67 52.11 24.55 52.12C24.2 52.16 23.99 52.34 23.95 52.69C23.91 53.03 24.12 53.3 24.47 53.37C24.59 53.39 24.73 53.39 24.86 53.39H48.58C48.58 53.53 48.58 53.68 48.58 53.83C48.56 54.23 48.69 54.51 49.05 54.69H49.44C49.8 54.47 49.93 54.13 49.88 53.72C49.86 53.45 49.93 53.31 50.23 53.21C51.55 52.82 52.42 51.62 52.48 50.16V19.27C52.48 18.12 52.11 17.17 51.18 16.46H51.17ZM34.92 45.6H20.04V40.46H34.92V45.6ZM34.92 39.11H20.03V19.3C20.03 17.87 20.81 17.08 22.23 17.08H34.92V39.11ZM36.26 40.45H51.14V45.59H36.26V40.45ZM51.17 50.01C51.16 51.19 50.47 51.95 49.29 52.1C49.28 52.1 49.27 52.1 49.26 52.1H46.49C46.42 52.1 46.35 52.1 46.28 52.1H35.77C36.24 51.84 36.26 51.48 36.26 51.1C36.25 49.87 36.25 48.62 36.25 47.38V46.94H51.14C51.15 47.03 51.18 47.13 51.18 47.23V50.01H51.17Z" fill="#72726F"/>
<path d="M28.4499 49.52C28.4499 49.17 28.1499 48.86 27.7999 48.86C27.4699 48.86 27.1699 49.17 27.1599 49.5C27.1599 49.84 27.4299 50.13 27.7699 50.15C28.1299 50.17 28.4299 49.89 28.4399 49.53L28.4499 49.52Z" fill="#72726F"/>
<path d="M43.38 48.86C43.03 48.86 42.73 49.17 42.74 49.52C42.74 49.88 43.05 50.16 43.41 50.14C43.75 50.12 44.03 49.82 44.02 49.49C44.02 49.16 43.71 48.86 43.38 48.86Z" fill="#72726F"/>
<path d="M32.5901 36.35C32.7601 36.46 33.0401 36.51 33.2501 36.46C33.5401 36.4 33.64 36.13 33.65 35.84C33.65 34.99 33.65 34.14 33.65 33.3C33.65 32.46 33.65 31.63 33.65 30.79C33.65 30.34 33.4101 30.08 33.0401 30.07C32.6501 30.05 32.37 30.32 32.37 30.77C32.36 32.45 32.36 34.14 32.37 35.82C32.37 36 32.4601 36.26 32.6001 36.35H32.5901Z" fill="#72726F"/>
<path d="M38.1499 30.0701C37.7999 30.0901 37.5599 30.3301 37.5499 30.7301C37.5299 31.5801 37.5499 32.43 37.5499 33.27C37.5499 34.13 37.5499 34.9901 37.5499 35.8501C37.5499 36.2601 37.8099 36.5201 38.1699 36.5301C38.5199 36.5401 38.7799 36.2801 38.8299 35.8901C38.8399 35.8001 38.8299 35.7101 38.8299 35.6201C38.8299 35.2401 38.8299 34.8601 38.8299 34.4801C38.8299 33.3301 38.8299 32.1801 38.8299 31.0301C38.8299 30.9201 38.8299 30.8001 38.8199 30.6901C38.7599 30.2801 38.4999 30.0501 38.1399 30.0701H38.1499Z" fill="#72726F"/>
<path d="M27.8299 43.67C28.1599 43.67 28.4499 43.37 28.4499 43.03C28.4499 42.68 28.1499 42.38 27.7999 42.39C27.4699 42.39 27.1699 42.69 27.1699 43.02C27.1699 43.36 27.4899 43.68 27.8299 43.67Z" fill="#72726F"/>
<path d="M43.42 42.39C43.06 42.37 42.76 42.65 42.75 43.01C42.75 43.35 43.01 43.65 43.35 43.67C43.69 43.69 44.02 43.3901 44.03 43.0501C44.04 42.7201 43.76 42.41 43.42 42.4V42.39Z" fill="#72726F"/>
</svg>
