<svg width="70" height="96" viewBox="0 0 70 96" fill="none" xmlns="http://www.w3.org/2000/svg">
<path d="M21.6657 93H24.5411C25.1652 93 25.6981 92.9027 26.1399 92.7082C26.5816 92.5096 26.92 92.228 27.1551 91.8632C27.3942 91.4944 27.5138 91.0547 27.5138 90.544V90.5319C27.5138 90.1469 27.4327 89.8044 27.2706 89.5045C27.1125 89.2006 26.8876 88.9533 26.5958 88.7629C26.304 88.5724 25.9575 88.4528 25.5563 88.4042V88.3069C25.84 88.2542 26.0953 88.1367 26.3223 87.9543C26.5492 87.772 26.7296 87.547 26.8633 87.2796C27.0011 87.0121 27.07 86.7264 27.07 86.4224V86.4103C27.07 85.9645 26.9646 85.5794 26.7539 85.2552C26.5472 84.927 26.2493 84.6737 25.8603 84.4953C25.4752 84.317 25.0132 84.2279 24.4742 84.2279H21.6657V85.1944H24.2432C24.7863 85.1944 25.2078 85.318 25.5077 85.5653C25.8116 85.8084 25.9636 86.1529 25.9636 86.5987V86.6109C25.9636 87.0729 25.7954 87.4214 25.459 87.6565C25.1267 87.8915 24.6282 88.0091 23.9636 88.0091H21.6657V88.9513H24.2736C24.7397 88.9513 25.1287 89.0081 25.4408 89.1215C25.7569 89.235 25.994 89.4052 26.1521 89.6322C26.3101 89.8591 26.3891 90.1408 26.3891 90.4772V90.4893C26.3891 90.9919 26.2189 91.3749 25.8785 91.6383C25.5381 91.9017 25.0375 92.0334 24.377 92.0334H21.6657V93ZM21.1186 93H22.2128V84.2279H21.1186V93ZM31.8421 93.1155C32.2271 93.1155 32.5736 93.0669 32.8816 92.9696C33.1937 92.8683 33.4632 92.7345 33.6901 92.5684C33.9171 92.3982 34.1015 92.2097 34.2433 92.003C34.3892 91.7923 34.4906 91.5755 34.5473 91.3526L34.5594 91.3039H33.5017L33.4774 91.3586C33.4206 91.4883 33.3213 91.616 33.1795 91.7416C33.0376 91.8673 32.8573 91.9706 32.6385 92.0517C32.4196 92.1327 32.1623 92.1732 31.8664 92.1732C31.4692 92.1732 31.1248 92.0861 30.833 91.9118C30.5412 91.7335 30.3162 91.4802 30.1582 91.152C30.0001 90.8196 29.9211 90.4204 29.9211 89.9544V89.5349C29.9211 89.0445 30.0021 88.6312 30.1643 88.2948C30.3264 87.9584 30.5452 87.7051 30.8208 87.5349C31.1004 87.3606 31.4166 87.2735 31.7691 87.2735C32.1217 87.2735 32.4338 87.3566 32.7053 87.5227C32.9769 87.6848 33.1896 87.9321 33.3436 88.2644C33.4976 88.5967 33.5746 89.0202 33.5746 89.5349V89.9544L34.0974 89.1823H29.3861V90.0273H34.6385V89.6139C34.6385 88.9615 34.523 88.39 34.292 87.8996C34.065 87.4052 33.7367 87.0202 33.3072 86.7446C32.8816 86.469 32.371 86.3312 31.7752 86.3312C31.1835 86.3312 30.6668 86.4751 30.225 86.7628C29.7833 87.0506 29.4408 87.4498 29.1977 87.9604C28.9586 88.4711 28.839 89.0648 28.839 89.7416V89.7477C28.839 90.4326 28.9586 91.0283 29.1977 91.5349C29.4408 92.0375 29.7853 92.4265 30.2311 92.7021C30.681 92.9777 31.218 93.1155 31.8421 93.1155ZM38.6993 93.1155C39.0033 93.1155 39.2849 93.0689 39.5443 92.9757C39.8037 92.8825 40.0347 92.7508 40.2373 92.5805C40.44 92.4063 40.6082 92.1976 40.7419 91.9544H40.8392V93H41.8969V83.8449H40.8392V87.4802H40.7419C40.6244 87.2451 40.4623 87.0425 40.2556 86.8723C40.0489 86.7021 39.8118 86.5703 39.5443 86.4771C39.2809 86.3799 38.9992 86.3312 38.6993 86.3312C38.1441 86.3312 37.6598 86.471 37.2464 86.7507C36.8371 87.0303 36.5189 87.4234 36.292 87.93C36.065 88.4366 35.9516 89.0324 35.9516 89.7173V89.7294C35.9516 90.4103 36.065 91.0061 36.292 91.5167C36.5189 92.0233 36.8391 92.4164 37.2525 92.696C37.6659 92.9757 38.1481 93.1155 38.6993 93.1155ZM38.9425 92.1793C38.5453 92.1793 38.2029 92.0821 37.9151 91.8875C37.6314 91.6889 37.4126 91.4073 37.2586 91.0425C37.1086 90.6737 37.0336 90.236 37.0336 89.7294V89.7173C37.0336 89.2066 37.1086 88.7689 37.2586 88.4042C37.4126 88.0395 37.6314 87.7598 37.9151 87.5653C38.2029 87.3667 38.5453 87.2674 38.9425 87.2674C39.3396 87.2674 39.6821 87.3667 39.9698 87.5653C40.2576 87.7639 40.4785 88.0455 40.6325 88.4103C40.7865 88.775 40.8635 89.2107 40.8635 89.7173V89.7294C40.8635 90.232 40.7865 90.6677 40.6325 91.0365C40.4785 91.4012 40.2576 91.6829 39.9698 91.8814C39.6821 92.08 39.3396 92.1793 38.9425 92.1793ZM46.1766 93.1155C46.6751 93.1155 47.1209 93.0324 47.514 92.8663C47.9112 92.7001 48.2253 92.4691 48.4563 92.1732C48.6873 91.8733 48.8028 91.5289 48.8028 91.1398V91.1276C48.8028 90.6575 48.6508 90.2826 48.3468 90.003C48.0469 89.7234 47.589 89.5086 46.973 89.3586L45.9638 89.1155C45.7085 89.0506 45.4998 88.9756 45.3377 88.8905C45.1756 88.8054 45.056 88.7061 44.979 88.5927C44.902 88.4792 44.8635 88.3495 44.8635 88.2036V88.1914C44.8635 87.9969 44.9223 87.8267 45.0398 87.6808C45.1573 87.5349 45.3174 87.4214 45.5201 87.3404C45.7227 87.2552 45.9537 87.2127 46.2131 87.2127C46.6103 87.2127 46.9324 87.2938 47.1797 87.4559C47.4269 87.618 47.5849 87.8287 47.6538 88.0881H48.6934C48.6447 87.7314 48.511 87.4214 48.2921 87.158C48.0773 86.8946 47.7916 86.6919 47.435 86.5501C47.0824 86.4042 46.6771 86.3312 46.2192 86.3312C45.7572 86.3312 45.3417 86.4143 44.9729 86.5805C44.6041 86.7466 44.3124 86.9736 44.0976 87.2613C43.8868 87.5491 43.7814 87.8753 43.7814 88.2401V88.2461C43.7814 88.5582 43.8443 88.8297 43.9699 89.0607C44.0955 89.2877 44.2901 89.4802 44.5535 89.6383C44.8169 89.7923 45.1533 89.9179 45.5626 90.0152L46.5778 90.2583C46.9831 90.3556 47.2749 90.4833 47.4532 90.6413C47.6315 90.7953 47.7207 90.9838 47.7207 91.2067V91.2188C47.7207 91.4174 47.6559 91.5937 47.5262 91.7477C47.3965 91.8977 47.2182 92.0172 46.9912 92.1064C46.7683 92.1915 46.5089 92.234 46.2131 92.234C45.7957 92.234 45.4572 92.151 45.1979 91.9848C44.9385 91.8186 44.7642 91.5998 44.6751 91.3282H43.593C43.6335 91.6889 43.7652 92.003 43.9881 92.2705C44.2151 92.538 44.515 92.7467 44.8878 92.8967C45.2607 93.0426 45.6903 93.1155 46.1766 93.1155Z" fill="#72726F"/>
<path d="M35.12 69.36C53.964 69.36 69.24 54.0839 69.24 35.24C69.24 16.396 53.964 1.12 35.12 1.12C16.2761 1.12 1 16.396 1 35.24C1 54.0839 16.2761 69.36 35.12 69.36Z" stroke="#72726F" stroke-miterlimit="10"/>
<path d="M58.71 45.31C58.71 44.3 57.99 43.46 57.04 43.27V37.27C57.04 35.52 55.63 34.09 53.88 34.06V21.77C53.88 20.34 52.72 19.17 51.28 19.17H47.95C47.61 19.17 47.33 19.45 47.33 19.79C47.33 20.13 47.61 20.41 47.95 20.41H51.28C52.02 20.41 52.63 21.02 52.63 21.76V34.04H51.12V31.45C51.12 30.02 49.96 28.85 48.52 28.85H39.29C37.86 28.85 36.69 30.01 36.69 31.45V34.04H34.77V31.45C34.77 30.02 33.61 28.85 32.17 28.85H22.94C21.51 28.85 20.34 30.01 20.34 31.45V34.04H18.35V21.76C18.35 21.01 18.96 20.41 19.7 20.41H43.9C44.24 20.41 44.52 20.13 44.52 19.79C44.52 19.45 44.24 19.17 43.9 19.17H19.7C18.27 19.17 17.1 20.33 17.1 21.77V34.07C15.4 34.16 14.05 35.55 14.05 37.27C14.05 37.61 14.33 37.89 14.67 37.89C15.01 37.89 15.29 37.61 15.29 37.27C15.29 36.18 16.17 35.3 17.26 35.3H53.8C54.89 35.3 55.77 36.19 55.77 37.27V43.23H15.29V40.51C15.29 40.17 15.01 39.89 14.67 39.89C14.33 39.89 14.05 40.17 14.05 40.51V43.25C13.03 43.38 12.23 44.25 12.23 45.31C12.23 46.26 12.87 47.05 13.74 47.31L13.95 49.75C13.99 50.21 14.21 50.63 14.57 50.93C14.88 51.19 15.27 51.33 15.67 51.33C15.73 51.33 15.79 51.33 15.85 51.33L16.22 51.29C16.94 51.22 17.54 50.6901 17.72 49.9901L18.36 47.42H52.75L53.39 49.9901C53.56 50.7001 54.17 51.22 54.89 51.29L55.27 51.33C55.33 51.33 55.39 51.33 55.45 51.33C55.85 51.33 56.24 51.19 56.55 50.93C56.91 50.63 57.13 50.21 57.17 49.75L57.39 47.25C58.15 46.94 58.69 46.19 58.69 45.32L58.71 45.31ZM21.61 34.05V31.46C21.61 30.71 22.22 30.11 22.96 30.11H32.19C32.93 30.11 33.54 30.72 33.54 31.46V34.05H21.61ZM37.95 34.05V31.46C37.95 30.71 38.56 30.11 39.3 30.11H48.53C49.27 30.11 49.88 30.72 49.88 31.46V34.05H37.95ZM16.54 49.67C16.49 49.87 16.32 50.01 16.12 50.03L15.75 50.0701C15.62 50.0801 15.49 50.0401 15.39 49.9601C15.29 49.8801 15.23 49.76 15.22 49.6301L15.02 47.39H17.1L16.54 49.66V49.67ZM55.77 49.97C55.67 50.05 55.54 50.09 55.41 50.08L55.03 50.04C54.83 50.02 54.66 49.87 54.61 49.68L54.05 47.41H56.13L55.93 49.65C55.92 49.78 55.86 49.9 55.76 49.98L55.77 49.97ZM56.62 46.16H14.34C13.88 46.16 13.5 45.78 13.5 45.32C13.5 44.86 13.88 44.48 14.34 44.48H56.62C57.08 44.48 57.46 44.86 57.46 45.32C57.46 45.78 57.08 46.16 56.62 46.16Z" fill="#72726F"/>
</svg>
