<svg width="73" height="95" viewBox="0 0 73 95" fill="none" xmlns="http://www.w3.org/2000/svg">
<path d="M3.46436 92H4.57178L7.05615 84.9102H7.39014V83.5449H6.58154L3.46436 92ZM4.87646 89.5801H9.35303L9.0249 88.6836H5.20459L4.87646 89.5801ZM9.63428 92H10.7417L7.62451 83.5449H7.1499V84.9102L9.63428 92ZM14.3276 92.1113C14.8354 92.1113 15.269 92.0273 15.6284 91.8594C15.9878 91.6914 16.2769 91.4609 16.4956 91.168C16.7144 90.8711 16.8667 90.5332 16.9526 90.1543L16.9644 90.0898L15.9565 90.0957L15.9448 90.1309C15.8276 90.4824 15.6343 90.75 15.3647 90.9336C15.0952 91.1172 14.7476 91.209 14.3218 91.209C13.9468 91.209 13.6206 91.1113 13.3433 90.916C13.0659 90.7207 12.8511 90.4453 12.6987 90.0898C12.5464 89.7305 12.4702 89.3086 12.4702 88.8242V88.8125C12.4702 88.3359 12.5444 87.9238 12.6929 87.5762C12.8452 87.2246 13.0601 86.9531 13.3374 86.7617C13.6147 86.5703 13.9429 86.4746 14.3218 86.4746C14.7749 86.4746 15.1401 86.584 15.4175 86.8027C15.6948 87.0215 15.8726 87.2871 15.9507 87.5996L15.9565 87.6172H16.9702L16.9644 87.582C16.9019 87.207 16.7593 86.8691 16.5366 86.5684C16.314 86.2637 16.0171 86.0215 15.646 85.8418C15.2749 85.6621 14.8335 85.5723 14.3218 85.5723C13.7319 85.5723 13.2202 85.707 12.7866 85.9766C12.353 86.2422 12.0171 86.6172 11.7788 87.1016C11.5444 87.5859 11.4272 88.1562 11.4272 88.8125V88.8242C11.4272 89.4922 11.5464 90.0723 11.7847 90.5645C12.0229 91.0566 12.3589 91.4375 12.7925 91.707C13.2261 91.9766 13.7378 92.1113 14.3276 92.1113ZM21.0425 92.1113C21.5503 92.1113 21.9839 92.0273 22.3433 91.8594C22.7026 91.6914 22.9917 91.4609 23.2104 91.168C23.4292 90.8711 23.5815 90.5332 23.6675 90.1543L23.6792 90.0898L22.6714 90.0957L22.6597 90.1309C22.5425 90.4824 22.3491 90.75 22.0796 90.9336C21.8101 91.1172 21.4624 91.209 21.0366 91.209C20.6616 91.209 20.3354 91.1113 20.0581 90.916C19.7808 90.7207 19.5659 90.4453 19.4136 90.0898C19.2612 89.7305 19.1851 89.3086 19.1851 88.8242V88.8125C19.1851 88.3359 19.2593 87.9238 19.4077 87.5762C19.5601 87.2246 19.7749 86.9531 20.0522 86.7617C20.3296 86.5703 20.6577 86.4746 21.0366 86.4746C21.4897 86.4746 21.855 86.584 22.1323 86.8027C22.4097 87.0215 22.5874 87.2871 22.6655 87.5996L22.6714 87.6172H23.6851L23.6792 87.582C23.6167 87.207 23.4741 86.8691 23.2515 86.5684C23.0288 86.2637 22.7319 86.0215 22.3608 85.8418C21.9897 85.6621 21.5483 85.5723 21.0366 85.5723C20.4468 85.5723 19.9351 85.707 19.5015 85.9766C19.0679 86.2422 18.7319 86.6172 18.4937 87.1016C18.2593 87.5859 18.1421 88.1562 18.1421 88.8125V88.8242C18.1421 89.4922 18.2612 90.0723 18.4995 90.5645C18.7378 91.0566 19.0737 91.4375 19.5073 91.707C19.9409 91.9766 20.4526 92.1113 21.0425 92.1113ZM27.7515 92.1113C28.1226 92.1113 28.4565 92.0645 28.7534 91.9707C29.0542 91.873 29.314 91.7441 29.5327 91.584C29.7515 91.4199 29.9292 91.2383 30.0659 91.0391C30.2065 90.8359 30.3042 90.627 30.3589 90.4121L30.3706 90.3652H29.3511L29.3276 90.418C29.2729 90.543 29.1772 90.666 29.0405 90.7871C28.9038 90.9082 28.73 91.0078 28.519 91.0859C28.3081 91.1641 28.0601 91.2031 27.7749 91.2031C27.3921 91.2031 27.0601 91.1191 26.7788 90.9512C26.4976 90.7793 26.2808 90.5352 26.1284 90.2188C25.9761 89.8984 25.8999 89.5137 25.8999 89.0645V88.6602C25.8999 88.1875 25.978 87.7891 26.1343 87.4648C26.2905 87.1406 26.5015 86.8965 26.7671 86.7324C27.0366 86.5645 27.3413 86.4805 27.6812 86.4805C28.021 86.4805 28.3218 86.5605 28.5835 86.7207C28.8452 86.877 29.0503 87.1152 29.1987 87.4355C29.3472 87.7559 29.4214 88.1641 29.4214 88.6602V89.0645L29.9253 88.3203H25.3843V89.1348H30.4468V88.7363C30.4468 88.1074 30.3354 87.5566 30.1128 87.084C29.894 86.6074 29.5776 86.2363 29.1636 85.9707C28.7534 85.7051 28.2612 85.5723 27.687 85.5723C27.1167 85.5723 26.6187 85.7109 26.1929 85.9883C25.7671 86.2656 25.437 86.6504 25.2026 87.1426C24.9722 87.6348 24.8569 88.207 24.8569 88.8594V88.8652C24.8569 89.5254 24.9722 90.0996 25.2026 90.5879C25.437 91.0723 25.769 91.4473 26.1987 91.7129C26.6323 91.9785 27.1499 92.1113 27.7515 92.1113ZM34.1968 92.1113C34.6772 92.1113 35.1069 92.0312 35.4858 91.8711C35.8687 91.7109 36.1714 91.4883 36.394 91.2031C36.6167 90.9141 36.728 90.582 36.728 90.207V90.1953C36.728 89.7422 36.5815 89.3809 36.2886 89.1113C35.9995 88.8418 35.5581 88.6348 34.9644 88.4902L33.9917 88.2559C33.7456 88.1934 33.5444 88.1211 33.3882 88.0391C33.2319 87.957 33.1167 87.8613 33.0425 87.752C32.9683 87.6426 32.9312 87.5176 32.9312 87.377V87.3652C32.9312 87.1777 32.9878 87.0137 33.1011 86.873C33.2144 86.7324 33.3687 86.623 33.564 86.5449C33.7593 86.4629 33.9819 86.4219 34.2319 86.4219C34.6147 86.4219 34.9253 86.5 35.1636 86.6562C35.4019 86.8125 35.5542 87.0156 35.6206 87.2656H36.6226C36.5757 86.9219 36.4468 86.623 36.2358 86.3691C36.0288 86.1152 35.7534 85.9199 35.4097 85.7832C35.0698 85.6426 34.6792 85.5723 34.2378 85.5723C33.7925 85.5723 33.3921 85.6523 33.0366 85.8125C32.6812 85.9727 32.3999 86.1914 32.1929 86.4688C31.9897 86.7461 31.8882 87.0605 31.8882 87.4121V87.418C31.8882 87.7188 31.9487 87.9805 32.0698 88.2031C32.1909 88.4219 32.3784 88.6074 32.6323 88.7598C32.8862 88.9082 33.2104 89.0293 33.605 89.123L34.5835 89.3574C34.9741 89.4512 35.2554 89.5742 35.4272 89.7266C35.5991 89.875 35.6851 90.0566 35.6851 90.2715V90.2832C35.6851 90.4746 35.6226 90.6445 35.4976 90.793C35.3726 90.9375 35.2007 91.0527 34.9819 91.1387C34.7671 91.2207 34.5171 91.2617 34.2319 91.2617C33.8296 91.2617 33.5034 91.1816 33.2534 91.0215C33.0034 90.8613 32.8354 90.6504 32.7495 90.3887H31.7065C31.7456 90.7363 31.8726 91.0391 32.0874 91.2969C32.3062 91.5547 32.5952 91.7559 32.9546 91.9004C33.314 92.041 33.728 92.1113 34.1968 92.1113ZM40.3608 92.1113C40.8413 92.1113 41.271 92.0312 41.6499 91.8711C42.0327 91.7109 42.3354 91.4883 42.5581 91.2031C42.7808 90.9141 42.8921 90.582 42.8921 90.207V90.1953C42.8921 89.7422 42.7456 89.3809 42.4526 89.1113C42.1636 88.8418 41.7222 88.6348 41.1284 88.4902L40.1558 88.2559C39.9097 88.1934 39.7085 88.1211 39.5522 88.0391C39.396 87.957 39.2808 87.8613 39.2065 87.752C39.1323 87.6426 39.0952 87.5176 39.0952 87.377V87.3652C39.0952 87.1777 39.1519 87.0137 39.2651 86.873C39.3784 86.7324 39.5327 86.623 39.728 86.5449C39.9233 86.4629 40.146 86.4219 40.396 86.4219C40.7788 86.4219 41.0894 86.5 41.3276 86.6562C41.5659 86.8125 41.7183 87.0156 41.7847 87.2656H42.7866C42.7397 86.9219 42.6108 86.623 42.3999 86.3691C42.1929 86.1152 41.9175 85.9199 41.5737 85.7832C41.2339 85.6426 40.8433 85.5723 40.4019 85.5723C39.9565 85.5723 39.5562 85.6523 39.2007 85.8125C38.8452 85.9727 38.564 86.1914 38.3569 86.4688C38.1538 86.7461 38.0522 87.0605 38.0522 87.4121V87.418C38.0522 87.7188 38.1128 87.9805 38.2339 88.2031C38.355 88.4219 38.5425 88.6074 38.7964 88.7598C39.0503 88.9082 39.3745 89.0293 39.769 89.123L40.7476 89.3574C41.1382 89.4512 41.4194 89.5742 41.5913 89.7266C41.7632 89.875 41.8491 90.0566 41.8491 90.2715V90.2832C41.8491 90.4746 41.7866 90.6445 41.6616 90.793C41.5366 90.9375 41.3647 91.0527 41.146 91.1387C40.9312 91.2207 40.6812 91.2617 40.396 91.2617C39.9937 91.2617 39.6675 91.1816 39.4175 91.0215C39.1675 90.8613 38.9995 90.6504 38.9136 90.3887H37.8706C37.9097 90.7363 38.0366 91.0391 38.2515 91.2969C38.4702 91.5547 38.7593 91.7559 39.1187 91.9004C39.478 92.041 39.8921 92.1113 40.3608 92.1113ZM47.0698 92.1113C47.6714 92.1113 48.189 91.9805 48.6226 91.7188C49.0562 91.4531 49.3901 91.0762 49.6245 90.5879C49.8628 90.0996 49.9819 89.5195 49.9819 88.8477V88.8359C49.9819 88.1602 49.8628 87.5781 49.6245 87.0898C49.3901 86.6016 49.0562 86.2266 48.6226 85.9648C48.189 85.7031 47.6714 85.5723 47.0698 85.5723C46.4722 85.5723 45.9546 85.7031 45.5171 85.9648C45.0835 86.2266 44.7476 86.6016 44.5093 87.0898C44.2749 87.5781 44.1577 88.1602 44.1577 88.8359V88.8477C44.1577 89.5195 44.2749 90.0996 44.5093 90.5879C44.7476 91.0762 45.0835 91.4531 45.5171 91.7188C45.9546 91.9805 46.4722 92.1113 47.0698 92.1113ZM47.0698 91.209C46.6714 91.209 46.3335 91.1152 46.0562 90.9277C45.7788 90.7402 45.5659 90.4707 45.4175 90.1191C45.2729 89.7676 45.2007 89.3438 45.2007 88.8477V88.8359C45.2007 88.3359 45.2729 87.9102 45.4175 87.5586C45.5659 87.207 45.7788 86.9395 46.0562 86.7559C46.3335 86.5684 46.6714 86.4746 47.0698 86.4746C47.4683 86.4746 47.8062 86.5684 48.0835 86.7559C48.3608 86.9395 48.5718 87.207 48.7163 87.5586C48.8647 87.9102 48.939 88.3359 48.939 88.8359V88.8477C48.939 89.3438 48.8647 89.7676 48.7163 90.1191C48.5718 90.4707 48.3608 90.7402 48.0835 90.9277C47.8062 91.1152 47.4683 91.209 47.0698 91.209ZM51.564 92H52.5835V88.0859C52.5835 87.7773 52.6538 87.5078 52.7944 87.2773C52.939 87.0469 53.1362 86.8672 53.3862 86.7383C53.6362 86.6094 53.9233 86.5449 54.2476 86.5449C54.3608 86.5449 54.4663 86.5508 54.564 86.5625C54.6655 86.5703 54.769 86.584 54.8745 86.6035V85.6133C54.8237 85.6055 54.7495 85.5977 54.6519 85.5898C54.5581 85.5781 54.4624 85.5723 54.3647 85.5723C53.939 85.5723 53.5815 85.6641 53.2925 85.8477C53.0034 86.0312 52.7983 86.2891 52.6772 86.6211H52.5835V85.6836H51.564V92ZM56.1577 92H57.1772V85.6836H56.1577V92ZM56.6733 84.4648C56.8687 84.4648 57.0347 84.3965 57.1714 84.2598C57.3081 84.1191 57.3765 83.9531 57.3765 83.7617C57.3765 83.5664 57.3081 83.4004 57.1714 83.2637C57.0347 83.127 56.8687 83.0586 56.6733 83.0586C56.4819 83.0586 56.3159 83.127 56.1753 83.2637C56.0386 83.4004 55.9702 83.5664 55.9702 83.7617C55.9702 83.9531 56.0386 84.1191 56.1753 84.2598C56.3159 84.3965 56.4819 84.4648 56.6733 84.4648ZM61.6772 92.1113C62.0483 92.1113 62.3823 92.0645 62.6792 91.9707C62.98 91.873 63.2397 91.7441 63.4585 91.584C63.6772 91.4199 63.855 91.2383 63.9917 91.0391C64.1323 90.8359 64.23 90.627 64.2847 90.4121L64.2964 90.3652H63.2769L63.2534 90.418C63.1987 90.543 63.103 90.666 62.9663 90.7871C62.8296 90.9082 62.6558 91.0078 62.4448 91.0859C62.2339 91.1641 61.9858 91.2031 61.7007 91.2031C61.3179 91.2031 60.9858 91.1191 60.7046 90.9512C60.4233 90.7793 60.2065 90.5352 60.0542 90.2188C59.9019 89.8984 59.8257 89.5137 59.8257 89.0645V88.6602C59.8257 88.1875 59.9038 87.7891 60.0601 87.4648C60.2163 87.1406 60.4272 86.8965 60.6929 86.7324C60.9624 86.5645 61.2671 86.4805 61.6069 86.4805C61.9468 86.4805 62.2476 86.5605 62.5093 86.7207C62.771 86.877 62.9761 87.1152 63.1245 87.4355C63.2729 87.7559 63.3472 88.1641 63.3472 88.6602V89.0645L63.8511 88.3203H59.3101V89.1348H64.3726V88.7363C64.3726 88.1074 64.2612 87.5566 64.0386 87.084C63.8198 86.6074 63.5034 86.2363 63.0894 85.9707C62.6792 85.7051 62.187 85.5723 61.6128 85.5723C61.0425 85.5723 60.5444 85.7109 60.1187 85.9883C59.6929 86.2656 59.3628 86.6504 59.1284 87.1426C58.8979 87.6348 58.7827 88.207 58.7827 88.8594V88.8652C58.7827 89.5254 58.8979 90.0996 59.1284 90.5879C59.3628 91.0723 59.6948 91.4473 60.1245 91.7129C60.5581 91.9785 61.0757 92.1113 61.6772 92.1113ZM68.1226 92.1113C68.603 92.1113 69.0327 92.0312 69.4116 91.8711C69.7944 91.7109 70.0972 91.4883 70.3198 91.2031C70.5425 90.9141 70.6538 90.582 70.6538 90.207V90.1953C70.6538 89.7422 70.5073 89.3809 70.2144 89.1113C69.9253 88.8418 69.4839 88.6348 68.8901 88.4902L67.9175 88.2559C67.6714 88.1934 67.4702 88.1211 67.314 88.0391C67.1577 87.957 67.0425 87.8613 66.9683 87.752C66.894 87.6426 66.8569 87.5176 66.8569 87.377V87.3652C66.8569 87.1777 66.9136 87.0137 67.0269 86.873C67.1401 86.7324 67.2944 86.623 67.4897 86.5449C67.6851 86.4629 67.9077 86.4219 68.1577 86.4219C68.5405 86.4219 68.8511 86.5 69.0894 86.6562C69.3276 86.8125 69.48 87.0156 69.5464 87.2656H70.5483C70.5015 86.9219 70.3726 86.623 70.1616 86.3691C69.9546 86.1152 69.6792 85.9199 69.3354 85.7832C68.9956 85.6426 68.605 85.5723 68.1636 85.5723C67.7183 85.5723 67.3179 85.6523 66.9624 85.8125C66.6069 85.9727 66.3257 86.1914 66.1187 86.4688C65.9155 86.7461 65.814 87.0605 65.814 87.4121V87.418C65.814 87.7188 65.8745 87.9805 65.9956 88.2031C66.1167 88.4219 66.3042 88.6074 66.5581 88.7598C66.812 88.9082 67.1362 89.0293 67.5308 89.123L68.5093 89.3574C68.8999 89.4512 69.1812 89.5742 69.353 89.7266C69.5249 89.875 69.6108 90.0566 69.6108 90.2715V90.2832C69.6108 90.4746 69.5483 90.6445 69.4233 90.793C69.2983 90.9375 69.1265 91.0527 68.9077 91.1387C68.6929 91.2207 68.4429 91.2617 68.1577 91.2617C67.7554 91.2617 67.4292 91.1816 67.1792 91.0215C66.9292 90.8613 66.7612 90.6504 66.6753 90.3887H65.6323C65.6714 90.7363 65.7983 91.0391 66.0132 91.2969C66.2319 91.5547 66.521 91.7559 66.8804 91.9004C67.2397 92.041 67.6538 92.1113 68.1226 92.1113Z" fill="#72726F"/>
<path d="M34.82 68.74C53.6639 68.74 68.94 53.464 68.94 34.62C68.94 15.776 53.6639 0.5 34.82 0.5C15.976 0.5 0.699951 15.776 0.699951 34.62C0.699951 53.464 15.976 68.74 34.82 68.74Z" stroke="#72726F" stroke-miterlimit="10"/>
<path d="M47.3799 34.85L44.0299 16.29C43.8799 15.48 43.1799 14.9 42.3599 14.9H27.2599C26.4399 14.9 25.7399 15.49 25.5899 16.29L24.3899 22.92C24.3299 23.26 24.5499 23.58 24.8899 23.64C25.2299 23.69 25.5499 23.48 25.6099 23.14L26.8099 16.51C26.8499 16.3 27.0299 16.14 27.2499 16.14H42.3499C42.5699 16.14 42.7499 16.29 42.7899 16.51L46.1399 35.07C46.1699 35.25 46.0899 35.38 46.0399 35.44C45.9899 35.5 45.8799 35.6 45.6999 35.6H23.8999C23.7199 35.6 23.6099 35.5 23.5599 35.44C23.5099 35.38 23.4299 35.25 23.4599 35.07L24.5999 28.73C24.6599 28.39 24.4399 28.07 24.0999 28.01C23.7599 27.95 23.4399 28.17 23.3799 28.51L22.2399 34.85C22.1499 35.34 22.2799 35.85 22.6099 36.24C22.9299 36.63 23.4099 36.85 23.9099 36.85H30.8199V38.14C27.6699 39.3 25.4799 41.83 25.4799 44.75C25.4799 47.67 27.4699 49.96 30.3799 51.19C29.9899 51.5 29.7399 51.98 29.7399 52.51V52.66C29.7399 53.6 30.5099 54.37 31.4499 54.37H38.5099C39.4499 54.37 40.2199 53.6 40.2199 52.66V52.51C40.2199 51.89 39.8799 51.34 39.3799 51.05C39.7899 50.86 40.1799 50.66 40.5499 50.43C40.8399 50.25 40.9199 49.86 40.7399 49.57C40.5599 49.28 40.1699 49.19 39.8799 49.38C38.4399 50.3 36.6199 50.81 34.7399 50.81C30.3299 50.81 26.7499 48.09 26.7499 44.75C26.7499 41.41 30.3299 38.69 34.7399 38.69C36.9499 38.69 38.9599 39.38 40.3999 40.48V45.95C40.3999 46.29 40.6799 46.57 41.0199 46.57C41.3599 46.57 41.6399 46.29 41.6399 45.95V41.72C42.3199 42.61 42.7199 43.65 42.7199 44.75C42.7199 45.63 42.4699 46.48 41.9899 47.27C41.8099 47.56 41.8999 47.95 42.1999 48.13C42.4899 48.31 42.8799 48.21 43.0499 47.92C43.6499 46.93 43.9599 45.86 43.9599 44.75C43.9599 42.9 43.0799 41.21 41.6299 39.92V36.85H45.7099C46.2099 36.85 46.6899 36.63 47.0099 36.24C47.3299 35.85 47.4699 35.35 47.3799 34.85ZM38.4999 52.05C38.7499 52.05 38.9599 52.26 38.9599 52.51V52.66C38.9599 52.92 38.7499 53.12 38.4999 53.12H31.4399C31.1899 53.12 30.9799 52.91 30.9799 52.66V52.51C30.9799 52.25 31.1899 52.05 31.4399 52.05H38.4999ZM32.0699 37.44V36.84H37.3699V37.44H32.0699ZM40.3799 38.99C39.8399 38.65 39.2399 38.37 38.6099 38.13V36.84H40.3799V38.99Z" fill="#72726F"/>
</svg>
