<svg width="71" height="95" viewBox="0 0 71 95" fill="none" xmlns="http://www.w3.org/2000/svg">
<path d="M30.6897 92.1992C31.3186 92.1992 31.8674 92.0957 32.3362 91.8887C32.8049 91.6777 33.1682 91.3809 33.426 90.998C33.6838 90.6152 33.8127 90.1602 33.8127 89.6328V89.627C33.8127 89.2207 33.7288 88.8691 33.5608 88.5723C33.3967 88.2715 33.135 88.0176 32.7756 87.8105C32.4163 87.6035 31.9417 87.4355 31.3518 87.3066L30.4143 87.0957C29.8401 86.9707 29.428 86.793 29.178 86.5625C28.928 86.332 28.803 86.0488 28.803 85.7129V85.707C28.803 85.4102 28.885 85.1602 29.0491 84.957C29.217 84.75 29.4417 84.5918 29.7229 84.4824C30.0042 84.373 30.3206 84.3184 30.6721 84.3184C31.0393 84.3145 31.3596 84.3691 31.6331 84.4824C31.9065 84.5957 32.1252 84.75 32.2893 84.9453C32.4534 85.1367 32.5549 85.3574 32.594 85.6074L32.6057 85.6836H33.6604L33.6545 85.6016C33.6272 85.1797 33.4846 84.7988 33.2268 84.459C32.9729 84.1191 32.6292 83.8496 32.1956 83.6504C31.762 83.4473 31.2639 83.3457 30.7014 83.3457C30.1194 83.3457 29.6038 83.4473 29.1545 83.6504C28.7092 83.8535 28.3596 84.1348 28.1057 84.4941C27.8557 84.8535 27.7288 85.2676 27.7249 85.7363V85.7422C27.7249 86.3555 27.9163 86.8594 28.2991 87.2539C28.6858 87.6445 29.303 87.9336 30.1506 88.1211L31.0881 88.3262C31.6702 88.4551 32.0901 88.6406 32.3479 88.8828C32.6057 89.1211 32.7346 89.416 32.7346 89.7676V89.7734C32.7346 90.0586 32.6487 90.3105 32.4768 90.5293C32.3049 90.748 32.0686 90.9199 31.7678 91.0449C31.4709 91.166 31.1311 91.2266 30.7483 91.2266C30.342 91.2266 29.9788 91.1699 29.6584 91.0566C29.342 90.9434 29.0881 90.7852 28.8967 90.582C28.7092 90.375 28.6018 90.1309 28.5745 89.8496L28.5686 89.7852H27.5139L27.5198 89.8496C27.5627 90.3066 27.717 90.7129 27.9827 91.0684C28.2522 91.4199 28.6155 91.6973 29.0725 91.9004C29.5334 92.0996 30.0725 92.1992 30.6897 92.1992ZM38.0198 92.1113C38.3909 92.1113 38.7249 92.0645 39.0217 91.9707C39.3225 91.873 39.5823 91.7441 39.801 91.584C40.0198 91.4199 40.1975 91.2383 40.3342 91.0391C40.4749 90.8359 40.5725 90.627 40.6272 90.4121L40.6389 90.3652H39.6194L39.5959 90.418C39.5413 90.543 39.4456 90.666 39.3088 90.7871C39.1721 90.9082 38.9983 91.0078 38.7874 91.0859C38.5764 91.1641 38.3284 91.2031 38.0432 91.2031C37.6604 91.2031 37.3284 91.1191 37.0471 90.9512C36.7659 90.7793 36.5491 90.5352 36.3967 90.2188C36.2444 89.8984 36.1682 89.5137 36.1682 89.0645V88.6602C36.1682 88.1875 36.2463 87.7891 36.4026 87.4648C36.5588 87.1406 36.7698 86.8965 37.0354 86.7324C37.3049 86.5645 37.6096 86.4805 37.9495 86.4805C38.2893 86.4805 38.5901 86.5605 38.8518 86.7207C39.1135 86.877 39.3186 87.1152 39.467 87.4355C39.6155 87.7559 39.6897 88.1641 39.6897 88.6602V89.0645L40.1936 88.3203H35.6526V89.1348H40.7151V88.7363C40.7151 88.1074 40.6038 87.5566 40.3811 87.084C40.1624 86.6074 39.8459 86.2363 39.4319 85.9707C39.0217 85.7051 38.5295 85.5723 37.9553 85.5723C37.385 85.5723 36.887 85.7109 36.4612 85.9883C36.0354 86.2656 35.7053 86.6504 35.4709 87.1426C35.2405 87.6348 35.1252 88.207 35.1252 88.8594V88.8652C35.1252 89.5254 35.2405 90.0996 35.4709 90.5879C35.7053 91.0723 36.0374 91.4473 36.467 91.7129C36.9006 91.9785 37.4182 92.1113 38.0198 92.1113ZM44.5413 92.0469C44.6428 92.0469 44.7424 92.041 44.8401 92.0293C44.9377 92.0176 45.0354 92.0039 45.1331 91.9883V91.1211C45.0393 91.1289 44.9592 91.1348 44.8928 91.1387C44.8303 91.1426 44.7542 91.1445 44.6643 91.1445C44.3362 91.1445 44.1018 91.0645 43.9612 90.9043C43.8206 90.7402 43.7502 90.4727 43.7502 90.1016V86.5273H45.1331V85.6836H43.7502V84.0488H42.6956V85.6836H41.6995V86.5273H42.6956V90.3594C42.6956 90.9609 42.8401 91.3926 43.1292 91.6543C43.4221 91.916 43.8928 92.0469 44.5413 92.0469Z" fill="#72726F"/>
<path d="M35.4701 69.04C54.3141 69.04 69.5901 53.764 69.5901 34.92C69.5901 16.0761 54.3141 0.800049 35.4701 0.800049C16.6261 0.800049 1.3501 16.0761 1.3501 34.92C1.3501 53.764 16.6261 69.04 35.4701 69.04Z" stroke="#72726F" stroke-miterlimit="10"/>
<path d="M50.9003 45.48C50.9003 44.81 50.4203 44.25 49.7903 44.12V40.14C49.7903 38.98 48.8503 38.03 47.6903 38.01V29.85C47.6903 28.9 46.9203 28.13 45.9703 28.13H43.7603C43.5303 28.13 43.3503 28.31 43.3503 28.54C43.3503 28.77 43.5303 28.95 43.7603 28.95H45.9703C46.4603 28.95 46.8703 29.35 46.8703 29.85V38.01H45.8703V36.29C45.8703 35.34 45.1003 34.57 44.1503 34.57H38.0203C37.0703 34.57 36.3003 35.34 36.3003 36.29V38.01H35.0303V36.29C35.0303 35.34 34.2603 34.57 33.3103 34.57H27.1803C26.2303 34.57 25.4603 35.34 25.4603 36.29V38.01H24.1403V29.85C24.1403 29.36 24.5403 28.95 25.0403 28.95H41.1103C41.3403 28.95 41.5203 28.77 41.5203 28.54C41.5203 28.31 41.3403 28.13 41.1103 28.13H25.0403C24.0903 28.13 23.3203 28.9 23.3203 29.85V38.02C22.1903 38.08 21.2903 39 21.2903 40.15C21.2903 40.38 21.4703 40.56 21.7003 40.56C21.9303 40.56 22.1103 40.38 22.1103 40.15C22.1103 39.43 22.7003 38.84 23.4203 38.84H47.6803C48.4003 38.84 48.9903 39.43 48.9903 40.15V44.11H22.1103V42.31C22.1103 42.08 21.9303 41.9 21.7003 41.9C21.4703 41.9 21.2903 42.08 21.2903 42.31V44.13C20.6103 44.22 20.0803 44.8 20.0803 45.5C20.0803 46.13 20.5103 46.66 21.0803 46.83L21.2203 48.45C21.2503 48.76 21.3903 49.04 21.6303 49.23C21.8403 49.4 22.0903 49.49 22.3603 49.49C22.4003 49.49 22.4403 49.49 22.4803 49.49L22.7303 49.46C23.2103 49.41 23.6103 49.06 23.7303 48.6L24.1503 46.89H46.9803L47.4003 48.6C47.5203 49.07 47.9203 49.42 48.3903 49.46L48.6403 49.49C48.6403 49.49 48.7203 49.49 48.7603 49.49C49.0303 49.49 49.2803 49.4 49.4903 49.23C49.7303 49.03 49.8803 48.75 49.9003 48.45L50.0503 46.79C50.5603 46.58 50.9203 46.09 50.9203 45.51L50.9003 45.48ZM26.2703 38V36.28C26.2703 35.79 26.6703 35.38 27.1703 35.38H33.3003C33.7903 35.38 34.2003 35.78 34.2003 36.28V38H26.2803H26.2703ZM37.1203 38V36.28C37.1203 35.79 37.5203 35.38 38.0203 35.38H44.1503C44.6403 35.38 45.0503 35.78 45.0503 36.28V38H37.1303H37.1203ZM22.9003 48.37C22.8703 48.5 22.7603 48.6 22.6203 48.61L22.3703 48.64C22.2803 48.64 22.2003 48.62 22.1303 48.57C22.0603 48.52 22.0203 48.44 22.0103 48.35L21.8803 46.87H23.2603L22.8903 48.38L22.9003 48.37ZM48.9503 48.57C48.8803 48.63 48.8003 48.65 48.7103 48.64L48.4603 48.61C48.3303 48.6 48.2103 48.5 48.1803 48.37L47.8103 46.86H49.1903L49.0603 48.34C49.0603 48.43 49.0103 48.5 48.9403 48.56L48.9503 48.57ZM49.5103 46.04H21.4403C21.1303 46.04 20.8803 45.79 20.8803 45.48C20.8803 45.17 21.1303 44.92 21.4403 44.92H49.5103C49.8203 44.92 50.0703 45.17 50.0703 45.48C50.0703 45.79 49.8203 46.04 49.5103 46.04Z" fill="#72726F"/>
<path d="M61.1703 40.98C61.1703 40.53 61.0503 40.42 60.6103 40.42H53.8203C53.3903 40.42 53.2703 40.53 53.2703 40.96C53.2703 42.15 53.2703 43.34 53.2703 44.53C53.2703 45.73 53.2703 46.93 53.2703 48.12C53.2703 48.49 53.4003 48.64 53.7503 48.64C54.6103 48.64 55.4603 48.64 56.3203 48.64C56.9203 48.64 57.5103 48.64 58.1003 48.64C58.2403 48.56 58.3303 48.41 58.3303 48.24C58.3303 48.07 58.2203 47.9 58.0703 47.83H54.0803V43.91C54.1903 43.91 54.2903 43.89 54.3803 43.89C56.2703 43.89 58.1503 43.89 60.0403 43.89C60.2903 43.89 60.3703 43.95 60.3703 44.22C60.3603 45.32 60.3703 46.43 60.3703 47.53V47.84H59.8703C59.7203 47.91 59.6103 48.07 59.6103 48.25C59.6103 48.43 59.7103 48.57 59.8503 48.65H60.6903C61.0303 48.65 61.1703 48.48 61.1703 48.15V47.8C61.1703 47.37 61.1703 46.93 61.1703 46.5C61.1703 44.67 61.1703 42.83 61.1703 41V40.98ZM60.3403 43.05H54.0903V41.23H60.3403V43.05Z" fill="#72726F"/>
<path d="M57.2102 42.38C56.9902 42.38 56.7702 42.38 56.5502 42.38C56.3602 42.38 56.2402 42.28 56.2402 42.14C56.2402 42 56.3602 41.9 56.5502 41.9C57.0002 41.9 57.4502 41.9 57.9102 41.9C58.1002 41.9 58.2202 42 58.2102 42.15C58.2002 42.31 58.0902 42.38 57.9202 42.38C57.6902 42.38 57.4502 42.38 57.2202 42.38H57.2102Z" fill="#72726F"/>
<path d="M10.1702 45.24C9.99025 45.24 9.84025 45.13 9.76025 44.98V44.52V43.72C9.76025 42.8 9.76025 41.87 9.76025 40.95C9.76025 40.53 9.88025 40.41 10.3102 40.41H17.1003C17.5403 40.41 17.6603 40.52 17.6603 40.97C17.6603 42.8 17.6603 44.64 17.6603 46.47C17.6603 46.9 17.6603 47.34 17.6603 47.77V48.12C17.6603 48.45 17.5203 48.62 17.1803 48.62H13.5303H12.8102C11.9502 48.62 11.1002 48.62 10.2402 48.62C9.94025 48.62 9.80025 48.52 9.77025 48.27C9.77025 48.22 9.76025 48.16 9.76025 48.1C9.76025 47.73 9.76025 47.37 9.76025 47C9.83025 46.85 9.99026 46.75 10.1603 46.75C10.3503 46.75 10.5303 46.88 10.5803 47.06V47.8H16.8603V47.49C16.8603 46.39 16.8603 45.28 16.8603 44.18C16.8603 43.91 16.7703 43.85 16.5303 43.85C14.6403 43.86 12.7603 43.85 10.8703 43.85C10.7803 43.85 10.6902 43.86 10.5902 43.87H10.5703V44.89C10.5203 45.07 10.3403 45.2 10.1503 45.2L10.1702 45.24ZM16.8402 43.06V41.24H10.5902V43.06H16.8402Z" fill="#72726F"/>
<path d="M14.4002 42.38C14.1702 42.38 13.9302 42.38 13.7002 42.38C13.4802 42.38 13.2602 42.38 13.0402 42.38C12.8502 42.38 12.7302 42.28 12.7302 42.14C12.7302 42 12.8502 41.9 13.0402 41.9C13.4902 41.9 13.9402 41.9 14.4002 41.9C14.5902 41.9 14.7102 42 14.7002 42.15C14.6902 42.31 14.5802 42.38 14.4102 42.38H14.4002Z" fill="#72726F"/>
</svg>
