<svg width="126" height="158" viewBox="0 0 126 158" fill="none" xmlns="http://www.w3.org/2000/svg">
<g clip-path="url(#clip0_85_228)">
<path d="M75.4633 0H50.9328C48.0905 0 45.6939 2.1023 45.3077 4.9186L39.4945 47.7877H86.9116L81.0983 4.9186C80.7121 2.1023 78.3155 0 75.4732 0L75.4633 0Z" fill="#222222"/>
<path d="M92.9724 50.3065H33.3049C32.3641 50.3065 31.6015 51.0702 31.6015 52.0122V54.7789C31.6015 55.7209 32.3641 56.4845 33.3049 56.4845H92.9724C93.9132 56.4845 94.6758 55.7209 94.6758 54.7789V52.0122C94.6758 51.0702 93.9132 50.3065 92.9724 50.3065Z" fill="#222222"/>
<path d="M36.979 97.1125C35.5925 97.0233 34.5428 95.8333 34.622 94.445L36.8107 58.6661H41.9109L39.643 94.7524C39.5539 96.1407 38.3655 97.1918 36.979 97.1125Z" fill="#222222"/>
<path d="M45.179 88.3166C44.1589 88.2571 43.3766 87.3745 43.4459 86.3531L45.1394 58.6562H48.8234L47.1497 86.5812C47.0903 87.6026 46.2089 88.386 45.1889 88.3166H45.179Z" fill="#222222"/>
<path d="M81.1875 88.3562C82.2075 88.2967 82.9899 87.4141 82.9205 86.3927L81.2271 58.6959L77.444 58.6661L79.2167 86.6208C79.2761 87.6422 80.1575 88.4256 81.1776 88.3562H81.1875Z" fill="#222222"/>
<path d="M89.2191 97.1125C90.6055 97.0233 91.6553 95.8333 91.5761 94.445L89.3874 58.6661H84.307L86.5551 94.7524C86.6442 96.1407 87.8326 97.1918 89.2191 97.1125Z" fill="#222222"/>
<path d="M45.3968 134.23V135.628H26.9668V106.94H45.3968V108.288H28.2542V120.248H41.7623V121.596H28.1948V134.22L45.3968 134.23Z" fill="#166C4D"/>
<path d="M68.9172 122.251C68.5409 122.38 68.2933 122.539 66.7088 123.471C66.6692 123.51 65.0747 124.442 65.0549 124.462C63.4209 123.838 62.0641 123.6 61.1332 123.49C59.1625 123.272 56.8649 123.362 56.8649 123.362C55.8647 123.401 54.8941 123.49 53.6166 123.143C52.4183 122.816 52.0717 122.429 51.933 122.172C51.5567 121.527 51.7548 120.734 51.8835 120.287C52.0618 119.554 52.4183 119.048 52.5966 118.82C53.7751 117.184 54.3693 116.38 55.4487 115.299C56.7758 113.99 57.8651 113.197 58.9842 112.414C59.519 112.017 60.0241 111.729 61.0441 111.154C61.0441 111.154 61.7571 110.758 62.7871 110.53C63.0347 110.48 63.4011 110.401 63.718 110.599C63.7873 110.639 63.9656 110.728 64.0547 110.926C64.1636 111.174 64.0349 111.303 64.1438 111.571C64.1438 111.591 64.2726 111.858 64.5202 111.928C64.8272 111.997 65.1144 111.66 65.2035 111.571C65.5105 111.234 65.7086 110.619 65.4511 110.113C65.4016 110.004 65.1837 109.627 64.3716 109.409C63.1931 109.102 62.0047 109.498 60.8955 110.024C60.1429 110.381 58.905 111.045 57.1521 112.503C55.4091 113.941 54.3693 115.161 53.2601 116.45C51.8934 118.046 51.3586 118.909 51.0714 120C50.7446 121.259 50.9823 121.953 51.1111 122.241C51.4478 123.064 52.1311 123.52 52.3688 123.659C53.2502 124.195 54.1118 124.195 55.0229 124.195C56.3004 124.214 58.5386 124.175 60.0934 124.323C61.262 124.433 64.0052 124.661 64.0349 125.226C64.0349 125.295 63.9854 125.365 63.926 125.424C63.7972 125.533 63.5892 125.692 63.3318 125.87C62.4306 126.584 60.8757 127.804 59.1922 129.212C57.2907 130.769 56.34 131.563 55.4289 132.425C54.2999 133.467 53.0818 134.706 51.8439 136.322C51.1111 137.255 50.5862 138.048 50.1901 139.119C49.8137 140.12 49.4176 141.201 49.9524 142.114C50.3782 142.828 51.1012 143.105 51.4082 143.205C52.0915 143.443 52.9135 143.452 54.7258 142.808C55.8944 142.391 57.1422 141.816 58.7267 140.854C60.7569 139.615 62.1335 138.464 62.4207 138.217C63.8368 137.017 65.0351 135.995 66.1641 134.29C66.9663 133.11 68.2438 131.146 68.1547 128.746C68.1349 128.231 68.0854 127.259 67.4515 126.247C67.0356 125.563 66.5404 125.137 66.1938 124.879C66.7286 124.482 67.1941 124.175 67.5605 123.966C67.6892 123.877 68.5508 123.352 69.7293 122.905C70.0561 122.777 70.3433 122.687 70.7196 122.667C71.1455 122.648 71.4921 122.757 71.71 122.826C71.7298 122.608 71.7496 122.4 71.7496 122.162C70.4423 121.854 69.4916 122.033 68.9172 122.231V122.251ZM66.5008 127.021C66.6395 127.289 66.897 127.864 66.7187 129.242C66.5008 130.968 65.8769 132.207 65.7185 132.495C64.8767 134.111 63.8863 135.083 62.6484 136.263C61.1926 137.661 59.9943 138.455 58.2712 139.605C56.1717 141.023 55.3101 141.35 54.5772 141.539C54.5772 141.539 53.4482 141.965 51.8538 141.826C51.6557 141.806 51.3884 141.777 51.1903 141.588C51.121 141.499 50.7446 141.102 51.121 139.793C51.7449 137.641 53.5968 135.866 53.6265 135.807C57.8354 131.771 56.5975 132.683 58.6277 130.888C59.7765 129.887 60.9253 128.915 62.1037 127.983C62.6385 127.566 63.1832 127.189 63.6982 126.783C63.9458 126.584 64.233 126.356 64.4508 126.099C64.6093 125.9 64.7776 125.563 65.0747 125.523C65.2728 125.523 65.4313 125.742 65.6095 125.95C66.382 126.941 66.3622 126.773 66.4909 127.011L66.5008 127.021Z" fill="#222222"/>
<path d="M62.9257 112.949C63.1535 112.84 63.3516 112.741 63.6091 112.791C63.8467 112.83 64.1537 113.009 64.2231 113.267C64.2825 113.505 64.1141 113.673 64.2231 113.842C64.2924 113.941 64.4112 113.971 64.5202 113.981C65.5402 114.1 66.3028 113.752 66.3028 113.752C66.5305 113.633 67.7189 113.455 70.0759 113.068C70.8187 112.949 71.908 112.8 73.2747 112.721C73.3539 112.493 73.4926 112.086 73.6213 111.581C73.8491 110.668 73.8986 110.093 74.1957 109.092C74.473 108.15 74.6414 107.971 74.8394 107.882C75.186 107.723 75.6614 107.832 75.9387 108.11C76.1962 108.378 76.2259 108.745 76.216 109.092C76.1863 110.282 75.7604 111.472 75.4138 112.275C77.0974 112.136 79.4445 111.948 82.2471 111.749C84.6734 111.581 86.4065 111.462 88.8427 111.333C92.8239 111.134 95.6562 111.095 96.5871 111.085C97.7854 111.065 98.7857 111.065 99.5086 111.065C99.5482 111.085 99.9543 111.273 100.014 111.69C100.053 111.967 99.9146 112.176 99.8552 112.275C99.776 112.404 99.6473 112.622 99.4294 112.662C99.2808 112.691 99.1224 112.652 98.3598 112.027C98.1518 111.858 97.9835 111.71 97.8746 111.62C97.4289 111.61 96.7852 111.591 96.0127 111.581C94.4381 111.561 93.0516 111.591 91.3879 111.66C89.0408 111.749 86.4461 111.839 82.9304 112.146C81.029 112.305 78.7314 112.543 76.107 112.89C76.0278 112.89 75.6515 112.86 75.3049 113.118C75.0078 113.346 74.9286 113.683 74.8691 113.911C74.4037 115.875 74.1165 117.927 73.7501 119.911C73.5916 120.773 73.245 122.677 72.9875 124.69C72.6211 127.596 72.8984 127.239 72.5022 132.039C72.3636 133.704 72.215 135.142 72.1952 137.354C72.1952 138.236 72.1952 138.97 72.2249 139.466C72.2844 139.545 72.3735 139.664 72.4527 139.823C72.5518 140.011 72.5914 140.101 72.5815 140.2C72.5518 140.378 72.3636 140.517 72.2051 140.557C71.8882 140.636 71.601 140.378 71.5218 140.299C71.3237 140.12 71.2148 139.902 71.1158 139.506C70.9177 138.752 70.9375 138.207 70.9375 138.207C70.9771 137.205 70.8781 136.203 70.987 135.202C71.096 134.26 70.9177 135.4 71.2643 129.609C71.4327 126.803 71.5218 125.355 71.7001 123.451C71.8189 122.152 71.9378 121.091 72.0269 120.297C72.3537 117.491 72.7201 115.18 72.8687 114.675C72.8687 114.645 72.9182 114.447 72.9974 114.04C72.9974 114 73.037 113.852 73.0271 113.663C73.0271 113.524 73.0172 113.455 72.9776 113.405C72.8588 113.267 72.5022 113.395 72.2943 113.455C71.8684 113.584 71.4129 113.584 70.9771 113.683C70.0759 113.891 70.1651 113.812 67.5704 114.367C65.3818 114.833 64.2924 115.071 64.0646 115.161C63.6388 115.329 63.2921 115.389 62.589 115.518C61.9156 115.637 61.6977 115.627 61.5195 115.488C61.2323 115.26 61.1926 114.764 61.3115 114.417C61.3709 114.248 61.4402 114.228 61.9948 113.703C62.5395 113.197 62.6484 113.068 62.9356 112.929L62.9257 112.949Z" fill="#222222"/>
<path d="M125.812 97.9257C125.743 97.7967 125.435 97.2117 124.841 97.1918C124.445 97.172 124.158 97.41 124.069 97.4993C123.316 98.5207 122.435 99.8495 121.613 101.486C120.415 103.816 119.82 105.76 119.117 108.07C118.78 109.201 118.325 110.777 117.939 112.701C117.701 113.852 117.562 114.566 117.473 115.607C117.473 115.696 117.424 116.509 117.335 118.136C117.335 118.136 117.295 118.711 117.028 120.456C116.988 120.674 116.938 120.962 116.78 121.279C116.622 121.616 116.443 121.785 116.047 122.211C115.582 122.697 115.344 122.945 115.116 123.252C114.542 124.006 114.364 124.532 114.096 124.492C113.987 124.472 113.898 124.353 113.859 124.274C113.859 124.274 114.017 123.748 114.096 123.5C114.235 123.084 114.364 122.816 114.601 122.35C114.908 121.735 115.047 121.418 115.304 121.021C115.522 120.694 115.77 120.397 116.275 119.762C116.721 119.187 116.889 119.008 116.83 118.81C116.74 118.542 116.344 118.393 116.027 118.393C115.849 118.393 115.493 118.443 114.542 119.415C114.007 119.97 113.373 120.654 112.888 121.765C112.71 122.142 112.601 122.469 112.551 122.677C112.373 122.895 112.125 123.193 111.799 123.54C110.779 124.71 110.006 125.404 109.768 125.603C108.065 127.15 107.56 127.09 107.402 127.06C106.916 126.991 106.609 126.614 106.471 126.446C105.956 125.821 105.966 125.047 105.985 124.601C105.985 124.135 106.074 123.758 106.164 123.52C106.292 123.391 106.451 123.233 106.629 123.014C106.788 122.816 107.184 122.31 107.51 121.547C107.817 120.863 107.956 120.506 107.798 120.178C107.639 119.841 107.273 119.732 107.243 119.712C106.817 119.583 106.401 119.841 106.223 119.96C105.688 120.317 105.451 120.863 105.144 121.626C105.005 122.003 104.896 122.33 104.837 122.538C104.549 122.608 104.133 122.717 103.668 122.876C103.311 123.005 102.608 123.272 101.232 124.115C100.033 124.849 99.8354 125.087 98.6371 125.781C98.0825 126.108 97.6171 126.356 97.3299 126.495C97.5279 124.79 97.6369 123.332 97.6864 122.201C97.7062 121.775 97.7755 120.406 97.5576 118.85C97.5576 118.85 97.4487 118.116 97.0229 116.946C96.805 116.41 96.6862 116.172 96.4287 116.013C96.0523 115.746 95.5176 115.676 95.0818 115.875C94.7253 116.013 94.547 116.301 94.2895 116.678C93.8934 117.293 93.8241 117.808 93.6062 117.788C93.5369 117.788 93.4973 117.739 93.4081 117.61C93.1606 117.303 92.8139 116.926 92.5664 116.876C92.1405 116.787 91.7939 117.015 91.4572 117.233C90.9521 117.57 90.655 118.026 90.0608 118.919C89.6647 119.544 89.4468 119.851 89.328 120.178C89.0408 120.882 88.8229 121.507 88.2386 122.043C87.7335 122.509 87.1096 122.866 86.555 123.243C85.5845 123.907 85.3171 124.085 84.8319 124.373C84.099 124.799 83.6534 125.057 82.97 125.236C82.5244 125.365 81.95 125.454 81.2865 125.394C80.9597 125.355 80.6626 125.325 80.3358 125.147C79.8901 124.928 79.6524 124.591 79.494 124.353C79.3355 124.115 79.1573 123.867 79.0681 123.471C78.9988 123.054 79.1177 122.985 79.0186 122.558C78.9493 122.34 78.88 122.181 78.7116 121.874C78.5334 121.517 78.4442 121.428 78.4046 121.388C78.3551 121.339 78.157 121.14 77.8698 121.101C77.4737 121.031 77.137 121.299 76.7805 121.586C76.5131 121.805 76.3348 122.013 76.1169 122.271C75.7208 122.776 75.4336 123.114 75.1167 123.649C74.7008 124.333 74.5621 124.74 74.2551 125.583C74.1264 125.96 74.0372 126.287 74.2056 126.535C74.3641 126.803 74.6909 126.892 74.7602 126.892C74.8493 126.912 75.1167 126.961 75.5326 126.783C75.6614 126.733 76.0179 126.565 76.7508 125.543C77.1964 124.928 77.4143 124.631 77.543 124.393C77.7213 124.056 77.8104 123.778 77.9689 123.778C78.1075 123.778 78.2065 123.976 78.3848 124.314C78.8899 125.315 78.9097 125.394 78.979 125.513C80.306 127.645 84.3961 126.029 85.8618 124.978C86.3273 124.651 86.763 124.274 87.0997 123.828C87.278 123.609 87.6147 122.965 87.9811 123.203C88.0703 123.252 88.0306 123.471 87.9811 123.847C87.892 124.472 87.8524 124.78 87.892 125.047C87.9316 125.206 88.0009 125.692 88.3971 125.98C88.7536 126.227 89.1893 126.198 89.3478 126.158C89.9618 126.069 90.3381 125.543 91.0115 124.522C92.0316 122.975 92.4772 122.201 92.4772 122.201C93.3388 120.714 93.7647 119.96 94.0023 119.504C94.3292 118.8 94.8045 118.175 95.1511 117.471C95.2601 117.223 95.4779 116.767 95.6859 116.787C95.7949 116.807 95.884 116.946 95.9533 117.114C96.3494 117.977 96.3989 118.403 96.3989 118.403C96.6168 120.327 96.7258 121.289 96.706 121.953C96.6861 122.281 96.6663 122.578 96.29 125.811C96.2009 126.475 96.1514 127.011 96.0919 127.368C94.8936 128.082 93.3685 129.093 91.7147 130.402C89.7637 131.979 88.4664 133.328 88.1297 133.704C85.9113 136.055 84.8517 137.909 84.5843 138.385C84.099 139.228 83.4751 140.468 83.277 142.124C83.1681 142.967 83.0592 144.028 83.693 144.563C84.1981 144.98 84.9507 144.851 85.3765 144.781C86.6145 144.563 87.4562 143.849 88.2089 143.125C89.8033 141.667 90.5956 140.934 91.576 139.644C92.9724 137.85 93.7647 136.342 94.8045 134.349C95.9137 132.217 96.3098 131.087 96.4386 130.739C96.904 129.361 97.1417 128.151 97.2804 127.288C98.3697 126.713 99.2016 126.178 99.7859 125.801C100.311 125.444 100.578 125.226 101.182 124.869C102.004 124.403 102.093 124.442 102.757 124.006C102.757 124.006 103.242 123.699 103.866 123.342C104.203 123.163 104.104 123.252 104.242 123.163C104.381 123.074 104.48 122.985 104.599 123.024C104.639 123.044 104.668 123.064 104.688 123.094C104.688 123.49 104.668 124.085 104.728 124.78C104.797 125.96 104.856 126.555 105.233 127.041C105.718 127.655 106.431 127.844 106.609 127.903C107.164 128.042 107.61 127.973 107.718 127.953C107.857 127.933 108.134 127.883 109.095 127.269C109.996 126.733 110.442 126.446 110.709 126.138C110.888 125.89 111.036 125.632 111.412 125.335C111.66 125.117 111.967 124.889 112.185 124.978C112.472 125.087 112.274 125.623 112.65 125.89C113.076 126.218 113.621 126.069 113.819 126.019C114.354 125.88 114.68 125.513 115.235 124.869C115.483 124.581 115.502 124.532 116.166 123.699C116.384 123.431 116.562 123.193 116.681 123.054V123.986C116.681 125.097 116.661 125.96 116.641 127.308C116.622 128.885 116.622 129.698 116.711 130.482C116.78 131.215 116.929 131.9 117.414 132.495C117.572 132.673 117.949 133.109 118.523 133.179C118.652 133.179 119.117 133.228 119.365 132.931C119.494 132.753 119.543 132.445 119.414 132.316C119.325 132.207 119.177 132.267 118.899 132.227C118.652 132.177 118.454 132.098 118.305 132.029C118.216 131.791 118.107 131.453 117.998 131.007C117.78 130.095 117.8 129.391 117.82 128.637C117.859 126.555 117.869 125.841 117.909 124.869C117.929 123.867 117.949 123.362 117.998 122.499C118.048 121.815 118.107 121.239 118.157 120.863C118.87 119.692 119.82 118.066 120.86 116.073C121.593 114.675 122.118 113.683 122.702 112.285C123.277 110.916 123.831 109.161 124.921 105.641C125.119 104.996 125.495 103.796 125.822 102.19C125.871 101.902 125.911 100.841 126 98.7091C126 98.5702 126.02 98.1835 125.822 97.8067L125.812 97.9257ZM76.9488 123.52C76.7508 123.897 76.6418 123.966 76.3942 124.383C76.3942 124.383 76.2655 124.581 76.0674 124.799C76.0278 124.849 75.9387 124.938 75.8 124.998C75.7505 124.998 75.6911 125.037 75.6416 124.998C75.6218 124.978 75.5723 124.948 75.5921 124.76C75.6119 124.542 75.7307 124.363 75.8297 124.244C76.0773 123.887 76.2061 123.689 76.3447 123.51C76.6121 123.133 76.721 123.005 76.8696 123.024C76.9191 123.024 76.9983 123.064 77.028 123.114C77.0776 123.223 77.028 123.362 76.9587 123.53L76.9488 123.52ZM92.6555 119.464C92.5862 119.663 92.497 119.861 92.3485 120.109C92.1504 120.436 92.0217 120.575 91.8434 120.843C91.7048 121.061 91.7543 121.001 91.1799 121.953C90.8531 122.509 90.6946 122.747 90.6253 122.836C90.6253 122.836 90.6055 122.856 90.5362 122.965C90.4669 123.104 90.3381 123.302 90.1202 123.49C89.9618 123.619 89.8529 123.778 89.6944 123.738C89.6053 123.609 89.6548 123.471 89.6944 123.252C89.7835 122.856 89.8727 122.568 89.942 122.429C90.4768 121.339 89.7241 122.717 90.6253 120.972C91.269 119.692 91.4473 119.425 91.576 119.216C92.2792 118.106 92.4772 118.126 92.5268 118.136C92.7248 118.185 92.8338 118.582 92.8338 118.84C92.8338 119.038 92.7842 119.177 92.6555 119.464ZM95.7354 128.657C95.7156 128.726 95.7156 128.816 95.6958 128.945C95.6562 129.123 95.6067 129.391 95.5374 129.698C95.4086 130.204 94.9234 132.108 93.7052 134.528C92.804 136.322 91.9524 137.522 91.0512 138.762C90.3381 139.754 89.3874 140.755 87.4463 142.778C87.3077 142.917 86.5154 143.73 85.3865 143.978C84.7427 144.117 84.4357 143.998 84.2971 143.869C84.0297 143.69 83.9406 143.423 83.8811 143.185C83.7425 142.699 83.7524 142.213 83.9208 141.529C84.1386 140.596 84.4555 139.932 84.5348 139.773C85.3072 138.217 86.1292 137.076 86.2579 136.917C87.2483 135.589 88.1 134.726 89.0408 133.774C90.2193 132.594 90.962 131.85 92.1108 131.027C92.5961 130.67 93.2398 130.234 94.4381 129.341C94.9234 128.984 95.3195 128.677 95.5869 128.478C95.6265 128.459 95.7156 128.439 95.7453 128.498C95.7651 128.538 95.7651 128.568 95.7453 128.637L95.7354 128.657ZM105.787 122.737C105.678 122.648 105.748 122.41 105.787 122.291C105.837 122.132 105.926 121.983 106.005 121.844C106.074 121.715 106.134 121.577 106.253 121.507C106.273 121.487 106.382 121.438 106.451 121.487C106.5 121.527 106.5 121.626 106.5 121.725C106.5 121.864 106.461 122.013 106.391 122.142C106.342 122.251 106.302 122.36 106.263 122.479C106.223 122.568 106.193 122.677 106.124 122.747C106.035 122.816 105.876 122.836 105.787 122.747V122.737ZM125.109 100.187C124.772 102.14 125 102.557 124.376 105.145C123.801 107.475 123.138 109.181 122.623 110.49C122.623 110.49 121.583 113.078 120.216 115.627C119.84 116.341 119.266 117.312 119.068 117.729C118.979 117.947 118.8 118.106 118.731 118.344C118.711 118.393 118.681 118.502 118.602 118.542C118.513 118.562 118.424 118.493 118.424 118.473C118.246 118.334 118.374 117.917 118.424 117.739C118.761 116.539 118.8 115.28 119.018 114.04C119.355 112.067 119.84 110.113 120.365 108.189C120.9 106.156 121.355 104.887 121.454 104.58C122.405 101.793 123.138 100.504 123.376 100.107C123.9 99.2247 124.396 98.5504 124.742 98.0744C124.812 98.0546 124.921 98.0546 124.99 98.1141C125.148 98.2033 125.128 98.4711 125.119 98.6C125.079 99.1355 125.208 99.6809 125.119 100.197L125.109 100.187Z" fill="#222222"/>
<path d="M3.99104 157.841L1.36666 154.916H1.66376C1.7925 154.916 1.93115 154.916 2.0698 154.926C2.85216 154.946 3.73356 154.995 3.98114 154.202C4.1495 153.666 3.79298 153.081 3.34733 152.824C2.92148 152.576 2.3669 152.526 1.89154 152.516L0.802172 152.486V157.752H0.534782V152.209L1.90144 152.248C2.41641 152.258 3.01061 152.318 3.48597 152.595C4.01085 152.903 4.4565 153.597 4.23863 154.281C3.93162 155.263 2.84226 155.223 2.05989 155.194C2.03018 155.194 2.00047 155.194 1.97076 155.194L4.18911 157.663L3.99104 157.841Z" fill="#222222"/>
<path d="M1.34685 135.678H0V106.305L0.693233 106.325C1.76279 106.355 2.93138 106.325 4.09998 106.295C5.28838 106.265 6.48668 106.236 7.57604 106.265C10.2995 106.345 13.419 106.622 15.984 108.11C19.0441 109.895 20.6088 113.921 19.5492 117.273C17.8656 122.578 13.0526 122.439 9.18038 122.33C9.11106 122.33 9.04174 122.33 8.96251 122.33L19.6779 134.756L18.6579 135.638L6.00141 120.962H7.46711C8.0316 120.962 8.61589 120.982 9.21009 120.992C13.1615 121.111 16.8852 121.21 18.2617 116.876C19.1332 114.139 17.8062 110.738 15.3105 109.28C13.013 107.941 10.0915 107.684 7.53643 107.614C6.47677 107.584 5.29828 107.614 4.12969 107.644C3.18887 107.664 2.25796 107.684 1.34685 107.684V135.688V135.678Z" fill="#166C4D"/>
<path d="M37.7614 157.841L35.137 154.916H35.4341C35.5628 154.916 35.7015 154.916 35.8401 154.926C36.6225 154.956 37.5039 154.995 37.7515 154.202C37.9198 153.666 37.5633 153.081 37.1177 152.824C36.6918 152.576 36.1372 152.526 35.6619 152.516L34.5824 152.486V157.752H34.315V152.209L35.6718 152.248C36.1867 152.258 36.7809 152.318 37.2662 152.595C37.7911 152.903 38.2367 153.597 38.0189 154.281C37.7119 155.263 36.6225 155.223 35.8401 155.194C35.8104 155.194 35.7807 155.194 35.751 155.194L37.9693 157.663L37.7713 157.841H37.7614Z" fill="#222222"/>
<path d="M83.6237 157.841L80.9993 154.916H81.2964C81.4251 154.916 81.5638 154.916 81.7024 154.926C82.4848 154.946 83.3662 154.995 83.6138 154.202C83.7821 153.666 83.4256 153.081 82.98 152.824C82.5541 152.576 81.9995 152.526 81.5242 152.516L80.4348 152.486V157.752H80.1674V152.209L81.5341 152.248C82.0491 152.258 82.6433 152.318 83.1186 152.595C83.6435 152.903 84.0891 153.597 83.8713 154.281C83.5544 155.263 82.4749 155.223 81.6925 155.194C81.6628 155.194 81.6331 155.194 81.6034 155.194L83.8217 157.663L83.6237 157.841Z" fill="#222222"/>
<path d="M9.76467 157.891H6.20938V152.209H9.76467V152.486H6.48667V157.613H9.76467V157.891Z" fill="#222222"/>
<path d="M9.09125 154.916H6.34803V155.184H9.09125V154.916Z" fill="#222222"/>
<path d="M26.9668 157.891H23.4214V152.209H26.9668V152.486H23.6888V157.613H26.9668V157.891Z" fill="#222222"/>
<path d="M26.2933 154.916H23.56V155.184H26.2933V154.916Z" fill="#222222"/>
<path d="M43.4954 157.891H39.95V152.209H43.4954V152.486H40.2174V157.613H43.4954V157.891Z" fill="#222222"/>
<path d="M42.822 154.916H40.0887V155.184H42.822V154.916Z" fill="#222222"/>
<path d="M72.7795 157.891H69.2341V152.209H72.7795V152.486H69.5015V157.613H72.7795V157.891Z" fill="#222222"/>
<path d="M72.1061 154.916H69.3728V155.184H72.1061V154.916Z" fill="#222222"/>
<path d="M89.229 157.891H85.6836V152.209H89.229V152.486H85.951V157.613H89.229V157.891Z" fill="#222222"/>
<path d="M88.5555 154.916H85.8123V155.184H88.5555V154.916Z" fill="#222222"/>
<path d="M117.79 157.891H114.245V152.209H117.79V152.486H114.512V157.613H117.79V157.891Z" fill="#222222"/>
<path d="M117.117 154.916H114.383V155.184H117.117V154.916Z" fill="#222222"/>
<path d="M13.7458 157.96C12.5574 157.96 11.5869 156.979 11.5869 155.779V152.348H11.8543V155.779C11.8543 156.83 12.706 157.693 13.7458 157.693C14.7857 157.693 15.6374 156.84 15.6374 155.779V152.348H15.9047V155.779C15.9047 156.979 14.9342 157.96 13.7458 157.96Z" fill="#222222"/>
<path d="M19.569 157.841C19.4798 157.841 19.4006 157.841 19.3214 157.831C18.539 157.742 17.9448 157.117 17.6576 156.562L17.8953 156.443C18.2221 157.058 18.7866 157.504 19.3511 157.564C19.9651 157.623 20.9554 157.415 21.203 156.751C21.3417 156.384 21.2426 155.967 20.9356 155.63C20.5593 155.223 20.0443 155.144 19.4996 155.065C19.1629 155.015 18.8064 154.956 18.4796 154.817C17.9943 154.609 17.6477 154.014 17.7071 153.498C17.8062 152.595 18.9153 152.001 19.6581 151.971H19.7175C20.4306 151.971 21.1337 152.457 21.5595 153.25L21.3219 153.379C20.9455 152.685 20.3216 152.239 19.7076 152.239C19.6977 152.239 19.6779 152.239 19.668 152.239C18.9451 152.258 18.0439 152.833 17.9646 153.518C17.925 153.924 18.2023 154.4 18.5786 154.569C18.8757 154.698 19.1926 154.747 19.5294 154.797C20.0938 154.876 20.6781 154.966 21.1238 155.442C21.51 155.848 21.6289 156.374 21.4506 156.84C21.1832 157.554 20.2622 157.841 19.569 157.841Z" fill="#222222"/>
<path d="M92.7942 157.841C92.705 157.841 92.6258 157.841 92.5466 157.831C91.7543 157.742 91.17 157.117 90.8828 156.562L91.1205 156.443C91.4374 157.058 92.0118 157.504 92.5763 157.564C93.1903 157.623 94.1806 157.415 94.4282 156.751C94.5669 156.384 94.4678 155.957 94.1608 155.63C93.7845 155.223 93.2695 155.144 92.7248 155.065C92.3881 155.015 92.0316 154.956 91.7048 154.817C91.2195 154.609 90.8729 154.014 90.9323 153.498C91.0314 152.595 92.1306 152.001 92.8833 151.971H92.9427C93.6557 151.971 94.3589 152.457 94.7847 153.25L94.547 153.379C94.1707 152.685 93.5468 152.239 92.9328 152.239C92.913 152.239 92.9031 152.239 92.8932 152.239C92.1703 152.258 91.269 152.833 91.1898 153.518C91.1502 153.924 91.4275 154.4 91.8038 154.569C92.1009 154.698 92.4178 154.747 92.7545 154.797C93.319 154.876 93.9033 154.966 94.349 155.442C94.7253 155.848 94.854 156.374 94.6758 156.84C94.4084 157.554 93.4874 157.841 92.7942 157.841Z" fill="#222222"/>
<path d="M74.7206 158C74.9229 158 75.087 157.836 75.087 157.633C75.087 157.43 74.9229 157.266 74.7206 157.266C74.5182 157.266 74.3542 157.43 74.3542 157.633C74.3542 157.836 74.5182 158 74.7206 158Z" fill="#222222"/>
<path d="M125.158 158C125.361 158 125.525 157.836 125.525 157.633C125.525 157.43 125.361 157.266 125.158 157.266C124.956 157.266 124.792 157.43 124.792 157.633C124.792 157.836 124.956 158 125.158 158Z" fill="#222222"/>
<path d="M29.2346 158C29.437 158 29.601 157.836 29.601 157.633C29.601 157.43 29.437 157.266 29.2346 157.266C29.0322 157.266 28.8682 157.43 28.8682 157.633C28.8682 157.836 29.0322 158 29.2346 158Z" fill="#222222"/>
<path d="M47.9222 157.891C46.3575 157.891 45.0799 156.612 45.0799 155.045C45.0799 153.478 46.3575 152.199 47.9222 152.199C48.6847 152.199 49.3879 152.496 49.9326 153.032L49.7444 153.22C49.2591 152.734 48.6154 152.467 47.9321 152.467C46.5159 152.467 45.3671 153.617 45.3671 155.035C45.3671 156.453 46.5159 157.603 47.9321 157.603C48.7144 157.603 49.4374 157.256 49.9326 156.651L50.1405 156.82C49.5958 157.494 48.7937 157.881 47.9321 157.881L47.9222 157.891Z" fill="#222222"/>
<path d="M60.1726 157.891C58.6079 157.891 57.3304 156.612 57.3304 155.045C57.3304 153.478 58.6079 152.199 60.1726 152.199C60.9352 152.199 61.6383 152.496 62.183 153.032L61.9948 153.22C61.5096 152.734 60.8658 152.467 60.1726 152.467C58.7564 152.467 57.6076 153.617 57.6076 155.035C57.6076 156.453 58.7564 157.603 60.1726 157.603C60.955 157.603 61.6779 157.256 62.1731 156.651L62.3811 156.82C61.8364 157.494 61.0342 157.881 60.1726 157.881V157.891Z" fill="#222222"/>
<path d="M53.8147 155.918L51.2596 152.427L51.4775 152.268L53.8147 155.461L56.0825 152.268L56.3004 152.427L53.8147 155.918Z" fill="#222222"/>
<path d="M53.9137 155.689H53.6463V157.752H53.9137V155.689Z" fill="#222222"/>
<path d="M67.3228 157.891H64.0052V152.348H64.2726V157.613H67.3228V157.891Z" fill="#222222"/>
<path d="M96.0623 152.348H100.717" stroke="#222222" stroke-width="0.15" stroke-miterlimit="10"/>
<path d="M98.5183 152.348H98.2509V157.752H98.5183V152.348Z" fill="#222222"/>
<path d="M101.509 157.812L101.261 157.693L103.846 152.02L103.965 152.288L106.352 157.653L106.114 157.762L103.846 152.675L101.509 157.812Z" fill="#222222"/>
<path d="M105.51 155.937H102.153V156.205H105.51V155.937Z" fill="#222222"/>
<path d="M110.026 157.663C109.749 157.663 109.461 157.643 109.204 157.564C108.194 157.256 107.441 156.185 107.441 155.055C107.441 153.587 108.679 152.348 110.145 152.348C110.868 152.348 111.541 152.625 112.056 153.141L111.868 153.329C111.412 152.873 110.798 152.615 110.145 152.615C108.828 152.615 107.709 153.726 107.709 155.055C107.709 156.076 108.382 157.038 109.283 157.306C109.64 157.415 110.056 157.405 110.452 157.385C110.59 157.385 110.729 157.375 110.858 157.375H111.828V155.283H109.967V155.015H112.096V157.653H110.848C110.719 157.653 110.581 157.653 110.452 157.653C110.313 157.653 110.165 157.663 110.026 157.663Z" fill="#222222"/>
<path d="M120.573 157.831C120.306 157.831 120.038 157.822 119.771 157.802H119.642V152.199H119.781C119.969 152.199 120.157 152.199 120.345 152.189C120.622 152.179 120.91 152.169 121.197 152.189C121.316 152.189 121.435 152.209 121.544 152.229C121.87 152.278 122.158 152.397 122.474 152.596C122.831 152.814 123.128 153.111 123.356 153.448C123.801 154.113 123.94 154.966 123.742 155.729C123.544 156.503 122.999 157.177 122.276 157.524C121.742 157.782 121.157 157.851 120.563 157.851L120.573 157.831ZM119.919 157.534C120.682 157.574 121.494 157.584 122.167 157.256C122.811 156.949 123.306 156.344 123.485 155.64C123.663 154.946 123.534 154.172 123.128 153.577C122.92 153.27 122.643 153.002 122.326 152.804C122.039 152.625 121.781 152.526 121.494 152.477C121.395 152.457 121.296 152.447 121.187 152.447C120.91 152.427 120.632 152.447 120.355 152.447C120.207 152.447 120.058 152.457 119.919 152.457V157.524V157.534Z" fill="#222222"/>
</g>
<defs>
<clipPath id="clip0_85_228">
<rect width="126" height="158" fill="white"/>
</clipPath>
</defs>
</svg>
