<svg width="100" height="41" viewBox="0 0 100 41" fill="none" xmlns="http://www.w3.org/2000/svg">
<g clip-path="url(#clip0_602_190)">
<path d="M18.6592 0H8.22605C7.01647 0 5.99394 0.888072 5.83183 2.07767L3.35864 20.1778H23.5307L21.0534 2.07767C20.8913 0.888072 19.8687 0 18.6592 0Z" fill="#222222"/>
<path d="M26.22 21.2394H0.611023C0.273564 21.2394 0 21.5112 0 21.8466V23.2427C0 23.578 0.273564 23.8499 0.611023 23.8499H26.22C26.5574 23.8499 26.831 23.578 26.831 23.2427V21.8466C26.831 21.5112 26.5574 21.2394 26.22 21.2394Z" fill="#222222"/>
<path d="M2.2903 41C1.70006 40.9628 1.25115 40.4589 1.28856 39.8723L2.21964 24.7668H4.38939L3.42506 40.0004C3.38765 40.5869 2.88054 41.033 2.2903 40.9958V41Z" fill="#222222"/>
<path d="M5.77783 37.2866C5.34139 37.2618 5.01301 36.89 5.03795 36.4563L5.75705 24.7627H7.32409L6.61331 36.5513C6.58837 36.985 6.21428 37.3114 5.77783 37.2866Z" fill="#222222"/>
<path d="M21.0949 37.3031C21.5314 37.2783 21.8597 36.9066 21.8348 36.4729L21.1157 24.7792L19.5071 24.7668L20.2636 36.5679C20.2885 37.0016 20.6626 37.3279 21.0991 37.3031H21.0949Z" fill="#222222"/>
<path d="M24.5117 41C25.1019 40.9628 25.5508 40.4589 25.5134 39.8723L24.5823 24.7668H22.4209L23.3769 40.0004C23.4143 40.5869 23.9214 41.033 24.5117 40.9958V41Z" fill="#222222"/>
<path d="M58.2384 23.4947V24.2134H48.6907V9.46729H58.2384V10.1571H49.3557V16.3116H56.3555V17.0014H49.3266V23.4947H58.2384Z" fill="#166C4D"/>
<path d="M70.4256 17.336C70.2303 17.4021 70.1014 17.4847 69.2826 17.9639C69.2659 17.9804 68.4388 18.4637 68.4263 18.4719C67.5825 18.1497 66.8759 18.03 66.3937 17.9721C65.3712 17.8606 64.1824 17.906 64.1824 17.906C63.6628 17.9226 63.1599 17.9721 62.5031 17.7945C61.8796 17.6293 61.7051 17.4269 61.6302 17.2947C61.4349 16.9643 61.5388 16.5553 61.6011 16.324C61.6926 15.944 61.8796 15.6879 61.9711 15.5681C62.5821 14.7296 62.8897 14.3124 63.4467 13.7589C64.1325 13.0857 64.702 12.6809 65.2756 12.2719C65.5541 12.0695 65.816 11.9208 66.3438 11.6276C66.3438 11.6276 66.7138 11.4252 67.2458 11.3054C67.3747 11.2765 67.5617 11.2393 67.728 11.3426C67.7654 11.3591 67.8569 11.4087 67.9026 11.5078C67.9566 11.6358 67.8943 11.7019 67.9483 11.8382C67.9483 11.8465 68.0148 11.9869 68.1437 12.0241C68.3016 12.0613 68.4512 11.8837 68.497 11.8382C68.6549 11.6648 68.7588 11.3508 68.6258 11.0906C68.5967 11.0369 68.4845 10.8428 68.0688 10.7312C67.4578 10.5743 66.8426 10.7767 66.269 11.0452C65.8783 11.231 65.2382 11.5697 64.3279 12.3174C63.4259 13.0568 62.8897 13.6846 62.3119 14.3496C61.6053 15.1716 61.3268 15.6136 61.1772 16.1753C61.0109 16.8197 61.1314 17.1832 61.1938 17.3278C61.3684 17.7532 61.7217 17.9845 61.8422 18.0589C62.2953 18.3356 62.7442 18.3356 63.2181 18.3356C63.879 18.3439 65.0387 18.3274 65.845 18.4017C66.4478 18.4554 67.8693 18.5752 67.8901 18.8643C67.8901 18.9015 67.861 18.9387 67.8361 18.9676C67.7696 19.0213 67.6615 19.108 67.5285 19.1989C67.0629 19.5665 66.2566 20.1944 65.3837 20.9172C64.3985 21.7186 63.9081 22.1275 63.4342 22.5694C62.8481 23.1064 62.2163 23.7425 61.5762 24.5728C61.1938 25.0519 60.9278 25.4608 60.7199 26.0143C60.5246 26.5307 60.3209 27.0842 60.5994 27.555C60.8238 27.9227 61.1938 28.0631 61.3517 28.1168C61.7051 28.2366 62.1332 28.2448 63.0684 27.9144C63.6711 27.7037 64.3237 27.4063 65.1384 26.9065C66.19 26.2704 66.905 25.6798 67.0505 25.5517C67.7862 24.9321 68.4055 24.4075 68.9916 23.5319C69.4114 22.9247 70.0682 21.9168 70.0225 20.6818C70.0141 20.4133 69.985 19.9176 69.6608 19.3972C69.4488 19.0461 69.187 18.823 69.0124 18.695C69.2909 18.4926 69.532 18.3356 69.719 18.2241C69.7855 18.1787 70.2303 17.9102 70.8413 17.6789C71.0076 17.6128 71.1572 17.5673 71.3526 17.5591C71.577 17.5508 71.7516 17.6045 71.8638 17.6417C71.8721 17.5302 71.8805 17.4186 71.8805 17.2988C71.2029 17.1419 70.7083 17.2328 70.4132 17.336H70.4256ZM69.1703 19.7896C69.2452 19.93 69.374 20.2233 69.2826 20.9337C69.1703 21.8218 68.8461 22.4579 68.763 22.6025C68.3265 23.4327 67.8153 23.9325 67.1752 24.5397C66.4228 25.2584 65.7993 25.6674 64.9098 26.258C63.8249 26.9892 63.376 27.1544 62.9978 27.2535C62.9978 27.2535 62.4117 27.4766 61.5845 27.4022C61.4806 27.3939 61.3434 27.3733 61.2395 27.2824C61.2021 27.237 61.0067 27.0346 61.2021 26.3613C61.5263 25.2543 62.4823 24.3415 62.5031 24.3125C64.6853 22.2349 64.0452 22.7058 65.0927 21.7846C65.6871 21.2683 66.2815 20.7685 66.8925 20.2894C67.171 20.0787 67.4495 19.8846 67.7197 19.6698C67.8485 19.5665 67.9982 19.4467 68.1104 19.3187C68.1935 19.2154 68.2767 19.0419 68.4346 19.0254C68.5385 19.0254 68.6217 19.1369 68.7131 19.2485C69.1122 19.7565 69.1038 19.6739 69.1662 19.7937L69.1703 19.7896Z" fill="#222222"/>
<path d="M67.3248 12.5528C67.4412 12.495 67.5451 12.4454 67.6781 12.4702C67.8028 12.4908 67.9608 12.5817 67.9982 12.718C68.0314 12.8419 67.94 12.9287 67.9982 13.0113C68.0314 13.0608 68.098 13.0732 68.152 13.0815C68.6799 13.1435 69.0748 12.9658 69.0748 12.9658C69.1911 12.908 69.8063 12.813 71.0284 12.6147C71.4108 12.5528 71.9802 12.4743 72.6869 12.4371C72.7284 12.3173 72.7991 12.1108 72.8656 11.8506C72.9861 11.3838 73.0069 11.0823 73.1607 10.5701C73.3062 10.0868 73.3893 9.99183 73.4932 9.9464C73.672 9.86378 73.9214 9.92161 74.0627 10.0621C74.1999 10.1984 74.2082 10.3925 74.204 10.566C74.1874 11.1814 73.9671 11.7928 73.7884 12.2017C74.6613 12.1273 75.875 12.0323 77.3256 11.9332C78.5809 11.8465 79.4829 11.7845 80.7465 11.7225C82.8082 11.6234 84.2797 11.5986 84.7577 11.5945C85.377 11.5862 85.9008 11.5862 86.2707 11.5862C86.2915 11.5945 86.5035 11.6978 86.5326 11.9084C86.5533 12.0489 86.4827 12.1604 86.4536 12.2099C86.412 12.276 86.3455 12.3876 86.2291 12.4123C86.1543 12.4289 86.067 12.4041 85.6763 12.086C85.5682 11.9993 85.4809 11.9249 85.4269 11.8754C85.1983 11.8671 84.8658 11.8588 84.4626 11.8547C83.6479 11.8465 82.9288 11.863 82.0684 11.8919C80.8546 11.9373 79.5079 11.9869 77.6873 12.1397C76.7022 12.2223 75.5092 12.3463 74.1541 12.5239C74.1126 12.5239 73.9172 12.5073 73.7385 12.6437C73.5847 12.7634 73.5431 12.9369 73.514 13.0485C73.2771 14.0604 73.1233 15.1096 72.9363 16.134C72.8531 16.576 72.6702 17.559 72.5414 18.5917C72.3543 20.0869 72.4957 19.9011 72.292 22.3711C72.2213 23.2303 72.1423 23.9655 72.134 25.1056C72.134 25.5599 72.1382 25.9358 72.1465 26.1919C72.1798 26.2332 72.2213 26.2952 72.2629 26.3737C72.3128 26.4687 72.3377 26.5182 72.3294 26.5678C72.3128 26.6587 72.2172 26.7289 72.134 26.7495C71.9678 26.7908 71.8223 26.6587 71.7807 26.6174C71.681 26.5265 71.6228 26.4108 71.5687 26.2126C71.4648 25.8284 71.4773 25.5475 71.4773 25.5475C71.4981 25.0354 71.444 24.5149 71.5022 24.0027C71.5563 23.5153 71.469 24.1018 71.6477 21.1237C71.735 19.678 71.7807 18.9386 71.8722 17.9597C71.9345 17.2947 71.9969 16.7453 72.0426 16.3364C72.213 14.8948 72.4042 13.7052 72.4749 13.445C72.4749 13.4326 72.4998 13.3252 72.5414 13.1187C72.5414 13.098 72.558 13.0237 72.5538 12.9245C72.5538 12.8543 72.5497 12.8171 72.5289 12.7924C72.4666 12.7221 72.2837 12.7841 72.1756 12.8171C71.9553 12.8832 71.7184 12.8832 71.4898 12.9328C71.0242 13.0402 71.0699 12.9989 69.7273 13.2839C68.5926 13.5235 68.0273 13.6433 67.9109 13.6887C67.6906 13.7713 67.5077 13.8043 67.1461 13.8704C66.7969 13.9324 66.6847 13.9283 66.5933 13.858C66.4436 13.7424 66.4228 13.4863 66.4893 13.3087C66.5226 13.2219 66.5558 13.2095 66.8426 12.9411C67.1253 12.6808 67.1793 12.6147 67.329 12.5404L67.3248 12.5528Z" fill="#222222"/>
<path d="M99.9085 4.82866C99.8711 4.76257 99.7131 4.46104 99.4055 4.44865C99.2019 4.44039 99.0522 4.56017 99.0065 4.60561C98.6158 5.13019 98.1627 5.81587 97.7346 6.65437C97.1111 7.85224 96.8076 8.85183 96.4419 10.0414C96.2673 10.6238 96.0345 11.4334 95.8308 12.4248C95.7103 13.0154 95.6355 13.3831 95.5898 13.92C95.5898 13.9655 95.5607 14.3827 95.5149 15.2212C95.5149 15.2212 95.4983 15.5144 95.357 16.4108C95.3404 16.5223 95.3113 16.671 95.2281 16.8362C95.145 17.0097 95.0536 17.0964 94.8457 17.3154C94.6046 17.5632 94.4841 17.6954 94.3636 17.8523C94.0643 18.2406 93.9728 18.5091 93.8357 18.4884C93.7816 18.4802 93.7318 18.4141 93.7151 18.3769C93.7151 18.3769 93.7983 18.1084 93.8357 17.9804C93.9105 17.7697 93.977 17.6293 94.0975 17.3897C94.2555 17.0758 94.3303 16.9106 94.4592 16.7082C94.5714 16.5429 94.7002 16.386 94.9621 16.0638C95.1949 15.7664 95.278 15.6755 95.2489 15.5764C95.2032 15.436 94.9995 15.3657 94.8291 15.3657C94.7376 15.3657 94.5506 15.3946 94.0601 15.8903C93.7816 16.1753 93.4574 16.5264 93.2039 17.1006C93.1124 17.2947 93.0542 17.4599 93.0293 17.5715C92.9378 17.683 92.8048 17.8399 92.6386 18.0134C92.1107 18.6124 91.7116 18.9717 91.5869 19.075C90.7057 19.8681 90.4439 19.8391 90.3607 19.8226C90.1113 19.7854 89.9534 19.5913 89.8786 19.5087C89.6084 19.1865 89.6167 18.79 89.6292 18.5587C89.6292 18.3191 89.6749 18.125 89.7206 18.0052C89.7871 17.9391 89.8702 17.8565 89.9617 17.7449C90.0448 17.6417 90.2485 17.3856 90.4148 16.989C90.5727 16.6379 90.6475 16.4521 90.5644 16.2868C90.4813 16.1134 90.2942 16.0555 90.2776 16.0473C90.0531 15.9812 89.8412 16.1134 89.7497 16.1753C89.4712 16.3612 89.3507 16.6379 89.1927 17.0345C89.1179 17.2286 89.0639 17.3938 89.0348 17.5054C88.8851 17.5425 88.6731 17.5962 88.4321 17.6789C88.245 17.7449 87.8834 17.8812 87.1684 18.315C86.545 18.695 86.4452 18.8148 85.8217 19.1741C85.5349 19.3393 85.2938 19.4715 85.1442 19.5417C85.2481 18.6661 85.3021 17.9184 85.3312 17.336C85.3395 17.113 85.3769 16.4149 85.2647 15.6094C85.2647 15.6094 85.2107 15.2294 84.9862 14.6305C84.874 14.3537 84.8116 14.234 84.6786 14.1513C84.4833 14.0109 84.2048 13.9779 83.9803 14.077C83.7933 14.1513 83.7018 14.3 83.573 14.4942C83.3693 14.8081 83.3319 15.0766 83.2197 15.0683C83.1822 15.0683 83.1656 15.0394 83.1157 14.9775C82.9869 14.8205 82.8081 14.6264 82.6793 14.5974C82.4548 14.552 82.2803 14.6718 82.1015 14.7833C81.8397 14.9568 81.6817 15.1881 81.3783 15.6507C81.1746 15.9729 81.0624 16.1299 80.9959 16.2951C80.8462 16.6545 80.734 16.9767 80.4306 17.2534C80.1687 17.493 79.8445 17.6789 79.5577 17.873C79.0547 18.2158 78.9175 18.3067 78.664 18.4554C78.2816 18.6784 78.053 18.8065 77.6997 18.8974C77.4669 18.9635 77.1718 19.0089 76.8268 18.98C76.6605 18.9635 76.5025 18.9428 76.3363 18.8519C76.1035 18.7404 75.983 18.5669 75.8998 18.4471C75.8167 18.3273 75.7253 18.1993 75.6754 17.9969C75.638 17.7862 75.7045 17.7491 75.6463 17.526C75.6089 17.4145 75.5715 17.3319 75.4883 17.1749C75.3969 16.989 75.347 16.9436 75.3304 16.9271C75.3013 16.8982 75.2015 16.799 75.0519 16.7784C74.8482 16.7412 74.6695 16.8817 74.4866 17.0262C74.3453 17.1377 74.2538 17.2493 74.1416 17.3773C73.9379 17.6375 73.7883 17.811 73.622 18.0878C73.41 18.4389 73.3352 18.6495 73.1773 19.0832C73.1108 19.2774 73.065 19.4426 73.1482 19.5707C73.2313 19.7111 73.3976 19.7565 73.435 19.7565C73.4807 19.7648 73.622 19.7937 73.834 19.7028C73.9005 19.6739 74.0834 19.5913 74.4658 19.0667C74.6986 18.7528 74.8108 18.5958 74.8732 18.476C74.9646 18.3026 75.0145 18.1621 75.0976 18.1621C75.1724 18.1621 75.2182 18.2654 75.3096 18.4389C75.5715 18.9552 75.5798 18.9924 75.6172 19.0585C76.303 20.1572 78.4229 19.3269 79.1836 18.7817C79.4247 18.6165 79.6491 18.4224 79.8237 18.191C79.9151 18.0795 80.0939 17.7491 80.2768 17.8689C80.3225 17.8978 80.3059 18.0093 80.2768 18.1993C80.231 18.5215 80.2103 18.6784 80.231 18.8189C80.2477 18.9015 80.2851 19.1493 80.4929 19.298C80.68 19.4261 80.9003 19.4096 80.9834 19.3889C81.2993 19.3435 81.4947 19.075 81.848 18.5504C82.3759 17.7573 82.6086 17.3608 82.6086 17.3608C83.0534 16.5966 83.2778 16.2084 83.3984 15.9771C83.5647 15.6177 83.8182 15.2955 83.9928 14.932C84.0468 14.804 84.1591 14.5727 84.2713 14.5809C84.3253 14.5892 84.3752 14.6635 84.4126 14.7461C84.6163 15.1881 84.6454 15.4112 84.6454 15.4112C84.7576 16.3984 84.8116 16.8982 84.8033 17.2369C84.795 17.4021 84.7867 17.5591 84.5913 19.2196C84.5456 19.5624 84.5165 19.8391 84.4874 20.0209C83.8639 20.3885 83.0742 20.909 82.2221 21.5822C81.2078 22.396 80.5428 23.0858 80.3641 23.2799C79.2127 24.4902 78.664 25.4402 78.5268 25.688C78.2774 26.1217 77.9491 26.7578 77.8493 27.6087C77.7953 28.0424 77.7371 28.5877 78.0613 28.8644C78.3232 29.0751 78.7097 29.0131 78.9342 28.9759C79.5743 28.8644 80.0107 28.4968 80.4015 28.125C81.2286 27.3774 81.636 26.9974 82.1472 26.3365C82.8705 25.4154 83.282 24.6389 83.8182 23.6145C84.396 22.5157 84.5996 21.9333 84.662 21.7598C84.9031 21.0494 85.0236 20.4298 85.0984 19.9878C85.6637 19.6904 86.0919 19.4137 86.3995 19.2237C86.6696 19.0378 86.8068 18.9263 87.1227 18.7445C87.5509 18.505 87.5966 18.5215 87.9416 18.3026C87.9416 18.3026 88.191 18.1456 88.5193 17.9597C88.6939 17.8689 88.6399 17.9143 88.7147 17.8689C88.7895 17.8234 88.8352 17.778 88.9018 17.7945C88.9184 17.8028 88.9392 17.811 88.9475 17.8317C88.9475 18.0341 88.9392 18.3397 88.9641 18.6991C89.0015 19.3063 89.0306 19.612 89.226 19.8639C89.4754 20.1778 89.8495 20.2811 89.9409 20.3059C90.2277 20.3802 90.4605 20.3431 90.5187 20.3348C90.5935 20.3265 90.7307 20.2976 91.2336 19.9837C91.6992 19.707 91.9319 19.5583 92.0691 19.4013C92.1605 19.2732 92.2354 19.1411 92.4307 18.9841C92.5596 18.8726 92.7175 18.7528 92.8298 18.7982C92.9794 18.8519 92.8755 19.1287 93.0708 19.2691C93.2953 19.4343 93.5738 19.36 93.6736 19.3352C93.952 19.2609 94.1183 19.075 94.4093 18.7445C94.5381 18.5958 94.5506 18.5711 94.8914 18.1456C95.0037 18.0052 95.0951 17.8854 95.1616 17.8152V18.2943C95.1616 18.8685 95.1533 19.3104 95.145 20.0002C95.1367 20.8139 95.1367 21.227 95.1824 21.6359C95.2198 22.0159 95.2946 22.367 95.544 22.6686C95.6272 22.7594 95.8225 22.9825 96.1218 23.0197C96.1883 23.0197 96.4294 23.0486 96.5583 22.8916C96.6248 22.8008 96.6497 22.6438 96.5873 22.5777C96.5416 22.524 96.4668 22.5488 96.3172 22.5323C96.1883 22.5034 96.0844 22.4662 96.0096 22.429C95.9639 22.3092 95.9057 22.1316 95.8516 21.9044C95.7394 21.4335 95.7477 21.0742 95.7602 20.6859C95.7768 19.6161 95.7893 19.2443 95.8059 18.7487C95.8142 18.2323 95.8225 17.9721 95.8516 17.5301C95.8807 17.1791 95.9057 16.8858 95.9348 16.6916C96.3047 16.0927 96.7993 15.2501 97.3355 14.2257C97.7179 13.507 97.984 12.9989 98.2916 12.2802C98.5908 11.578 98.8776 10.6734 99.4429 8.86422C99.5469 8.53378 99.7381 7.91419 99.9085 7.09221C99.9376 6.94351 99.9542 6.39828 99.9999 5.30368C99.9999 5.22933 100.008 5.03519 99.9085 4.84105V4.82866ZM74.5905 17.9886C74.4866 18.1828 74.4326 18.22 74.3037 18.4306C74.3037 18.4306 74.2372 18.5339 74.1374 18.6413C74.1208 18.6702 74.0709 18.7156 73.9961 18.7445C73.967 18.7445 73.9421 18.7611 73.913 18.7445C73.9047 18.7363 73.8756 18.7156 73.8839 18.6248C73.8922 18.5132 73.9587 18.4224 74.0044 18.3563C74.1333 18.1704 74.1998 18.0713 74.2746 17.9763C74.4159 17.7821 74.47 17.716 74.5448 17.7284C74.5739 17.7284 74.6113 17.7449 74.6279 17.7739C74.657 17.8276 74.6279 17.9019 74.5905 17.9845V17.9886ZM82.725 15.9027C82.6876 16.006 82.6419 16.1051 82.5671 16.2332C82.4631 16.3984 82.4008 16.4727 82.3052 16.6132C82.2304 16.7247 82.2595 16.6958 81.9602 17.1873C81.7939 17.4723 81.7108 17.5921 81.6734 17.6417C81.6734 17.6417 81.6651 17.6499 81.6277 17.7078C81.5903 17.7821 81.5237 17.8812 81.4157 17.9763C81.3325 18.0423 81.2744 18.125 81.1912 18.1043C81.1455 18.0382 81.1746 17.9639 81.1912 17.8565C81.2369 17.6541 81.2827 17.5054 81.3201 17.431C81.5986 16.8693 81.2079 17.5797 81.6734 16.6834C82.0059 16.0266 82.1015 15.8903 82.1639 15.7788C82.5255 15.2046 82.6294 15.217 82.6544 15.2253C82.7583 15.2542 82.8123 15.4566 82.8123 15.5847C82.8123 15.6879 82.7832 15.7581 82.7209 15.9068L82.725 15.9027ZM84.3212 20.6281C84.3128 20.6652 84.3128 20.7107 84.3045 20.7768C84.2879 20.8676 84.2588 21.0081 84.2214 21.165C84.1549 21.4253 83.9055 22.4001 83.2737 23.6475C82.8081 24.5686 82.3634 25.1882 81.8978 25.8243C81.5279 26.3324 81.0333 26.8487 80.0315 27.8937C79.9567 27.9681 79.5494 28.3811 78.9633 28.5133C78.6307 28.5877 78.4728 28.5216 78.398 28.4596C78.2566 28.3688 78.2109 28.2283 78.186 28.1085C78.1112 27.8607 78.1195 27.6087 78.2026 27.2576C78.3148 26.7785 78.4811 26.4356 78.5185 26.353C78.9175 25.5517 79.3457 24.9693 79.4122 24.8867C79.9235 24.2051 80.3682 23.759 80.8504 23.2716C81.4614 22.6644 81.8438 22.2844 82.4382 21.859C82.6876 21.6731 83.0243 21.4542 83.6436 20.9916C83.893 20.8057 84.0967 20.6487 84.238 20.5496C84.2547 20.5413 84.3045 20.5331 84.3212 20.5579C84.3295 20.5744 84.3295 20.595 84.3212 20.6322V20.6281ZM89.5336 17.5838C89.4795 17.5384 89.5169 17.4186 89.5336 17.3525C89.5627 17.2699 89.6084 17.1956 89.6458 17.1212C89.6832 17.0551 89.7123 16.9808 89.7746 16.9477C89.783 16.9395 89.8411 16.9106 89.8786 16.9395C89.9077 16.956 89.9077 17.0138 89.9077 17.0593C89.9077 17.1336 89.891 17.208 89.8536 17.2699C89.8245 17.3236 89.8079 17.3814 89.7871 17.4434C89.7705 17.4888 89.7497 17.5467 89.7123 17.5838C89.6666 17.621 89.5834 17.6293 89.5377 17.5838H89.5336ZM99.5469 5.98935C99.3723 6.99721 99.4928 7.20787 99.1645 8.53791C98.8693 9.73577 98.5243 10.6156 98.2542 11.2889C98.2542 11.2889 97.7138 12.6189 97.0113 13.9283C96.816 14.2959 96.5208 14.7957 96.4169 15.0064C96.3712 15.1179 96.2756 15.2005 96.2423 15.3203C96.234 15.3492 96.2133 15.4029 96.1758 15.4236C96.1301 15.4318 96.0844 15.3946 96.0844 15.3864C95.993 15.312 96.0553 15.1014 96.0844 15.0064C96.259 14.3868 96.2798 13.7424 96.392 13.1063C96.5666 12.0902 96.8201 11.0865 97.0903 10.0993C97.3688 9.05423 97.6016 8.4016 97.6556 8.24464C98.1461 6.81546 98.5285 6.15044 98.649 5.94804C98.9192 5.49781 99.1769 5.14671 99.3557 4.90301C99.3931 4.89475 99.4471 4.89475 99.4845 4.91953C99.5676 4.96497 99.5593 5.10541 99.551 5.16737C99.5344 5.44412 99.5967 5.72086 99.551 5.98935H99.5469Z" fill="#222222"/>
<path d="M35.4144 24.2422H34.7161V9.13675L35.0735 9.14501C35.6264 9.16153 36.2332 9.14501 36.8401 9.13262C37.4594 9.1161 38.0746 9.10371 38.6441 9.12023C40.0532 9.1574 41.6701 9.30197 43.0002 10.0703C44.588 10.9872 45.3986 13.0567 44.8458 14.7832C43.9729 17.5094 41.483 17.4433 39.4712 17.3855C39.4338 17.3855 39.3964 17.3855 39.359 17.3855L44.9123 23.7713L44.3844 24.2257L37.8252 16.6792H38.5859C38.881 16.6792 39.1844 16.6874 39.4879 16.6957C41.5371 16.7535 43.4658 16.8072 44.1765 14.5767C44.6255 13.1723 43.9396 11.421 42.6469 10.6733C41.4539 9.98352 39.9451 9.85134 38.6233 9.81416C38.0746 9.79764 37.4636 9.81416 36.8567 9.82656C36.3662 9.83895 35.8841 9.84721 35.4144 9.84721V24.2422Z" fill="#166C4D"/>
<path d="M36.8027 35.7335L35.4435 34.23H35.5973C35.6638 34.23 35.7345 34.23 35.8051 34.2383C36.2083 34.2507 36.6656 34.2713 36.7944 33.8665C36.8817 33.5939 36.6988 33.2924 36.4702 33.1602C36.2457 33.0321 35.9631 33.0074 35.7179 32.9991L35.1567 32.9826V35.684H35.0154V32.838L35.7179 32.8587C35.9839 32.8669 36.2873 32.8917 36.5409 33.0404C36.811 33.1974 37.0397 33.5567 36.9274 33.9078C36.7653 34.4118 36.2042 34.3911 35.801 34.3746C35.7885 34.3746 35.7719 34.3746 35.7553 34.3746L36.9025 35.6427L36.7986 35.7335H36.8027Z" fill="#222222"/>
<path d="M54.2647 35.7335L52.9054 34.23H53.0592C53.1257 34.23 53.1964 34.23 53.2671 34.2383C53.6702 34.2507 54.1275 34.2713 54.2563 33.8665C54.3436 33.5939 54.1607 33.2924 53.9321 33.1602C53.7077 33.0321 53.425 33.0074 53.1756 32.9991L52.6145 32.9826V35.684H52.4731V32.838L53.1756 32.8587C53.4416 32.8669 53.7492 32.8917 53.9986 33.0404C54.2688 33.1974 54.4974 33.5567 54.3852 33.9078C54.2231 34.4118 53.6619 34.3911 53.2587 34.3746C53.2421 34.3746 53.2297 34.3746 53.213 34.3746L54.3603 35.6427L54.2563 35.7335H54.2647Z" fill="#222222"/>
<path d="M77.9824 35.7335L76.6232 34.23H76.777C76.8435 34.23 76.9142 34.23 76.9848 34.2383C77.388 34.2507 77.8452 34.2713 77.9741 33.8665C78.0614 33.5939 77.8785 33.2924 77.6499 33.1602C77.4254 33.0321 77.1428 33.0074 76.8975 32.9991L76.3364 32.9826V35.684H76.1951V32.838L76.8975 32.8587C77.1636 32.8669 77.467 32.8917 77.7205 33.0404C77.9907 33.1974 78.2193 33.5567 78.1071 33.9078C77.945 34.4118 77.388 34.3911 76.9807 34.3746C76.9682 34.3746 76.9516 34.3746 76.9349 34.3746L78.0822 35.6427L77.9783 35.7335H77.9824Z" fill="#222222"/>
<path d="M39.7872 35.7583H37.95V32.8422H39.7872V32.9826H38.0913V35.6179H39.7872V35.7583Z" fill="#222222"/>
<path d="M39.4382 34.23H38.0208V34.3704H39.4382V34.23Z" fill="#222222"/>
<path d="M48.6866 35.7583H46.8494V32.8422H48.6866V32.9826H46.9907V35.6179H48.6866V35.7583Z" fill="#222222"/>
<path d="M48.3373 34.23H46.9199V34.3704H48.3373V34.23Z" fill="#222222"/>
<path d="M57.2325 35.7583H55.3994V32.8422H57.2325V32.9826H55.5366V35.6179H57.2325V35.7583Z" fill="#222222"/>
<path d="M56.8832 34.23H55.4658V34.3704H56.8832V34.23Z" fill="#222222"/>
<path d="M72.3792 35.7583H70.542V32.8422H72.3792V32.9826H70.6833V35.6179H72.3792V35.7583Z" fill="#222222"/>
<path d="M72.0302 34.23H70.6128V34.3704H72.0302V34.23Z" fill="#222222"/>
<path d="M80.8836 35.7583H79.0464V32.8422H80.8836V32.9826H79.1877V35.6179H80.8836V35.7583Z" fill="#222222"/>
<path d="M80.5346 34.23H79.1172V34.3704H80.5346V34.23Z" fill="#222222"/>
<path d="M95.6522 35.7583H93.8191V32.8422H95.6522V32.9826H93.9604V35.6179H95.6522V35.7583Z" fill="#222222"/>
<path d="M95.3073 34.23H93.8899V34.3704H95.3073V34.23Z" fill="#222222"/>
<path d="M41.8447 35.7955C41.2295 35.7955 40.7266 35.2916 40.7266 34.6761V32.9165H40.8679V34.6761C40.8679 35.2172 41.3043 35.6592 41.8447 35.6592C42.3851 35.6592 42.8215 35.2172 42.8215 34.6761V32.9165H42.9628V34.6761C42.9628 35.2916 42.4599 35.7955 41.8447 35.7955Z" fill="#222222"/>
<path d="M44.8582 35.7335C44.8124 35.7335 44.7709 35.7335 44.7335 35.7253C44.3261 35.6798 44.0227 35.3618 43.873 35.0768L43.9977 35.0148C44.164 35.3328 44.4591 35.56 44.7501 35.5931C45.066 35.6261 45.5773 35.5146 45.7061 35.1759C45.7768 34.9859 45.7269 34.7711 45.5648 34.6017C45.3694 34.3911 45.1034 34.3539 44.8208 34.3126C44.6462 34.2878 44.4633 34.2589 44.2929 34.1887C44.0435 34.0813 43.8647 33.7756 43.8938 33.5113C43.9437 33.0486 44.5173 32.743 44.9039 32.7306H44.933C45.3029 32.7306 45.6687 32.9784 45.889 33.3874L45.7643 33.4534C45.5731 33.0982 45.2447 32.8669 44.933 32.8669C44.9247 32.8669 44.9164 32.8669 44.9122 32.8669C44.5381 32.8793 44.0726 33.1726 44.0352 33.5237C44.0144 33.7343 44.1599 33.978 44.3511 34.0606C44.5049 34.1267 44.667 34.1515 44.8457 34.1763C45.1408 34.2176 45.4401 34.263 45.6687 34.5109C45.8641 34.7215 45.9306 34.99 45.8391 35.2296C45.6978 35.5972 45.2239 35.7418 44.8665 35.7418L44.8582 35.7335Z" fill="#222222"/>
<path d="M82.7251 35.7335C82.6794 35.7335 82.6378 35.7335 82.6004 35.7253C82.1931 35.6798 81.8896 35.3618 81.74 35.0768L81.8647 35.0148C82.031 35.3328 82.3261 35.56 82.617 35.5931C82.9329 35.622 83.4442 35.5146 83.5731 35.1759C83.6437 34.9859 83.5938 34.7711 83.4317 34.6017C83.2364 34.3911 82.9703 34.3539 82.6877 34.3126C82.5131 34.2878 82.3302 34.2589 82.1598 34.1887C81.9104 34.0813 81.7317 33.7756 81.7608 33.5113C81.8107 33.0486 82.3843 32.743 82.7708 32.7306H82.7999C83.1699 32.7306 83.5357 32.9784 83.756 33.3874L83.6313 33.4534C83.44 33.0982 83.1117 32.8669 82.7999 32.8669C82.7916 32.8669 82.7833 32.8669 82.7791 32.8669C82.405 32.8793 81.9395 33.1726 81.9021 33.5237C81.8813 33.7343 82.0268 33.978 82.218 34.0606C82.3676 34.1267 82.5339 34.1515 82.7126 34.1763C83.0036 34.2176 83.307 34.263 83.5357 34.5109C83.731 34.7215 83.7934 34.99 83.7061 35.2296C83.5648 35.5972 83.0909 35.7418 82.7334 35.7418L82.7251 35.7335Z" fill="#222222"/>
<path d="M73.3809 35.8162C73.4865 35.8162 73.5721 35.7311 73.5721 35.6262C73.5721 35.5212 73.4865 35.4362 73.3809 35.4362C73.2753 35.4362 73.1897 35.5212 73.1897 35.6262C73.1897 35.7311 73.2753 35.8162 73.3809 35.8162Z" fill="#222222"/>
<path d="M99.4637 35.8162C99.5693 35.8162 99.6549 35.7311 99.6549 35.6262C99.6549 35.5212 99.5693 35.4362 99.4637 35.4362C99.3581 35.4362 99.2725 35.5212 99.2725 35.6262C99.2725 35.7311 99.3581 35.8162 99.4637 35.8162Z" fill="#222222"/>
<path d="M49.8587 35.8162C49.9643 35.8162 50.0499 35.7311 50.0499 35.6262C50.0499 35.5212 49.9643 35.4362 49.8587 35.4362C49.7531 35.4362 49.6675 35.5212 49.6675 35.6262C49.6675 35.7311 49.7531 35.8162 49.8587 35.8162Z" fill="#222222"/>
<path d="M59.5227 35.7583C58.7122 35.7583 58.0554 35.1016 58.0554 34.3003C58.0554 33.4989 58.7163 32.8422 59.5227 32.8422C59.9134 32.8422 60.2834 32.995 60.5619 33.2676L60.4621 33.3667C60.2127 33.1189 59.876 32.9826 59.5227 32.9826C58.7911 32.9826 58.1926 33.5733 58.1926 34.3044C58.1926 35.0355 58.787 35.6262 59.5227 35.6262C59.9259 35.6262 60.3042 35.4485 60.5577 35.1346L60.6658 35.2214C60.3831 35.5642 59.9675 35.7625 59.5227 35.7625V35.7583Z" fill="#222222"/>
<path d="M65.8533 35.7583C65.0427 35.7583 64.386 35.1016 64.386 34.3003C64.386 33.4989 65.0427 32.8422 65.8533 32.8422C66.244 32.8422 66.6139 32.995 66.8924 33.2676L66.7927 33.3667C66.5391 33.1189 66.2066 32.9826 65.8533 32.9826C65.1217 32.9826 64.5232 33.5733 64.5232 34.3044C64.5232 35.0355 65.1176 35.6262 65.8533 35.6262C66.2565 35.6262 66.6347 35.4485 66.8883 35.1346L66.9963 35.2214C66.7137 35.5642 66.298 35.7625 65.8533 35.7625V35.7583Z" fill="#222222"/>
<path d="M62.5696 34.7462L61.2437 32.9536L61.3559 32.871L62.5696 34.5108L63.7418 32.871L63.854 32.9536L62.5696 34.7462Z" fill="#222222"/>
<path d="M62.6196 34.6265H62.4783V35.688H62.6196V34.6265Z" fill="#222222"/>
<path d="M69.5526 35.7583H67.8359V32.9124H67.9773V35.6179H69.5526V35.7583Z" fill="#222222"/>
<path d="M87.2309 35.7171L87.1062 35.6592L88.4446 32.743L88.507 32.8835L89.7415 35.6344L89.6126 35.6923L88.4405 33.0817L87.2309 35.7171Z" fill="#222222"/>
<path d="M89.3009 34.7545H87.5635V34.895H89.3009V34.7545Z" fill="#222222"/>
<path d="M91.6409 35.6427C91.4954 35.6427 91.35 35.6344 91.2128 35.5931C90.6932 35.4361 90.2983 34.8827 90.2983 34.3044C90.2983 33.5526 90.9385 32.9165 91.6991 32.9165C92.0732 32.9165 92.4224 33.0611 92.6884 33.3213L92.5886 33.4204C92.3517 33.185 92.0316 33.0569 91.6991 33.0569C91.0174 33.0569 90.4397 33.6311 90.4397 34.3085C90.4397 34.829 90.7888 35.3288 91.2544 35.4651C91.4414 35.5188 91.6534 35.5146 91.8571 35.5064C91.9277 35.5064 91.9984 35.5022 92.0691 35.5022H92.572V34.4283H91.6118V34.2879H92.7133V35.6385H92.0691C92.0026 35.6385 91.9319 35.6385 91.8654 35.6427C91.7906 35.6427 91.7157 35.6468 91.6451 35.6468L91.6409 35.6427Z" fill="#222222"/>
<path d="M97.0903 35.7252C96.9532 35.7252 96.8118 35.717 96.6747 35.7087H96.6082V32.8338H96.6788C96.7786 32.8338 96.8742 32.8338 96.9698 32.8256C97.1153 32.8173 97.2607 32.8173 97.4104 32.8214C97.4727 32.8214 97.5309 32.8297 97.5891 32.838C97.7554 32.8669 97.905 32.9206 98.0713 33.028C98.2542 33.1395 98.4121 33.2923 98.5285 33.4658C98.7571 33.8086 98.8319 34.2424 98.728 34.6348C98.6241 35.0354 98.3415 35.3783 97.9715 35.5559C97.6972 35.6881 97.3938 35.7252 97.0862 35.7252H97.0903ZM96.7495 35.5765C97.1444 35.5972 97.56 35.6054 97.9133 35.4361C98.2459 35.275 98.4994 34.9652 98.595 34.6058C98.6865 34.2506 98.62 33.8541 98.4121 33.5484C98.3082 33.3915 98.1627 33.251 97.9965 33.1478C97.8468 33.0569 97.7138 33.0032 97.5683 32.9784C97.5185 32.9701 97.4644 32.966 97.4062 32.9619C97.2649 32.9536 97.1194 32.9619 96.9781 32.966C96.9033 32.966 96.8285 32.9701 96.7495 32.9743V35.5765Z" fill="#222222"/>
<path d="M86.7239 33.0129H84.4087V33.1369H85.4977V35.7391H85.6349V33.1369H86.7239V33.0129Z" fill="#222222"/>
</g>
<defs>
<clipPath id="clip0_602_190">
<rect width="100" height="41" fill="white"/>
</clipPath>
</defs>
</svg>
