<svg width="20" height="21" viewBox="0 0 20 21" fill="none" xmlns="http://www.w3.org/2000/svg">
<path fill-rule="evenodd" clip-rule="evenodd" d="M15 6C15 8.76142 12.7614 11 10 11C7.23858 11 5 8.76142 5 6C5 3.23858 7.23858 1 10 1C12.7614 1 15 3.23858 15 6ZM12.685 11.3672C14.6507 10.3819 16 8.34854 16 6C16 2.68629 13.3137 0 10 0C6.68629 0 4 2.68629 4 6C4 8.34854 5.34933 10.3819 7.31504 11.3672C6.92762 11.4752 6.54627 11.6067 6.17317 11.7612C4.95991 12.2638 3.85752 13.0003 2.92893 13.9289C2.00035 14.8575 1.26375 15.9599 0.761204 17.1732C0.386695 18.0773 0.147631 19.0298 0.050125 20C0.0167897 20.3317 0 20.6654 0 21H20C20 20.6654 19.9832 20.3317 19.9499 20C19.8524 19.0298 19.6133 18.0773 19.2388 17.1732C18.7362 15.9599 17.9997 14.8575 17.0711 13.9289C16.1425 13.0003 15.0401 12.2638 13.8268 11.7612C13.4537 11.6067 13.0724 11.4752 12.685 11.3672ZM10 12C8.8181 12 7.64778 12.2328 6.55585 12.6851C5.46392 13.1374 4.47177 13.8003 3.63604 14.636C2.80031 15.4718 2.13738 16.4639 1.68508 17.5558C1.3609 18.3385 1.14948 19.1614 1.05573 20H18.9443C18.8505 19.1614 18.6391 18.3385 18.3149 17.5558C17.8626 16.4639 17.1997 15.4718 16.364 14.636C15.5282 13.8003 14.5361 13.1374 13.4442 12.6851C12.3522 12.2328 11.1819 12 10 12Z" fill="#17CA89"/>
</svg>
