<svg width="23" height="22" viewBox="0 0 23 22" fill="none" xmlns="http://www.w3.org/2000/svg">
<path fill-rule="evenodd" clip-rule="evenodd" d="M8.5 20C8.22386 20 8 20.2239 8 20.5C8 20.7761 8.22386 21 8.5 21C8.77614 21 9 20.7761 9 20.5C9 20.2239 8.77614 20 8.5 20ZM7 20.5C7 19.6716 7.67157 19 8.5 19C9.32843 19 10 19.6716 10 20.5C10 21.3284 9.32843 22 8.5 22C7.67157 22 7 21.3284 7 20.5Z" fill="#17CA89"/>
<path fill-rule="evenodd" clip-rule="evenodd" d="M19.5 20C19.2239 20 19 20.2239 19 20.5C19 20.7761 19.2239 21 19.5 21C19.7761 21 20 20.7761 20 20.5C20 20.2239 19.7761 20 19.5 20ZM18 20.5C18 19.6716 18.6716 19 19.5 19C20.3284 19 21 19.6716 21 20.5C21 21.3284 20.3284 22 19.5 22C18.6716 22 18 21.3284 18 20.5Z" fill="#17CA89"/>
<path fill-rule="evenodd" clip-rule="evenodd" d="M0 0.5C0 0.223858 0.223858 0 0.5 0H4.25999C4.64652 0 4.96178 0.275435 5.03889 0.635287L5.04032 0.641984L5.91188 5H22.12C22.62 5 23.0249 5.45376 22.9204 5.96741L21.3911 13.9837L21.3903 13.9881C21.1535 15.172 20.1069 16.0224 18.8951 16H9.18489C7.9731 16.0224 6.92648 15.172 6.6897 13.9881L5.02054 5.6423C5.01211 5.61385 5.00614 5.58434 5.00288 5.55402L4.09208 1H0.5C0.223858 1 0 0.776142 0 0.5ZM6.11188 6L7.67028 13.792C7.81315 14.5063 8.44376 15.0151 9.16969 15.0001L9.17999 14.9999L18.9103 15C19.6355 15.015 20.2656 14.5073 20.4093 13.794C20.4094 13.7933 20.4096 13.7927 20.4097 13.792L21.8962 6H6.11188Z" fill="#17CA89"/>
</svg>
