<svg width="106" height="179" viewBox="0 0 106 179" fill="none" xmlns="http://www.w3.org/2000/svg">
<path d="M58.8711 126.142H41.4364C41.133 126.142 40.8654 126.337 40.7761 126.639L38.7953 133.634C38.6704 134.078 39.0095 134.504 39.4556 134.504H60.8697C61.3159 134.504 61.6549 134.078 61.53 133.634L59.5492 126.639C59.46 126.337 59.1923 126.142 58.8889 126.142H58.8711Z" stroke="#72726F" stroke-width="0.75" stroke-linecap="round" stroke-linejoin="round"/>
<path d="M50.1448 126.142V30.0127" stroke="#72726F" stroke-width="0.75" stroke-linecap="round" stroke-linejoin="round"/>
<path d="M39.402 1H60.7448C61.5657 1 62.2795 1.58594 62.4222 2.38494L67.5081 28.0063C67.7044 29.0539 66.9014 30.0127 65.8307 30.0127H34.4411C33.3704 30.0127 32.5674 29.0361 32.7637 27.9885L37.7424 2.38494C37.9031 1.58594 38.599 1 39.4199 1H39.402Z" stroke="#72726F" stroke-width="0.75" stroke-linecap="round" stroke-linejoin="round"/>
<path d="M60.0845 41.4473V30.3323" stroke="#72726F" stroke-width="0.75" stroke-linecap="round" stroke-linejoin="round"/>
<path opacity="0.25" d="M32.7458 14.9915L0 178.556H106L67.7936 16.8203L67.3475 19.5724L66.598 20.6732L62.4936 20.9573H34.4411L33.2811 20.2471L32.7458 16.9623V14.9915Z" fill="url(#paint0_linear_518_281)"/>
<circle cx="46" cy="13" r="1" fill="#72726F"/>
<circle cx="46" cy="13" r="2.75" stroke="#72726F" stroke-width="0.5"/>
<circle cx="53" cy="13" r="1" fill="#72726F"/>
<circle cx="56.5" cy="15.5" r="1.5" fill="#E11646" fill-opacity="0.1"/>
<circle cx="42.5" cy="15.5" r="1.5" fill="#E11646" fill-opacity="0.1"/>
<circle cx="53" cy="13" r="2.75" stroke="#72726F" stroke-width="0.5"/>
<path d="M54.8693 17.0441C55.148 17.1761 55.269 17.5106 55.1135 17.777C54.6056 18.647 53.901 19.3894 53.0531 19.9429C52.049 20.5984 50.8831 20.9634 49.6844 20.9974C48.4857 21.0314 47.301 20.7332 46.2613 20.1356C45.3834 19.6311 44.6378 18.9299 44.0814 18.0901C43.911 17.833 44.0128 17.4921 44.2836 17.3445C44.5544 17.1968 44.8913 17.2986 45.0662 17.5527C45.5209 18.213 46.1187 18.7654 46.8178 19.1672C47.6788 19.662 48.66 19.909 49.6527 19.8809C50.6454 19.8527 51.611 19.5505 52.4426 19.0076C53.1178 18.5668 53.6833 17.9813 54.0997 17.2963C54.26 17.0328 54.5906 16.912 54.8693 17.0441Z" fill="#72726F"/>
<defs>
<linearGradient id="paint0_linear_518_281" x1="53" y1="178.556" x2="53" y2="14.9915" gradientUnits="userSpaceOnUse">
<stop stop-color="white" stop-opacity="0"/>
<stop offset="0.72" stop-color="#E8DE67"/>
<stop offset="1" stop-color="#BCBBBC" stop-opacity="0"/>
</linearGradient>
</defs>
</svg>
