<svg width="15" height="20" viewBox="0 0 15 20" fill="none" xmlns="http://www.w3.org/2000/svg">
<path d="M3.19 19.9901C1.37 19.9901 0 18.61 0 16.8C0 14.57 0 12.34 0 10.11C0 9.05005 0.500001 8.43003 1.54 8.22003C1.9 8.14003 2.05 7.95002 2.05 7.58002C2.04 6.77002 2.05 5.96002 2.05 5.15002C2.07 2.48002 4.16 0.27002 6.91 0.0200195C7.05 0.0100195 7.18 0 7.32 0C9.75 0 11.96 1.84 12.35 4.19C12.49 5.01 12.47 5.88002 12.46 6.71002V7.42004C12.46 7.86004 12.56 8.15 13.12 8.25C13.95 8.4 14.5 9.10005 14.5 9.99005C14.5 12.2901 14.5 14.6 14.5 16.9C14.5 18.58 13.11 19.9701 11.42 19.9901C10.88 19.9901 10.34 19.9901 9.8 19.9901H3.18H3.19ZM2.06 9.11005C1.22 9.11005 0.889999 9.43001 0.889999 10.26V10.51C0.889999 12.54 0.879999 14.57 0.889999 16.6C0.899999 18.14 1.84 19.06 3.4 19.07H11.11C12.67 19.07 13.6 18.14 13.6 16.59C13.6 14.49 13.6 12.4 13.6 10.3C13.6 9.44005 13.28 9.12005 12.42 9.11005H4.18H2.05H2.06ZM7.24 0.929993C5.42 0.929993 3.8 2.09001 3.2 3.82001C2.88 4.75001 2.91 5.70005 2.93 6.61005C2.94 7.04005 2.95 7.46 2.93 7.88V8.03003L3.1 8.09003L3.32 8.15002H7.19C8.48 8.15002 9.77 8.15002 11.07 8.15002C11.29 8.15002 11.54 7.84001 11.55 7.64001V7.41003C11.57 6.61003 11.59 5.78003 11.54 4.97003C11.41 2.90003 9.87 1.25003 7.79 0.970032C7.6 0.940032 7.42 0.929993 7.23 0.929993H7.24Z" fill="#17CA89"/>
</svg>
