<svg width="16" height="17" viewBox="0 0 16 17" fill="none" xmlns="http://www.w3.org/2000/svg">
<path fill-rule="evenodd" clip-rule="evenodd" d="M0 0.45C0 0.201472 0.201472 0 0.45 0H9.95C10.1985 0 10.4 0.201472 10.4 0.45V2.45C10.4 2.69853 10.1985 2.9 9.95 2.9C9.70147 2.9 9.5 2.69853 9.5 2.45V0.9H0.9V16H9.5V14.45C9.5 14.2015 9.70147 14 9.95 14C10.1985 14 10.4 14.2015 10.4 14.45V16.45C10.4 16.6985 10.1985 16.9 9.95 16.9H0.45C0.201472 16.9 0 16.6985 0 16.45V0.45ZM11.1318 4.6318C11.3075 4.45607 11.5925 4.45607 11.7682 4.6318L15.2682 8.1318C15.4439 8.30754 15.4439 8.59246 15.2682 8.7682L11.7682 12.2682C11.5925 12.4439 11.3075 12.4439 11.1318 12.2682C10.9561 12.0925 10.9561 11.8075 11.1318 11.6318L13.8636 8.9H3.45C3.20147 8.9 3 8.69853 3 8.45C3 8.20147 3.20147 8 3.45 8H13.8636L11.1318 5.2682C10.9561 5.09246 10.9561 4.80754 11.1318 4.6318Z" fill="#17CA89"/>
</svg>
