<svg width="237" height="197" viewBox="0 0 237 197" fill="none" xmlns="http://www.w3.org/2000/svg">
<path d="M185.703 138.608H166.724C166.39 138.608 166.095 138.833 166.006 139.154L163.848 146.838C163.714 147.318 164.071 147.791 164.566 147.791H187.857C188.352 147.791 188.71 147.315 188.576 146.838L186.421 139.154C186.332 138.829 186.037 138.608 185.703 138.608Z" stroke="#72726F" stroke-width="0.5" stroke-miterlimit="10"/>
<path d="M176.214 138.609V32.9819" stroke="#72726F" stroke-width="0.5" stroke-miterlimit="10"/>
<path d="M164.259 1H187.479C188.376 1 189.142 1.64211 189.303 2.52587L194.842 30.6716C195.051 31.8177 194.175 32.8775 193.017 32.8775H158.858C157.69 32.8775 156.814 31.8108 157.034 30.6578L162.435 2.51206C162.603 1.6352 163.37 1 164.259 1V1Z" stroke="#72726F" stroke-width="0.5" stroke-miterlimit="10"/>
<path d="M187 45.2104V33" stroke="#72726F" stroke-width="0.5" stroke-miterlimit="10"/>
<g opacity="0.24">
<path d="M157.275 16.4702L121.649 196.212H237L195.426 18.4828L194.939 21.5104L194.128 22.7221L189.661 23.0259H159.134L157.866 22.263L157.275 18.6451V16.4702Z" fill="url(#paint0_linear_1117_986)"/>
</g>
<path d="M180.482 15.0056C181.287 15.0056 181.939 14.3502 181.939 13.5419C181.939 12.7335 181.287 12.0781 180.482 12.0781C179.677 12.0781 179.025 12.7335 179.025 13.5419C179.025 14.3502 179.677 15.0056 180.482 15.0056Z" fill="#72726F" stroke="#72726F" stroke-width="0.5" stroke-miterlimit="10"/>
<path d="M170.482 15.0056C171.287 15.0056 171.939 14.3502 171.939 13.5419C171.939 12.7335 171.287 12.0781 170.482 12.0781C169.677 12.0781 169.025 12.7335 169.025 13.5419C169.025 14.3502 169.677 15.0056 170.482 15.0056Z" fill="#72726F" stroke="#72726F" stroke-width="0.5" stroke-miterlimit="10"/>
<path d="M180.482 16.6973C182.216 16.6973 183.622 15.2846 183.622 13.542C183.622 11.7994 182.216 10.3867 180.482 10.3867C178.748 10.3867 177.342 11.7994 177.342 13.542C177.342 15.2846 178.748 16.6973 180.482 16.6973Z" stroke="#72726F" stroke-width="0.5" stroke-miterlimit="10"/>
<path d="M170.482 16.6973C172.216 16.6973 173.622 15.2846 173.622 13.542C173.622 11.7994 172.216 10.3867 170.482 10.3867C168.748 10.3867 167.342 11.7994 167.342 13.542C167.342 15.2846 168.748 16.6973 170.482 16.6973Z" stroke="#72726F" stroke-width="0.5" stroke-miterlimit="10"/>
<path d="M172.035 19.4434C171.709 20.2795 173.696 23.9654 175.969 23.9998C178.272 24.0341 180.281 20.344 179.968 19.5015C179.799 19.048 178.54 19.0286 176.029 19.0071C173.488 18.9857 172.214 18.9835 172.035 19.4434Z" fill="white" stroke="#72726F" stroke-width="0.5" stroke-miterlimit="10"/>
<path d="M180 8L184.841 9.57075" stroke="#72726F" stroke-width="0.5" stroke-miterlimit="10"/>
<path d="M167 9.04256L171.982 8" stroke="#72726F" stroke-width="0.5" stroke-miterlimit="10"/>
<path d="M30.5343 116.293H128.383C134.386 116.293 139.258 121.189 139.258 127.22V131.652H19.6599V127.22C19.6599 121.189 24.5319 116.293 30.5343 116.293V116.293Z" stroke="#72726F" stroke-width="0.5" stroke-miterlimit="10"/>
<path d="M92.4272 90.0017C92.4272 90.0017 96.3166 89.1904 98.7285 92.4113" stroke="#72726F" stroke-width="0.5" stroke-miterlimit="10"/>
<path d="M67.8886 89.3219C67.8886 89.3219 64.0749 88.1965 61.4155 91.2103" stroke="#72726F" stroke-width="0.5" stroke-miterlimit="10"/>
<path d="M93.3858 99.7684C95.1562 99.7684 96.5914 98.3264 96.5914 96.5475C96.5914 94.7687 95.1562 93.3267 93.3858 93.3267C91.6154 93.3267 90.1802 94.7687 90.1802 96.5475C90.1802 98.3264 91.6154 99.7684 93.3858 99.7684Z" stroke="#72726F" stroke-width="0.5" stroke-miterlimit="10"/>
<path d="M93.9118 98.2315C95.2799 98.2315 96.389 97.1171 96.389 95.7425C96.389 94.3678 95.2799 93.2534 93.9118 93.2534C92.5437 93.2534 91.4346 94.3678 91.4346 95.7425C91.4346 97.1171 92.5437 98.2315 93.9118 98.2315Z" fill="#72726F" stroke="#72726F" stroke-width="0.5" stroke-miterlimit="10"/>
<path d="M66.5728 99.7684C68.3432 99.7684 69.7784 98.3264 69.7784 96.5475C69.7784 94.7687 68.3432 93.3267 66.5728 93.3267C64.8024 93.3267 63.3672 94.7687 63.3672 96.5475C63.3672 98.3264 64.8024 99.7684 66.5728 99.7684Z" stroke="#72726F" stroke-width="0.5" stroke-miterlimit="10"/>
<path d="M67.0988 98.2315C68.467 98.2315 69.576 97.1171 69.576 95.7425C69.576 94.3678 68.467 93.2534 67.0988 93.2534C65.7307 93.2534 64.6216 94.3678 64.6216 95.7425C64.6216 97.1171 65.7307 98.2315 67.0988 98.2315Z" fill="#72726F" stroke="#72726F" stroke-width="0.5" stroke-miterlimit="10"/>
<path d="M83.4737 104.201C83.4737 104.201 81.8932 108.25 77.7256 106.013" stroke="#72726F" stroke-width="0.5" stroke-miterlimit="10"/>
<path d="M6.15374 100.462H19.4263C19.5535 100.462 19.66 100.565 19.66 100.697V151.33C19.66 151.458 19.5569 151.565 19.4263 151.565H1.23364C1.10651 151.565 1 151.461 1 151.33V105.644C1 102.785 3.30887 100.465 6.15374 100.465V100.462Z" stroke="#72726F" stroke-width="0.5" stroke-miterlimit="10"/>
<path d="M157.917 151.564H139.258V100.465H152.764C155.609 100.465 157.917 102.785 157.917 105.643V151.564V151.564Z" stroke="#72726F" stroke-width="0.5" stroke-miterlimit="10"/>
<path d="M139.261 131.656H19.6599V151.565H139.261V131.656Z" stroke="#72726F" stroke-width="0.5" stroke-miterlimit="10"/>
<path d="M32.3278 76.9736H126.59C133.582 76.9736 139.258 82.6767 139.258 89.7019V131.656H19.6599V89.7019C19.6599 82.6767 25.3359 76.9736 32.3278 76.9736V76.9736Z" stroke="#72726F" stroke-width="0.5" stroke-miterlimit="10"/>
<defs>
<linearGradient id="paint0_linear_1117_986" x1="179.326" y1="196.212" x2="179.326" y2="16.4702" gradientUnits="userSpaceOnUse">
<stop stop-color="white" stop-opacity="0"/>
<stop offset="0.72" stop-color="#E8DE67"/>
<stop offset="1" stop-color="#BCBBBC" stop-opacity="0"/>
</linearGradient>
</defs>
</svg>
