<svg width="57" height="57" viewBox="0 0 57 57" fill="none" xmlns="http://www.w3.org/2000/svg">
<path d="M28.0041 56.0082C43.4703 56.0082 56.0082 43.4703 56.0082 28.0041C56.0082 12.5379 43.4703 0 28.0041 0C12.5379 0 0 12.5379 0 28.0041C0 43.4703 12.5379 56.0082 28.0041 56.0082Z" fill="#B0B0B0"/>
<path d="M26.2538 0C27.424 0 28.5842 0 29.7543 0C29.8944 0.0300044 30.0344 0.069976 30.1744 0.0899789C31.6446 0.320013 33.1448 0.449983 34.595 0.790032C45.3266 3.2904 53.7578 12.3017 55.5881 23.1833C55.7581 24.2035 55.8681 25.2337 56.0082 26.2638V29.7644C55.9782 29.9244 55.9282 30.0844 55.9182 30.2444C55.6781 33.4349 54.958 36.5152 53.5878 39.4057C49.3972 48.2769 42.4962 53.7278 32.8248 55.5981C31.8146 55.7981 30.7745 55.8881 29.7543 56.0281H26.2538C26.1138 55.9981 25.9738 55.9481 25.8338 55.9381C20.0529 55.478 14.8922 53.4577 10.4015 49.7972C5.02073 45.3965 1.66024 39.7657 0.430063 32.9047C0.240035 31.8645 0.14002 30.8144 0 29.7742C0 28.6041 0 27.4439 0 26.2737C0.0300044 26.1137 0.0800118 25.9537 0.0900133 25.7937C0.530077 20.2529 2.43036 15.2521 5.86086 10.8915C10.3015 5.23066 16.0723 1.7102 23.1834 0.450017C24.2035 0.269991 25.2337 0.159921 26.2538 0.0199004V0ZM44.8065 46.0266C50.6574 40.9259 54.708 31.1845 51.6975 20.943C48.6671 10.6115 38.9857 3.3404 28.0841 3.2904C17.2725 3.23039 7.50109 10.4315 4.37064 20.733C1.25018 30.9945 5.24076 40.8059 11.2116 46.0566C11.9617 43.5063 13.2019 41.236 14.9522 39.2657C16.7124 37.2854 18.8328 35.7852 21.3031 34.725C14.7922 30.4244 14.1921 21.5531 18.9328 16.3524C23.4434 11.4016 31.0145 10.9315 35.9953 15.3122C38.4256 17.4525 39.8658 20.1529 40.1159 23.3834C40.4859 28.1541 38.5556 31.9046 34.6951 34.705C39.7858 36.9853 43.1363 40.7458 44.7965 46.0266H44.8065ZM27.574 52.7277C32.5547 52.7877 37.2054 51.4675 41.466 48.7371C41.8861 48.4671 41.9461 48.207 41.8461 47.767C40.1259 40.3759 33.2949 35.7352 25.7738 36.8554C20.0229 37.7155 15.2222 42.2661 14.1121 47.9069C14.042 48.2569 14.1121 48.457 14.4221 48.667C18.4027 51.2474 22.7533 52.5976 27.564 52.7277H27.574ZM19.1028 24.4936C19.0828 29.3643 23.0534 33.3549 27.9541 33.3749C32.8848 33.3949 36.8554 29.4642 36.8954 24.5335C36.9354 19.6328 32.9748 15.6322 28.0441 15.5822C23.1434 15.5322 19.1228 19.5328 19.1028 24.4936Z" fill="white"/>
</svg>
