<svg width="21" height="23" viewBox="0 0 21 23" fill="none" xmlns="http://www.w3.org/2000/svg">
<path fill-rule="evenodd" clip-rule="evenodd" d="M10.3121 0.0504651C10.4283 -0.0168217 10.5717 -0.0168217 10.6879 0.0504651L20.1879 5.55047C20.3037 5.61751 20.375 5.74119 20.375 5.875V16.875C20.375 17.0088 20.3037 17.1325 20.1879 17.1995L10.6879 22.6995C10.5787 22.7627 10.4451 22.7668 10.3323 22.7104L8.33229 21.7104C8.14705 21.6178 8.07197 21.3925 8.16459 21.2073C8.25721 21.0221 8.48246 20.947 8.66771 21.0396L10.125 21.7682V11.5912L1.375 6.52542V14.875C1.375 15.0821 1.20711 15.25 1 15.25C0.792893 15.25 0.625 15.0821 0.625 14.875V5.875C0.625 5.74119 0.696305 5.61751 0.812111 5.55047L10.3121 0.0504651ZM1.74845 5.875L10.5 10.9417L14.5016 8.625L5.75 3.55831L1.74845 5.875ZM6.49845 3.125L15.25 8.19169L19.2516 5.875L10.5 0.808312L6.49845 3.125ZM19.625 6.52542L10.875 11.5912V21.7246L19.625 16.6588V6.52542ZM17.1971 10.556C17.3077 10.6243 17.375 10.745 17.375 10.875V13.375C17.375 13.517 17.2947 13.6469 17.1677 13.7104L14.1677 15.2104C14.0515 15.2685 13.9134 15.2623 13.8029 15.194C13.6923 15.1257 13.625 15.005 13.625 14.875V12.375C13.625 12.233 13.7053 12.1031 13.8323 12.0396L16.8323 10.5396C16.9485 10.4815 17.0866 10.4877 17.1971 10.556ZM14.375 12.6068V14.2682L16.625 13.1432V11.4818L14.375 12.6068ZM4 16.5C4.20711 16.5 4.375 16.6679 4.375 16.875V18.6743L5.70801 19.563C5.88034 19.6779 5.9269 19.9107 5.81202 20.083C5.69714 20.2553 5.46431 20.3019 5.29199 20.187L3.79199 19.187C3.68766 19.1175 3.625 19.0004 3.625 18.875V16.875C3.625 16.6679 3.79289 16.5 4 16.5Z" fill="#17CA89"/>
<path fill-rule="evenodd" clip-rule="evenodd" d="M4 22.125C5.79493 22.125 7.25 20.6699 7.25 18.875C7.25 17.0801 5.79493 15.625 4 15.625C2.20507 15.625 0.75 17.0801 0.75 18.875C0.75 20.6699 2.20507 22.125 4 22.125ZM4 22.875C6.20914 22.875 8 21.0841 8 18.875C8 16.6659 6.20914 14.875 4 14.875C1.79086 14.875 0 16.6659 0 18.875C0 21.0841 1.79086 22.875 4 22.875Z" fill="#17CA89"/>
</svg>
