<svg width="22" height="16" viewBox="0 0 22 16" fill="none" xmlns="http://www.w3.org/2000/svg">
<path d="M20.7778 0H1.22222C0.898069 0 0.587192 0.133082 0.357981 0.36997C0.12877 0.606858 0 0.928148 0 1.26316V14.7368C0 15.0719 0.12877 15.3931 0.357981 15.63C0.587192 15.8669 0.898069 16 1.22222 16H20.7778C21.1019 16 21.4128 15.8669 21.642 15.63C21.8712 15.3931 22 15.0719 22 14.7368V1.26316C22 0.928148 21.8712 0.606858 21.642 0.36997C21.4128 0.133082 21.1019 0 20.7778 0ZM1.22222 0.842105H20.7778C20.8858 0.842105 20.9895 0.886466 21.0659 0.965429C21.1423 1.04439 21.1852 1.15149 21.1852 1.26316V4.30526H0.814815V1.26316C0.814815 1.15149 0.857738 1.04439 0.934142 0.965429C1.01055 0.886466 1.11417 0.842105 1.22222 0.842105ZM20.7778 15.1579H1.22222C1.11417 15.1579 1.01055 15.1135 0.934142 15.0346C0.857738 14.9556 0.814815 14.8485 0.814815 14.7368V5.14737H21.1852V14.7368C21.1852 14.8485 21.1423 14.9556 21.0659 15.0346C20.9895 15.1135 20.8858 15.1579 20.7778 15.1579Z" fill="#17CA89"/>
</svg>
