<svg width="24" height="24" viewBox="0 0 24 24" fill="none" xmlns="http://www.w3.org/2000/svg">
<path d="M12 10.7267C12.1989 10.7267 12.3897 10.8013 12.5303 10.9341C12.671 11.0668 12.75 11.2469 12.75 11.4347V15.6824C12.75 15.8701 12.671 16.0502 12.5303 16.183C12.3897 16.3157 12.1989 16.3903 12 16.3903C11.8011 16.3903 11.6103 16.3157 11.4697 16.183C11.329 16.0502 11.25 15.8701 11.25 15.6824V11.4347C11.25 11.2469 11.329 11.0668 11.4697 10.9341C11.6103 10.8013 11.8011 10.7267 12 10.7267ZM12 9.6648C12.1477 9.6648 12.294 9.63733 12.4305 9.58397C12.567 9.5306 12.691 9.45238 12.7955 9.35377C12.9 9.25516 12.9828 9.13809 13.0394 9.00926C13.0959 8.88042 13.125 8.74233 13.125 8.60287C13.125 8.46342 13.0959 8.32533 13.0394 8.19649C12.9828 8.06765 12.9 7.95059 12.7955 7.85198C12.691 7.75337 12.567 7.67515 12.4305 7.62178C12.294 7.56842 12.1477 7.54095 12 7.54095C11.702 7.54095 11.4163 7.65268 11.2056 7.85156C10.9949 8.05045 10.8765 8.32019 10.8765 8.60146C10.8765 8.88272 10.9949 9.15247 11.2056 9.35135C11.4163 9.55024 11.702 9.66197 12 9.66197V9.6648ZM3 12.1426C3 11.027 3.23279 9.92229 3.68508 8.89158C4.13738 7.86086 4.80031 6.92434 5.63604 6.13547C6.47177 5.34659 7.46392 4.72083 8.55585 4.29389C9.64778 3.86696 10.8181 3.64722 12 3.64722C13.1819 3.64722 14.3522 3.86696 15.4442 4.29389C16.5361 4.72083 17.5282 5.34659 18.364 6.13547C19.1997 6.92434 19.8626 7.86086 20.3149 8.89158C20.7672 9.92229 21 11.027 21 12.1426C21 14.3958 20.0518 16.5566 18.364 18.1498C16.6761 19.743 14.3869 20.638 12 20.638C9.61305 20.638 7.32387 19.743 5.63604 18.1498C3.94821 16.5566 3 14.3958 3 12.1426ZM12 5.06312C10.0109 5.06312 8.10322 5.80899 6.6967 7.13666C5.29018 8.46433 4.5 10.265 4.5 12.1426C4.5 14.0202 5.29018 15.8209 6.6967 17.1486C8.10322 18.4763 10.0109 19.2221 12 19.2221C13.9891 19.2221 15.8968 18.4763 17.3033 17.1486C18.7098 15.8209 19.5 14.0202 19.5 12.1426C19.5 10.265 18.7098 8.46433 17.3033 7.13666C15.8968 5.80899 13.9891 5.06312 12 5.06312Z" fill="#17CA89"/>
</svg>
