<svg width="138" height="116" viewBox="0 0 138 116" fill="none" xmlns="http://www.w3.org/2000/svg">
<g clip-path="url(#clip0_1102_489)">
<path d="M97.7702 115.26C96.0002 115.26 94.2402 115.23 92.4802 115.2H92.2902C90.6202 115.17 88.9702 115.14 87.3402 115.14H68.5902C60.4902 115.14 52.3902 115.14 44.2902 115.16C41.1102 115.16 37.9702 115.16 34.8302 115.18C27.3902 115.18 20.9102 113.13 15.5602 109.09C13.1002 107.24 10.7802 104.95 8.85021 102.48C6.24021 99.15 3.91021 95.52 1.66021 92L1.24021 91.34C-0.259788 89 -0.419788 86.36 0.820212 84.09C2.17021 81.62 4.85021 80.03 7.65021 80.03C9.53021 80.03 11.3102 80.75 12.8002 82.13C14.4702 83.66 15.6502 85.66 16.8002 87.6L17.3502 88.53C18.8402 90.99 20.9202 94.12 23.7802 96.51C26.6202 98.87 29.9002 100.16 33.0302 100.16H33.2802C33.6202 100.16 33.9702 100.11 34.2202 99.86C34.5402 99.55 34.5202 99.09 34.4502 98.64C32.9102 88.13 31.2802 76.96 29.9002 66.06C28.4202 54.38 26.7702 42.87 25.2002 32.18L22.6502 14.91C22.5702 14.39 22.3702 13.49 22.1102 12.36C21.2602 8.57001 19.6702 1.51001 21.1202 0.45001C21.7302 0.0100098 22.5902 0.0100098 23.2802 0.0100098C38.4802 0.0100098 53.6802 0.0100098 68.8802 0.0100098H114.02C115.3 0.0100098 116.11 0.24001 116.51 0.71001C117.05 1.35001 116.84 2.52001 116.61 3.88001C116.54 4.30001 116.46 4.71001 116.4 5.14001C115.87 8.83001 115.35 12.52 114.83 16.22C114.26 20.32 112.88 30.21 112.88 30.21L111.65 39.08C109.63 53.65 107.46 69.17 105.14 84.77L103.07 98.64C103.02 99 102.99 99.41 103.24 99.69L103.35 99.79C103.52 99.92 103.72 99.96 103.91 99.98C104.31 100.03 104.72 100.06 105.14 100.06C110.56 100.06 115.45 95.71 118.23 91.65C118.92 90.64 119.55 89.57 120.16 88.54C120.88 87.32 121.62 86.07 122.45 84.91C124.28 82.39 126.31 80.78 128.5 80.14C129.11 79.96 129.73 79.87 130.35 79.87C132.45 79.87 134.47 80.89 135.88 82.66C137.31 84.46 137.86 86.7 137.37 88.82C136.95 90.65 135.83 92.27 134.75 93.84L134.62 94.02C134.11 94.76 133.61 95.51 133.1 96.26L132.98 96.45C129.97 100.92 126.86 105.54 122.58 108.87C115.36 114.5 106.36 115.27 97.7102 115.27L97.7702 115.26ZM68.8102 113.31C72.3802 113.31 75.9602 113.33 79.5302 113.34H80.1302C83.5202 113.36 86.9102 113.37 90.3002 113.37C95.9702 113.37 100.61 113.33 104.88 113.24C112.96 113.07 120.03 109.74 125.34 103.61C127.58 101.03 129.52 98.13 131.41 95.34C132.17 94.21 132.88 93.17 133.6 92.13C134.36 91.05 135.13 89.94 135.51 88.72C136.3 86.2 135 83.4 132.49 82.22C131.71 81.86 130.9 81.67 130.08 81.67C128.27 81.67 126.58 82.58 125.46 84.17C123.85 86.46 121.76 89.49 119.78 92.57C115.75 98.87 110.18 102.07 103.23 102.08C93.5102 102.09 83.7902 102.1 74.0702 102.1C60.8502 102.1 47.6202 102.08 34.4002 102.04C32.4602 102.04 30.3602 101.69 28.1802 101.03C24.1202 99.8 20.7602 97.07 17.9102 92.67C16.1002 89.87 14.1902 87.05 12.2302 84.26C11.0702 82.6 9.40021 81.64 7.66021 81.64C7.27021 81.64 6.88021 81.69 6.50021 81.79C4.45021 82.32 2.90021 83.62 2.25021 85.35C1.60021 87.07 1.91021 89.06 3.09021 90.8L9.00021 99.49C15.2402 108.67 24.0002 113.32 35.0402 113.32C46.2702 113.32 57.5102 113.32 68.7302 113.32L68.8002 113.29L68.8102 113.31ZM37.1502 93.91C36.6402 93.91 36.2802 94.04 36.0702 94.29C35.8502 94.56 35.7802 94.95 35.8702 95.46C36.0302 96.39 36.2102 97.47 36.2902 98.54C36.3802 99.74 36.9702 100.28 38.1902 100.28C39.5802 100.26 40.8802 100.26 42.1902 100.26H48.3302L99.1302 100.27C100.87 100.27 101.17 100.02 101.39 98.32C101.42 98.08 101.45 97.83 101.48 97.59C101.53 97.13 101.58 96.73 101.64 96.34C101.85 95.03 101.87 94.63 101.63 94.31C101.29 93.95 100.89 93.91 99.5902 93.91H38.3302L37.4802 93.92H37.1902L37.3702 94.08H36.9702L37.1502 93.91ZM68.8302 84.12C58.1802 84.12 47.5402 84.12 36.9002 84.12C36.6702 84.12 36.4402 84.12 36.2102 84.14C36.0202 84.14 35.8302 84.15 35.6402 84.16C35.1802 84.17 34.8502 84.3 34.6502 84.54C34.4502 84.79 34.3802 85.15 34.4602 85.61C34.5402 86.15 34.6202 86.69 34.6902 87.24C34.8602 88.48 35.0402 89.72 35.2902 90.92C35.4302 91.57 36.4202 92.04 36.5302 92.09C36.7002 92.17 36.9002 92.2 37.1602 92.2C37.2902 92.2 37.4202 92.2 37.5502 92.18C37.7202 92.17 37.8602 92.16 37.9802 92.16H68.3502H98.7202H100.07C100.29 92.16 100.51 92.16 100.73 92.16L101.04 92.1L100.76 92.16C101.8 92.16 102.34 91.7 102.43 90.71C102.53 89.68 102.7 88.63 102.86 87.62L102.95 87.01C103.1 86.08 102.95 85.37 102.54 84.88C102.11 84.38 101.39 84.13 100.4 84.13H68.8202L68.8302 84.12ZM101.67 82.24C101.75 82.24 101.84 82.24 101.93 82.26C102.06 82.27 102.15 82.28 102.24 82.28L102.56 82.2C102.94 82 103.6 81.6 103.72 81.11C104.22 78.07 104.64 75.02 105.05 72.07L105.24 70.67C105.37 69.71 105.41 69.35 105.29 69.06L104.41 68.66L104.64 68.62L104.78 68.64C104.73 68.63 104.64 68.61 104.48 68.59C104.24 68.56 103.92 68.56 103.51 68.56H68.8502L68.7502 68.52H44.1502C42.2302 68.52 40.3002 68.53 38.3802 68.54C36.8302 68.54 35.2702 68.56 33.7202 68.56C33.5302 68.56 33.3502 68.56 33.1902 68.59C32.9802 68.62 32.6502 68.69 32.4402 68.97C32.2702 69.2 32.2202 69.53 32.2902 69.98C32.5402 71.59 32.7702 73.21 33.0102 74.83L33.0402 75.05C33.2802 76.74 33.5302 78.42 33.7902 80.1C34.0902 81.99 34.3802 82.23 36.4102 82.23C58.1602 82.23 79.9202 82.23 101.68 82.23L101.67 82.24ZM32.9702 59.08C32.2502 59.1 31.6902 59.14 31.3802 59.52C31.1902 59.75 31.1202 60.07 31.1902 60.49C31.2702 61.04 31.3302 61.6 31.3802 62.13C31.5702 64.22 31.7402 66.03 33.6702 66.63C34.0802 66.77 34.5702 66.84 35.1702 66.84C35.1902 66.84 40.4402 66.72 42.9902 66.65L52.5702 66.67H56.6202L104.43 66.73L104.84 66.6C105.11 66.41 105.33 66.22 105.51 66.03C106.38 65.13 106.47 63.39 106.55 62C106.57 61.58 106.59 61.19 106.63 60.86C106.81 59.34 105.74 59.15 104.8 58.98H104.68L33.3502 59.07C33.2302 59.07 33.1402 59.07 33.0402 59.07H32.9802L32.9702 59.08ZM24.6202 1.83001C23.7302 1.83001 23.4102 1.88001 23.1702 2.06001L22.9602 2.31001C22.8402 2.56001 22.8402 2.85001 22.9602 3.72001L23.3402 6.31001C23.6302 8.25001 23.9102 10.18 24.1802 12.12C24.6902 15.74 25.1902 19.36 25.6902 22.97L27.1302 33.41C27.7102 37.57 28.2802 41.73 28.8802 45.89C29.1902 48.08 29.5302 50.27 29.8702 52.46L30.3002 55.27C30.4102 56.01 30.7502 56.46 31.3302 56.64C31.5102 56.7 31.7302 56.73 32.0102 56.74C33.5802 56.76 35.1602 56.8 36.7302 56.85C38.4602 56.9 40.0902 56.94 41.7302 56.96C42.8202 56.98 43.9102 56.98 45.0002 56.98C45.9602 56.98 51.9602 56.96 51.9602 56.96H55.7402C57.4102 56.96 59.0802 56.96 60.7502 56.94C61.7002 56.93 62.6602 56.88 63.6102 56.84C64.7102 56.79 65.8302 56.74 66.9202 56.74C68.5502 56.74 70.0902 56.8 71.5902 56.85C72.8002 56.89 74.0102 56.93 75.2202 56.95C76.8302 56.97 78.4302 56.98 80.0302 56.98H88.6602C92.1102 56.98 95.5702 56.98 99.0202 56.96C101.42 56.96 103.95 56.91 106.54 56.83L106.86 56.74C106.86 56.74 107.17 56.55 107.32 56.3L107.4 56.06C107.56 55.04 107.69 53.95 107.83 52.87L108.36 48.73C108.7 46.06 109.05 43.4 109.42 40.74C110.07 36.13 110.73 31.53 111.39 26.92L112.58 18.61C112.87 16.58 113.15 14.54 113.43 12.51L113.49 12.1C113.86 9.45001 114.23 6.79001 114.61 4.14001C114.78 3.02001 114.82 2.62001 114.65 2.29001L114.44 2.05001C114.18 1.86001 113.85 1.83001 112.7 1.83001C98.0602 1.83001 83.4202 1.83001 68.7802 1.83001H39.3302H24.6102H24.6202Z" fill="#72726F"/>
<path d="M97.7697 114.76C96.0097 114.76 94.2397 114.73 92.4897 114.7C90.7597 114.67 89.0397 114.64 87.3397 114.64H68.5897C60.4897 114.64 52.3897 114.64 44.2897 114.66C41.1097 114.66 37.9697 114.66 34.8297 114.68C27.4797 114.68 21.1197 112.66 15.8697 108.69C13.4497 106.87 11.1597 104.61 9.24973 102.17C6.65973 98.86 4.32973 95.23 2.07973 91.73L1.65973 91.07C0.239731 88.86 0.0897312 86.47 1.25973 84.33C2.49973 82.05 5.06973 80.53 7.65973 80.53C9.40973 80.53 11.0797 81.21 12.4697 82.49C14.0797 83.97 15.2497 85.94 16.3797 87.85L16.9397 88.78C18.4497 91.27 20.5597 94.45 23.4797 96.88C26.4097 99.31 29.8097 100.65 33.0497 100.65H33.3097C33.5597 100.65 34.1497 100.63 34.5797 100.21C35.1297 99.68 35.0097 98.89 34.9597 98.56C33.4197 88.09 31.7997 76.95 30.4197 65.98C28.9397 54.28 27.2897 42.78 25.7197 32.09L23.1697 14.83C23.0897 14.3 22.8897 13.39 22.6297 12.24C22.0397 9.64 20.2597 1.71 21.4397 0.85C21.8797 0.53 22.5397 0.5 23.2997 0.5C38.4997 0.5 53.6997 0.5 68.8997 0.5H114.04C115.15 0.5 115.86 0.68 116.14 1.02C116.53 1.49 116.34 2.55 116.13 3.79C116.06 4.19 115.99 4.62 115.92 5.06C115.39 8.75 114.87 12.45 114.35 16.14C113.7 20.8 113.05 25.47 112.4 30.13L111.17 39C109.15 53.57 106.98 69.09 104.66 84.69L102.59 98.56C102.55 98.84 102.42 99.71 103.07 100.19C103.33 100.39 103.62 100.44 103.87 100.47C104.29 100.52 104.73 100.55 105.16 100.55C110.77 100.55 115.81 96.09 118.67 91.92C119.37 90.89 120.01 89.81 120.63 88.76C121.34 87.56 122.07 86.32 122.89 85.19C124.65 82.76 126.6 81.22 128.67 80.61C129.23 80.44 129.81 80.36 130.38 80.36C132.33 80.36 134.2 81.31 135.52 82.97C136.86 84.65 137.37 86.74 136.92 88.7C136.52 90.44 135.43 92.02 134.38 93.54L134.25 93.72C133.7 94.52 133.15 95.33 132.61 96.15C129.62 100.59 126.54 105.17 122.32 108.45C115.22 113.98 106.32 114.75 97.7597 114.75L97.7697 114.76ZM68.7997 113.81C72.3797 113.81 75.9497 113.83 79.5297 113.84C83.1197 113.86 86.7097 113.87 90.2997 113.87C95.9497 113.87 100.59 113.83 104.89 113.74C113.11 113.57 120.31 110.18 125.72 103.94C127.97 101.33 129.93 98.43 131.83 95.62C132.55 94.55 133.27 93.48 134.01 92.42C134.8 91.29 135.59 90.16 135.99 88.88C136.86 86.12 135.44 83.07 132.7 81.78C131.86 81.38 130.97 81.18 130.08 81.18C128.1 81.18 126.27 82.17 125.06 83.9C123.45 86.19 121.35 89.22 119.37 92.32C115.38 98.55 110.1 101.59 103.24 101.6C93.5197 101.61 83.7997 101.62 74.0797 101.62C60.8597 101.62 47.6297 101.6 34.4097 101.56C32.5397 101.56 30.4397 101.21 28.3297 100.57C24.3897 99.38 21.1197 96.71 18.3397 92.42C16.5197 89.61 14.5997 86.78 12.6497 84C11.3897 82.2 9.57973 81.17 7.66973 81.17C7.23973 81.17 6.79973 81.23 6.37973 81.33C4.16973 81.9 2.48973 83.31 1.78973 85.19C1.07973 87.07 1.40973 89.22 2.67973 91.1L8.58973 99.8C14.9297 109.12 23.8297 113.85 35.0397 113.85C46.2797 113.85 57.5197 113.85 68.7597 113.85L68.7897 113.82L68.7997 113.81ZM37.1497 93.41C36.4897 93.41 35.9997 93.6 35.6797 93.98C35.3597 94.36 35.2597 94.89 35.3697 95.55C35.5297 96.47 35.6997 97.53 35.7897 98.58C35.8997 100.04 36.7097 100.78 38.1897 100.78C39.5797 100.76 40.8897 100.76 42.1897 100.76H48.3297L99.1297 100.77C101.21 100.77 101.62 100.41 101.88 98.39C101.91 98.14 101.94 97.89 101.97 97.64C102.02 97.24 102.06 96.83 102.13 96.43C102.32 95.22 102.43 94.5 101.97 93.96C101.51 93.42 100.74 93.42 99.5797 93.42H38.3297L37.4797 93.43H37.1397L37.1497 93.41ZM68.8397 83.62C58.1897 83.62 47.5397 83.62 36.8997 83.62C36.6597 83.62 36.4297 83.62 36.1897 83.64C35.9997 83.64 35.8197 83.65 35.6397 83.66C35.0297 83.67 34.5697 83.86 34.2697 84.22C33.9697 84.58 33.8697 85.07 33.9697 85.69C34.0497 86.23 34.1297 86.78 34.2097 87.32C34.3797 88.54 34.5597 89.79 34.8097 91.02C34.9797 91.87 36.0197 92.4 36.3297 92.54C36.5597 92.65 36.8297 92.7 37.1597 92.7C37.3097 92.7 37.4697 92.69 37.6197 92.68C37.7397 92.68 37.8597 92.66 37.9797 92.66H68.3497H98.7197H100.06C100.28 92.66 100.49 92.66 100.71 92.66H100.83C102.08 92.66 102.8 92 102.92 90.76C103.02 89.73 103.19 88.69 103.35 87.68L103.44 87.1C103.61 86.02 103.44 85.17 102.92 84.57C102.39 83.95 101.55 83.64 100.4 83.64H68.8297L68.8397 83.62ZM101.67 82.74C101.74 82.74 101.81 82.74 101.88 82.76C102 82.77 102.12 82.78 102.23 82.78C102.5 82.78 102.73 82.72 102.91 82.6C103.42 82.27 104.11 81.83 104.22 81.14C104.71 78.13 105.13 75.07 105.54 72.11L105.73 70.75C105.88 69.71 105.96 69.08 105.59 68.6C105.3 68.22 104.85 68.14 104.54 68.1C104.24 68.07 103.86 68.07 103.38 68.07H68.8497L68.8097 68.03H44.1597C42.2297 68.03 40.3097 68.04 38.3797 68.05C36.8297 68.05 35.2697 68.07 33.7197 68.07C33.4997 68.07 33.2997 68.07 33.1097 68.11C32.6297 68.18 32.2797 68.37 32.0397 68.69C31.7797 69.04 31.6997 69.49 31.7897 70.08C32.0397 71.7 32.2797 73.33 32.5097 74.96C32.7597 76.71 33.0097 78.46 33.2897 80.2C33.6697 82.58 34.0697 82.76 36.3997 82.76C58.1497 82.76 79.9097 82.76 101.67 82.76V82.74ZM32.9697 58.58C32.2997 58.6 31.4797 58.62 30.9997 59.2C30.7097 59.54 30.6097 60 30.6997 60.56C30.7797 61.1 30.8297 61.65 30.8797 62.17C31.0697 64.25 31.2697 66.4 33.5197 67.1C33.9797 67.25 34.5197 67.33 35.1697 67.33H35.3697C37.9097 67.27 40.4597 67.21 42.9997 67.14L52.5697 67.16H56.6197L104.59 67.22L104.98 67.1C105.34 66.86 105.63 66.62 105.87 66.37C106.86 65.34 106.96 63.5 107.05 62.02C107.07 61.62 107.09 61.24 107.13 60.92C107.37 58.94 105.82 58.66 104.89 58.49L104.71 58.47L33.3397 58.57C33.1997 58.57 33.1097 58.57 33.0197 58.57H32.9797L32.9697 58.58ZM24.6197 1.33C23.7097 1.33 23.0897 1.37 22.6897 1.83C22.2597 2.33 22.3597 3.04 22.4697 3.79L22.7997 6.04C23.0997 8.09 23.4097 10.14 23.6997 12.19C24.2097 15.86 24.7197 19.54 25.2297 23.22L26.5897 33.03C27.1897 37.34 27.7797 41.65 28.3997 45.96C28.7097 48.15 29.0497 50.35 29.3897 52.54L29.8197 55.35C29.9597 56.28 30.4197 56.88 31.1897 57.13C31.4097 57.21 31.6797 57.25 32.0097 57.25C33.5897 57.27 35.1597 57.31 36.7297 57.36C38.3997 57.4 40.0697 57.45 41.7297 57.47C42.8197 57.48 43.9097 57.49 44.9997 57.49C45.9597 57.49 51.9597 57.47 51.9597 57.47H55.7497C57.4197 57.47 59.0897 57.47 60.7597 57.45C61.7197 57.44 62.6797 57.39 63.6397 57.35C64.7197 57.3 65.8397 57.25 66.9297 57.25C68.5397 57.25 70.0797 57.31 71.5797 57.36C72.7897 57.4 74.0097 57.44 75.2197 57.46C76.8297 57.48 78.4297 57.49 80.0397 57.49H88.6697C92.1197 57.49 95.5797 57.49 99.0297 57.47C101.45 57.47 103.98 57.42 106.56 57.34C107.08 57.32 107.79 56.79 107.88 56.22C108.06 55.13 108.19 54.03 108.33 52.94L108.86 48.8C109.2 46.14 109.55 43.47 109.92 40.81C110.57 36.21 111.23 31.6 111.89 27C112.29 24.23 112.69 21.46 113.08 18.69C113.37 16.66 113.65 14.62 113.93 12.59C114.32 9.8 114.7 7.01 115.11 4.22C115.29 3.01 115.38 2.36 114.95 1.85C114.51 1.34 113.83 1.34 112.7 1.34C98.0597 1.34 83.4197 1.34 68.7797 1.34H39.3297H24.6097L24.6197 1.33Z" fill="#72726F"/>
<path d="M73.5102 34.03C72.8102 33.64 72.1302 33.19 71.4802 32.69L71.3102 32.56C70.5802 31.99 69.7602 31.34 68.8102 31.34C68.7302 31.34 68.6502 31.34 68.5702 31.35C67.8002 31.44 67.2102 31.93 66.6402 32.41L66.4402 32.58C65.7502 33.14 64.9902 33.63 64.1902 34.04L65.3502 30.65C65.5202 30.16 65.6702 29.68 65.5602 29.19C65.4002 28.41 64.6502 27.91 64.1502 27.58C64.1502 27.58 62.2602 26.34 61.6602 25.95C61.5602 25.88 61.4902 25.81 61.4902 25.77C61.4902 25.77 61.5702 25.75 61.5902 25.75C61.8102 25.7 62.0702 25.68 62.3902 25.68C62.7502 25.68 63.1302 25.71 63.5202 25.74C63.9402 25.77 64.3602 25.8 64.7702 25.8C65.5202 25.8 66.5902 25.7 67.1802 24.88C67.5002 24.44 67.6702 23.92 67.8202 23.45L68.6402 20.93C68.7002 20.74 68.7802 20.66 68.8102 20.66H68.8902C68.8902 20.66 68.9202 20.8 68.9302 20.83C69.2002 21.44 69.4302 22.11 69.6402 22.88L69.6802 23.03C69.9002 23.85 70.1602 24.79 70.9202 25.31C71.4702 25.69 72.1402 25.74 72.7202 25.74C72.8502 25.74 75.8402 25.67 75.8402 25.67C76.0102 25.67 76.1002 25.71 76.1402 25.73V25.79C76.1402 25.79 76.0502 25.87 76.0102 25.9C75.3702 26.39 74.6902 26.87 73.9902 27.33C73.8702 27.41 73.7302 27.49 73.5902 27.57C73.0802 27.87 72.5502 28.18 72.2702 28.74C71.6902 29.89 72.3302 31.29 72.8902 32.52C73.1402 33.06 73.3702 33.58 73.5002 34.04L73.5102 34.03Z" fill="#72726F"/>
<path d="M65.8202 30.7999C65.9802 30.3499 66.1902 29.7399 66.0502 29.0799C65.8502 28.0999 64.9602 27.5099 64.4302 27.1599C64.4302 27.1599 63.2102 26.3599 62.9502 26.1799C63.1302 26.1899 63.3202 26.1999 63.5002 26.2199C63.9302 26.2499 64.3602 26.2799 64.7802 26.2799C65.6402 26.2799 66.8702 26.1599 67.6002 25.1499C67.9602 24.6499 68.1502 24.0799 68.3102 23.5899L68.8502 21.9399C68.9702 22.2699 69.0802 22.6199 69.1802 22.9999L69.2202 23.1499C69.4602 24.0099 69.7502 25.0899 70.6602 25.7099C71.3302 26.1699 72.1202 26.2199 72.7402 26.2199C72.8802 26.2199 74.7802 26.1799 74.7802 26.1799C74.4302 26.4299 74.0802 26.6599 73.7302 26.8899C73.6102 26.9699 73.4802 27.0399 73.3502 27.1199C72.8302 27.4299 72.1802 27.8099 71.8402 28.4899C71.1602 29.8499 71.8402 31.3699 72.4502 32.6999C72.4702 32.7299 72.4802 32.7699 72.5002 32.7999C72.2602 32.6399 72.0302 32.4599 71.8002 32.2799L71.6302 32.1499C70.8402 31.5299 69.9402 30.8199 68.8202 30.8199C68.7202 30.8199 68.6202 30.8199 68.5202 30.8399C67.6102 30.9399 66.9302 31.5099 66.3302 32.0099L66.1302 32.1699C65.8002 32.4399 65.4602 32.6899 65.1002 32.9199L65.8302 30.7899L65.8202 30.7999ZM75.7002 25.5699V25.5099L77.0402 25.8199L75.7002 25.5699Z" fill="#72726F"/>
<path d="M47.4604 39.5799C47.5504 39.2999 47.6504 38.9999 47.5904 38.6799C47.4904 38.1799 47.0104 37.8699 46.7204 37.6799L45.2804 36.7299C45.3904 36.7099 45.5004 36.7099 45.6404 36.7099C45.8504 36.7099 46.0704 36.7299 46.3004 36.7399C46.5704 36.7599 46.8104 36.7799 47.0404 36.7799C47.5004 36.7799 48.1604 36.7199 48.5304 36.1999C48.7104 35.9399 48.8104 35.6599 48.9104 35.3399L49.3904 33.8599C49.3904 33.8599 49.4004 33.8299 49.4104 33.8199C49.5804 34.2199 49.7104 34.5799 49.8304 34.9999C49.9804 35.5599 50.1404 36.1499 50.6104 36.4799C50.9504 36.7099 51.3604 36.7399 51.7104 36.7399C51.7104 36.7399 53.5604 36.6999 53.5704 36.6999C53.1604 37.0199 52.7904 37.2799 52.4104 37.5299C52.3404 37.5799 52.2604 37.6199 52.1904 37.6699C51.8904 37.8499 51.5604 38.0499 51.3804 38.3899C51.0204 39.0999 51.4004 39.9399 51.7404 40.6899C51.8504 40.9299 51.9504 41.1599 52.0304 41.3699C51.6804 41.1699 51.3504 40.9399 51.0404 40.6999L50.9604 40.6399C50.5104 40.2899 50.0104 39.8899 49.4204 39.8899C48.8104 39.9499 48.4204 40.2699 48.1004 40.5399L47.9804 40.6399C47.6304 40.9199 47.2604 41.1699 46.8604 41.3899L47.4804 39.5899L47.4604 39.5799ZM45.2404 36.7399C45.2404 36.7399 45.2504 36.7399 45.2604 36.7399L45.1904 36.9599L45.2404 36.7499V36.7399Z" fill="#72726F"/>
<path d="M47.9298 39.74C48.0298 39.44 48.1698 39.03 48.0698 38.58C47.9298 37.9 47.3398 37.5 47.0098 37.28H47.0298C47.5998 37.28 48.4098 37.2 48.9198 36.5C49.1698 36.16 49.2898 35.78 49.3798 35.5L49.4098 35.41C49.5598 35.95 49.7798 36.53 50.3198 36.9C50.7698 37.21 51.2998 37.25 51.6998 37.25H51.9298C51.5898 37.45 51.1698 37.7 50.9298 38.17C50.6298 38.76 50.7098 39.38 50.8998 39.97C50.4798 39.67 49.9898 39.39 49.4098 39.39C49.3498 39.39 49.2798 39.39 49.2198 39.39C48.6198 39.45 48.1698 39.81 47.8098 40.11L47.9398 39.74H47.9298Z" fill="#72726F"/>
<path d="M87.3598 39.5799C87.4498 39.2999 87.5498 38.9999 87.4898 38.6799C87.3898 38.1799 86.9099 37.8699 86.6199 37.6799L85.1798 36.7299C85.2898 36.7099 85.3998 36.7099 85.5398 36.7099C85.7498 36.7099 85.9698 36.7299 86.1998 36.7399C86.4698 36.7599 86.7098 36.7799 86.9398 36.7799C87.3998 36.7799 88.0498 36.7199 88.4298 36.1999C88.6098 35.9499 88.7098 35.6699 88.8198 35.3399L89.2999 33.8599C89.2999 33.8599 89.3098 33.8299 89.3198 33.8199C89.4898 34.2199 89.6198 34.5799 89.7398 34.9999C89.8898 35.5599 90.0498 36.1499 90.5198 36.4799C90.8598 36.7099 91.2699 36.7399 91.6199 36.7399C91.6199 36.7399 93.4699 36.6999 93.4799 36.6999C93.0699 37.0199 92.6998 37.2799 92.3198 37.5299C92.2498 37.5799 92.1698 37.6199 92.0998 37.6699C91.7998 37.8499 91.4698 38.0499 91.2898 38.3899C90.9298 39.0999 91.3098 39.9399 91.6498 40.6899C91.7598 40.9299 91.8598 41.1599 91.9398 41.3699C91.5898 41.1699 91.2598 40.9399 90.9498 40.6999L90.8699 40.6399C90.4199 40.2899 89.9198 39.8899 89.3298 39.8899C88.7198 39.9499 88.3298 40.2699 88.0098 40.5399L87.8898 40.6399C87.5398 40.9199 87.1698 41.1699 86.7698 41.3899L87.3898 39.5899L87.3598 39.5799ZM85.1398 36.7399C85.1398 36.7399 85.1499 36.7399 85.1599 36.7399L85.0898 36.9599L85.1398 36.7499V36.7399Z" fill="#72726F"/>
<path d="M87.8399 39.74C87.9399 39.44 88.0799 39.03 87.9799 38.58C87.8399 37.9 87.2499 37.5 86.9199 37.28H86.9399C87.5099 37.28 88.3199 37.2 88.8299 36.5C89.0799 36.16 89.1999 35.78 89.2899 35.5L89.3199 35.41C89.4699 35.95 89.6899 36.53 90.2299 36.9C90.6799 37.21 91.2099 37.25 91.6099 37.25H91.8399C91.4999 37.45 91.0799 37.7 90.8399 38.17C90.5399 38.76 90.6199 39.38 90.8099 39.97C90.3899 39.67 89.8999 39.39 89.3199 39.39C89.2599 39.39 89.1899 39.39 89.1299 39.39C88.5299 39.45 88.0799 39.81 87.7199 40.11L87.8499 39.74H87.8399Z" fill="#72726F"/>
</g>
<defs>
<clipPath id="clip0_1102_489">
<rect width="137.59" height="115.26" fill="white"/>
</clipPath>
</defs>
</svg>
