<svg width="27" height="27" viewBox="0 0 27 27" fill="none" xmlns="http://www.w3.org/2000/svg">
<path d="M25.7701 24.97L18.5001 17.7C19.9601 15.91 20.83 13.63 20.83 11.15C20.83 5.42002 16.1801 0.77002 10.4501 0.77002C4.72007 0.77002 0.0700684 5.42002 0.0700684 11.15C0.0700684 16.88 4.72007 21.53 10.4501 21.53C12.9201 21.53 15.1901 20.66 16.9701 19.22L24.2401 26.49C24.4501 26.7 24.7201 26.8 25.0001 26.8C25.2801 26.8 25.5501 26.7 25.7601 26.49C26.1801 26.07 26.1801 25.39 25.7601 24.97H25.7701ZM10.4601 19.37C5.92005 19.37 2.23007 15.68 2.23007 11.14C2.23007 6.60002 5.92005 2.91002 10.4601 2.91002C15.0001 2.91002 18.6901 6.60002 18.6901 11.14C18.6901 15.68 15.0001 19.37 10.4601 19.37Z" fill="#17CA89"/>
</svg>
