<svg width="70" height="95" viewBox="0 0 70 95" fill="none" xmlns="http://www.w3.org/2000/svg">
<path d="M17.7891 92.1992C18.5938 92.1992 19.2852 92.0176 19.8633 91.6543C20.4453 91.291 20.8906 90.7793 21.1992 90.1191C21.5117 89.4551 21.668 88.6738 21.668 87.7754V87.7637C21.668 86.8613 21.5117 86.0801 21.1992 85.4199C20.8867 84.7559 20.4395 84.2441 19.8574 83.8848C19.2793 83.5254 18.5898 83.3457 17.7891 83.3457C16.9922 83.3457 16.3027 83.5254 15.7207 83.8848C15.1426 84.2441 14.6953 84.7539 14.3789 85.4141C14.0664 86.0742 13.9102 86.8574 13.9102 87.7637V87.7754C13.9102 88.6738 14.0645 89.4551 14.373 90.1191C14.6855 90.7832 15.1309 91.2969 15.709 91.6602C16.2871 92.0195 16.9805 92.1992 17.7891 92.1992ZM17.7891 91.2266C17.2031 91.2266 16.7012 91.084 16.2832 90.7988C15.8652 90.5137 15.5449 90.1133 15.3223 89.5977C15.0996 89.0781 14.9883 88.4707 14.9883 87.7754V87.7637C14.9883 87.0605 15.1016 86.4512 15.3281 85.9355C15.5586 85.4199 15.8828 85.0215 16.3008 84.7402C16.7188 84.459 17.2148 84.3184 17.7891 84.3184C18.3672 84.3184 18.8652 84.459 19.2832 84.7402C19.7012 85.0215 20.0234 85.4199 20.25 85.9355C20.4766 86.4512 20.5898 87.0605 20.5898 87.7637V87.7754C20.5898 88.4707 20.4766 89.0781 20.25 89.5977C20.0234 90.1133 19.7012 90.5137 19.2832 90.7988C18.8652 91.084 18.3672 91.2266 17.7891 91.2266ZM25.4824 92.1113C25.791 92.1113 26.0664 92.0703 26.3086 91.9883C26.5547 91.9062 26.7656 91.7871 26.9414 91.6309C27.1172 91.4707 27.2559 91.2793 27.3574 91.0566H27.4512V92H28.4707V85.6836H27.4512V89.4219C27.4512 89.6992 27.4141 89.9492 27.3398 90.1719C27.2695 90.3906 27.1621 90.5781 27.0176 90.7344C26.873 90.8867 26.6934 91.0039 26.4785 91.0859C26.2676 91.168 26.0234 91.209 25.7461 91.209C25.2422 91.209 24.8789 91.0703 24.6562 90.793C24.4375 90.5156 24.3281 90.0938 24.3281 89.5273V85.6836H23.3086V89.7734C23.3086 90.2695 23.3887 90.6934 23.5488 91.0449C23.7129 91.3926 23.957 91.6582 24.2812 91.8418C24.6055 92.0215 25.0059 92.1113 25.4824 92.1113ZM32.6191 92.0469C32.7207 92.0469 32.8203 92.041 32.918 92.0293C33.0156 92.0176 33.1133 92.0039 33.2109 91.9883V91.1211C33.1172 91.1289 33.0371 91.1348 32.9707 91.1387C32.9082 91.1426 32.832 91.1445 32.7422 91.1445C32.4141 91.1445 32.1797 91.0645 32.0391 90.9043C31.8984 90.7402 31.8281 90.4727 31.8281 90.1016V86.5273H33.2109V85.6836H31.8281V84.0488H30.7734V85.6836H29.7773V86.5273H30.7734V90.3594C30.7734 90.9609 30.918 91.3926 31.207 91.6543C31.5 91.916 31.9707 92.0469 32.6191 92.0469ZM36.9844 92.1113C37.2773 92.1113 37.5488 92.0664 37.7988 91.9766C38.0488 91.8867 38.2715 91.7598 38.4668 91.5957C38.6621 91.4277 38.8242 91.2266 38.9531 90.9922H39.0469V92H40.0664V83.1758H39.0469V86.6797H38.9531C38.8398 86.4531 38.6836 86.2578 38.4844 86.0938C38.2852 85.9297 38.0566 85.8027 37.7988 85.7129C37.5449 85.6191 37.2734 85.5723 36.9844 85.5723C36.4492 85.5723 35.9824 85.707 35.584 85.9766C35.1895 86.2461 34.8828 86.625 34.6641 87.1133C34.4453 87.6016 34.3359 88.1758 34.3359 88.8359V88.8477C34.3359 89.5039 34.4453 90.0781 34.6641 90.5703C34.8828 91.0586 35.1914 91.4375 35.5898 91.707C35.9883 91.9766 36.4531 92.1113 36.9844 92.1113ZM37.2188 91.209C36.8359 91.209 36.5059 91.1152 36.2285 90.9277C35.9551 90.7363 35.7441 90.4648 35.5957 90.1133C35.4512 89.7578 35.3789 89.3359 35.3789 88.8477V88.8359C35.3789 88.3438 35.4512 87.9219 35.5957 87.5703C35.7441 87.2188 35.9551 86.9492 36.2285 86.7617C36.5059 86.5703 36.8359 86.4746 37.2188 86.4746C37.6016 86.4746 37.9316 86.5703 38.209 86.7617C38.4863 86.9531 38.6992 87.2246 38.8477 87.5762C38.9961 87.9277 39.0703 88.3477 39.0703 88.8359V88.8477C39.0703 89.332 38.9961 89.752 38.8477 90.1074C38.6992 90.459 38.4863 90.7305 38.209 90.9219C37.9316 91.1133 37.6016 91.209 37.2188 91.209ZM44.6191 92.1113C45.2207 92.1113 45.7383 91.9805 46.1719 91.7188C46.6055 91.4531 46.9395 91.0762 47.1738 90.5879C47.4121 90.0996 47.5312 89.5195 47.5312 88.8477V88.8359C47.5312 88.1602 47.4121 87.5781 47.1738 87.0898C46.9395 86.6016 46.6055 86.2266 46.1719 85.9648C45.7383 85.7031 45.2207 85.5723 44.6191 85.5723C44.0215 85.5723 43.5039 85.7031 43.0664 85.9648C42.6328 86.2266 42.2969 86.6016 42.0586 87.0898C41.8242 87.5781 41.707 88.1602 41.707 88.8359V88.8477C41.707 89.5195 41.8242 90.0996 42.0586 90.5879C42.2969 91.0762 42.6328 91.4531 43.0664 91.7188C43.5039 91.9805 44.0215 92.1113 44.6191 92.1113ZM44.6191 91.209C44.2207 91.209 43.8828 91.1152 43.6055 90.9277C43.3281 90.7402 43.1152 90.4707 42.9668 90.1191C42.8223 89.7676 42.75 89.3438 42.75 88.8477V88.8359C42.75 88.3359 42.8223 87.9102 42.9668 87.5586C43.1152 87.207 43.3281 86.9395 43.6055 86.7559C43.8828 86.5684 44.2207 86.4746 44.6191 86.4746C45.0176 86.4746 45.3555 86.5684 45.6328 86.7559C45.9102 86.9395 46.1211 87.207 46.2656 87.5586C46.4141 87.9102 46.4883 88.3359 46.4883 88.8359V88.8477C46.4883 89.3438 46.4141 89.7676 46.2656 90.1191C46.1211 90.4707 45.9102 90.7402 45.6328 90.9277C45.3555 91.1152 45.0176 91.209 44.6191 91.209ZM51.709 92.1113C52.3105 92.1113 52.8281 91.9805 53.2617 91.7188C53.6953 91.4531 54.0293 91.0762 54.2637 90.5879C54.502 90.0996 54.6211 89.5195 54.6211 88.8477V88.8359C54.6211 88.1602 54.502 87.5781 54.2637 87.0898C54.0293 86.6016 53.6953 86.2266 53.2617 85.9648C52.8281 85.7031 52.3105 85.5723 51.709 85.5723C51.1113 85.5723 50.5938 85.7031 50.1562 85.9648C49.7227 86.2266 49.3867 86.6016 49.1484 87.0898C48.9141 87.5781 48.7969 88.1602 48.7969 88.8359V88.8477C48.7969 89.5195 48.9141 90.0996 49.1484 90.5879C49.3867 91.0762 49.7227 91.4531 50.1562 91.7188C50.5938 91.9805 51.1113 92.1113 51.709 92.1113ZM51.709 91.209C51.3105 91.209 50.9727 91.1152 50.6953 90.9277C50.418 90.7402 50.2051 90.4707 50.0566 90.1191C49.9121 89.7676 49.8398 89.3438 49.8398 88.8477V88.8359C49.8398 88.3359 49.9121 87.9102 50.0566 87.5586C50.2051 87.207 50.418 86.9395 50.6953 86.7559C50.9727 86.5684 51.3105 86.4746 51.709 86.4746C52.1074 86.4746 52.4453 86.5684 52.7227 86.7559C53 86.9395 53.2109 87.207 53.3555 87.5586C53.5039 87.9102 53.5781 88.3359 53.5781 88.8359V88.8477C53.5781 89.3438 53.5039 89.7676 53.3555 90.1191C53.2109 90.4707 53 90.7402 52.7227 90.9277C52.4453 91.1152 52.1074 91.209 51.709 91.209ZM56.2031 92H57.2227V88.0859C57.2227 87.7773 57.293 87.5078 57.4336 87.2773C57.5781 87.0469 57.7754 86.8672 58.0254 86.7383C58.2754 86.6094 58.5625 86.5449 58.8867 86.5449C59 86.5449 59.1055 86.5508 59.2031 86.5625C59.3047 86.5703 59.4082 86.584 59.5137 86.6035V85.6133C59.4629 85.6055 59.3887 85.5977 59.291 85.5898C59.1973 85.5781 59.1016 85.5723 59.0039 85.5723C58.5781 85.5723 58.2207 85.6641 57.9316 85.8477C57.6426 86.0312 57.4375 86.2891 57.3164 86.6211H57.2227V85.6836H56.2031V92Z" fill="#72726F"/>
<path d="M34.62 69.04C53.464 69.04 68.74 53.764 68.74 34.92C68.74 16.0761 53.464 0.800049 34.62 0.800049C15.776 0.800049 0.5 16.0761 0.5 34.92C0.5 53.764 15.776 69.04 34.62 69.04Z" stroke="#72726F" stroke-miterlimit="10"/>
<path d="M53.6799 27.6301L44.7899 21.3701C44.5099 21.1701 44.1199 21.2401 43.9199 21.5201C43.7199 21.8001 43.7899 22.1901 44.0699 22.3901L52.1199 28.0601H16.7899L34.6599 15.7701L40.7399 20.0501C41.0199 20.2501 41.4099 20.1801 41.6099 19.9001C41.8099 19.6201 41.7399 19.2301 41.4599 19.0301L35.1999 14.6201C34.8799 14.4001 34.4599 14.4001 34.1399 14.6201L15.2199 27.6201C14.8799 27.8501 14.7399 28.2701 14.8599 28.6601C14.9799 29.0501 15.3399 29.3101 15.7399 29.3101H33.6099C33.8399 29.3101 34.0299 29.5001 34.0299 29.7301V54.7401C34.0299 55.0801 34.3099 55.3601 34.6499 55.3601C34.9899 55.3601 35.2699 55.0801 35.2699 54.7401V29.7001C35.2699 29.4801 35.4499 29.3101 35.6599 29.3101H53.1199C53.5299 29.3101 53.8799 29.0501 53.9999 28.6601C54.1199 28.2701 53.9799 27.8601 53.6499 27.6201L53.6799 27.6301Z" fill="#72726F"/>
<path d="M28.7999 45.4701C28.6399 44.7201 28.1199 44.2901 27.3799 44.1501C27.0899 44.0901 26.7799 44.0901 26.4799 44.1001C24.2299 44.1201 21.9799 44.1401 19.7199 44.1901C19.3299 44.2001 19.1799 44.0701 19.0699 43.7101C18.2499 41.1201 17.3999 38.5301 16.5599 35.9401C16.2599 35.0201 15.6999 34.7501 14.7799 35.0901C14.5499 35.1701 14.3299 35.2401 14.1099 35.3301C13.1899 35.6901 12.9199 36.2701 13.2299 37.2101C13.5299 38.1401 13.8199 39.0701 14.1199 40.0001C14.2499 40.4301 14.3899 40.8601 14.5399 41.2901C14.6599 41.5201 14.9299 41.6301 15.1699 41.5501H15.2099C15.4499 41.4501 15.5999 41.2001 15.5599 40.9501C15.4599 40.6501 15.3599 40.3501 15.2699 40.0601L15.1699 39.7801C14.8599 38.8201 14.5499 37.8601 14.2399 36.9101C14.1299 36.5701 14.1999 36.4001 14.5199 36.3001C14.8099 36.2101 15.0899 36.1101 15.4599 35.9801C15.8099 37.0801 16.1599 38.1201 16.4999 39.1701C17.0899 40.9901 17.6799 42.8101 18.2499 44.6401C18.3999 45.1001 18.6399 45.2701 19.1199 45.2601C21.6899 45.2101 24.2599 45.1901 26.8299 45.1601C27.4299 45.1501 27.7399 45.3701 27.7899 45.8201C27.8499 46.3401 27.7199 46.4801 27.1899 46.4901C24.3399 46.5201 21.4799 46.5401 18.6299 46.5601C17.3499 46.5701 17.3499 46.5601 16.9599 45.3401C16.9499 45.3001 16.9299 45.2501 16.9199 45.2101C16.7499 44.6901 16.5899 44.1701 16.4199 43.6501C16.2799 43.5001 16.0699 43.4401 15.8699 43.5101L15.8099 43.5301C15.6099 43.5901 15.4799 43.7701 15.4599 43.9701C15.6199 44.4401 15.7699 44.9001 15.8899 45.3701C16.4199 47.2501 16.6499 49.1601 16.4999 51.1501C16.4499 51.7401 16.4999 52.3301 16.4999 52.9201V54.8301C16.4999 55.1701 16.6799 55.3901 17.0099 55.4001C17.3499 55.4101 17.5299 55.2001 17.5599 54.8601C17.5699 54.6801 17.5599 54.4901 17.5599 54.3101V52.7501H26.8799C26.8799 53.4701 26.8799 54.1401 26.8799 54.8101C26.8799 55.1701 27.0599 55.4001 27.4199 55.4001C27.7599 55.4001 27.9199 55.1701 27.9399 54.8401C27.9399 54.7201 27.9399 54.6001 27.9399 54.4901C27.9399 52.3001 27.9399 50.1201 27.9399 47.9301C27.9399 47.7401 28.0099 47.4701 28.1499 47.3801C28.8699 46.9001 28.9699 46.2201 28.7999 45.4701ZM26.8399 51.6301H17.5799V47.6801H26.8399V51.6301Z" fill="#72726F"/>
<path d="M55.1399 35.3301C54.9199 35.2401 54.6999 35.1701 54.4699 35.0901C53.5499 34.7501 52.9899 35.0201 52.6899 35.9401C51.8499 38.5301 50.9999 41.1201 50.1799 43.7101C50.0699 44.0701 49.9199 44.2001 49.5299 44.1901C49.2799 44.1801 49.0199 44.1801 48.7699 44.1801C48.4099 44.1701 48.0599 44.1601 47.7099 44.1601H47.6899C47.4399 44.2101 47.2599 44.4301 47.2599 44.6901C47.2599 44.9501 47.4399 45.1701 47.6899 45.2201H47.7199C47.8799 45.2201 48.0399 45.2201 48.2099 45.2201C48.8499 45.2301 49.4899 45.2401 50.1299 45.2501C50.6099 45.2601 50.8499 45.0901 50.9999 44.6301C51.5699 42.8001 52.1599 40.9801 52.7499 39.1601C53.0899 38.1101 53.4399 37.0701 53.7899 35.9701C54.1599 36.1001 54.4399 36.2001 54.7299 36.2901C55.0499 36.3901 55.1199 36.5601 55.0099 36.9001C54.6999 37.8501 54.3899 38.8101 54.0799 39.7701L53.9799 40.0501C53.8899 40.3401 53.7899 40.6401 53.6899 40.9401V40.9601L52.5999 44.3401C52.5099 44.6301 52.4199 44.9101 52.3299 45.2001C52.3199 45.2401 52.2999 45.2901 52.2899 45.3301C51.8999 46.5501 51.8999 46.5601 50.6199 46.5501C47.7699 46.5301 44.9099 46.5101 42.0599 46.4801C41.5299 46.4701 41.3999 46.3301 41.4599 45.8101C41.5099 45.3601 41.8199 45.1401 42.4199 45.1501C43.0199 45.1601 43.6099 45.1601 44.2099 45.1701C44.5299 45.1701 44.8599 45.1801 45.1899 45.1801H45.1999C45.4999 45.1701 45.7299 44.9401 45.7299 44.6401C45.7299 44.3801 45.5499 44.1701 45.3099 44.1101H45.2999C44.9299 44.1101 44.5699 44.1101 44.2099 44.1001C43.7299 44.1001 43.2499 44.0901 42.7699 44.0901C42.4699 44.0801 42.1599 44.0801 41.8699 44.1401C41.1299 44.2801 40.6099 44.7101 40.4499 45.4601C40.2799 46.2101 40.3799 46.8901 41.0999 47.3701C41.2399 47.4601 41.3099 47.7301 41.3099 47.9201C41.3199 50.1101 41.3199 52.2901 41.3199 54.4801C41.3199 54.5901 41.3099 54.7101 41.3199 54.8301C41.3399 55.1601 41.4999 55.3901 41.8399 55.3901C42.1999 55.3901 42.3799 55.1601 42.3799 54.8001C42.3699 54.1301 42.3799 53.4601 42.3799 52.7401H51.6999V54.3001C51.6999 54.4801 51.6899 54.6701 51.6999 54.8501C51.7299 55.1901 51.9099 55.4001 52.2499 55.3901C52.5799 55.3801 52.7599 55.1601 52.7599 54.8201V52.9101C52.7599 52.3201 52.7999 51.7301 52.7499 51.1401C52.5999 49.1501 52.8299 47.2401 53.3599 45.3601C53.4299 45.0801 53.5199 44.8101 53.6099 44.5301L54.6999 41.2901H54.7099C54.7499 41.1501 54.7899 41.0201 54.8399 40.8901L55.0199 40.3201C55.0499 40.2101 55.0899 40.1001 55.1299 39.9901C55.4299 39.0601 55.7199 38.1301 56.0199 37.2001C56.3299 36.2601 56.0599 35.6801 55.1399 35.3201V35.3301ZM51.6699 51.6301H42.4099V47.6801H51.6699V51.6301Z" fill="#72726F"/>
</svg>
