<svg width="22" height="22" viewBox="0 0 22 22" fill="none" xmlns="http://www.w3.org/2000/svg">
<g clip-path="url(#clip0_830_939)">
<path d="M6.6 6.59994L11 10.9999L15.4 15.3999M6.6 15.3999L15.4 6.59994M11 21.2666C9.65177 21.2666 8.31673 21.0011 7.07112 20.4851C5.82551 19.9692 4.69372 19.2129 3.74037 18.2596C2.78703 17.3062 2.03079 16.1744 1.51484 14.9288C0.998893 13.6832 0.733337 12.3482 0.733337 10.9999C0.733337 9.6517 0.998893 8.31667 1.51484 7.07106C2.03079 5.82545 2.78703 4.69366 3.74037 3.74031C4.69372 2.78696 5.82551 2.03073 7.07112 1.51478C8.31673 0.998831 9.65177 0.733276 11 0.733276C13.7229 0.733276 16.3343 1.81494 18.2596 3.74031C20.185 5.66569 21.2667 8.27705 21.2667 10.9999C21.2667 13.7228 20.185 16.3342 18.2596 18.2596C16.3343 20.1849 13.7229 21.2666 11 21.2666Z" stroke="#222222" stroke-linecap="round"/>
</g>
<defs>
<clipPath id="clip0_830_939">
<rect width="22" height="22" fill="white"/>
</clipPath>
</defs>
</svg>
