<svg width="32" height="32" viewBox="0 0 32 32" fill="none" xmlns="http://www.w3.org/2000/svg">
<path d="M27.0638 4.03922H23.4681V2.76471C23.4681 2.56189 23.3807 2.36739 23.225 2.22398C23.0694 2.08057 22.8584 2 22.6383 2C22.4182 2 22.2072 2.08057 22.0515 2.22398C21.8959 2.36739 21.8085 2.56189 21.8085 2.76471V4.03922H10.1915V2.76471C10.1915 2.56189 10.1041 2.36739 9.94845 2.22398C9.79283 2.08057 9.58178 2 9.3617 2C9.14163 2 8.93057 2.08057 8.77495 2.22398C8.61934 2.36739 8.53191 2.56189 8.53191 2.76471V4.03922H4.93617C4.42267 4.03922 3.93019 4.22721 3.56709 4.56183C3.20399 4.89645 3 5.3503 3 5.82353V26.2157C3 26.6889 3.20399 27.1428 3.56709 27.4774C3.93019 27.812 4.42267 28 4.93617 28H27.0638C27.5773 28 28.0698 27.812 28.4329 27.4774C28.796 27.1428 29 26.6889 29 26.2157V5.82353C29 5.3503 28.796 4.89645 28.4329 4.56183C28.0698 4.22721 27.5773 4.03922 27.0638 4.03922ZM4.93617 5.56863H8.53191V6.84314C8.53191 7.04595 8.61934 7.24046 8.77495 7.38387C8.93057 7.52728 9.14163 7.60784 9.3617 7.60784C9.58178 7.60784 9.79283 7.52728 9.94845 7.38387C10.1041 7.24046 10.1915 7.04595 10.1915 6.84314V5.56863H21.8085V6.84314C21.8085 7.04595 21.8959 7.24046 22.0515 7.38387C22.2072 7.52728 22.4182 7.60784 22.6383 7.60784C22.8584 7.60784 23.0694 7.52728 23.225 7.38387C23.3807 7.24046 23.4681 7.04595 23.4681 6.84314V5.56863H27.0638C27.1372 5.56863 27.2075 5.59548 27.2594 5.64329C27.3113 5.69109 27.3404 5.75593 27.3404 5.82353V10.1569H4.65957V5.82353C4.65957 5.75593 4.68872 5.69109 4.74059 5.64329C4.79246 5.59548 4.86281 5.56863 4.93617 5.56863ZM27.0638 26.4706H4.93617C4.86281 26.4706 4.79246 26.4437 4.74059 26.3959C4.68872 26.3481 4.65957 26.2833 4.65957 26.2157V11.6863H27.3404V26.2157C27.3404 26.2833 27.3113 26.3481 27.2594 26.3959C27.2075 26.4437 27.1372 26.4706 27.0638 26.4706Z" fill="#17CA89"/>
</svg>
