<svg width="25" height="23" viewBox="0 0 25 23" fill="none" xmlns="http://www.w3.org/2000/svg">
<path d="M9.63013 22.1599C10.1824 22.1599 10.6301 21.7122 10.6301 21.1599C10.6301 20.6076 10.1824 20.1599 9.63013 20.1599C9.07784 20.1599 8.63013 20.6076 8.63013 21.1599C8.63013 21.7122 9.07784 22.1599 9.63013 22.1599Z" stroke="#72726F" stroke-width="1.5" stroke-miterlimit="10" stroke-linecap="round"/>
<path d="M20.6301 22.1599C21.1824 22.1599 21.6301 21.7122 21.6301 21.1599C21.6301 20.6076 21.1824 20.1599 20.6301 20.1599C20.0778 20.1599 19.6301 20.6076 19.6301 21.1599C19.6301 21.7122 20.0778 22.1599 20.6301 22.1599Z" stroke="#72726F" stroke-width="1.5" stroke-miterlimit="10" stroke-linecap="round"/>
<path d="M1.63013 1.15991H5.39012C5.53012 1.15991 5.65011 1.25996 5.68011 1.39996L8.31012 14.5499C8.50012 15.4999 9.34012 16.1799 10.3101 16.1599H20.0301C21.0001 16.1799 21.8401 15.4999 22.0301 14.5499L23.5601 6.52997C23.6001 6.33997 23.4501 6.15991 23.2501 6.15991H6.63013" stroke="#72726F" stroke-width="1.5" stroke-miterlimit="10" stroke-linecap="round"/>
</svg>
