<svg width="30" height="20" viewBox="0 0 30 20" fill="none" xmlns="http://www.w3.org/2000/svg">
<path d="M7.12012 2.2998H28.4501" stroke="#72726F" stroke-width="2" stroke-miterlimit="10" stroke-linecap="round"/>
<path d="M7.12012 9.92993H28.4501" stroke="#72726F" stroke-width="2" stroke-miterlimit="10" stroke-linecap="round"/>
<path d="M7.12012 17.5601H17.7901" stroke="#72726F" stroke-width="2" stroke-miterlimit="10" stroke-linecap="round"/>
<path d="M2.44009 3.89996C3.32375 3.89996 4.0401 3.18358 4.0401 2.29993C4.0401 1.41627 3.32375 0.699951 2.44009 0.699951C1.55644 0.699951 0.840088 1.41627 0.840088 2.29993C0.840088 3.18358 1.55644 3.89996 2.44009 3.89996Z" fill="#72726F"/>
<path d="M2.44009 11.5301C3.32375 11.5301 4.0401 10.8137 4.0401 9.93005C4.0401 9.0464 3.32375 8.33008 2.44009 8.33008C1.55644 8.33008 0.840088 9.0464 0.840088 9.93005C0.840088 10.8137 1.55644 11.5301 2.44009 11.5301Z" fill="#72726F"/>
<path d="M2.44009 19.1599C3.32375 19.1599 4.0401 18.4436 4.0401 17.5599C4.0401 16.6763 3.32375 15.96 2.44009 15.96C1.55644 15.96 0.840088 16.6763 0.840088 17.5599C0.840088 18.4436 1.55644 19.1599 2.44009 19.1599Z" fill="#72726F"/>
</svg>
