<svg width="31" height="30" viewBox="0 0 31 30" fill="none" xmlns="http://www.w3.org/2000/svg">
<path d="M15.73 29.1599C23.462 29.1599 29.73 22.8919 29.73 15.1599C29.73 7.42793 23.462 1.15991 15.73 1.15991C7.99799 1.15991 1.72998 7.42793 1.72998 15.1599C1.72998 22.8919 7.99799 29.1599 15.73 29.1599Z" stroke="#72726F" stroke-width="1.5" stroke-miterlimit="10"/>
<path d="M16.1299 8.15991H15.8799C15.4657 8.15991 15.1299 8.4957 15.1299 8.90991V21.1799C15.1299 21.5941 15.4657 21.9299 15.8799 21.9299H16.1299C16.5441 21.9299 16.8799 21.5941 16.8799 21.1799V8.90991C16.8799 8.4957 16.5441 8.15991 16.1299 8.15991Z" fill="#72726F"/>
<path d="M22.8799 15.1699V14.9199C22.8799 14.5057 22.5441 14.1699 22.1299 14.1699H9.85986C9.44565 14.1699 9.10986 14.5057 9.10986 14.9199V15.1699C9.10986 15.5841 9.44565 15.9199 9.85986 15.9199H22.1299C22.5441 15.9199 22.8799 15.5841 22.8799 15.1699Z" fill="#72726F"/>
</svg>
