<svg width="31" height="22" viewBox="0 0 31 22" fill="none" xmlns="http://www.w3.org/2000/svg">
<path d="M15.53 4.26012C14.72 5.39012 13.9501 6.4701 13.1701 7.5501C12.8401 8.0101 12.52 8.48008 12.15 8.91008C11.53 9.64008 10.71 9.8201 9.81004 9.6201C7.39004 9.0701 4.98005 8.50011 2.57005 7.94011C1.22005 7.62011 0.630037 6.46011 1.18004 5.19011C1.64004 4.11011 2.11003 3.03012 2.58003 1.95012C2.94003 1.14012 3.48005 0.810134 4.35005 0.900134C6.41005 1.13013 8.46005 1.3801 10.5101 1.6201C12.1601 1.8101 13.8 2.0401 15.46 2.1801C16.07 2.2301 16.69 2.07011 17.31 2.00011C19.41 1.76011 21.5 1.51013 23.6 1.27013C24.59 1.15013 25.5801 1.05009 26.5701 0.920092C27.5501 0.790092 28.14 1.10011 28.53 2.00011C28.98 3.04011 29.43 4.0801 29.88 5.1201C30.45 6.4401 29.92 7.58009 28.53 7.92009C26.1 8.51009 23.6701 9.08011 21.2301 9.63011C20.1701 9.87011 19.3101 9.51011 18.6701 8.63011C17.7101 7.30011 16.76 5.97012 15.81 4.64012C15.73 4.53012 15.6501 4.42013 15.5401 4.27013L15.53 4.26012ZM14.15 3.56011C14.05 3.54011 14 3.53013 13.94 3.52013C12.2 3.31013 10.46 3.11013 8.72005 2.90013C7.27005 2.73013 5.82004 2.56012 4.37004 2.39012C4.18004 2.37012 4.02006 2.35014 3.92006 2.59014C3.48006 3.66014 3.02005 4.71014 2.57005 5.78014C2.38005 6.22014 2.47006 6.3801 2.95006 6.4901C5.32006 7.0401 7.69004 7.59012 10.06 8.14012C10.66 8.28012 10.85 8.21012 11.21 7.70012C12.13 6.41012 13.05 5.12013 13.97 3.83013C14.03 3.75013 14.08 3.6601 14.15 3.5501V3.56011ZM16.91 3.5501C16.96 3.6401 16.97 3.68013 16.99 3.71013C17.97 5.08013 18.9401 6.44011 19.9201 7.81011C20.1801 8.18011 20.51 8.27009 20.94 8.17009C23.32 7.61009 25.7 7.06011 28.08 6.50011C28.61 6.38011 28.6901 6.23009 28.4801 5.73009C28.0501 4.72009 27.61 3.71011 27.19 2.69011C27.08 2.43011 26.95 2.36012 26.68 2.39012C24.38 2.67012 22.07 2.94013 19.77 3.21013C18.83 3.32013 17.9001 3.43009 16.9201 3.54009L16.91 3.5501Z" fill="#72726F"/>
<path d="M3.42993 9.36022C3.90993 9.49022 4.34994 9.60023 4.77994 9.75023C4.85994 9.78023 4.91993 9.96024 4.92993 10.0702C4.92993 12.1102 4.92993 14.1502 4.92993 16.1902C4.92993 16.9602 5.02993 17.1003 5.76993 17.2803C8.64993 18.0003 11.54 18.7202 14.42 19.4402C14.53 19.4702 14.6399 19.4903 14.7899 19.5203V19.1202C14.7899 15.6102 14.7899 12.1003 14.7899 8.59026C14.7899 8.29026 14.8099 8.00022 15.0799 7.80022C15.5199 7.46022 16.1099 7.66025 16.2399 8.20025C16.2699 8.34025 16.2799 8.49025 16.2799 8.64025C16.2799 12.1302 16.2799 15.6202 16.2799 19.1102V19.5102C16.3799 19.5002 16.4599 19.4902 16.5399 19.4702C19.5099 18.7302 22.4699 17.9902 25.4399 17.2502C25.9799 17.1202 26.14 16.9003 26.14 16.3303C26.14 14.2603 26.14 12.1902 26.14 10.1202C26.14 9.86023 26.2199 9.75025 26.4699 9.70025C26.8599 9.61025 27.2399 9.49024 27.6499 9.38024C27.6499 9.53024 27.6499 9.65024 27.6499 9.76024C27.6499 11.9302 27.6499 14.0902 27.6499 16.2602C27.6499 17.6002 27.0499 18.3902 25.7499 18.7202C22.5699 19.5202 19.3899 20.3102 16.2199 21.1002C15.7699 21.2102 15.3299 21.2202 14.8799 21.1002C11.6799 20.3002 8.47995 19.5002 5.28995 18.7002C4.07995 18.3902 3.44995 17.5803 3.44995 16.3303C3.44995 14.1203 3.44995 11.9203 3.44995 9.71026C3.44995 9.62026 3.44995 9.52024 3.44995 9.38024L3.42993 9.36022Z" fill="#72726F"/>
</svg>
