<svg width="428" height="284" viewBox="0 0 428 284" fill="none" xmlns="http://www.w3.org/2000/svg">
<path d="M280.09 116.54H279.59V112.12H280.09V116.54ZM280.09 106.12H279.59V100.12H280.09V106.12ZM280.09 94.12H279.59V88.12H280.09V94.12ZM280.09 82.12H279.59V76.12H280.09V82.12ZM280.09 70.12H279.59V64.12H280.09V70.12ZM280.09 58.12H279.59V52.12H280.09V58.12ZM280.09 46.12H279.59V40.12H280.09V46.12Z" fill="#1E1E1E"/>
<path d="M103.59 168.68H103.09V164.26H103.59V168.68ZM103.59 158.26H103.09V152.26H103.59V158.26ZM103.59 146.26H103.09V140.26H103.59V146.26ZM103.59 134.26H103.09V128.26H103.59V134.26ZM103.59 122.26H103.09V116.26H103.59V122.26ZM103.59 110.26H103.09V104.26H103.59V110.26ZM103.59 98.26H103.09V92.26H103.59V98.26Z" fill="#1E1E1E"/>
<path d="M627.2 283.65C619.75 283.65 612.48 282.73 605.6 280.93C595.23 278.2 585.87 273.5 577.8 266.96C566.02 257.42 557.98 244.84 550.89 233.73C542.86 221.16 535.92 210.3 526.43 207.21C515.72 203.72 502.35 210.27 486.87 217.85C471.57 225.34 454.24 233.83 435.04 233.83C431.43 233.83 427.81 233.52 424.27 232.92C409.81 230.45 396.4 222.69 385.49 210.47C376.75 200.69 369.72 188.23 365.15 174.45C361.26 162.7 359.07 150.98 356.96 139.64C355 129.12 353.15 119.19 350.1 109.97C340.37 80.54 316.18 55.78 287 45.34C257.81 34.91 223.41 38.74 197.23 55.33C184.94 63.12 174.05 73.62 162.52 84.74C153.6 93.33 144.39 102.22 134.06 110.24C119.74 121.36 103.93 129.35 88.3299 133.36C68.7999 138.37 50.0099 136.91 33.9799 129.14C26.6199 125.58 20.3899 120.94 14.8799 116.85C9.03992 112.51 3.98993 108.76 -0.850075 107.24C-1.63007 106.99 -3.14008 107.18 -4.58008 107.7C-3.98008 116.51 -9.35007 124.64 -17.7301 127.54C-27.9401 131.07 -39.1201 125.64 -42.6601 115.43C-46.7701 103.56 -43.7601 90.85 -34.6201 81.45C-23.2801 69.78 -4.57008 65.01 10.8799 69.86C22.0399 73.36 30.6499 79.76 38.2499 85.41C42.7699 88.77 47.0299 91.93 51.0499 93.88C58.7399 97.61 67.9999 98.12 78.5799 95.41C88.8799 92.77 100.04 87.05 110 79.31C118.67 72.58 126.74 64.79 135.29 56.55C147.74 44.55 160.59 32.16 176.23 22.24C194.11 10.91 214.99 3.65001 236.63 1.24001C258.27 -1.16999 280.24 1.32001 300.17 8.45001C320.1 15.57 338.68 27.57 353.89 43.15C369.1 58.73 380.65 77.58 387.3 97.67C391.18 109.41 393.37 121.13 395.48 132.46C397.44 142.98 399.29 152.92 402.35 162.14C406.76 175.48 416.88 191.9 430.86 194.29C441.97 196.19 455.4 189.61 469.61 182.65C479.26 177.92 489.24 173.04 499.95 170C513.91 166.04 526.53 166.02 538.55 169.94C561.37 177.37 573.34 196.09 583.89 212.61C589.92 222.04 595.61 230.95 602.46 236.5C611.93 244.18 623.71 244.95 631.92 244.25C643.72 243.24 656.16 238.46 666.03 231.15C687.67 215.11 702.34 188.82 716.53 163.4L717 162.55C732 135.66 747.36 109.93 770.27 90.72C773.78 87.77 777.46 85 781.21 82.48C802.9 67.91 830.02 60.89 857.57 62.71C885.12 64.54 911.07 75.07 930.66 92.38C938.31 99.14 945.4 107.03 952.97 117.21H953.15L959 125.62C961.71 129.53 964.36 133.48 966.92 137.31C969.58 141.28 972.05 144.98 974.62 148.66C983.36 161.22 993.22 170.71 1002.58 179.09C1012.84 188.27 1025.85 188.86 1034.97 187.75C1046.16 186.38 1057.85 181.69 1067.04 174.88C1088.7 158.84 1103.37 132.53 1117.56 107.1L1118.02 106.29C1131.93 81.36 1150.98 47.22 1182.23 26.22C1203.93 11.64 1231.06 4.62001 1258.6 6.45001C1286.15 8.28001 1312.11 18.82 1331.69 36.13C1346.83 49.51 1357.6 65.6 1368.02 81.15C1370.64 85.06 1373.11 88.75 1375.66 92.41C1394.07 118.89 1406.64 126.36 1415.53 129.92C1427.64 134.76 1444.83 132.99 1451.12 122.64C1456.73 113.41 1468.81 110.46 1478.04 116.08C1487.27 121.69 1490.22 133.77 1484.6 143C1476.41 156.47 1462.64 166 1445.83 169.83C1431.02 173.21 1415.09 171.96 1400.97 166.31C1374.36 155.67 1356.27 133.18 1343.47 114.78C1340.75 110.86 1338.08 106.89 1335.51 103.04L1335.45 102.96C1326 88.84 1317.07 75.52 1305.72 65.49C1292.6 53.89 1274.94 46.81 1256 45.55C1237.06 44.3 1218.62 48.98 1204.08 58.74C1182.39 73.31 1167.77 97.54 1152.24 125.37L1151.79 126.18C1135.58 155.24 1118.82 185.29 1090.38 206.36C1078.16 215.42 1063.82 221.9 1048.93 225.11L1047.01 225.9H1045.54C1031.89 229.19 1016.89 228.46 1003.39 223.84L1002.32 223.8L999.23 222.29C991.84 219.53 985 215.65 978.94 210.76L978.13 210.16C962.45 198.4 950.83 183.07 942.45 171.03C939.7 167.08 937.02 163.07 934.42 159.19C932.19 155.86 929.9 152.44 927.62 149.14L926.81 147.98C920.85 139.4 913.56 129.57 904.7 121.74C891.58 110.14 873.92 103.06 854.98 101.81C836.04 100.56 817.6 105.24 803.06 115C800.47 116.74 797.92 118.66 795.47 120.72C777.63 135.68 764.87 157.15 751.22 181.62L750.75 182.47C734.54 211.52 717.78 241.56 689.36 262.62C673.59 274.3 654.38 281.64 635.27 283.28C632.56 283.51 629.84 283.63 627.18 283.63L627.2 283.65ZM520.04 205.5C522.34 205.5 524.54 205.81 526.66 206.5C536.4 209.67 543.41 220.63 551.52 233.32C558.59 244.38 566.59 256.9 578.27 266.37C586.26 272.85 595.52 277.5 605.79 280.2C615.03 282.63 624.99 283.43 635.22 282.55C654.2 280.92 673.27 273.64 688.93 262.04C717.22 241.08 733.94 211.11 750.11 182.13L750.58 181.28C764.27 156.74 777.06 135.21 795 120.17C797.47 118.09 800.05 116.15 802.66 114.4C817.34 104.54 835.94 99.81 855.05 101.08C874.16 102.35 891.98 109.49 905.22 121.2C914.14 129.08 921.46 138.96 927.45 147.58L928.26 148.74C930.54 152.05 932.83 155.47 935.05 158.78C937.66 162.68 940.34 166.68 943.09 170.63C951.43 182.63 963.01 197.9 978.6 209.59L979.42 210.2C985.42 215.05 992.19 218.89 999.54 221.63L1002.59 223.11L1003.6 223.13C1016.99 227.72 1031.87 228.45 1045.48 225.18H1046.96L1048.73 224.42C1063.59 221.21 1077.83 214.77 1089.96 205.78C1118.27 184.81 1134.99 154.83 1151.16 125.84L1151.62 125.03C1167.2 97.11 1181.87 72.81 1203.7 58.14C1218.38 48.28 1236.98 43.55 1256.09 44.82C1275.2 46.09 1293.02 53.23 1306.26 64.94C1317.68 75.03 1326.63 88.4 1336.11 102.55L1336.17 102.64C1338.74 106.48 1341.4 110.45 1344.12 114.37C1356.85 132.69 1374.86 155.07 1401.28 165.63C1415.26 171.22 1431.03 172.46 1445.7 169.11C1462.31 165.32 1475.91 155.91 1484 142.62C1489.4 133.74 1486.57 122.13 1477.69 116.73C1468.81 111.33 1457.2 114.16 1451.8 123.04C1445.31 133.72 1427.68 135.59 1415.29 130.63C1406.3 127.03 1393.6 119.49 1375.08 92.85C1372.53 89.18 1370.06 85.49 1367.44 81.59C1357.04 66.06 1346.3 50.02 1331.23 36.7C1311.77 19.5 1285.97 9.01999 1258.59 7.20999C1231.21 5.39999 1204.25 12.37 1182.69 26.85C1151.59 47.75 1132.59 81.8 1118.72 106.66L1118.27 107.47C1104.04 132.98 1089.33 159.35 1067.54 175.49C1048.96 189.26 1019.72 195.4 1002.13 179.66C992.74 171.25 982.83 161.73 974.05 149.1C971.48 145.41 969.01 141.71 966.39 137.8C963.79 133.91 961.14 129.96 958.43 126.06L952.8 117.97H952.63L952.52 117.82C944.94 107.61 937.85 99.71 930.2 92.95C910.74 75.75 884.95 65.28 857.56 63.46C830.18 61.64 803.22 68.62 781.66 83.1C777.93 85.6 774.28 88.36 770.79 91.29C747.97 110.42 732.65 136.08 717.69 162.91L717.22 163.76C702.99 189.26 688.28 215.62 666.51 231.75C656.53 239.14 643.96 243.97 632.02 244.99C623.67 245.7 611.69 244.91 602.02 237.08C595.08 231.46 589.36 222.5 583.3 213.02C572.81 196.6 560.92 178 538.35 170.65C526.48 166.79 514 166.81 500.19 170.72C489.54 173.74 479.6 178.61 469.98 183.32C455.65 190.34 442.11 196.97 430.77 195.03C416.46 192.58 406.15 175.91 401.68 162.38C398.61 153.1 396.75 143.14 394.79 132.6C392.68 121.29 390.5 109.6 386.63 97.91C380.02 77.92 368.53 59.17 353.4 43.67C338.27 28.17 319.79 16.24 299.97 9.14999C280.15 2.06999 258.29 -0.410004 236.77 1.98C215.24 4.38 194.47 11.6 176.69 22.87C161.11 32.74 148.28 45.11 135.88 57.07C127.3 65.34 119.21 73.13 110.52 79.89C100.47 87.69 89.2199 93.46 78.8199 96.12C68.0599 98.88 58.6299 98.35 50.7699 94.54C46.6799 92.56 42.3899 89.37 37.8499 86C30.2899 80.38 21.7299 74.02 10.6899 70.56C-4.50008 65.79 -22.9001 70.48 -34.0501 81.96C-42.9901 91.16 -45.9301 103.58 -41.9101 115.18C-38.5101 125 -27.7601 130.22 -17.9401 126.83C-9.80007 124.01 -4.61008 116.06 -5.31008 107.48L-5.33008 107.2L-5.07008 107.1C-3.67007 106.56 -1.74008 106.17 -0.590076 106.53C4.36992 108.09 9.46992 111.87 15.3599 116.26C20.8399 120.33 27.0499 124.95 34.3399 128.48C50.2099 136.17 68.8299 137.61 88.1799 132.65C103.68 128.67 119.4 120.73 133.64 109.67C143.93 101.67 153.14 92.8 162.04 84.22C173.6 73.07 184.52 62.55 196.87 54.72C223.24 38.01 257.88 34.15 287.29 44.66C316.69 55.17 341.05 80.11 350.85 109.76C353.92 119.03 355.77 128.98 357.74 139.51C359.85 150.84 362.03 162.53 365.91 174.24C370.44 187.93 377.42 200.29 386.09 210C396.89 222.08 410.15 229.76 424.44 232.21C427.93 232.81 431.51 233.11 435.08 233.11C454.1 233.11 471.36 224.66 486.58 217.2C499.2 211.02 510.43 205.52 520.08 205.52L520.04 205.5Z" fill="#1E1E1E"/>
<path d="M627.22 268.12C623.8 268.12 620.41 267.88 617.16 267.39C616.89 267.35 616.7 267.1 616.74 266.82C616.78 266.54 617.03 266.36 617.31 266.4C622.06 267.1 627.08 267.29 632.16 266.95C632.43 266.95 632.67 267.14 632.69 267.42C632.71 267.7 632.5 267.93 632.22 267.95C630.55 268.06 628.86 268.12 627.21 268.12H627.22ZM646.98 265.55C646.76 265.55 646.55 265.4 646.5 265.17C646.43 264.9 646.59 264.63 646.86 264.56C651.63 263.34 656.36 261.69 660.93 259.65C661.18 259.54 661.48 259.65 661.59 259.9C661.7 260.15 661.59 260.45 661.34 260.56C656.72 262.62 651.94 264.29 647.11 265.52C647.07 265.53 647.03 265.54 646.99 265.54L646.98 265.55ZM602.82 263.39C602.75 263.39 602.69 263.38 602.62 263.35C597.98 261.38 593.67 258.8 589.82 255.68L589.69 255.57C589.48 255.4 589.44 255.08 589.62 254.87C589.79 254.66 590.11 254.62 590.32 254.8L590.45 254.9C594.23 257.96 598.46 260.5 603.01 262.43C603.26 262.54 603.38 262.83 603.28 263.09C603.2 263.28 603.01 263.39 602.82 263.39ZM674.26 253.39C674.1 253.39 673.94 253.31 673.84 253.17C673.69 252.94 673.75 252.63 673.98 252.48C675.14 251.7 676.3 250.89 677.41 250.07C680.22 247.99 683.02 245.7 685.71 243.28C685.92 243.09 686.23 243.11 686.42 243.32C686.6 243.53 686.59 243.84 686.38 244.03C683.66 246.47 680.84 248.78 678 250.88C676.87 251.72 675.7 252.54 674.53 253.32C674.44 253.38 674.35 253.4 674.25 253.4L674.26 253.39ZM579.6 244.94C579.45 244.94 579.31 244.88 579.21 244.75C575.83 240.51 572.78 235.96 570.5 232.47C570.35 232.24 570.41 231.93 570.65 231.78C570.88 231.63 571.19 231.69 571.34 231.93C573.6 235.4 576.63 239.93 579.99 244.13C580.16 244.35 580.13 244.66 579.91 244.83C579.82 244.9 579.71 244.94 579.6 244.94ZM696.61 233.5C696.49 233.5 696.37 233.46 696.28 233.37C696.07 233.19 696.06 232.87 696.24 232.66C699.39 229.12 702.55 225.22 705.65 221.05C705.82 220.83 706.13 220.78 706.35 220.95C706.57 221.11 706.62 221.43 706.45 221.65C703.33 225.84 700.15 229.77 696.98 233.33C696.88 233.44 696.74 233.5 696.61 233.5ZM562.79 220.09C562.63 220.09 562.47 220.01 562.37 219.87C559 214.79 556.28 211.07 553.53 207.84C553.35 207.63 553.38 207.31 553.59 207.13C553.8 206.95 554.12 206.98 554.3 207.19C557.08 210.46 559.83 214.2 563.22 219.32C563.37 219.55 563.31 219.86 563.08 220.01C563 220.07 562.9 220.09 562.8 220.09H562.79ZM429.63 217.97C429.63 217.97 429.59 217.97 429.57 217.97C428.88 217.89 428.19 217.79 427.5 217.67C423.25 216.94 419.1 215.55 415.15 213.52C414.9 213.39 414.81 213.09 414.93 212.85C415.06 212.61 415.36 212.51 415.6 212.63C419.46 214.61 423.52 215.98 427.66 216.69C428.33 216.81 429.01 216.9 429.68 216.98C429.95 217.01 430.15 217.26 430.12 217.54C430.09 217.79 429.87 217.98 429.62 217.98L429.63 217.97ZM444.55 217.37C444.31 217.37 444.1 217.2 444.06 216.96C444.01 216.69 444.19 216.43 444.46 216.38C448.86 215.56 453.53 214.18 458.73 212.16C458.99 212.06 459.28 212.19 459.38 212.45C459.48 212.71 459.35 213 459.09 213.1C453.83 215.14 449.1 216.53 444.64 217.37C444.61 217.37 444.58 217.37 444.55 217.37ZM1028.21 212.42C1027.11 212.42 1026 212.39 1024.9 212.33C1024.62 212.31 1024.41 212.08 1024.43 211.8C1024.45 211.52 1024.66 211.3 1024.96 211.33C1029.99 211.62 1035 211.24 1039.74 210.22C1040.01 210.16 1040.28 210.33 1040.33 210.6C1040.38 210.87 1040.22 211.14 1039.95 211.19C1036.16 212 1032.21 212.42 1028.21 212.42ZM1010.23 209.54C1010.18 209.54 1010.12 209.54 1010.07 209.51C1009.05 209.17 1008.04 208.8 1007.06 208.41C1006.96 208.37 1006.85 208.33 1006.74 208.28C1003.25 206.87 999.78 205.12 996.42 203.09C996.18 202.95 996.11 202.64 996.25 202.4C996.39 202.16 996.7 202.09 996.94 202.23C1000.25 204.24 1003.67 205.96 1007.11 207.35C1007.23 207.4 1007.32 207.44 1007.42 207.48C1008.39 207.87 1009.38 208.23 1010.38 208.56C1010.64 208.65 1010.78 208.93 1010.7 209.19C1010.63 209.4 1010.43 209.53 1010.23 209.53V209.54ZM714.58 209.51C714.49 209.51 714.39 209.48 714.31 209.43C714.08 209.28 714.01 208.97 714.16 208.74C716.67 204.87 719.23 200.7 722.01 195.99C722.15 195.75 722.46 195.67 722.69 195.81C722.93 195.95 723.01 196.26 722.87 196.49C720.08 201.22 717.51 205.4 714.99 209.28C714.89 209.43 714.73 209.51 714.57 209.51H714.58ZM472.62 207.06C472.43 207.06 472.26 206.96 472.17 206.78C472.05 206.53 472.16 206.23 472.4 206.11C474.27 205.21 476.14 204.29 478.01 203.38C480.65 202.09 483.28 200.8 485.91 199.56C486.16 199.44 486.46 199.55 486.58 199.8C486.7 200.05 486.59 200.35 486.34 200.47C483.71 201.71 481.08 203 478.45 204.29C476.58 205.21 474.71 206.12 472.83 207.02C472.76 207.05 472.69 207.07 472.61 207.07L472.62 207.06ZM403.28 204.79C403.16 204.79 403.03 204.74 402.93 204.65C399.47 201.31 396.25 197.39 393.35 193C393.2 192.77 393.26 192.46 393.49 192.31C393.72 192.16 394.03 192.22 394.18 192.45C397.04 196.78 400.21 200.65 403.62 203.93C403.82 204.12 403.82 204.44 403.63 204.64C403.53 204.74 403.4 204.79 403.27 204.79H403.28ZM542.95 197.84C542.85 197.84 542.75 197.81 542.67 197.75C539.38 195.48 536.01 193.8 532.35 192.61C531.33 192.28 530.28 191.98 529.24 191.74C528.97 191.68 528.8 191.41 528.87 191.14C528.93 190.87 529.2 190.71 529.47 190.77C530.54 191.02 531.61 191.32 532.66 191.66C536.41 192.88 539.87 194.6 543.24 196.92C543.47 197.08 543.52 197.39 543.37 197.62C543.27 197.76 543.12 197.84 542.96 197.84H542.95ZM499.94 194.66C499.73 194.66 499.54 194.53 499.47 194.33C499.38 194.07 499.51 193.78 499.77 193.69C505.09 191.79 509.87 190.6 514.4 190.05C514.67 190.01 514.92 190.21 514.96 190.49C514.99 190.76 514.8 191.01 514.52 191.05C510.07 191.59 505.36 192.76 500.11 194.64C500.05 194.66 500 194.67 499.94 194.67V194.66ZM984.61 194.3C984.49 194.3 984.38 194.26 984.28 194.18C980.72 191.09 977.12 187.52 973.59 183.58C973.41 183.37 973.42 183.06 973.63 182.87C973.84 182.68 974.15 182.7 974.34 182.91C977.84 186.82 981.41 190.36 984.94 193.42C985.15 193.6 985.17 193.92 984.99 194.13C984.89 194.24 984.75 194.3 984.61 194.3ZM729.9 183.73C729.82 183.73 729.73 183.71 729.66 183.67C729.42 183.53 729.33 183.23 729.47 182.99C730.8 180.63 732.11 178.27 733.43 175.92L733.7 175.43C734.73 173.59 735.76 171.75 736.8 169.9C736.94 169.66 737.24 169.57 737.48 169.71C737.72 169.85 737.81 170.15 737.67 170.39C736.63 172.23 735.6 174.08 734.57 175.91L734.3 176.4C732.99 178.75 731.67 181.12 730.34 183.48C730.25 183.64 730.08 183.74 729.9 183.74V183.73ZM386.68 180.02C386.49 180.02 386.3 179.91 386.22 179.72C385.14 177.22 384.15 174.63 383.29 172.03C382.6 169.95 381.94 167.75 381.31 165.49C381.24 165.22 381.39 164.95 381.66 164.87C381.93 164.8 382.2 164.95 382.28 165.22C382.9 167.47 383.56 169.66 384.24 171.72C385.09 174.3 386.07 176.86 387.14 179.33C387.25 179.58 387.14 179.88 386.88 179.99C386.82 180.02 386.75 180.03 386.68 180.03V180.02ZM964.48 172.13C964.33 172.13 964.18 172.06 964.08 171.93C962.16 169.39 960.22 166.7 958.15 163.72C957.22 162.38 956.3 161.04 955.38 159.69C955.22 159.46 955.28 159.15 955.51 159C955.74 158.84 956.05 158.9 956.2 159.13C957.12 160.48 958.04 161.82 958.97 163.16C961.04 166.13 962.97 168.81 964.88 171.34C965.05 171.56 965 171.87 964.78 172.04C964.69 172.11 964.58 172.14 964.48 172.14V172.13ZM744.74 157.66C744.65 157.66 744.56 157.64 744.48 157.59C744.24 157.45 744.17 157.14 744.31 156.9C747.1 152.23 749.71 148.07 752.29 144.17C752.44 143.94 752.75 143.88 752.98 144.03C753.21 144.18 753.27 144.49 753.12 144.72C750.55 148.6 747.95 152.75 745.16 157.41C745.07 157.57 744.9 157.65 744.73 157.65L744.74 157.66ZM378.38 151.25C378.15 151.25 377.94 151.09 377.89 150.85C377.14 147.14 376.43 143.35 375.75 139.69L375.08 136.11C375.03 135.84 375.21 135.58 375.48 135.53C375.75 135.48 376.01 135.66 376.06 135.93L376.73 139.51C377.41 143.17 378.12 146.95 378.87 150.66C378.92 150.93 378.75 151.19 378.48 151.25C378.45 151.25 378.41 151.25 378.38 151.25ZM947.42 147.45C947.26 147.45 947.1 147.37 947 147.23C945.57 145.1 944.12 142.98 942.66 140.87L942.51 140.66C941.07 138.59 939.74 136.71 938.44 134.93C938.28 134.71 938.33 134.39 938.55 134.23C938.77 134.07 939.09 134.12 939.25 134.34C940.51 136.07 941.8 137.88 943.18 139.87L943.33 140.08C944.84 142.26 946.34 144.45 947.82 146.66C947.97 146.89 947.91 147.2 947.68 147.35C947.59 147.41 947.5 147.44 947.4 147.44L947.42 147.45ZM761.38 132.71C761.27 132.71 761.17 132.68 761.08 132.61C760.86 132.44 760.82 132.13 760.99 131.91C764.16 127.76 767.4 123.88 770.64 120.37C770.83 120.17 771.14 120.15 771.35 120.34C771.55 120.53 771.57 120.84 771.38 121.05C768.17 124.54 764.94 128.4 761.79 132.52C761.69 132.65 761.54 132.72 761.39 132.72L761.38 132.71ZM929.6 123.34C929.46 123.34 929.32 123.28 929.22 123.16C925.76 119.12 922.39 115.59 918.89 112.38C918.69 112.19 918.67 111.88 918.86 111.67C919.05 111.47 919.36 111.45 919.57 111.64C923.09 114.88 926.5 118.44 929.98 122.51C930.16 122.72 930.13 123.04 929.92 123.21C929.83 123.29 929.71 123.33 929.6 123.33V123.34ZM372.56 121.82C372.33 121.82 372.13 121.66 372.07 121.43C370.88 116.27 369.63 111.73 368.24 107.55L368.07 107.03C367.98 106.77 368.12 106.48 368.38 106.4C368.64 106.31 368.93 106.45 369.01 106.71L369.19 107.24C370.58 111.45 371.84 116.01 373.04 121.21C373.1 121.48 372.93 121.75 372.66 121.81C372.62 121.81 372.58 121.82 372.55 121.82H372.56ZM59.7899 120.46C59.7899 120.46 59.7499 120.46 59.7399 120.46C54.6199 119.92 49.6999 118.68 45.0999 116.79C44.8499 116.68 44.7199 116.39 44.8299 116.14C44.9399 115.89 45.2299 115.77 45.4799 115.87C49.9899 117.73 54.8199 118.94 59.8399 119.47C60.1099 119.5 60.3099 119.74 60.2799 120.02C60.2499 120.28 60.0399 120.47 59.7799 120.47L59.7899 120.46ZM74.7499 120.18C74.4999 120.18 74.2899 120 74.2499 119.75C74.2099 119.48 74.4099 119.22 74.6799 119.19C79.3899 118.55 84.2599 117.4 89.1699 115.77C89.4299 115.69 89.7099 115.82 89.7999 116.09C89.8899 116.35 89.7499 116.64 89.4799 116.72C84.5199 118.37 79.5799 119.54 74.8099 120.18C74.7899 120.18 74.7599 120.18 74.7399 120.18H74.7499ZM-24.1101 113.1C-24.3201 113.1 -24.5101 112.97 -24.5801 112.76C-25.0801 111.3 -25.3401 109.82 -25.3401 108.37C-25.3401 104.86 -23.8501 101.43 -21.0401 98.47C-20.8501 98.27 -20.5301 98.26 -20.3301 98.45C-20.1301 98.64 -20.1201 98.96 -20.3101 99.16C-22.9501 101.93 -24.3401 105.11 -24.3401 108.37C-24.3401 109.71 -24.1001 111.08 -23.6301 112.43C-23.5401 112.69 -23.6801 112.98 -23.9401 113.07C-23.9901 113.09 -24.0501 113.1 -24.1001 113.1H-24.1101ZM103.14 110.92C102.96 110.92 102.78 110.82 102.69 110.65C102.56 110.4 102.66 110.1 102.91 109.98C107.26 107.77 111.57 105.2 115.74 102.35C115.97 102.19 116.28 102.25 116.43 102.48C116.59 102.71 116.53 103.02 116.3 103.17C112.1 106.04 107.74 108.63 103.36 110.87C103.29 110.91 103.21 110.92 103.13 110.92H103.14ZM781.77 110.77C781.63 110.77 781.49 110.71 781.39 110.6C781.21 110.39 781.23 110.08 781.44 109.89C781.82 109.57 782.19 109.24 782.57 108.93C785.57 106.41 788.7 104.05 791.89 101.91C792.42 101.55 792.95 101.2 793.49 100.86C793.72 100.71 794.03 100.78 794.18 101.01C794.33 101.24 794.26 101.55 794.03 101.7C793.5 102.04 792.97 102.39 792.45 102.74C789.29 104.86 786.19 107.2 783.22 109.69C782.84 110.01 782.47 110.32 782.1 110.65C782.01 110.73 781.89 110.77 781.77 110.77ZM32.3099 109.39C32.2099 109.39 32.1099 109.36 32.0199 109.3C30.0899 107.94 28.1599 106.5 26.2899 105.11C24.2099 103.56 22.0499 101.96 19.8999 100.47C19.6699 100.31 19.6199 100 19.7699 99.77C19.9299 99.54 20.2399 99.49 20.4699 99.64C22.6299 101.14 24.7999 102.75 26.8899 104.3C28.7499 105.68 30.6799 107.12 32.5999 108.47C32.8299 108.63 32.8799 108.94 32.7199 109.17C32.6199 109.31 32.4699 109.38 32.3099 109.38V109.39ZM907.46 103.28C907.36 103.28 907.27 103.25 907.18 103.2C903.09 100.48 898.71 98.04 894.16 95.93C893.91 95.81 893.8 95.52 893.92 95.27C894.04 95.02 894.33 94.91 894.58 95.03C899.17 97.16 903.59 99.63 907.73 102.37C907.96 102.52 908.02 102.83 907.87 103.06C907.77 103.21 907.62 103.28 907.45 103.28H907.46ZM806.98 94.72C806.79 94.72 806.6 94.61 806.52 94.42C806.41 94.17 806.52 93.87 806.78 93.76C811.33 91.77 816.11 90.09 820.99 88.78C821.25 88.71 821.53 88.87 821.6 89.13C821.67 89.4 821.51 89.67 821.25 89.74C816.42 91.04 811.68 92.7 807.18 94.67C807.11 94.7 807.05 94.71 806.98 94.71V94.72ZM127.92 94.12C127.78 94.12 127.64 94.06 127.54 93.94C127.36 93.73 127.39 93.41 127.6 93.24C131.04 90.34 134.59 87.17 138.76 83.26C138.96 83.07 139.28 83.08 139.47 83.28C139.66 83.48 139.65 83.8 139.45 83.99C135.26 87.91 131.7 91.09 128.25 94C128.16 94.08 128.04 94.12 127.93 94.12H127.92ZM362.89 93.51C362.7 93.51 362.53 93.41 362.44 93.23C360.29 88.79 357.82 84.41 355.11 80.22C354.96 79.99 355.03 79.68 355.26 79.53C355.49 79.38 355.8 79.45 355.95 79.68C358.68 83.9 361.17 88.32 363.34 92.79C363.46 93.04 363.36 93.34 363.11 93.46C363.04 93.49 362.97 93.51 362.89 93.51ZM7.08991 93.34C7.02991 93.34 6.96991 93.33 6.90991 93.31C6.23991 93.06 5.56991 92.83 4.88991 92.61C2.84991 91.97 0.639914 91.65 -1.69009 91.65C-3.61009 91.65 -5.57009 91.87 -7.53009 92.31C-7.80009 92.37 -8.07009 92.2 -8.13009 91.93C-8.19009 91.66 -8.02009 91.39 -7.75009 91.33C-5.72009 90.88 -3.69009 90.65 -1.69009 90.65C0.739914 90.65 3.05991 90.99 5.18991 91.66C5.88991 91.88 6.57991 92.12 7.25991 92.37C7.51991 92.47 7.64991 92.76 7.54991 93.01C7.46991 93.21 7.27991 93.33 7.07991 93.33L7.08991 93.34ZM880.36 90.67C880.36 90.67 880.26 90.67 880.22 90.65C875.49 89.24 870.59 88.13 865.66 87.38C865.39 87.34 865.2 87.08 865.24 86.81C865.28 86.54 865.54 86.35 865.81 86.39C870.78 87.15 875.73 88.26 880.5 89.69C880.76 89.77 880.92 90.05 880.84 90.31C880.78 90.53 880.58 90.67 880.36 90.67ZM835.83 86.91C835.58 86.91 835.37 86.72 835.33 86.47C835.3 86.2 835.49 85.95 835.77 85.91C840.13 85.38 844.58 85.11 849.01 85.11H849.02C849.62 85.11 850.21 85.11 850.81 85.12C851.09 85.12 851.31 85.35 851.3 85.63C851.29 85.91 851.07 86.12 850.79 86.12C850.2 86.12 849.61 86.11 849.02 86.11H849.01C844.63 86.11 840.22 86.38 835.89 86.9C835.87 86.9 835.85 86.9 835.83 86.9V86.91ZM149.94 73.77C149.81 73.77 149.68 73.72 149.58 73.62C149.39 73.42 149.39 73.1 149.59 72.91C153.24 69.39 156.83 65.95 160.48 62.58C160.68 62.39 161 62.41 161.19 62.61C161.38 62.81 161.36 63.13 161.16 63.32C157.51 66.68 153.94 70.12 150.29 73.64C150.19 73.73 150.07 73.78 149.94 73.78V73.77ZM346.64 68.38C346.5 68.38 346.35 68.32 346.26 68.2C343.09 64.39 339.65 60.72 336.05 57.31C335.85 57.12 335.84 56.8 336.03 56.6C336.22 56.4 336.54 56.39 336.74 56.58C340.37 60.02 343.84 63.72 347.04 67.56C347.22 67.77 347.19 68.09 346.98 68.26C346.89 68.34 346.77 68.38 346.66 68.38H346.64ZM172.11 53.56C171.96 53.56 171.82 53.5 171.72 53.38C171.54 53.17 171.58 52.85 171.79 52.68C175.96 49.27 179.9 46.32 183.84 43.68C184.07 43.53 184.38 43.59 184.53 43.82C184.68 44.05 184.62 44.36 184.39 44.51C180.47 47.13 176.56 50.05 172.41 53.45C172.32 53.53 172.2 53.56 172.09 53.56H172.11ZM324.9 47.8C324.8 47.8 324.69 47.77 324.6 47.7C320.6 44.73 316.39 41.98 312.1 39.53C311.86 39.39 311.78 39.09 311.91 38.85C312.05 38.61 312.35 38.53 312.59 38.66C316.92 41.12 321.16 43.89 325.19 46.89C325.41 47.06 325.46 47.37 325.29 47.59C325.19 47.72 325.04 47.79 324.89 47.79L324.9 47.8ZM197.07 37.05C196.89 37.05 196.71 36.95 196.62 36.77C196.5 36.52 196.6 36.22 196.84 36.1C201.29 33.88 205.95 31.9 210.69 30.22C210.95 30.13 211.24 30.26 211.33 30.52C211.42 30.78 211.29 31.07 211.03 31.16C206.32 32.83 201.7 34.79 197.29 36.99C197.22 37.03 197.14 37.04 197.07 37.04V37.05ZM298.88 33.01C298.82 33.01 298.75 33 298.69 32.97C296.96 32.26 295.19 31.58 293.44 30.95C290.54 29.91 287.55 28.98 284.56 28.17C284.29 28.1 284.14 27.82 284.21 27.56C284.28 27.29 284.56 27.14 284.82 27.21C287.84 28.02 290.86 28.97 293.78 30.01C295.55 30.64 297.33 31.33 299.07 32.05C299.33 32.16 299.45 32.45 299.34 32.7C299.26 32.89 299.07 33.01 298.88 33.01ZM225.27 27.06C225.04 27.06 224.83 26.9 224.78 26.67C224.72 26.4 224.89 26.13 225.16 26.07C230.03 24.98 235.03 24.17 240.02 23.67C240.3 23.65 240.54 23.84 240.57 24.12C240.6 24.4 240.4 24.64 240.12 24.67C235.18 25.17 230.22 25.97 225.38 27.05C225.34 27.05 225.31 27.06 225.27 27.06ZM269.99 25.21C269.99 25.21 269.94 25.21 269.92 25.21C265.02 24.53 260.02 24.14 255.03 24.05C254.75 24.05 254.53 23.82 254.54 23.54C254.54 23.26 254.8 23.05 255.05 23.05C260.07 23.14 265.12 23.53 270.06 24.22C270.33 24.26 270.52 24.51 270.49 24.78C270.46 25.03 270.24 25.21 270 25.21H269.99Z" fill="white"/>
<path d="M246.128 173.79H251.688V172.762H247.271V164.63H246.128V173.79ZM255.872 173.911C256.523 173.911 257.084 173.769 257.554 173.485C258.023 173.198 258.385 172.789 258.639 172.26C258.897 171.731 259.026 171.103 259.026 170.375V170.362C259.026 169.63 258.897 169 258.639 168.471C258.385 167.942 258.023 167.535 257.554 167.252C257.084 166.968 256.523 166.827 255.872 166.827C255.224 166.827 254.663 166.968 254.189 167.252C253.72 167.535 253.356 167.942 253.098 168.471C252.844 169 252.717 169.63 252.717 170.362V170.375C252.717 171.103 252.844 171.731 253.098 172.26C253.356 172.789 253.72 173.198 254.189 173.485C254.663 173.769 255.224 173.911 255.872 173.911ZM255.872 172.933C255.44 172.933 255.074 172.832 254.773 172.628C254.473 172.425 254.242 172.133 254.082 171.752C253.925 171.372 253.847 170.912 253.847 170.375V170.362C253.847 169.821 253.925 169.359 254.082 168.979C254.242 168.598 254.473 168.308 254.773 168.109C255.074 167.906 255.44 167.804 255.872 167.804C256.303 167.804 256.669 167.906 256.97 168.109C257.27 168.308 257.499 168.598 257.655 168.979C257.816 169.359 257.896 169.821 257.896 170.362V170.375C257.896 170.912 257.816 171.372 257.655 171.752C257.499 172.133 257.27 172.425 256.97 172.628C256.669 172.832 256.303 172.933 255.872 172.933ZM263.54 173.911C264.09 173.911 264.559 173.82 264.949 173.638C265.338 173.456 265.651 173.206 265.888 172.889C266.125 172.567 266.29 172.201 266.383 171.791L266.396 171.721L265.304 171.727L265.292 171.765C265.165 172.146 264.955 172.436 264.663 172.635C264.371 172.834 263.994 172.933 263.533 172.933C263.127 172.933 262.774 172.827 262.473 172.616C262.173 172.404 261.94 172.106 261.775 171.721C261.61 171.331 261.527 170.874 261.527 170.35V170.337C261.527 169.821 261.608 169.374 261.769 168.998C261.934 168.617 262.166 168.323 262.467 168.115C262.767 167.908 263.123 167.804 263.533 167.804C264.024 167.804 264.42 167.923 264.72 168.16C265.021 168.397 265.213 168.684 265.298 169.023L265.304 169.042H266.402L266.396 169.004C266.328 168.598 266.174 168.232 265.933 167.906C265.691 167.576 265.37 167.313 264.968 167.119C264.566 166.924 264.088 166.827 263.533 166.827C262.894 166.827 262.34 166.973 261.87 167.265C261.4 167.552 261.036 167.959 260.778 168.483C260.524 169.008 260.397 169.626 260.397 170.337V170.35C260.397 171.073 260.527 171.702 260.785 172.235C261.043 172.768 261.407 173.181 261.876 173.473C262.346 173.765 262.901 173.911 263.54 173.911ZM269.894 173.911C270.202 173.911 270.486 173.868 270.744 173.784C271.002 173.695 271.233 173.566 271.436 173.396C271.643 173.227 271.819 173.022 271.963 172.781H272.064V173.79H273.169V169.105C273.169 168.632 273.067 168.225 272.864 167.887C272.665 167.544 272.371 167.282 271.982 167.1C271.597 166.918 271.125 166.827 270.566 166.827C270.08 166.827 269.646 166.903 269.265 167.055C268.884 167.203 268.573 167.413 268.332 167.684C268.095 167.95 267.947 168.263 267.888 168.623L267.881 168.661H268.986L268.992 168.642C269.081 168.375 269.257 168.17 269.519 168.026C269.781 167.878 270.118 167.804 270.528 167.804C271.04 167.804 271.423 167.916 271.677 168.141C271.935 168.361 272.064 168.682 272.064 169.105V171.238C272.064 171.564 271.98 171.856 271.811 172.114C271.646 172.372 271.417 172.578 271.125 172.73C270.833 172.878 270.499 172.952 270.122 172.952C269.724 172.952 269.394 172.857 269.132 172.667C268.869 172.472 268.738 172.201 268.738 171.854V171.841C268.738 171.503 268.857 171.24 269.094 171.054C269.335 170.868 269.716 170.76 270.236 170.73L272.617 170.578V169.696L270.103 169.848C269.574 169.878 269.123 169.975 268.751 170.14C268.379 170.305 268.095 170.534 267.9 170.826C267.706 171.113 267.608 171.46 267.608 171.867V171.879C267.608 172.294 267.708 172.654 267.907 172.958C268.11 173.263 268.383 173.498 268.726 173.663C269.073 173.828 269.462 173.911 269.894 173.911ZM277.619 173.841C277.729 173.841 277.837 173.834 277.942 173.822C278.048 173.809 278.154 173.794 278.26 173.777V172.838C278.158 172.846 278.071 172.853 278 172.857C277.932 172.861 277.849 172.863 277.752 172.863C277.396 172.863 277.143 172.777 276.99 172.603C276.838 172.425 276.762 172.135 276.762 171.733V167.861H278.26V166.947H276.762V165.176H275.619V166.947H274.54V167.861H275.619V172.013C275.619 172.664 275.776 173.132 276.089 173.416C276.406 173.699 276.916 173.841 277.619 173.841ZM282.614 173.911C283.016 173.911 283.378 173.86 283.7 173.758C284.026 173.653 284.307 173.513 284.544 173.339C284.781 173.162 284.973 172.965 285.122 172.749C285.274 172.529 285.38 172.303 285.439 172.07L285.452 172.019H284.347L284.322 172.076C284.263 172.212 284.159 172.345 284.011 172.476C283.863 172.607 283.674 172.715 283.446 172.8C283.217 172.884 282.949 172.927 282.64 172.927C282.225 172.927 281.865 172.836 281.561 172.654C281.256 172.468 281.021 172.203 280.856 171.86C280.691 171.513 280.608 171.097 280.608 170.61V170.172C280.608 169.66 280.693 169.228 280.862 168.877C281.032 168.526 281.26 168.261 281.548 168.083C281.84 167.902 282.17 167.811 282.538 167.811C282.906 167.811 283.232 167.897 283.516 168.071C283.799 168.24 284.021 168.498 284.182 168.845C284.343 169.192 284.423 169.634 284.423 170.172V170.61L284.969 169.804H280.05V170.686H285.534V170.254C285.534 169.573 285.414 168.976 285.172 168.464C284.935 167.948 284.593 167.546 284.144 167.258C283.7 166.971 283.167 166.827 282.544 166.827C281.927 166.827 281.387 166.977 280.926 167.277C280.465 167.578 280.107 167.995 279.853 168.528C279.603 169.061 279.479 169.681 279.479 170.388V170.394C279.479 171.109 279.603 171.731 279.853 172.26C280.107 172.785 280.467 173.191 280.932 173.479C281.402 173.767 281.963 173.911 282.614 173.911ZM291.044 173.79H292.187V164.63H291.044V173.79ZM296.814 173.841C296.924 173.841 297.032 173.834 297.138 173.822C297.243 173.809 297.349 173.794 297.455 173.777V172.838C297.354 172.846 297.267 172.853 297.195 172.857C297.127 172.861 297.045 172.863 296.947 172.863C296.592 172.863 296.338 172.777 296.186 172.603C296.033 172.425 295.957 172.135 295.957 171.733V167.861H297.455V166.947H295.957V165.176H294.814V166.947H293.735V167.861H294.814V172.013C294.814 172.664 294.971 173.132 295.284 173.416C295.602 173.699 296.111 173.841 296.814 173.841ZM301.81 173.911C302.212 173.911 302.573 173.86 302.895 173.758C303.221 173.653 303.502 173.513 303.739 173.339C303.976 173.162 304.169 172.965 304.317 172.749C304.469 172.529 304.575 172.303 304.634 172.07L304.647 172.019H303.542L303.517 172.076C303.458 172.212 303.354 172.345 303.206 172.476C303.058 172.607 302.87 172.715 302.641 172.8C302.413 172.884 302.144 172.927 301.835 172.927C301.42 172.927 301.061 172.836 300.756 172.654C300.451 172.468 300.216 172.203 300.051 171.86C299.886 171.513 299.804 171.097 299.804 170.61V170.172C299.804 169.66 299.888 169.228 300.058 168.877C300.227 168.526 300.455 168.261 300.743 168.083C301.035 167.902 301.365 167.811 301.733 167.811C302.102 167.811 302.427 167.897 302.711 168.071C302.994 168.24 303.217 168.498 303.377 168.845C303.538 169.192 303.619 169.634 303.619 170.172V170.61L304.165 169.804H299.245V170.686H304.729V170.254C304.729 169.573 304.609 168.976 304.368 168.464C304.131 167.948 303.788 167.546 303.339 167.258C302.895 166.971 302.362 166.827 301.74 166.827C301.122 166.827 300.582 166.977 300.121 167.277C299.66 167.578 299.302 167.995 299.048 168.528C298.799 169.061 298.674 169.681 298.674 170.388V170.394C298.674 171.109 298.799 171.731 299.048 172.26C299.302 172.785 299.662 173.191 300.127 173.479C300.597 173.767 301.158 173.911 301.81 173.911ZM306.443 173.79H307.548V169.55C307.548 169.228 307.616 168.936 307.751 168.674C307.891 168.407 308.079 168.196 308.316 168.039C308.557 167.882 308.826 167.804 309.122 167.804C309.41 167.804 309.66 167.859 309.871 167.969C310.087 168.079 310.252 168.236 310.366 168.439C310.485 168.638 310.544 168.873 310.544 169.144V173.79H311.648V169.391C311.648 169.099 311.714 168.835 311.845 168.598C311.976 168.356 312.16 168.164 312.397 168.02C312.634 167.876 312.912 167.804 313.229 167.804C313.551 167.804 313.817 167.861 314.029 167.976C314.24 168.086 314.397 168.253 314.499 168.477C314.604 168.697 314.657 168.976 314.657 169.315V173.79H315.762V169.061C315.762 168.583 315.677 168.179 315.508 167.849C315.339 167.514 315.091 167.26 314.765 167.087C314.444 166.913 314.05 166.827 313.584 166.827C313.271 166.827 312.977 166.877 312.702 166.979C312.431 167.076 312.192 167.216 311.985 167.398C311.778 167.576 311.612 167.785 311.49 168.026H311.388C311.282 167.789 311.141 167.582 310.963 167.404C310.785 167.222 310.574 167.081 310.328 166.979C310.083 166.877 309.806 166.827 309.497 166.827C309.048 166.827 308.665 166.928 308.348 167.131C308.035 167.334 307.802 167.62 307.649 167.988H307.548V166.947H306.443V173.79ZM320.104 173.911C320.624 173.911 321.09 173.824 321.5 173.65C321.915 173.477 322.243 173.236 322.484 172.927C322.725 172.614 322.846 172.254 322.846 171.848V171.835C322.846 171.344 322.687 170.953 322.37 170.661C322.056 170.369 321.578 170.144 320.935 169.988L319.881 169.734C319.615 169.666 319.397 169.588 319.228 169.499C319.058 169.41 318.933 169.306 318.853 169.188C318.773 169.069 318.732 168.934 318.732 168.782V168.769C318.732 168.566 318.794 168.388 318.917 168.236C319.039 168.083 319.206 167.965 319.418 167.88C319.63 167.792 319.871 167.747 320.142 167.747C320.556 167.747 320.893 167.832 321.151 168.001C321.409 168.17 321.574 168.39 321.646 168.661H322.731C322.681 168.289 322.541 167.965 322.312 167.69C322.088 167.415 321.79 167.203 321.417 167.055C321.049 166.903 320.626 166.827 320.148 166.827C319.666 166.827 319.232 166.913 318.847 167.087C318.462 167.26 318.157 167.497 317.933 167.798C317.713 168.098 317.603 168.439 317.603 168.82V168.826C317.603 169.152 317.668 169.436 317.799 169.677C317.931 169.914 318.134 170.115 318.409 170.28C318.684 170.441 319.035 170.572 319.462 170.673L320.522 170.927C320.946 171.029 321.25 171.162 321.437 171.327C321.623 171.488 321.716 171.685 321.716 171.917V171.93C321.716 172.138 321.648 172.322 321.513 172.482C321.377 172.639 321.191 172.764 320.954 172.857C320.721 172.946 320.451 172.99 320.142 172.99C319.706 172.99 319.352 172.903 319.082 172.73C318.811 172.556 318.629 172.328 318.536 172.044H317.406C317.448 172.421 317.586 172.749 317.818 173.028C318.055 173.308 318.368 173.526 318.758 173.682C319.147 173.834 319.596 173.911 320.104 173.911Z" fill="#72726F"/>
<path d="M273.46 145.16C274.95 147.1 276.46 148.97 278.06 150.95C278.66 151.69 279.26 152.44 279.87 153.19L279.91 153.24L279.95 153.19C280.62 152.35 281.28 151.52 281.95 150.69C283.68 148.53 285.47 146.3 287.17 144.07C288.19 142.73 289.03 141.38 289.65 140.06C291.37 136.41 290.49 132.21 287.41 129.36C285.41 127.51 282.76 126.49 279.94 126.49C278.53 126.49 277.14 126.75 275.81 127.25C273.01 128.32 270.92 130.35 269.93 132.97C268.98 135.48 269.18 138.22 270.48 140.7C271.33 142.31 272.47 143.84 273.47 145.14L273.46 145.16ZM278.28 150.12C277.18 148.77 276.04 147.38 274.96 145.99C273.84 144.55 272.66 143.02 271.63 141.39C268.95 137.19 269.64 132.48 273.4 129.41C275.19 127.94 277.5 127.14 279.89 127.14C281.98 127.14 283.98 127.74 285.67 128.88C289.47 131.43 290.78 135.88 288.93 139.96C288.11 141.77 286.91 143.34 285.54 145.07C284.26 146.68 282.95 148.31 281.68 149.88L280.19 151.73C280.19 151.73 280.11 151.82 280.05 151.87L279.85 152.07L279.75 151.94C279.27 151.35 278.79 150.76 278.31 150.17L278.28 150.13V150.12Z" fill="#72726F"/>
<path d="M285.78 149.02C285.48 148.94 285.26 148.88 285.12 148.88C284.95 148.88 284.86 148.97 284.62 149.31L284.58 149.37L284.65 149.39C284.76 149.42 284.88 149.45 284.99 149.49L285.07 149.51C285.56 149.65 286.08 149.79 286.57 149.96C287.36 150.22 288.35 150.62 289.11 151.39C289.5 151.78 289.69 152.19 289.68 152.6C289.68 152.99 289.48 153.36 289.12 153.7C288.67 154.11 288.13 154.48 287.56 154.75C285.76 155.59 283.72 156.02 280.94 156.14C280.49 156.16 280.05 156.17 279.64 156.17C277.07 156.17 274.84 155.81 272.83 155.07C272.18 154.83 271.54 154.51 271 154.14C270.3 153.67 269.93 153.12 269.93 152.56C269.93 151.99 270.31 151.44 271.02 150.95C271.53 150.61 272.04 150.34 272.56 150.15C273.2 149.91 273.87 149.71 274.52 149.52L274.62 149.49C274.78 149.44 274.95 149.39 275.11 149.34L275.17 149.32L275.13 149.26C274.92 148.93 274.83 148.84 274.66 148.84C274.53 148.84 274.33 148.89 274.02 148.98L273.85 149.03C273.26 149.2 272.65 149.37 272.11 149.63C271.46 149.94 270.72 150.33 270.11 150.84C269.5 151.36 269.18 151.96 269.18 152.58C269.18 153.19 269.5 153.77 270.1 154.25C270.86 154.87 271.75 155.37 272.62 155.68C274.83 156.45 277.18 156.84 279.61 156.84C281.24 156.84 282.94 156.67 284.68 156.32C285.82 156.09 286.94 155.65 288.02 155.22L288.21 155.14C288.74 154.93 289.2 154.54 289.55 154.22C290.1 153.71 290.39 153.14 290.4 152.56C290.4 151.98 290.11 151.39 289.56 150.87C288.5 149.87 287.11 149.39 285.78 149.02Z" fill="#72726F"/>
<path d="M279.82 142.03H279.92C281.68 142.03 283.3 141.37 284.47 140.18C285.54 139.09 286.12 137.68 286.1 136.22C286.05 133.11 283.28 130.57 279.92 130.57H279.86C278.09 130.59 276.46 131.26 275.29 132.46C274.24 133.53 273.67 134.93 273.69 136.39C273.73 139.5 276.48 142.03 279.82 142.03ZM279.89 131.21C281.36 131.21 282.74 131.75 283.78 132.71C284.82 133.68 285.39 134.96 285.39 136.33C285.39 139.12 282.92 141.4 279.89 141.4C278.36 141.4 276.88 140.8 275.85 139.75C274.91 138.8 274.39 137.57 274.4 136.27C274.41 133.48 276.87 131.21 279.88 131.21H279.89Z" fill="#72726F"/>
<path d="M102.21 132.29C115.189 132.29 125.71 121.769 125.71 108.79C125.71 95.8113 115.189 85.29 102.21 85.29C89.2313 85.29 78.71 95.8113 78.71 108.79C78.71 121.769 89.2313 132.29 102.21 132.29Z" fill="#F6F6F6"/>
<path d="M279.84 51.82C292.819 51.82 303.34 41.2987 303.34 28.32C303.34 15.3413 292.819 4.82001 279.84 4.82001C266.861 4.82001 256.34 15.3413 256.34 28.32C256.34 41.2987 266.861 51.82 279.84 51.82Z" fill="#F6F6F6"/>
<path d="M102.21 121.79C109.39 121.79 115.21 115.97 115.21 108.79C115.21 101.61 109.39 95.79 102.21 95.79C95.0303 95.79 89.21 101.61 89.21 108.79C89.21 115.97 95.0303 121.79 102.21 121.79Z" fill="#17CA89"/>
<path d="M279.84 41.32C287.02 41.32 292.84 35.4997 292.84 28.32C292.84 21.1403 287.02 15.32 279.84 15.32C272.66 15.32 266.84 21.1403 266.84 28.32C266.84 35.4997 272.66 41.32 279.84 41.32Z" fill="#17CA89"/>
<path d="M100.25 210.07C100.19 210.01 100.13 209.92 100.07 209.78C98.99 207.37 97.72 205.13 96.28 203.13C95.79 202.44 95.25 201.78 94.72 201.14C94.36 200.7 94 200.26 93.66 199.82C92.99 198.95 92.49 198.24 92.06 197.57C91.59 196.83 91.42 196.12 91.54 195.4C91.7 194.46 92.65 193.7 93.66 193.7C94.37 193.7 94.93 193.94 95.48 194.46C96.27 195.22 97.11 195.97 97.91 196.69C98.23 196.97 98.55 197.26 98.86 197.55C98.9 197.59 98.94 197.61 99 197.63C99.03 197.64 99.06 197.66 99.1 197.68L99.39 197.82V186.45C99.39 185.64 99.39 184.83 99.39 184.02C99.39 182.6 100.37 181.57 101.71 181.58C102.33 181.58 102.88 181.8 103.3 182.22C103.75 182.67 104 183.32 104.01 184.05C104.01 185.06 104.01 186.08 104.01 187.12V188.82L104.28 188.72C105.52 188.24 106.47 188.35 107.18 189.07C107.43 189.32 107.65 189.64 107.84 190.04L107.93 190.23L108.11 190.13C108.93 189.69 109.63 189.61 110.32 189.88C110.62 190 110.88 190.17 111.1 190.39C111.38 190.67 111.6 191.05 111.75 191.51L111.8 191.68L111.97 191.65C112.14 191.62 112.3 191.58 112.46 191.54C112.78 191.47 113.08 191.39 113.38 191.39C114.03 191.39 114.61 191.61 115.03 192.03C115.45 192.45 115.7 193.08 115.7 193.76C115.7 194.24 115.69 194.71 115.68 195.19C115.66 196.11 115.64 197.06 115.7 197.99C115.93 201.57 114.9 205.06 114 208.13C113.91 208.44 113.81 208.76 113.71 209.07C113.63 209.34 113.54 209.61 113.46 209.88C113.39 210.13 113.25 210.22 112.99 210.22C108.86 210.22 104.73 210.22 100.6 210.22C100.45 210.22 100.35 210.18 100.27 210.1L100.25 210.07ZM102.79 182.73C102.5 182.44 102.09 182.28 101.66 182.29C100.76 182.31 100.12 183.03 100.12 184.03C100.12 185.7 100.12 187.37 100.12 189.04V193.65C100.12 195.37 100.12 197.08 100.12 198.8C100.12 199.13 100.09 199.29 99.89 199.38C99.69 199.47 99.56 199.38 99.32 199.14C98.89 198.73 98.46 198.31 98.02 197.9L96.83 196.77C96.16 196.13 95.5 195.5 94.82 194.87C94.27 194.36 93.51 194.28 92.88 194.67C92.27 195.05 92.07 195.68 92.33 196.44C92.48 196.87 92.68 197.28 92.91 197.61C93.45 198.38 93.99 199.15 94.6 199.85C96.88 202.45 98.83 205.48 100.41 208.86C100.49 209.03 100.57 209.15 100.66 209.24C100.83 209.41 101.04 209.49 101.33 209.49C104.77 209.48 108.39 209.48 112.1 209.49C112.61 209.49 112.89 209.28 113.02 208.79C113.16 208.26 113.31 207.74 113.47 207.22C113.74 206.31 114.01 205.36 114.23 204.42C114.53 203.11 114.83 201.71 114.91 200.33C115 198.85 114.97 197.35 114.95 195.9C114.95 195.4 114.94 194.9 114.93 194.4C114.93 193.93 114.93 193.48 114.79 193.06C114.72 192.85 114.61 192.67 114.46 192.53C114.13 192.2 113.63 192.05 113.13 192.13C112.38 192.25 111.85 192.84 111.81 193.6C111.78 194.09 111.78 194.58 111.78 195.06V195.45C111.78 195.71 111.78 195.96 111.78 196.22C111.78 196.55 111.78 196.87 111.78 197.2C111.78 197.59 111.52 197.6 111.44 197.6C111.32 197.6 111.23 197.57 111.17 197.51C111.09 197.43 111.06 197.29 111.06 197.18C111.06 197.11 111.06 197.04 111.06 196.97V195.55C111.06 194.42 111.06 193.29 111.06 192.16C111.06 191.65 110.9 191.23 110.59 190.93C110.49 190.83 110.38 190.75 110.25 190.67C109.78 190.4 109.21 190.4 108.73 190.67C108.21 190.97 107.89 191.52 107.88 192.14C107.88 192.91 107.88 193.68 107.88 194.45V195.66C107.88 195.77 107.88 195.87 107.88 195.98C107.85 196.2 107.75 196.3 107.54 196.3C107.43 196.3 107.35 196.27 107.29 196.22C107.24 196.17 107.2 196.09 107.19 195.98C107.18 195.9 107.19 195.82 107.19 195.74V190.95C107.19 190.87 107.19 190.79 107.19 190.71C107.16 190.29 106.98 189.91 106.71 189.63C106.41 189.33 106.02 189.17 105.59 189.18C104.71 189.19 104.03 189.89 104.02 190.8C104.02 191.6 104.02 192.4 104.02 193.2C104.02 193.63 104.02 194.05 104.02 194.48C104.02 194.83 103.9 195.01 103.67 195.02C103.57 195.02 103.49 195 103.44 194.94C103.36 194.86 103.31 194.71 103.31 194.51C103.31 193.99 103.31 193.47 103.31 192.95C103.31 192.51 103.31 192.08 103.31 191.64V190.47C103.31 188.33 103.31 186.19 103.29 184.05C103.29 183.54 103.11 183.09 102.8 182.78L102.79 182.73Z" fill="#72726F"/>
<path d="M105.94 180.46C105.82 180.34 105.8 180.18 105.88 180.03C105.92 179.95 106 179.88 106.07 179.8L109.92 175.95C109.92 175.95 110 175.86 110.05 175.83C110.32 175.62 110.49 175.73 110.59 175.83C110.65 175.89 110.84 176.08 110.59 176.36C110.41 176.55 110.22 176.74 110.03 176.93L109.8 177.15L109.06 177.89C108.25 178.7 107.44 179.51 106.63 180.32C106.53 180.41 106.41 180.49 106.31 180.56C106.29 180.57 106.27 180.59 106.25 180.6C106.12 180.6 106.01 180.55 105.93 180.47L105.94 180.46Z" fill="#72726F"/>
<path d="M96.2299 179.86C96.1099 179.74 95.9899 179.62 95.8699 179.49C95.7499 179.37 95.6299 179.24 95.5099 179.12L94.4999 178.11C93.9599 177.57 93.4199 177.03 92.8799 176.48C92.4899 176.08 92.6699 175.89 92.7399 175.82C92.8099 175.75 92.8899 175.71 92.9699 175.71C93.1099 175.71 93.2699 175.8 93.4299 175.96L95.2399 177.76C95.9199 178.44 96.5899 179.12 97.2699 179.8C97.3399 179.88 97.4099 179.98 97.4799 180.1C97.4999 180.13 97.5199 180.17 97.5399 180.2C97.5199 180.23 97.4999 180.26 97.4799 180.29C97.4399 180.36 97.3599 180.47 97.3299 180.48C97.1599 180.52 96.9199 180.48 96.8199 180.39C96.6399 180.24 96.4599 180.07 96.2399 179.85L96.2299 179.86Z" fill="#72726F"/>
<path d="M91.0399 185.02C90.9799 184.96 90.9499 184.87 90.9399 184.75C90.9399 184.65 90.9599 184.57 91.0099 184.51C91.0899 184.42 91.2399 184.38 91.4199 184.38C92.6599 184.38 93.8999 184.38 95.1299 184.38C95.3099 184.38 95.4499 184.43 95.5399 184.51C95.5999 184.57 95.6299 184.66 95.6299 184.76C95.6299 185.06 95.3499 185.13 95.1099 185.13C94.6599 185.13 94.1999 185.13 93.7499 185.13H91.3999C91.2299 185.13 91.0999 185.09 91.0299 185.02H91.0399Z" fill="#72726F"/>
<path d="M101.4 178.75C101.33 178.68 101.29 178.55 101.29 178.38V177.97C101.29 176.85 101.29 175.74 101.29 174.62C101.29 174.44 101.34 174.29 101.42 174.21C101.48 174.15 101.56 174.13 101.67 174.13C101.79 174.13 101.88 174.17 101.94 174.23C102.01 174.3 102.05 174.43 102.05 174.6V177.06C102.05 177.49 102.05 177.92 102.05 178.36C102.05 178.55 102 178.69 101.92 178.77C101.86 178.83 101.78 178.85 101.68 178.84C101.56 178.84 101.47 178.8 101.41 178.74L101.4 178.75Z" fill="#72726F"/>
<path d="M107.8 185C107.74 184.94 107.71 184.86 107.71 184.75C107.71 184.65 107.71 184.37 108.21 184.37C108.63 184.37 109.06 184.37 109.48 184.37H110.58C111.03 184.37 111.48 184.37 111.92 184.37C112.1 184.37 112.25 184.42 112.33 184.51C112.39 184.57 112.42 184.65 112.41 184.74C112.39 184.93 112.32 185.12 111.93 185.12C111.4 185.12 110.88 185.12 110.35 185.12C109.64 185.12 108.93 185.12 108.22 185.12C108.03 185.12 107.88 185.08 107.8 184.99V185Z" fill="#72726F"/>
<path d="M102.532 103.683V112.41H101.475V104.791H101.424L99.2929 106.205V105.132L101.475 103.683H102.532Z" fill="white"/>
<path d="M276.423 32.99V32.2229L279.304 29.0695C279.642 28.7002 279.92 28.3792 280.139 28.1065C280.358 27.8309 280.52 27.5724 280.625 27.3309C280.733 27.0866 280.787 26.8309 280.787 26.5639C280.787 26.257 280.713 25.9914 280.565 25.767C280.42 25.5425 280.222 25.3693 279.969 25.2471C279.716 25.1249 279.432 25.0639 279.116 25.0639C278.781 25.0639 278.489 25.1335 278.239 25.2727C277.991 25.409 277.8 25.6008 277.663 25.8479C277.53 26.0951 277.463 26.3849 277.463 26.7173H276.457C276.457 26.2059 276.575 25.757 276.811 25.3707C277.047 24.9843 277.368 24.6832 277.774 24.4673C278.183 24.2514 278.642 24.1434 279.151 24.1434C279.662 24.1434 280.115 24.2514 280.51 24.4673C280.905 24.6832 281.214 24.9744 281.439 25.3408C281.663 25.7073 281.776 26.115 281.776 26.5639C281.776 26.8849 281.717 27.1988 281.601 27.5056C281.487 27.8096 281.288 28.1491 281.004 28.5241C280.723 28.8962 280.332 29.3508 279.832 29.8877L277.872 31.9843V32.0525H281.929V32.99H276.423Z" fill="white"/>
</svg>
